<?xml version="1.0" standalone="no"?>
<!DOCTYPE svg PUBLIC "-//W3C//DTD SVG 20010904//EN"
 "http://www.w3.org/TR/2001/REC-SVG-20010904/DTD/svg10.dtd">
<svg version="1.0" xmlns="http://www.w3.org/2000/svg"
 width="700.000000pt" height="700.000000pt" viewBox="0 0 700.000000 700.000000"
 preserveAspectRatio="xMidYMid meet">
<metadata>
Created by potrace 1.14, written by Peter Selinger 2001-2017
</metadata>
<g transform="translate(0.000000,700.000000) scale(0.100000,-0.100000)"
fill="#000000" stroke="none">
<path d="M3517 6828 c-2 -7 -5 -58 -6 -113 -1 -55 -4 -136 -7 -180 -6 -80 -6
-81 20 -93 59 -27 63 -20 65 102 2 116 7 124 54 85 l37 -30 40 22 c39 22 40
22 55 3 19 -25 20 -49 12 -193 -1 -21 3 -36 11 -39 22 -7 98 81 105 120 8 53
-33 208 -75 276 -27 44 -36 42 -77 -19 -46 -68 -53 -67 -131 6 -68 64 -93 77
-103 53z"/>
<path d="M4122 6767 c-42 -13 -117 -96 -126 -138 -20 -101 8 -189 74 -233 116
-76 253 8 285 174 5 26 -30 118 -56 146 -49 53 -114 71 -177 51z m106 -63 c62
-43 62 -134 -1 -201 -37 -40 -121 -20 -146 34 -15 32 -13 93 3 121 29 54 100
77 144 46z"/>
<path d="M2785 6725 c-68 -16 -95 -29 -127 -56 -42 -37 -45 -71 -10 -110 l29
-33 91 2 c86 3 92 2 107 -21 30 -47 -9 -77 -100 -77 -54 0 -55 -1 -76 -41 -18
-36 -19 -43 -6 -56 36 -36 144 -32 222 9 79 42 114 122 81 186 -30 58 -61 65
-231 48 -11 -1 -32 2 -47 7 -90 29 32 108 144 93 52 -7 64 7 31 36 -27 23 -53
26 -108 13z"/>
<path d="M4472 6643 c-23 -56 -89 -239 -108 -300 -11 -37 -11 -43 5 -57 10 -9
22 -16 27 -16 5 0 27 55 49 122 22 67 46 124 54 126 15 5 117 -100 127 -130 3
-11 -1 -34 -9 -51 -34 -74 -28 -116 19 -131 18 -6 25 1 44 40 12 26 33 79 47
118 14 39 41 101 59 138 30 61 32 68 18 82 -8 9 -24 17 -35 17 -76 5 -72 7
-85 -45 -7 -27 -17 -53 -23 -59 -17 -17 -67 37 -113 121 -22 39 -43 72 -48 72
-4 0 -17 -21 -28 -47z"/>
<path d="M3149 6660 c-57 -7 -79 -24 -79 -61 0 -16 2 -29 5 -29 2 0 27 5 54
11 28 6 95 11 149 12 108 2 132 12 132 54 l0 24 -107 -3 c-60 -1 -129 -5 -154
-8z"/>
<path d="M2239 6511 c-22 -21 -39 -43 -39 -49 0 -6 14 -20 30 -32 37 -26 38
-54 9 -144 -20 -62 -21 -66 -5 -114 19 -56 38 -77 79 -87 33 -9 33 -2 7 66
-11 28 -18 59 -15 69 7 21 109 72 138 68 12 -2 29 -19 42 -43 23 -45 40 -48
102 -18 47 22 51 39 16 71 -221 205 -279 252 -311 252 -8 0 -32 -17 -53 -39z
m149 -144 c27 -25 18 -37 -40 -62 -36 -14 -38 -14 -48 5 -11 21 -6 55 13 78
12 16 44 7 75 -21z"/>
<path d="M4910 6473 c-27 -24 -32 -34 -26 -56 6 -26 90 -117 107 -117 5 0 16
-14 25 -31 12 -25 14 -37 5 -55 -18 -40 -78 -25 -130 30 -32 34 -74 34 -107 1
-24 -24 -24 -26 -8 -53 33 -58 170 -125 234 -116 67 10 107 48 117 109 5 32 1
40 -43 83 -27 26 -67 63 -90 82 -48 42 -58 64 -39 84 27 27 86 5 172 -63 47
-36 63 -42 63 -19 0 14 -74 90 -112 114 -20 13 -58 26 -86 30 -45 6 -52 4 -82
-23z"/>
<path d="M1970 6382 c-42 -6 -44 -18 -11 -68 33 -51 46 -89 57 -169 8 -69 -7
-82 -64 -52 -44 22 -138 106 -158 142 -14 23 -36 15 -66 -26 -24 -32 -18 -47
34 -84 79 -56 296 -175 320 -175 8 0 4 92 -7 170 -25 180 -45 255 -68 262 -7
2 -23 2 -37 0z"/>
<path d="M5520 6120 c0 -6 7 -21 15 -34 14 -22 12 -25 -73 -107 -48 -47 -100
-94 -117 -104 -40 -26 -46 -35 -33 -59 41 -76 190 -120 278 -82 72 30 140 114
140 171 0 55 -66 146 -145 200 -40 26 -65 32 -65 15z m117 -132 c46 -52 37
-89 -39 -148 -48 -38 -56 -42 -96 -37 -26 3 -53 13 -65 26 l-21 20 65 64 c67
67 106 97 124 97 7 0 21 -10 32 -22z"/>
<path d="M3209 6116 c-2 -2 -33 -6 -69 -10 -209 -20 -336 -54 -530 -139 -129
-57 -195 -96 -290 -172 -36 -28 -96 -70 -135 -93 -72 -42 -79 -48 -199 -155
-38 -34 -81 -72 -95 -85 -14 -13 -61 -50 -103 -83 -148 -114 -184 -163 -277
-374 -21 -49 -59 -133 -84 -185 -76 -162 -117 -279 -208 -585 -17 -60 -57
-175 -87 -255 -52 -137 -55 -151 -57 -245 -2 -73 2 -115 15 -155 18 -58 25
-110 45 -345 21 -245 41 -377 75 -500 32 -112 84 -229 180 -400 15 -27 39 -70
52 -95 14 -25 36 -63 48 -85 55 -95 160 -286 160 -291 0 -3 19 -37 42 -76 93
-157 332 -349 585 -472 89 -43 164 -68 314 -106 68 -17 158 -42 200 -56 103
-34 113 -36 198 -39 195 -6 342 99 424 303 33 83 32 109 -5 145 -64 64 -377
178 -553 202 -310 43 -487 125 -678 311 -343 337 -566 821 -622 1349 -4 33 -8
71 -11 85 -2 14 -6 56 -10 95 -3 38 -9 88 -13 110 -13 73 -1 146 42 255 48
122 370 767 442 885 105 173 233 315 364 404 34 23 61 46 61 51 0 20 105 121
167 161 38 24 93 62 124 86 l57 43 25 -20 c34 -27 69 -25 136 6 224 104 219
104 721 107 l306 3 38 29 c43 33 38 35 88 -48 22 -37 36 -49 85 -67 75 -29
264 -76 339 -85 80 -9 117 -26 150 -71 50 -67 98 -108 164 -143 137 -71 330
-210 330 -237 0 -6 -8 -22 -19 -35 -35 -46 -6 -120 117 -288 142 -194 182
-258 182 -289 0 -21 13 -43 44 -78 58 -63 95 -139 102 -211 5 -47 1 -70 -19
-124 l-25 -67 28 -58 c16 -33 32 -81 36 -109 3 -27 8 -59 10 -70 2 -11 7 -45
10 -75 3 -30 7 -57 9 -60 2 -3 6 -27 10 -55 3 -27 10 -68 14 -90 6 -33 2 -50
-20 -95 -16 -31 -58 -148 -95 -260 -73 -224 -115 -317 -164 -368 -44 -44 -67
-42 -76 6 -4 20 -9 41 -11 45 -9 16 -31 -14 -47 -66 -22 -67 -30 -78 -94 -112
-96 -52 -218 -206 -301 -380 -24 -50 -54 -113 -68 -142 -13 -28 -41 -68 -61
-88 -34 -35 -162 -125 -177 -125 -4 0 -19 -8 -33 -19 -54 -37 -147 -56 -329
-64 -26 -1 -12 -17 35 -39 68 -33 65 -49 -15 -77 -109 -37 -225 -81 -262 -98
l-34 -15 24 -19 c13 -9 20 -21 16 -26 -5 -4 -54 -26 -110 -48 -80 -31 -103
-45 -105 -61 -6 -40 20 -47 79 -19 30 14 70 25 89 25 50 0 260 -104 260 -128
0 -4 -52 -21 -115 -36 -64 -16 -118 -32 -120 -37 -3 -4 21 -13 52 -19 32 -6
86 -22 120 -35 86 -34 130 -39 199 -25 129 27 310 97 409 159 65 41 411 313
445 351 15 16 100 80 106 80 5 0 25 -17 46 -37 21 -20 40 -34 44 -31 3 4 19
53 36 110 46 159 56 173 325 446 215 218 214 217 217 334 3 89 8 119 25 163 5
11 17 40 27 65 9 25 26 64 36 88 68 156 98 444 74 722 -18 219 -21 227 -90
262 l-53 27 -36 -25 c-38 -25 -48 -29 -45 -16 1 7 -9 113 -17 182 -3 19 -8 65
-11 103 -9 86 5 88 66 9 55 -71 61 -56 25 65 -66 220 -82 251 -200 387 -51 60
-140 180 -220 298 -25 38 -67 117 -94 176 -58 131 -93 184 -161 243 -76 65
-210 159 -226 159 -10 0 -14 -13 -14 -46 l0 -46 -31 6 c-29 5 -88 42 -210 129
-27 20 -90 47 -153 67 -86 27 -112 40 -128 62 -11 17 -56 47 -106 71 -47 24
-88 49 -90 57 -4 10 1 11 19 6 83 -25 143 -14 151 29 4 23 -47 54 -202 119
-111 47 -125 51 -235 61 -100 8 -113 12 -275 71 -81 29 -160 56 -176 60 -29 7
-359 16 -365 10z m494 -117 c48 -13 58 -36 26 -60 -29 -22 -57 -28 -85 -16
-24 10 -58 63 -49 77 8 13 60 13 108 -1z m1517 -967 c17 -13 21 -24 16 -40 -8
-24 -34 -30 -40 -9 -21 67 -15 80 24 49z m470 -1112 c38 -114 40 -129 19 -140
-16 -9 -21 -5 -32 23 -15 35 -37 147 -37 187 0 40 25 5 50 -70z m-4294 -552
c63 -71 69 -114 23 -153 -41 -34 -60 -29 -83 20 -47 100 -1 202 60 133z m-143
-149 c-17 -62 -16 -66 57 -199 35 -66 38 -105 8 -137 -34 -36 -54 -30 -72 25
-26 77 -56 203 -63 259 -6 52 -5 54 33 88 21 19 41 32 45 28 4 -5 1 -33 -8
-64z"/>
<path d="M1538 6047 c-80 -26 -203 -147 -210 -207 -3 -21 3 -25 50 -36 43 -10
62 -22 105 -66 64 -66 134 -123 150 -123 20 0 20 42 0 57 -26 18 -63 68 -63
83 0 7 10 19 23 27 20 14 28 13 77 -3 64 -21 124 -24 169 -8 43 15 26 34 -42
49 -87 18 -117 50 -132 138 -7 46 -38 87 -70 95 -11 3 -37 0 -57 -6z m41 -123
c23 -19 30 -32 27 -50 -5 -24 -51 -74 -68 -74 -17 0 -78 67 -78 86 0 26 40 64
66 64 12 0 36 -12 53 -26z"/>
<path d="M5778 5755 c-108 -39 -183 -153 -158 -244 14 -53 41 -85 95 -110 54
-25 95 -26 154 -2 90 37 147 119 138 202 -13 120 -120 192 -229 154z m140 -78
c31 -29 42 -75 26 -109 -22 -43 -84 -88 -122 -88 -104 0 -142 121 -59 184 66
50 111 54 155 13z"/>
<path d="M1101 5628 c-56 -68 -101 -125 -101 -128 1 -11 27 -37 75 -75 76 -61
93 -76 154 -132 61 -56 62 -56 119 -3 95 87 165 191 155 229 -5 21 -53 51 -82
51 -14 0 -25 -9 -32 -27 -33 -88 -102 -173 -141 -173 -22 0 -58 35 -58 57 0 7
-7 13 -15 13 -25 0 -73 29 -85 50 -14 27 -4 43 75 120 36 36 68 75 72 88 5 22
-11 52 -28 52 -4 0 -53 -55 -108 -122z"/>
<path d="M3585 5402 c-54 -5 -75 -12 -75 -26 0 -7 20 -57 45 -112 24 -55 40
-103 36 -107 -5 -5 -159 -10 -343 -12 -184 -1 -345 -6 -356 -10 -27 -8 -27
-19 -1 -88 23 -59 78 -133 135 -178 35 -28 37 -28 147 -24 120 4 375 8 420 6
16 -1 27 -7 27 -15 0 -10 -20 -16 -67 -21 -38 -4 -81 -9 -98 -11 -91 -12 -201
-17 -375 -17 -191 0 -197 1 -291 32 -53 17 -101 31 -108 31 -24 0 -9 -64 42
-181 9 -20 31 -49 49 -64 44 -37 153 -89 244 -116 89 -26 92 -32 88 -178 -2
-59 3 -139 11 -185 8 -45 15 -93 15 -108 0 -51 -43 -27 -68 37 -18 44 -22 70
-27 170 -3 50 -8 99 -11 110 -11 34 -53 84 -87 102 -53 27 -142 51 -182 47
-48 -4 -99 -34 -103 -60 -2 -12 13 -52 32 -90 63 -127 105 -346 74 -388 -17
-22 -63 -23 -184 -5 -101 15 -114 11 -108 -33 18 -128 46 -191 111 -248 83
-73 193 -94 317 -60 36 10 79 17 96 15 39 -5 90 -41 90 -63 0 -21 -19 -27
-404 -147 -194 -60 -187 -56 -175 -102 27 -101 58 -161 97 -189 9 -6 40 -15
67 -18 63 -9 125 -25 125 -33 0 -13 -119 -167 -411 -528 -79 -98 -114 -154
-103 -164 12 -11 102 18 185 59 61 31 201 126 244 167 40 38 96 76 102 70 5
-5 -12 -110 -32 -197 -3 -14 -15 -79 -27 -145 -24 -138 -18 -210 26 -302 79
-162 249 -176 333 -27 39 68 45 122 59 519 3 99 8 183 10 187 3 4 17 -1 32
-11 15 -11 45 -25 67 -31 58 -15 70 -28 85 -90 16 -69 25 -86 55 -106 48 -31
87 -28 141 10 136 97 138 98 151 80 8 -12 12 -88 11 -278 -1 -371 8 -432 75
-499 36 -36 43 -39 83 -34 56 6 102 41 136 104 36 65 40 101 43 412 1 146 5
276 9 287 5 17 43 44 61 44 10 0 48 -49 76 -98 56 -100 104 -92 185 30 84 124
180 394 191 534 7 84 -8 138 -58 211 -18 26 -36 50 -39 53 -4 3 -9 13 -13 23
-9 23 7 22 87 -8 37 -14 75 -25 85 -25 47 0 106 82 117 164 8 53 -11 116 -72
238 -77 156 -141 242 -295 399 -99 100 -147 141 -159 134 -8 -5 41 -163 70
-230 14 -33 47 -127 63 -182 15 -51 15 -53 -4 -64 -32 -17 -117 30 -182 100
-67 73 -207 313 -207 355 0 8 26 30 57 49 110 64 110 116 -3 205 l-28 22 42 0
c100 0 188 77 224 195 56 181 3 327 -189 521 -108 109 -175 161 -226 175 -40
11 -198 18 -262 11z m35 -892 c0 -15 -9 -35 -19 -44 -23 -21 -190 -78 -208
-72 -23 9 -9 120 18 136 6 4 55 7 110 7 l99 -1 0 -26z m69 -297 c17 -31 -6
-49 -128 -102 -139 -59 -168 -63 -177 -24 -6 22 -2 31 22 50 16 12 36 23 45
23 9 0 19 3 23 7 9 10 165 61 188 62 9 1 21 -7 27 -16z m129 -312 c20 -11 53
-33 72 -49 28 -25 33 -33 22 -43 -10 -11 -28 -9 -100 10 -149 41 -136 43 -128
-25 3 -33 8 -70 11 -84 2 -14 6 -47 10 -75 3 -27 8 -57 10 -65 3 -8 7 -48 9
-87 l5 -73 -32 -8 c-50 -13 -155 4 -196 32 -20 13 -53 29 -75 35 -37 10 -40 9
-79 -30 -34 -33 -42 -37 -49 -24 -12 20 -5 31 75 115 37 39 67 77 67 84 0 8
-12 40 -26 71 -24 56 -25 59 -7 76 29 28 222 121 313 149 40 13 58 11 98 -9z
m291 -286 c37 -24 75 -53 85 -64 17 -18 16 -20 -16 -44 -60 -45 -130 -78 -143
-67 -15 12 -14 220 0 220 3 0 36 -20 74 -45z m-798 -417 c6 -76 3 -152 -7
-166 -11 -15 -18 -11 -63 37 -28 29 -51 59 -51 66 0 15 26 39 65 59 36 19 55
20 56 4z m389 -73 c0 -18 -21 -32 -55 -38 -16 -3 -46 -8 -65 -11 -29 -6 -37
-3 -48 14 -19 32 0 48 61 52 70 4 107 -2 107 -17z m470 -5 c14 -26 4 -30 -72
-30 -75 0 -110 12 -102 35 11 28 158 25 174 -5z m32 -258 c8 -8 9 -15 2 -22
-14 -14 -97 -24 -138 -16 -42 8 -55 33 -23 46 30 12 145 6 159 -8z m-519 -11
c50 -1 47 -16 -7 -30 -63 -16 -113 -14 -120 4 -7 19 16 31 57 29 17 -1 49 -2
70 -3z"/>
<path d="M917 5353 c-17 -8 -27 -21 -25 -31 2 -9 41 -40 88 -69 100 -61 120
-83 114 -121 -7 -39 -32 -84 -60 -105 -32 -24 -56 -16 -170 58 -51 34 -90 53
-95 48 -5 -5 -14 -24 -19 -42 -8 -29 -7 -33 16 -42 14 -5 58 -32 98 -60 56
-39 82 -51 117 -53 71 -5 123 11 169 52 34 31 41 44 42 77 4 105 -40 183 -126
227 -22 11 -59 33 -81 48 -38 26 -42 27 -68 13z"/>
<path d="M5842 5288 c-43 -43 35 -200 122 -245 61 -32 116 -21 239 47 62 35
116 67 122 71 6 6 -4 23 -27 46 -34 34 -38 35 -66 24 -17 -7 -38 -20 -48 -30
-27 -24 -104 -75 -137 -89 -56 -24 -92 20 -89 110 l2 57 -38 11 c-48 13 -65
13 -80 -2z"/>
<path d="M6194 4970 c-72 -33 -134 -120 -134 -187 0 -45 41 -105 94 -137 82
-51 169 -38 254 38 57 50 76 133 47 202 -19 47 -49 71 -110 88 -67 19 -103 18
-151 -4z m184 -70 c25 -24 35 -55 30 -96 -2 -20 -16 -37 -46 -59 -82 -56 -172
-31 -188 52 -5 29 -2 39 22 65 55 58 141 76 182 38z"/>
<path d="M673 4908 c-41 -44 -63 -103 -70 -182 l-6 -77 39 -40 c53 -54 91 -76
142 -82 125 -14 232 82 232 207 0 34 -48 122 -60 109 -4 -4 -10 -52 -12 -107
-4 -93 -6 -100 -32 -122 -15 -13 -39 -24 -55 -24 -43 0 -131 49 -142 79 -14
36 -2 89 26 117 34 34 36 54 12 99 -26 48 -46 54 -74 23z"/>
<path d="M6435 3714 c-88 -45 -118 -127 -78 -211 37 -78 156 -114 220 -67 108
80 94 230 -26 280 -43 18 -79 18 -116 -2z"/>
<path d="M580 3699 c-81 -33 -124 -135 -86 -207 67 -128 236 -120 292 15 48
114 -87 239 -206 192z"/>
<path d="M887 2550 c-9 -34 -125 -82 -202 -83 l-66 -2 5 -63 c8 -96 34 -168
81 -217 71 -77 130 -70 174 18 l24 48 49 -6 c58 -8 93 9 101 51 10 56 -49 218
-95 257 -28 23 -64 22 -71 -3z m59 -106 c23 -16 55 -64 54 -81 -2 -16 -44 -53
-60 -53 -19 0 -40 22 -57 60 -19 41 -21 54 -11 73 11 21 41 22 74 1z m-102
-84 c19 -58 19 -60 1 -80 -28 -31 -62 -26 -85 13 -38 62 -19 127 38 127 24 0
29 -6 46 -60z"/>
<path d="M6507 2454 c-2 -2 -76 -7 -262 -19 -133 -9 -141 -12 -159 -49 -9 -19
-16 -52 -16 -75 0 -47 18 -61 75 -61 25 0 43 -8 61 -25 27 -27 63 -99 64 -126
0 -17 134 -89 164 -89 22 0 67 43 58 56 -4 6 -38 25 -76 42 l-69 32 6 37 c9
51 59 148 77 149 8 0 37 -11 64 -24 27 -13 52 -20 56 -15 9 9 44 105 54 146
l7 28 -51 -2 c-28 -2 -51 -4 -53 -5z m-169 -123 c17 -11 7 -67 -19 -111 -20
-32 -20 -32 -41 -14 -34 32 -58 71 -52 87 3 9 22 22 42 31 43 18 52 19 70 7z"/>
<path d="M1010 2140 c-120 -68 -136 -83 -159 -146 -25 -65 -26 -90 -7 -135 19
-45 42 -65 96 -84 83 -30 127 -24 211 30 40 26 84 54 96 61 29 18 39 52 20 72
-14 13 -26 9 -114 -42 -55 -31 -109 -56 -120 -56 -46 0 -103 71 -103 129 0 35
17 49 148 116 l92 48 -32 28 c-18 16 -35 28 -38 28 -3 0 -43 -22 -90 -49z"/>
<path d="M6005 2059 c-19 -41 -19 -41 3 -58 13 -9 55 -34 95 -55 39 -21 86
-48 102 -61 17 -12 45 -30 63 -39 32 -16 35 -16 65 1 22 13 32 27 32 43 0 19
-15 32 -85 70 -158 86 -203 111 -224 125 -29 21 -31 20 -51 -26z"/>
<path d="M5925 1883 c-60 -32 -141 -140 -168 -223 -10 -34 12 -50 69 -50 49 0
59 -4 91 -35 20 -19 43 -35 52 -35 9 0 38 -16 65 -35 57 -40 72 -43 81 -15 8
26 -5 42 -61 75 -50 29 -48 26 -32 60 11 25 14 26 102 24 76 -2 99 2 139 21
46 22 60 39 35 41 -7 1 -39 3 -71 4 -108 5 -136 23 -158 99 -21 77 -78 104
-144 69z m74 -121 c33 -27 33 -28 18 -57 -40 -77 -72 -85 -116 -29 -28 36 -27
58 6 89 35 32 51 32 92 -3z"/>
<path d="M1062 1639 c-27 -10 -29 -52 -6 -107 29 -71 100 -125 182 -138 47 -7
57 -2 166 78 45 34 93 65 109 70 15 6 27 13 27 17 0 11 -65 71 -77 71 -7 0
-47 -28 -89 -61 -123 -98 -146 -106 -189 -63 -22 22 -26 34 -24 70 2 24 0 46
-3 50 -13 12 -75 21 -96 13z"/>
<path d="M5643 1530 c-67 -30 -180 -173 -171 -216 2 -9 20 -22 40 -29 71 -24
158 -112 169 -171 5 -25 40 -29 80 -9 46 24 127 102 154 150 38 65 37 98 -4
144 -28 31 -33 33 -85 29 l-55 -4 -13 55 c-12 50 -16 56 -45 62 -21 4 -45 0
-70 -11z m66 -97 c18 -18 4 -47 -49 -98 -41 -40 -57 -39 -83 5 -21 35 -15 53
38 99 38 33 56 32 94 -6z m97 -98 c3 -13 0 -34 -7 -47 -12 -22 -46 -57 -58
-59 -3 0 -14 -2 -23 -4 -20 -4 -58 22 -58 40 0 17 52 72 85 89 34 18 53 11 61
-19z"/>
<path d="M1529 1463 c-24 -21 -73 -63 -108 -95 -35 -32 -69 -58 -75 -58 -18 0
-48 -58 -41 -79 3 -10 14 -26 25 -36 21 -19 20 -20 205 150 33 30 72 61 88 67
15 7 27 18 27 25 0 12 -56 63 -69 63 -4 0 -27 -17 -52 -37z"/>
<path d="M1645 1348 c-15 -18 -73 -82 -129 -142 -55 -60 -102 -115 -104 -122
-2 -8 3 -23 11 -34 14 -21 17 -19 78 51 35 39 74 83 86 97 12 13 29 22 36 19
7 -3 30 -37 51 -77 42 -80 43 -79 -28 -156 -20 -22 -36 -44 -36 -50 0 -17 40
-64 54 -64 6 0 28 21 48 48 20 26 58 70 84 97 127 135 144 154 144 162 0 10
-63 53 -78 53 -6 0 -28 -18 -48 -40 -63 -68 -84 -50 -104 85 -18 120 -22 124
-65 73z"/>
<path d="M5227 1158 c-41 -37 -54 -81 -31 -101 48 -38 54 -49 55 -89 2 -65 -2
-92 -14 -106 -8 -11 -6 -18 10 -30 11 -10 24 -27 27 -38 10 -33 41 -55 85 -61
46 -6 51 3 20 38 -31 36 -58 94 -50 107 12 20 105 82 124 82 9 0 30 -18 45
-40 17 -25 32 -37 42 -34 31 11 100 70 97 84 -1 8 -43 38 -92 67 -101 60 -270
153 -277 153 -3 0 -21 -15 -41 -32z m149 -134 c19 -9 34 -20 34 -23 0 -14 -91
-73 -103 -68 -13 5 -22 80 -12 97 9 15 43 12 81 -6z"/>
<path d="M1950 1078 c-13 -24 -39 -63 -57 -87 -18 -24 -33 -47 -33 -52 0 -4
-18 -37 -41 -73 -42 -68 -46 -91 -16 -110 21 -14 44 -1 72 40 46 67 53 75 73
79 43 8 55 -16 62 -121 6 -103 14 -126 49 -158 l21 -19 0 97 c0 92 16 165 37
167 103 8 132 20 153 58 12 24 1 58 -28 84 -19 17 -20 17 -40 -16 -25 -42 -74
-61 -144 -55 -78 8 -86 33 -30 93 29 31 56 74 50 80 -13 11 -71 35 -86 35 -11
0 -27 -16 -42 -42z"/>
<path d="M5005 994 c-22 -13 -71 -36 -110 -51 -69 -26 -123 -57 -137 -78 -10
-13 -10 -57 0 -72 6 -9 20 -6 57 12 28 13 55 25 60 25 17 0 102 -148 134 -233
13 -34 45 -36 86 -3 27 22 28 25 16 52 -7 16 -38 69 -69 118 l-56 89 44 38
c35 30 43 43 42 70 -1 53 -20 62 -67 33z"/>
<path d="M2439 836 c-19 -9 -23 -18 -21 -44 4 -39 -17 -61 -94 -98 -47 -22
-97 -80 -116 -135 -7 -18 17 -79 31 -79 6 0 20 20 31 45 12 25 30 55 40 65 18
18 23 18 59 6 78 -28 101 -45 101 -73 0 -15 -9 -37 -21 -49 l-20 -22 21 -20
c33 -30 110 -58 120 -42 4 7 7 102 6 211 -2 195 -2 199 -26 219 -12 11 -30 20
-39 21 -9 0 -23 2 -32 4 -9 1 -27 -2 -40 -9z m30 -148 c16 -26 22 -76 10 -84
-13 -8 -109 37 -109 51 0 13 57 55 75 55 6 0 16 -10 24 -22z"/>
<path d="M4622 800 c-23 -17 -42 -34 -42 -39 0 -4 9 -20 20 -34 11 -14 21 -36
22 -49 4 -35 -41 -35 -152 1 -52 17 -96 29 -97 27 -3 -3 61 -189 106 -308 22
-56 41 -80 66 -84 26 -4 24 26 -6 93 -31 68 -59 148 -59 169 0 12 30 12 115
-1 71 -11 82 -19 102 -76 21 -59 49 -83 87 -73 46 11 48 26 16 90 -34 68 -100
262 -100 293 0 30 -29 27 -78 -9z"/>
<path d="M2752 653 c-91 -319 -94 -345 -39 -351 20 -2 25 1 23 15 -3 15 9 64
46 196 6 20 15 37 21 37 11 0 92 -63 120 -94 21 -23 21 -24 2 -105 -14 -59
-14 -64 2 -77 10 -7 28 -14 41 -14 12 0 25 0 29 0 4 -1 17 43 29 97 12 54 34
132 49 173 40 114 41 118 14 124 -44 10 -54 10 -80 3 -22 -6 -27 -14 -33 -54
-10 -76 -18 -81 -62 -40 -22 19 -59 62 -84 96 -25 33 -48 60 -52 61 -4 0 -16
-30 -26 -67z"/>
<path d="M4075 649 c-16 -5 -38 -20 -48 -34 -17 -24 -17 -25 12 -51 l29 -26
-16 -45 c-9 -25 -31 -62 -48 -82 -24 -28 -29 -41 -23 -61 4 -14 7 -41 8 -61 1
-38 40 -89 69 -89 12 0 14 12 9 68 -4 37 -3 72 1 79 10 16 55 32 106 38 51 6
65 -6 69 -61 3 -36 6 -39 38 -42 49 -4 115 21 111 42 -3 18 -135 204 -205 289
-40 49 -55 54 -112 36z m95 -169 c37 -34 33 -46 -18 -57 -56 -11 -82 -8 -82
10 0 21 39 77 54 77 8 0 28 -13 46 -30z"/>
<path d="M3656 605 c-124 -44 -183 -174 -128 -281 23 -44 70 -90 111 -106 79
-32 197 8 239 80 29 52 2 52 -74 0 -75 -51 -154 -48 -190 7 -10 16 -17 47 -18
81 -1 46 3 58 27 81 28 28 58 32 156 21 19 -2 31 6 51 36 37 53 30 72 -31 85
-65 14 -95 13 -143 -4z"/>
</g>
</svg>
