<?xml version="1.0" standalone="no"?>
<!DOCTYPE svg PUBLIC "-//W3C//DTD SVG 20010904//EN"
 "http://www.w3.org/TR/2001/REC-SVG-20010904/DTD/svg10.dtd">
<svg version="1.0" xmlns="http://www.w3.org/2000/svg"
 width="700.000000pt" height="700.000000pt" viewBox="0 0 700.000000 700.000000"
 preserveAspectRatio="xMidYMid meet">
<metadata>
Created by potrace 1.14, written by Peter Selinger 2001-2017
</metadata>
<g transform="translate(0.000000,700.000000) scale(0.100000,-0.100000)"
fill="#000000" stroke="none">
<path d="M3089 6986 c-4 -4 -53 -8 -254 -21 -68 -5 -140 -13 -180 -22 -11 -2
-31 -6 -45 -9 -72 -15 -190 -48 -226 -64 -23 -10 -60 -36 -81 -57 -47 -47
-144 -86 -258 -103 -139 -21 -249 -82 -296 -166 -35 -61 -45 -71 -82 -78 -45
-8 -67 -17 -67 -27 0 -6 -21 -19 -46 -30 -43 -19 -178 -122 -235 -178 -127
-126 -382 -336 -446 -366 -40 -19 -83 -93 -238 -410 -134 -273 -211 -453 -236
-552 -10 -39 -46 -141 -79 -225 -68 -169 -100 -267 -160 -496 -22 -85 -58
-198 -79 -252 -72 -177 -87 -362 -43 -504 21 -64 27 -95 37 -190 3 -21 7 -55
9 -75 5 -34 10 -97 21 -271 3 -41 8 -93 10 -115 6 -42 10 -77 20 -164 6 -52
44 -212 86 -361 11 -41 27 -99 35 -127 7 -29 26 -81 40 -115 37 -89 146 -300
164 -318 3 -3 10 -14 17 -25 7 -11 41 -65 76 -120 84 -132 141 -241 211 -405
112 -260 149 -316 295 -436 337 -279 878 -557 1145 -588 69 -8 156 -32 217
-61 108 -49 313 -63 442 -30 89 23 171 71 232 136 85 93 215 316 232 400 3 19
-2 39 -16 63 -29 46 -107 115 -140 123 -14 3 -80 27 -146 53 -193 76 -310 111
-505 149 -131 26 -150 29 -230 41 -331 49 -648 254 -890 575 -41 55 -115 147
-163 205 -97 115 -168 247 -268 495 -28 72 -65 156 -81 188 -59 119 -121 379
-162 682 -3 22 -10 72 -15 110 -6 39 -13 106 -17 150 -3 44 -10 112 -14 150
-4 39 -6 131 -5 205 1 132 2 137 37 220 43 98 100 241 129 320 12 30 33 70 48
90 16 19 32 46 36 60 27 90 181 424 218 474 13 17 47 72 77 121 91 153 207
321 330 480 65 83 125 156 132 162 7 6 45 27 83 47 81 41 157 112 190 177 14
26 35 50 51 58 15 7 41 28 57 46 16 19 52 45 81 58 75 36 160 103 185 148 12
21 25 39 29 39 16 0 52 -32 52 -45 0 -8 10 -23 22 -35 25 -23 68 -27 68 -5 0
18 31 35 64 35 13 0 32 7 40 15 30 31 216 102 316 121 14 3 41 9 61 13 20 5
58 6 85 4 27 -2 62 1 79 7 28 10 177 15 711 24 178 3 227 7 252 20 17 9 36 16
41 16 15 0 50 -73 56 -115 6 -49 11 -55 50 -55 19 0 54 -11 80 -24 38 -21 50
-23 78 -14 56 18 85 13 170 -30 45 -23 96 -43 113 -46 60 -8 74 -22 74 -75 0
-54 11 -64 57 -52 18 5 29 15 31 29 2 13 11 22 20 22 22 0 70 -45 82 -74 6
-18 21 -25 64 -34 89 -18 197 -79 284 -160 28 -28 61 -46 99 -57 65 -19 99
-40 161 -99 47 -45 54 -77 21 -100 l-22 -15 33 -37 c30 -35 32 -41 26 -89 -6
-57 6 -89 59 -147 99 -110 225 -280 225 -304 0 -7 -6 -14 -14 -17 -23 -9 -7
-52 36 -93 22 -20 44 -48 49 -61 5 -13 25 -31 44 -40 34 -16 36 -20 35 -63 -3
-69 -3 -69 39 -80 25 -7 48 -22 61 -40 36 -51 121 -258 135 -328 2 -14 -5 -31
-20 -46 -51 -51 -67 -202 -27 -256 38 -51 49 -99 51 -225 4 -173 10 -237 26
-261 7 -11 17 -38 20 -58 4 -20 23 -56 42 -78 33 -40 34 -43 16 -55 -39 -26
-54 -49 -83 -124 -31 -80 -65 -198 -75 -259 -15 -89 -38 -166 -75 -253 -22
-52 -40 -103 -40 -114 0 -52 -173 -245 -203 -226 -5 3 -7 30 -3 64 6 52 5 59
-14 69 -24 13 -49 2 -79 -36 -24 -30 -37 -76 -45 -153 -7 -61 -16 -71 -64 -71
-46 0 -96 -23 -134 -63 -66 -67 -143 -159 -159 -188 -9 -16 -37 -51 -62 -77
-51 -56 -62 -74 -71 -122 -3 -19 -22 -55 -41 -79 -38 -47 -51 -81 -41 -107 7
-18 -6 -45 -45 -94 -15 -19 -33 -57 -39 -83 -6 -27 -16 -54 -23 -61 -6 -7 -48
-31 -92 -54 -44 -23 -114 -69 -155 -103 -41 -33 -83 -65 -93 -71 -28 -15 -139
-21 -169 -9 -24 9 -28 16 -28 49 0 45 -14 62 -53 62 -45 0 -87 -48 -87 -99 0
-45 -13 -55 -89 -67 -40 -7 -61 -20 -61 -40 0 -23 36 -34 106 -34 l67 0 -24
-26 c-38 -42 -94 -73 -159 -90 -75 -19 -140 -15 -151 9 -5 9 -13 25 -18 35 -4
9 -19 17 -32 17 -22 0 -24 -5 -29 -59 -5 -61 -9 -66 -65 -83 -28 -8 -30 -12
-31 -58 0 -28 -5 -60 -12 -71 -17 -31 -73 -54 -152 -63 -38 -4 -72 -9 -74 -12
-20 -20 -7 -119 15 -119 17 0 24 -2 41 -11 11 -6 20 -5 25 4 14 23 97 59 133
59 19 -1 53 -7 75 -15 22 -8 65 -18 95 -22 70 -9 90 -20 90 -48 0 -30 11 -44
43 -56 15 -6 27 -15 27 -20 0 -10 -74 -35 -130 -45 -173 -29 -230 -48 -230
-76 0 -21 21 -28 80 -24 200 10 198 10 215 -30 15 -36 42 -51 73 -42 9 2 46 8
82 11 36 4 74 9 84 11 11 2 49 6 85 9 67 5 192 21 245 31 15 2 49 15 75 28 25
13 64 29 86 36 22 7 56 22 75 33 46 25 152 89 165 99 196 151 387 296 412 313
8 6 67 68 130 138 63 70 120 126 126 124 7 -2 20 -20 31 -40 26 -49 57 -55
106 -20 61 44 90 97 90 164 0 94 27 147 128 254 87 91 159 181 166 208 6 26
38 38 91 35 40 -2 46 3 71 56 19 40 39 64 74 88 27 18 53 42 58 53 5 11 17 37
26 58 11 25 26 41 45 48 46 16 62 63 67 192 9 250 30 390 72 472 14 29 36 49
47 43 10 -6 35 41 44 83 5 24 15 82 21 129 5 47 14 108 18 135 17 117 6 938
-14 988 -7 20 -20 24 -104 33 -121 14 -132 13 -143 -21 -27 -84 -46 -65 -52
51 -11 205 -25 385 -32 397 -2 4 -2 7 1 7 3 0 20 -30 38 -66 52 -107 117 -158
131 -104 10 37 -37 203 -87 312 -22 48 -25 65 -20 116 8 69 6 71 -103 204 -35
42 -70 92 -78 112 -10 23 -28 42 -53 55 -50 26 -113 93 -211 226 -44 61 -90
121 -101 135 -39 49 -71 120 -80 177 -7 40 -25 83 -58 138 -26 44 -53 92 -59
107 -7 14 -54 59 -105 100 -51 41 -100 81 -108 89 -8 8 -33 29 -55 48 -22 19
-86 77 -143 130 -172 160 -216 171 -237 59 -12 -63 -17 -77 -30 -82 -9 -3 -24
9 -40 32 -25 37 -34 68 -15 57 17 -11 59 40 53 65 -12 44 -93 48 -93 4 0 -8
-4 -24 -10 -34 -9 -17 -14 -17 -57 -6 -27 7 -70 24 -98 38 -27 14 -75 31 -105
38 -134 29 -134 29 -116 49 9 10 16 25 16 33 0 9 6 20 13 27 17 13 37 -4 37
-32 0 -35 19 -57 50 -57 34 0 44 13 42 55 -2 37 5 48 43 66 33 16 45 53 20 62
-8 4 -37 9 -63 12 -61 8 -133 43 -213 103 -75 56 -133 85 -216 106 -34 9 -94
30 -134 47 -101 43 -123 49 -202 56 -59 5 -73 3 -97 -15 -47 -35 -131 -5 -150
54 -7 21 -19 34 -35 38 -14 3 -79 31 -147 62 -110 50 -127 55 -168 50 -119
-17 -139 -17 -243 3 -95 18 -246 28 -258 17z m499 -206 c23 -16 48 -24 95 -29
14 -2 7 -29 -9 -35 -45 -17 -104 2 -104 34 0 10 -10 26 -22 34 -19 14 -20 16
-5 16 10 0 30 -9 45 -20z m1005 -340 c70 -25 72 -25 98 1 l21 21 30 -29 c16
-15 34 -36 40 -47 10 -18 7 -18 -51 -13 -65 7 -192 54 -199 75 -5 15 -7 16 61
-8z m878 -455 c10 -11 15 -23 13 -26 -6 -10 -70 -2 -94 11 -26 14 -25 28 2 51
20 18 22 18 42 2 11 -10 28 -27 37 -38z m953 -2110 c8 -27 12 -61 11 -75 -1
-14 -3 -31 -4 -38 -2 -25 -18 -3 -29 40 -7 24 -14 63 -17 88 -3 25 -8 63 -11
85 l-5 40 21 -45 c12 -25 27 -67 34 -95z m-5972 -736 c25 -53 47 -171 35 -186
-5 -7 -14 -13 -20 -13 -6 0 -18 -7 -27 -15 -15 -13 -16 -9 -12 49 4 65 -9 108
-42 135 -20 17 -20 35 0 56 24 24 47 15 66 -26z m-216 -195 c3 -16 7 -49 8
-74 4 -59 26 -106 70 -151 43 -45 75 -101 73 -128 -2 -25 -10 -27 -27 -6 -21
26 -48 17 -68 -21 l-19 -37 -6 67 c-3 37 -13 81 -21 99 -41 88 -61 326 -25
290 6 -6 12 -23 15 -39z"/>
<path d="M3130 6183 c-36 -26 -20 -68 30 -78 24 -5 70 34 70 58 0 35 -62 47
-100 20z"/>
<path d="M3581 6137 c-15 -15 -14 -32 4 -68 15 -29 15 -29 -12 -40 -15 -6 -61
-17 -102 -26 -79 -16 -141 -39 -141 -51 0 -11 58 -102 80 -127 25 -27 80 -130
80 -148 0 -34 -97 -44 -520 -51 -226 -4 -266 -3 -350 15 -52 11 -106 17 -119
14 -22 -6 -23 -9 -19 -68 6 -66 46 -166 92 -227 43 -57 149 -161 181 -178 36
-19 119 -38 158 -37 15 1 27 -3 27 -7 0 -8 -203 -3 -250 6 -48 10 -116 29
-260 73 -80 24 -161 45 -180 46 -31 2 -34 -1 -37 -28 -4 -40 23 -176 48 -244
28 -76 81 -152 150 -215 32 -29 59 -55 59 -58 0 -3 -21 -4 -47 -3 -140 4 -270
-50 -255 -107 3 -13 22 -50 42 -83 49 -81 73 -142 103 -255 26 -95 32 -131 42
-227 8 -73 -6 -81 -138 -78 -104 2 -162 14 -207 45 -76 51 -95 15 -70 -130 29
-167 85 -286 181 -383 114 -114 154 -117 524 -37 59 13 64 12 90 -15 33 -32
32 -41 -12 -64 -82 -41 -449 -146 -623 -177 -14 -3 -49 -9 -79 -14 -79 -14
-84 -27 -50 -136 34 -110 110 -238 181 -306 45 -43 47 -44 173 -34 11 0 19 -4
18 -11 -4 -19 -267 -391 -293 -413 -3 -3 -46 -54 -95 -115 -50 -60 -124 -146
-165 -190 -91 -97 -115 -129 -128 -176 -13 -47 5 -71 55 -74 109 -7 458 188
626 349 42 41 77 70 77 65 0 -6 -11 -49 -25 -97 -13 -48 -27 -100 -30 -117 -2
-16 -7 -41 -10 -55 -14 -75 -18 -99 -31 -225 -18 -176 -6 -300 40 -400 57
-124 150 -184 276 -177 136 8 234 120 284 327 33 139 42 247 46 545 1 91 6
173 11 182 8 16 12 16 46 2 20 -9 52 -14 70 -12 43 5 62 -16 69 -73 16 -139
97 -249 184 -249 54 0 170 89 170 130 0 35 28 50 91 50 l59 0 1 -307 c1 -448
6 -562 34 -659 19 -67 71 -120 127 -132 60 -12 147 -5 177 14 32 20 122 116
159 168 30 43 32 66 19 231 -8 105 -15 233 -33 612 -6 142 -8 137 41 135 66
-2 82 -12 110 -70 15 -31 37 -70 48 -86 25 -36 94 -67 133 -60 149 26 355 460
400 844 9 75 9 247 0 292 -4 21 -18 51 -33 68 -14 17 -23 34 -19 37 6 6 70 5
139 -2 65 -7 110 21 146 90 67 130 39 290 -95 544 -111 210 -231 373 -428 581
-98 104 -147 140 -189 140 -73 0 -74 -66 -3 -207 24 -49 57 -128 74 -178 37
-109 86 -295 79 -301 -11 -12 -107 56 -185 130 -93 88 -163 188 -265 377 -52
95 -53 88 23 128 59 31 88 58 112 104 23 46 29 100 15 141 -11 34 -64 96 -83
96 -6 0 -17 7 -24 15 -11 13 -8 15 21 15 63 -1 106 -17 160 -62 82 -66 206
-111 354 -126 100 -11 133 -2 186 50 86 86 127 180 133 309 4 82 -10 136 -60
234 -75 145 -141 216 -257 273 -169 83 -368 123 -417 84 -19 -15 -20 -20 -9
-52 7 -19 30 -62 51 -94 88 -136 137 -271 132 -361 -3 -66 -17 -110 -41 -137
-21 -24 -48 -24 -38 0 46 107 43 203 -8 279 -44 64 -86 84 -193 88 -48 2 -91
8 -96 13 -5 5 9 88 33 198 58 265 59 288 20 361 -63 118 -129 166 -258 188
-49 8 -99 17 -113 19 -14 3 -31 5 -37 5 -21 1 -15 17 12 29 34 16 52 56 35 77
-7 8 -18 14 -24 13 -10 -2 -73 7 -126 17 -10 2 -23 -2 -29 -8z m-90 -946 c-13
-8 -88 -8 -96 1 -3 2 21 5 52 6 31 0 51 -3 44 -7z m-261 -27 c0 -2 -26 -3 -57
-3 -44 1 -51 3 -28 8 29 6 85 3 85 -5z m-256 -22 c3 -5 -1 -9 -9 -9 -8 0 -12
4 -9 9 3 4 7 8 9 8 2 0 6 -4 9 -8z m40 0 c3 -5 -1 -9 -9 -9 -8 0 -12 4 -9 9 3
4 7 8 9 8 2 0 6 -4 9 -8z m496 -397 c22 -20 32 -65 16 -70 -6 -3 -33 -7 -61
-9 -55 -6 -75 -10 -128 -24 -29 -8 -37 -7 -41 5 -19 50 8 97 64 111 50 12 130
5 150 -13z m-699 -72 c0 -21 2 -56 4 -78 9 -110 13 -545 6 -549 -13 -9 -22 56
-27 184 -7 225 -30 320 -95 393 -40 46 -48 66 -26 68 26 2 72 10 76 15 2 2 17
4 33 4 26 0 28 -3 29 -37z m819 -377 c0 -17 -110 -67 -235 -105 -99 -31 -165
-39 -165 -22 0 24 235 112 349 131 25 4 47 8 49 9 1 0 2 -5 2 -13z m208 -443
c18 -24 32 -49 30 -54 -2 -5 -20 0 -41 11 -43 23 -65 28 -124 29 -24 1 -43 4
-43 9 0 10 100 51 125 51 12 0 33 -18 53 -46z m-249 -100 c46 -93 91 -312 94
-457 l2 -80 -35 -8 c-105 -24 -167 -11 -225 45 -48 46 -109 77 -153 77 l-44 0
27 31 c47 57 68 109 69 176 1 54 -3 67 -31 107 -19 27 -28 48 -22 52 15 9 273
114 281 114 4 0 21 -26 37 -57z m714 -374 c3 -12 -7 -22 -33 -34 -21 -10 -48
-28 -59 -41 -23 -26 -29 -28 -51 -14 -11 7 -15 35 -16 122 -1 62 0 117 3 121
6 10 150 -132 156 -154z m-1194 -544 c0 -27 -2 -63 -7 -79 l-8 -29 -22 37
c-28 47 -28 68 0 118 26 45 34 35 37 -47z m1169 -1 c12 -4 22 -13 22 -20 0
-17 -4 -17 -50 -4 -19 5 -51 12 -70 15 -19 3 -36 8 -39 11 -7 6 111 5 137 -2z
m-641 -28 c3 -3 -18 -5 -46 -5 -29 1 -48 5 -41 9 13 8 78 6 87 -4z m-3 -387
c4 -3 -14 -6 -39 -6 -25 0 -48 3 -50 7 -5 8 81 7 89 -1z m656 0 c0 -9 -78 -10
-84 0 -3 4 15 8 39 7 25 0 45 -3 45 -7z"/>
<path d="M4535 5966 c-13 -9 -16 -20 -10 -44 3 -18 10 -32 13 -33 4 0 15 -2
26 -4 31 -6 46 6 46 35 0 41 -44 69 -75 46z"/>
<path d="M4231 5874 c-43 -31 -17 -100 47 -125 33 -13 48 -11 66 6 19 19 50
21 106 6 61 -17 117 -50 123 -71 6 -23 90 -85 144 -106 47 -18 73 -9 73 26 0
44 -93 111 -170 124 -19 3 -36 9 -37 13 -25 70 -86 103 -190 103 -39 0 -74 4
-77 9 -3 5 -19 14 -35 19 -22 8 -34 7 -50 -4z"/>
<path d="M5262 5698 c-17 -17 -15 -54 3 -71 8 -9 38 -23 66 -32 33 -11 54 -25
61 -40 15 -34 51 -47 77 -29 24 17 29 80 10 116 -13 24 -65 47 -122 54 -23 3
-51 7 -63 9 -11 3 -26 -1 -32 -7z"/>
<path d="M4852 5578 c-18 -18 -15 -79 6 -94 22 -17 63 -18 86 -1 22 16 9 55
-30 86 -30 24 -45 26 -62 9z"/>
<path d="M5267 5238 c-26 -14 -20 -47 15 -79 52 -49 104 -23 79 39 -16 39 -62
58 -94 40z"/>
<path d="M6044 3463 c-17 -18 -19 -104 -2 -121 16 -16 53 -15 67 2 15 18 21
75 10 102 -9 27 -55 37 -75 17z"/>
<path d="M6008 2998 c-15 -12 -22 -35 -19 -64 2 -17 48 -23 67 -10 31 23 21
86 -14 86 -10 0 -25 -6 -34 -12z"/>
<path d="M5042 1518 c-13 -13 -15 -37 -6 -62 14 -36 114 -7 114 33 0 27 -21
41 -60 41 -20 0 -41 -5 -48 -12z"/>
<path d="M3680 831 c-16 -31 -12 -49 15 -67 23 -15 27 -15 49 0 24 15 29 47
12 74 -12 20 -64 14 -76 -7z"/>
<path d="M3503 482 c-23 -3 -28 -21 -23 -82 2 -28 27 -60 46 -60 60 0 114 82
85 128 -8 14 -67 21 -108 14z"/>
<path d="M3578 313 c-10 -2 -21 -16 -24 -30 -9 -34 24 -68 59 -59 33 8 42 51
16 77 -19 19 -21 20 -51 12z"/>
</g>
</svg>
