<svg xmlns="http://www.w3.org/2000/svg" viewBox="0 0 4500 4500">
    <title>Logo de la Bujinkan Collado Dojo</title>
    <g fill="rgb(250,210,113)" style="transform: none;">
        <g>
            <path id="pvM1Cwo5O" d="M2000 4429 c-943 -106 -1720 -822 -1899 -1749 -82 -419 -43 -857 110 -1243 111 -279 266 -513 484 -733 353 -355 768 -562 1259 -629 139 -19 467 -19 596 -1 320 47 596 145 847 300 530 328 889 843 1007 1446 51 264 51 596 0 860 -83 424 -288 806 -603 1121 -308 307 -657 497 -1091 594 -187 41 -507 57 -710 34z m435 -109 c392 -43 776 -197 1085 -435 96 -73 262 -237 345 -340 288 -358 448 -783 462 -1230 14 -445 -99 -829 -364 -1231 -284 -433 -785 -767 -1310 -873 -262 -54 -544 -54 -788 -3 -326 70 -587 186 -841 375 -478 354 -783 894 -845 1494 -35 347 44 749 217 1090 244 484 662 855 1169 1038 279 101 605 144 870 115z"></path>
            <path id="pUDltn7vT" d="M2097 4263 c-4 -3 -7 -23 -7 -44 l0 -37 -29 29 c-27 27 -35 29 -101 29 -81 0 -119 -15 -140 -57 -8 -15 -16 -30 -17 -32 -2 -2 -12 4 -24 14 -31 29 -134 33 -190 8 -40 -18 -58 -38 -73 -86 -5 -14 -10 -16 -25 -7 -26 13 -117 13 -144 -1 -32 -16 -77 -61 -77 -75 0 -9 -19 -14 -52 -16 l-53 -3 -3 -42 c-3 -46 -36 -83 -56 -63 -14 14 -80 12 -94 -2 -7 -7 -12 -28 -12 -48 0 -43 10 -53 127 -134 69 -47 89 -56 125 -56 24 0 49 5 56 12 20 20 13 121 -14 211 -3 11 0 17 9 17 10 0 16 -15 20 -47 7 -61 32 -83 97 -83 87 0 150 39 150 93 0 24 3 28 18 22 30 -14 81 -17 128 -10 47 7 114 54 114 81 0 10 8 9 33 -6 22 -14 50 -20 89 -20 107 0 148 32 148 116 0 29 -3 54 -7 56 -5 2 -6 21 -3 43 5 35 7 29 19 -50 20 -131 22 -135 74 -135 51 0 67 13 68 55 l1 30 10 -35 c14 -51 26 -60 72 -60 52 0 67 11 100 75 l25 50 1 -33 c0 -42 24 -84 60 -106 31 -18 155 -22 180 -6 12 8 16 3 20 -23 5 -30 8 -32 50 -35 33 -3 47 1 57 14 11 15 13 14 19 -10 3 -15 22 -39 42 -54 29 -22 48 -27 109 -30 72 -4 73 -4 73 -32 0 -15 7 -33 15 -40 15 -12 85 -10 115 3 13 6 15 0 12 -37 -3 -37 0 -46 18 -56 11 -6 35 -10 52 -8 27 3 39 15 94 103 51 80 64 108 64 141 0 22 -5 45 -12 52 -14 14 -87 16 -108 2 -12 -8 -16 -1 -20 38 l-5 47 -46 3 c-32 2 -50 -2 -59 -13 -12 -14 -15 -10 -29 32 -24 71 -62 93 -162 93 -51 0 -81 -4 -86 -12 -5 -8 -10 4 -13 32 l-5 45 -53 3 c-47 3 -53 1 -61 -20 -8 -22 -9 -21 -24 15 -12 26 -27 42 -51 52 -39 17 -153 20 -175 6 -11 -7 -18 -4 -26 12 -8 18 -19 22 -55 22 -39 0 -46 -4 -58 -27 -19 -41 -56 -38 -68 5 -9 30 -13 32 -58 35 -33 2 -52 -1 -57 -10 -7 -10 -9 -10 -9 0 0 13 -91 18 -103 5z m-120 -162 c20 -26 20 -30 7 -50 -20 -27 -30 -27 -50 4 -14 21 -15 31 -6 50 15 32 24 31 49 -4z m673 -21 c4 -18 0 -30 -16 -42 -12 -10 -27 -18 -32 -18 -18 0 -23 36 -10 64 15 34 50 32 58 -4z m-950 -42 c15 -28 8 -57 -18 -66 -18 -6 -45 45 -38 74 9 32 35 29 56 -8z m1334 -104 c-13 -39 -39 -53 -60 -32 -17 17 -10 40 22 73 15 15 18 15 32 1 12 -12 14 -22 6 -42z"></path>
            <path id="pfkcrrdW9" d="M1975 3765 c-225 -39 -431 -122 -613 -248 -108 -73 -289 -252 -364 -358 -119 -168 -198 -341 -245 -539 -21 -88 -26 -138 -30 -311 -8 -294 19 -459 111 -674 78 -185 167 -318 315 -468 217 -221 460 -354 781 -425 112 -25 521 -24 640 1 318 69 546 192 771 416 218 219 336 433 411 744 20 83 22 118 22 347 0 231 -2 264 -22 350 -70 291 -190 514 -386 718 -212 219 -433 348 -731 424 -114 29 -132 31 -350 34 -165 2 -253 -1 -310 -11z m484 -100 c143 -23 457 -133 385 -135 -26 0 -42 -18 -88 -101 -30 -54 -36 -76 -36 -123 0 -69 9 -87 55 -115 27 -15 53 -21 101 -21 l64 0 0 -43 c0 -93 82 -152 183 -131 39 8 42 11 45 47 3 32 7 37 28 37 13 0 33 9 44 20 l20 20 0 -29 c0 -16 2 -36 5 -43 4 -10 -18 -29 -65 -59 l-71 -44 3 -50 3 -50 41 -3 c34 -2 53 4 105 37 55 35 66 39 75 26 7 -10 28 -15 58 -15 l46 0 0 46 c0 36 -8 57 -38 102 -47 70 -54 82 -49 82 12 0 111 -158 155 -246 102 -206 152 -411 152 -627 0 -144 -21 -271 -70 -418 -152 -459 -482 -789 -940 -939 -153 -51 -268 -70 -415 -70 -154 0 -276 20 -429 71 -108 35 -227 88 -201 88 6 0 21 -6 35 -14 14 -8 52 -14 88 -15 77 0 102 19 102 80 0 24 5 40 12 40 6 0 20 8 31 17 20 18 20 17 13 -16 -3 -19 -9 -66 -13 -104 -7 -81 4 -97 69 -97 47 0 53 11 67 135 11 94 30 131 53 106 9 -8 13 -50 13 -134 l0 -122 52 -3 c59 -3 54 -12 73 115 13 93 13 176 -1 206 -16 34 -56 55 -124 62 -69 8 -140 -7 -154 -32 -7 -13 -10 -11 -15 14 -9 39 -36 63 -113 102 -43 21 -77 31 -108 31 l-46 0 -54 -116 c-57 -121 -71 -193 -42 -223 17 -19 2 -10 -98 55 -207 135 -367 314 -483 541 -122 239 -169 446 -159 697 6 153 20 230 68 376 50 154 161 363 230 435 19 19 19 19 19 -20 0 -38 5 -44 91 -118 79 -66 96 -77 129 -77 51 0 63 18 58 83 l-4 52 50 0 c50 0 51 1 54 32 3 30 6 32 45 35 39 3 42 5 45 36 3 30 6 32 41 32 48 0 58 12 67 79 7 54 7 54 21 27 13 -24 19 -27 61 -24 l47 3 3 45 c2 38 -6 60 -52 145 -49 92 -57 100 -87 105 l-34 6 55 21 c103 39 224 74 304 87 111 19 311 19 425 1z m-830 -167 c0 -18 -4 -42 -8 -53 -8 -19 -8 -19 -15 3 -6 18 -15 22 -49 22 l-42 0 50 29 c28 16 53 29 58 30 4 1 7 -14 6 -31z m1371 -37 l24 -16 -38 -5 c-34 -5 -41 -10 -73 -70 -42 -77 -48 -84 -62 -75 -8 4 1 28 24 69 24 44 35 76 35 105 l0 42 33 -17 c17 -9 43 -24 57 -33z m-1510 -41 c0 -17 9 -50 20 -73 l21 -42 -33 37 c-26 29 -42 38 -72 40 l-38 3 43 32 c24 17 47 32 52 32 4 1 7 -13 7 -29z m1685 -91 c45 -37 104 -94 133 -127 l52 -60 -50 -4 -50 -3 0 51 c0 60 -25 99 -76 120 -71 30 -134 12 -134 -36 0 -25 -4 -30 -25 -30 -14 0 -25 2 -25 5 0 3 14 29 30 58 17 30 30 68 30 87 0 38 -10 43 115 -61z m-1805 -8 c0 -24 8 -48 21 -65 26 -33 10 -34 -21 -1 -17 19 -34 25 -64 25 l-41 1 45 39 c25 22 48 40 53 40 4 0 7 -17 7 -39z m-114 -182 c7 -12 5 -12 -9 0 -10 8 -34 12 -61 10 -50 -4 -51 -7 19 69 l30 33 6 -49 c4 -28 10 -56 15 -63z"></path>
            <path id="pJa29T9v9" d="M2231 3620 c-11 -39 -13 -40 -56 -40 -45 0 -45 0 -45 -35 0 -25 6 -39 24 -50 20 -14 22 -21 18 -65 l-5 -50 40 0 c21 0 44 5 50 11 9 9 18 8 37 -5 14 -9 40 -16 57 -16 l32 0 -5 51 c-5 45 -3 52 18 66 17 11 24 25 24 49 0 31 -2 33 -44 39 -42 7 -45 9 -51 46 -6 37 -8 39 -44 39 -35 0 -39 -3 -50 -40z"></path>
            <path id="p1oOicewa" d="M2324 3183 c-8 -21 -21 -93 -27 -160 l-11 -123 -48 0 c-59 0 -89 -26 -108 -97 l-14 -46 -11 34 c-9 24 -10 64 -4 134 4 55 8 119 9 143 l0 42 -63 0 c-84 0 -107 -20 -107 -90 0 -28 -2 -50 -4 -50 -2 0 -17 7 -32 15 -16 8 -46 15 -66 15 -52 0 -78 -27 -78 -83 0 -35 10 -58 64 -138 l65 -96 -52 -7 c-63 -7 -77 -23 -77 -91 0 -61 12 -75 62 -75 29 0 38 -4 38 -17 1 -10 20 -40 44 -67 43 -48 43 -50 24 -65 -11 -10 -22 -34 -25 -59 -5 -35 -9 -42 -27 -42 -38 0 -56 -22 -62 -77 -6 -43 -3 -58 16 -88 l22 -36 -26 -28 c-17 -18 -26 -38 -26 -59 0 -31 1 -32 45 -32 26 0 63 9 84 20 44 22 51 16 51 -40 l0 -28 -47 14 c-25 8 -67 14 -93 14 -59 0 -80 -21 -80 -78 0 -39 2 -42 28 -42 18 0 57 -19 103 -51 109 -75 109 -74 66 -99 -33 -19 -37 -27 -37 -61 l0 -39 53 0 c29 0 76 -7 104 -15 43 -13 50 -18 46 -35 -3 -12 -14 -20 -27 -20 -32 0 -46 -19 -46 -61 0 -32 5 -40 36 -58 62 -37 151 -22 188 31 9 12 16 42 16 66 0 24 7 74 16 113 l16 69 52 0 c39 0 62 6 87 23 30 20 34 28 34 67 l0 45 -67 10 -68 10 36 65 c20 36 53 85 73 110 38 47 101 110 111 110 3 0 3 -22 2 -50 l-4 -50 34 0 c38 0 63 21 94 80 22 41 25 186 6 233 -11 25 -16 27 -64 27 -75 0 -134 -37 -244 -153 l-91 -95 -17 28 c-16 28 -43 41 -234 110 -70 26 -68 34 15 45 72 9 103 39 103 99 0 53 -24 76 -78 76 -18 0 -42 5 -53 11 -19 10 -17 12 23 33 24 12 47 18 53 14 5 -4 24 -8 42 -8 26 0 36 6 45 24 l11 25 43 -22 c43 -22 43 -22 44 -77 0 -30 -7 -68 -15 -84 -40 -77 -6 -130 81 -124 71 5 88 33 92 153 l4 94 36 7 c44 8 85 27 130 61 29 22 32 29 32 77 0 95 -68 248 -119 267 -14 6 -41 9 -61 7 -34 -3 -35 -2 -37 37 -9 135 -25 271 -35 282 -6 7 -26 13 -44 13 -29 0 -36 -5 -50 -37z m-148 -1178 c18 -13 17 -14 -18 -15 -27 0 -38 4 -38 15 0 19 30 19 56 0z"></path>
            <path id="p105VbgQam" d="M3350 2849 c-97 -38 -120 -63 -120 -134 0 -62 12 -100 42 -132 31 -34 129 -32 223 3 88 34 95 39 95 80 0 68 -46 80 -154 39 -76 -29 -86 -30 -86 -12 0 8 39 29 88 48 86 35 87 35 90 73 2 20 -2 44 -9 52 -18 22 -86 15 -169 -17z"></path>
            <path id="p1C2RGasUV" d="M1086 2697 c-14 -10 -17 -23 -14 -51 4 -36 3 -37 -21 -29 -14 4 -55 8 -91 8 l-65 0 -3 -41 c-2 -25 2 -45 10 -51 27 -22 157 -53 221 -53 59 0 68 3 86 26 16 21 21 41 21 91 0 56 -3 67 -26 88 -30 28 -88 34 -118 12z"></path>
            <path id="pYn35ZzvL" d="M3410 2549 c-30 -5 -66 -18 -80 -28 -22 -16 -25 -27 -28 -90 -3 -64 -1 -73 22 -96 21 -21 35 -25 80 -25 63 0 80 16 74 73 -2 26 -8 33 -33 38 -16 4 -25 7 -18 8 77 8 171 25 181 34 8 6 12 26 10 51 l-3 41 -75 2 c-41 0 -100 -3 -130 -8z"></path>
            <path id="p1GboOE6tD" d="M865 2447 c-4 -13 -5 -38 -3 -53 3 -29 3 -29 100 -39 105 -11 136 -25 98 -45 -15 -8 -45 -10 -90 -5 -101 10 -112 5 -108 -58 l3 -52 132 -3 c126 -2 132 -2 159 22 25 21 29 32 32 95 8 136 -13 153 -190 159 l-127 4 -6 -25z"></path>
            <path id="pMxmjnEBU" d="M877 2164 c-11 -11 -8 -61 9 -153 21 -111 26 -121 70 -121 34 0 35 -1 20 -22 -19 -26 -21 -119 -5 -151 27 -52 50 -67 105 -67 42 0 56 4 68 21 8 11 22 19 31 17 12 -2 -1 -16 -44 -47 -55 -40 -61 -48 -61 -81 0 -47 15 -60 65 -60 32 0 52 10 99 45 32 24 63 42 68 39 13 -8 -7 -30 -74 -76 -59 -41 -59 -42 -56 -87 l3 -46 48 -3 c44 -3 53 1 118 49 38 28 74 59 79 69 14 25 13 116 -1 143 -27 53 -61 77 -107 77 -38 0 -43 2 -32 15 8 10 11 38 8 82 -5 101 -43 143 -128 143 -51 0 -70 -8 -70 -31 0 -14 -7 -19 -29 -19 -16 0 -36 -2 -43 -5 -11 -5 -13 4 -8 42 l5 47 75 13 c127 21 120 17 120 72 0 35 -4 51 -16 55 -23 9 -74 7 -114 -3 -19 -6 -48 -11 -65 -13 -26 -3 -30 1 -35 27 -5 28 -9 30 -50 33 -25 2 -49 0 -53 -4z"></path>
            <path id="p10s3rj5CD" d="M3277 2043 c-4 -3 -7 -23 -7 -44 0 -21 -4 -41 -10 -44 -14 -9 -13 -88 2 -103 9 -9 9 -18 0 -36 -8 -19 -20 -25 -49 -28 l-38 -3 -3 -52 c-3 -50 -4 -53 -31 -53 -37 0 -51 -17 -51 -60 0 -34 5 -40 69 -84 l68 -47 -5 -45 c-6 -54 9 -74 54 -74 31 0 40 7 95 82 53 73 60 87 57 123 -3 40 -3 40 -48 43 -30 2 -48 -1 -55 -11 -9 -13 -19 -9 -65 25 l-55 39 148 -3 c165 -3 167 -3 167 64 0 32 -9 48 -60 104 -33 37 -59 68 -57 70 2 2 26 -3 53 -11 27 -8 61 -15 76 -15 50 0 58 9 58 61 l0 48 -57 16 c-32 9 -78 23 -102 31 -46 14 -142 19 -154 7z"></path>
            <path id="pSQcdzz0P" d="M2450 1597 c-21 -7 -36 -20 -38 -32 -2 -11 -13 -30 -24 -41 -13 -15 -18 -33 -16 -55 4 -39 21 -47 118 -48 54 -1 72 3 103 24 36 25 37 27 37 89 l0 63 -52 7 c-70 8 -87 7 -128 -7z"></path>
            <path id="pLwt8RDdN" d="M2672 1319 c-54 -27 -82 -78 -82 -151 l0 -53 -20 40 c-33 66 -65 79 -181 71 -115 -7 -127 -11 -135 -42 -7 -25 24 -275 38 -313 8 -23 10 -24 94 -17 168 14 204 45 204 175 l0 76 19 -40 c10 -22 33 -53 50 -69 26 -25 42 -30 92 -34 77 -6 128 11 171 55 31 32 33 39 36 111 3 65 0 84 -20 122 -34 66 -76 90 -157 90 -47 0 -78 -6 -109 -21z m132 -130 c31 -37 33 -69 6 -94 -17 -15 -22 -16 -37 -4 -47 37 -62 82 -37 110 24 26 38 24 68 -12z m-367 -91 c6 -7 15 -27 21 -45 12 -36 -3 -67 -38 -76 -16 -4 -20 0 -20 18 0 12 -3 43 -6 69 -6 42 -5 46 13 46 11 0 25 -6 30 -12z"></path>
            <path id="pwy9x7xll" d="M542 3268 c3 -24 8 -50 12 -59 5 -12 -2 -23 -29 -39 -32 -20 -36 -26 -33 -59 l3 -36 52 1 52 2 14 -47 c12 -45 14 -46 51 -46 38 0 39 1 53 48 l14 47 54 0 55 0 0 34 c0 29 -6 38 -36 56 -25 16 -33 27 -29 39 4 9 10 35 12 59 l6 42 -39 0 c-23 0 -49 -8 -64 -19 -24 -19 -25 -19 -51 0 -15 10 -44 19 -64 19 l-37 0 4 -42z"></path>
            <path id="pG5xaooVt" d="M3730 3268 c0 -24 4 -50 9 -58 7 -10 1 -20 -25 -37 -29 -21 -34 -29 -34 -64 l0 -41 52 4 52 3 15 -47 c15 -45 18 -48 52 -48 34 0 36 2 50 48 l15 47 52 -3 52 -4 0 41 c0 33 -5 44 -29 62 -28 20 -29 24 -24 80 l6 59 -35 0 c-19 0 -43 -7 -54 -15 -25 -19 -48 -19 -64 0 -7 9 -29 15 -51 15 l-39 0 0 -42z"></path>
            <path id="pepIKSycd" d="M293 2499 c-9 -9 -13 -48 -13 -119 0 -128 8 -140 88 -140 28 0 54 -4 57 -10 3 -5 32 -10 64 -10 88 0 101 14 113 129 11 103 6 137 -20 145 -9 2 -75 7 -147 11 -99 5 -133 3 -142 -6z"></path>
            <path id="pG7h1RxeQ" d="M3938 2454 c-41 -22 -58 -63 -58 -142 0 -122 56 -169 189 -159 106 8 141 48 141 160 0 122 -37 157 -167 157 -49 -1 -88 -6 -105 -16z m145 -122 c18 -19 12 -34 -19 -50 -18 -10 -27 -8 -49 10 l-28 22 23 18 c28 23 52 23 73 0z"></path>
            <path id="pDZoUoEMI" d="M349 2200 c-73 -9 -79 -14 -79 -58 0 -63 6 -66 119 -59 98 5 126 -2 103 -25 -5 -5 -52 -15 -103 -21 l-94 -12 -3 -34 c-2 -19 -1 -45 3 -59 6 -25 6 -25 94 -18 l87 6 0 -47 c-1 -40 3 -49 22 -59 21 -11 17 -13 -50 -29 -89 -21 -98 -28 -98 -70 0 -57 7 -65 59 -65 62 0 209 43 234 69 29 28 34 115 10 161 -14 27 -27 37 -62 45 -44 10 -44 11 -18 22 56 26 60 181 6 235 -25 26 -33 28 -101 27 -40 -1 -98 -5 -129 -9z"></path>
            <path id="pSxluxhl3" d="M3913 2125 c-25 -11 -34 -23 -43 -57 -17 -61 -7 -118 26 -146 14 -13 25 -24 23 -25 -2 -2 -17 -7 -34 -13 -16 -5 -40 -24 -52 -43 -42 -62 -27 -211 23 -239 12 -6 0 -11 -41 -15 -66 -7 -87 -22 -122 -90 -17 -35 -23 -61 -21 -95 l3 -47 100 -52 c79 -42 108 -52 140 -50 37 2 42 6 67 52 53 97 47 191 -15 239 l-32 26 55 0 c65 0 111 24 135 69 21 41 20 154 -1 191 -18 30 -71 60 -106 60 -21 0 -21 1 -4 13 14 10 17 24 15 60 l-4 46 77 -6 c90 -7 108 2 108 53 0 50 -18 60 -130 72 -124 15 -127 15 -167 -3z m96 -379 l22 -24 -22 -15 c-19 -14 -25 -14 -50 -1 -27 13 -38 42 -22 57 14 15 51 6 72 -17z m-141 -302 c12 -8 22 -22 22 -30 0 -12 -8 -11 -40 6 -23 12 -38 25 -35 30 9 14 27 12 53 -6z"></path>
            <path id="pNUVA1Rl8" d="M515 1647 l-100 -42 -3 -49 c-5 -79 26 -85 162 -31 49 19 92 35 95 35 8 0 -43 -30 -109 -65 -79 -42 -90 -53 -90 -94 0 -54 12 -65 77 -71 57 -6 58 -6 30 -20 -25 -12 -28 -18 -25 -59 l3 -46 47 -3 c41 -3 61 4 135 44 99 53 98 52 -10 -36 l-78 -63 3 -46 3 -46 47 -3 47 -3 3 -57 3 -57 52 -3 51 -3 7 54 c7 51 9 55 37 61 17 3 45 6 63 6 l33 0 -35 -95 c-26 -72 -33 -108 -31 -148 l3 -52 54 -3 c49 -3 65 2 144 44 49 25 87 42 85 38 -3 -5 -24 -39 -47 -77 -42 -68 -50 -111 -31 -148 13 -23 77 -26 118 -5 l27 14 0 -52 0 -51 49 0 50 0 58 100 c51 87 58 106 56 145 l-3 45 -68 0 -67 0 0 36 c0 45 -15 59 -62 59 -36 0 -38 2 -38 30 0 34 -28 46 -85 37 -43 -7 -53 5 -57 68 -3 50 -3 50 -40 53 -35 3 -37 5 -40 40 l-3 37 -63 3 c-62 3 -62 3 -47 25 18 26 20 78 3 95 -7 7 -26 12 -44 12 -31 0 -31 0 -27 48 2 26 0 53 -6 61 -5 8 -33 16 -67 19 -56 5 -57 5 -31 19 23 11 27 20 27 56 0 51 -13 67 -54 67 -26 1 -28 2 -13 11 17 10 23 61 11 93 -12 30 -99 19 -209 -27z"></path>
            <path id="p1AJHNLoul" d="M3416 1111 c-52 -34 -68 -72 -64 -149 l3 -68 -28 14 c-50 25 -128 11 -192 -33 -33 -22 -55 -45 -55 -56 0 -14 -9 -19 -47 -21 l-48 -3 -3 -42 c-3 -35 -7 -42 -29 -48 -14 -3 -31 -1 -36 4 -17 17 -107 14 -113 -4 -4 -9 -19 -15 -39 -15 -17 0 -45 -4 -61 -10 -16 -5 -48 -14 -71 -20 -24 -6 -43 -16 -43 -23 0 -9 -32 -12 -111 -14 -150 -2 -146 2 -130 -151 18 -178 18 -177 77 -177 l49 0 -2 112 -2 111 47 4 c26 2 53 6 61 9 9 3 20 -22 38 -86 14 -49 29 -96 35 -103 13 -15 80 -16 96 0 17 17 15 61 -7 145 l-19 73 42 10 c22 6 47 13 55 16 8 3 47 -27 91 -71 71 -68 81 -75 118 -75 70 0 76 13 69 170 -4 105 -3 131 6 117 7 -10 33 -48 58 -85 46 -66 47 -67 96 -70 45 -3 55 1 101 38 58 45 65 63 60 149 -2 52 -1 60 12 54 8 -4 50 -9 93 -11 l78 -4 38 39 c78 78 62 216 -31 273 -45 27 -151 28 -192 1z m119 -126 c29 -28 31 -38 11 -54 -28 -24 -89 37 -65 65 16 20 26 18 54 -11z m-251 -226 c28 -47 5 -54 -27 -8 -25 34 -26 39 -10 39 10 0 27 -14 37 -31z"></path>
            <path id="pCiQKe4zh" d="M1770 647 c-13 -7 -35 -28 -47 -46 -19 -29 -23 -47 -23 -118 0 -83 1 -86 33 -118 27 -27 44 -34 89 -40 101 -13 158 22 158 97 0 20 5 40 10 43 6 3 10 32 10 63 0 67 -17 98 -66 118 -41 17 -131 18 -164 1z m108 -119 c20 -25 18 -53 -6 -71 -31 -26 -56 -6 -48 37 9 42 34 58 54 34z"></path>
            <path id="p1D3dTkXCE" d="M2055 577 c-27 -27 -34 -43 -40 -94 -16 -141 32 -203 158 -203 119 0 157 40 157 164 0 133 -32 166 -161 166 -78 0 -82 -1 -114 -33z m137 -94 c23 -21 23 -45 0 -73 l-18 -23 -22 28 c-20 25 -20 29 -6 56 17 34 21 35 46 12z"></path>
        </g>
    </g>
    <g id="lDv7ABJbBRuKNN8MYS9tTk" fill="rgb(0,0,0)" style="transform: none;">
        <g>
            <path id="pBI1WSAcn" d="M2000 4430 c-647 -78 -1208 -421 -1577 -966 -392 -578 -474 -1365 -212 -2027 111 -279 266 -513 484 -733 274 -276 576 -456 944 -564 198 -58 370 -80 620 -80 351 1 611 57 921 199 622 284 1088 874 1221 1543 55 278 53 651 -5 919 -122 562 -467 1055 -967 1381 -242 158 -580 281 -889 323 -78 11 -462 14 -540 5z m532 -25 c236 -31 462 -100 673 -205 126 -62 182 -95 313 -182 71 -48 214 -173 302 -264 249 -259 422 -560 524 -911 105 -363 110 -772 15 -1138 -189 -723 -727 -1293 -1443 -1530 -71 -23 -247 -64 -351 -81 -123 -20 -462 -23 -585 -5 -325 46 -640 159 -886 316 -204 131 -443 351 -580 535 -225 301 -365 645 -419 1025 -19 134 -19 421 0 569 116 878 763 1605 1623 1822 74 19 180 40 235 48 141 19 439 20 579 1z"></path>
            <path id="puL3CJUw3" d="M2065 4353 c-154 -13 -377 -62 -530 -118 -990 -358 -1564 -1388 -1350 -2420 65 -314 214 -629 422 -892 88 -112 259 -276 387 -370 254 -189 514 -305 841 -375 121 -26 168 -30 346 -35 336 -9 555 28 853 144 565 219 1013 690 1215 1275 87 253 116 455 108 752 -7 267 -39 436 -129 679 -155 414 -446 778 -823 1025 -262 172 -613 296 -940 332 -84 9 -308 11 -400 3z m110 -133 c18 -58 41 -230 31 -240 -13 -13 -33 -13 -41 0 -11 17 -46 240 -40 250 11 17 43 11 50 -10z m119 -17 c9 -32 11 -33 63 -33 47 0 55 3 63 24 12 34 29 41 48 22 15 -15 12 -25 -40 -130 -58 -117 -85 -144 -113 -115 -16 18 -75 209 -75 244 0 40 41 31 54 -12z m-263 -22 c32 -33 37 -58 13 -68 -10 -4 -26 6 -44 26 -52 56 -110 28 -110 -53 0 -85 73 -128 119 -70 11 14 21 30 23 35 6 19 38 -3 38 -26 0 -43 -57 -85 -116 -85 -90 0 -151 115 -109 204 22 45 56 65 113 66 35 0 49 -6 73 -29z m645 4 c57 -23 83 -115 33 -115 -14 0 -21 9 -26 30 -8 41 -51 65 -87 49 -58 -27 -65 -143 -10 -167 27 -13 36 -10 70 20 23 20 54 15 54 -9 0 -30 -47 -63 -91 -63 -101 0 -157 94 -115 194 29 69 96 93 172 61z m-914 -64 c32 -36 52 -101 43 -141 -15 -68 -121 -118 -183 -86 -64 33 -96 137 -62 201 36 68 152 82 202 26z m1103 7 c3 -7 -12 -65 -33 -128 -27 -82 -42 -116 -55 -118 -30 -6 -31 27 -4 118 39 130 44 140 67 140 11 0 23 -6 25 -12z m213 -78 c47 -29 68 -82 52 -135 -34 -112 -127 -147 -216 -80 -59 45 -55 148 8 207 38 35 105 39 156 8z m-1604 -11 c19 -15 26 -29 26 -56 0 -30 -8 -43 -45 -77 -48 -45 -58 -76 -24 -76 33 0 59 19 59 44 0 32 28 56 41 35 16 -25 10 -65 -13 -87 -25 -23 -69 -42 -98 -42 -26 0 -58 30 -66 62 -5 23 2 35 46 82 46 48 51 58 39 72 -9 11 -22 14 -43 10 -35 -7 -46 -21 -46 -58 0 -31 -11 -41 -34 -32 -27 10 -20 66 12 96 57 53 102 62 146 27z m-225 -126 c39 -177 44 -212 31 -228 -7 -8 -19 -15 -27 -15 -16 0 -165 100 -203 136 -23 22 -23 25 -8 40 15 15 18 15 45 -4 l29 -21 42 27 c39 25 42 30 37 60 -7 38 -1 52 25 52 13 0 21 -12 29 -47z m2017 32 c4 -9 -11 -42 -34 -77 -23 -34 -40 -64 -38 -65 2 -2 43 15 91 37 139 65 154 42 64 -101 -34 -55 -66 -102 -69 -104 -4 -3 -15 2 -26 9 -20 15 -16 22 61 140 19 29 19 29 0 19 -11 -6 -56 -27 -99 -47 -125 -58 -142 -35 -65 86 29 46 59 91 67 101 19 21 41 22 48 2z m-661 -233 c297 -76 519 -204 731 -424 196 -204 316 -427 386 -718 20 -84 22 -121 22 -320 0 -197 -2 -236 -22 -317 -74 -311 -193 -525 -411 -744 -225 -224 -453 -347 -771 -416 -117 -25 -469 -26 -580 -1 -177 39 -355 108 -488 189 -204 124 -404 327 -524 532 -93 159 -164 367 -189 554 -18 140 -6 414 24 543 69 289 206 530 421 737 169 163 342 272 541 340 203 70 293 83 540 79 183 -4 210 -6 320 -34z m-1980 -463 l44 -31 38 31 c20 17 41 31 44 31 4 0 0 -23 -9 -51 -18 -56 -19 -54 49 -101 24 -17 24 -17 -33 -17 l-57 -1 -14 -46 c-7 -25 -17 -45 -22 -45 -6 0 -16 20 -23 46 l-14 46 -49 -2 c-26 -2 -51 0 -54 3 -3 3 13 17 35 32 44 29 47 40 25 93 -23 55 -21 56 40 12z m3186 1 l38 -31 42 31 c23 16 44 28 47 26 2 -3 -3 -27 -12 -53 -16 -45 -16 -49 0 -58 31 -19 64 -47 64 -54 0 -4 -23 -7 -52 -6 l-52 0 -15 -47 c-8 -27 -17 -48 -20 -48 -3 0 -13 21 -21 48 l-16 47 -52 0 c-29 0 -52 3 -52 7 0 4 18 20 40 34 45 30 46 31 25 81 -26 63 -20 67 36 23z m-3265 -786 c30 -5 33 -20 24 -104 -6 -58 -13 -78 -30 -92 -31 -25 -75 -23 -95 4 -13 19 -18 21 -35 10 -27 -17 -60 -15 -82 5 -14 13 -18 31 -18 93 0 44 5 81 12 88 11 11 165 8 224 -4z m3574 -39 c69 -35 81 -153 22 -206 -61 -54 -166 -45 -209 20 -41 61 -24 154 35 185 35 20 115 20 152 1z m-3575 -268 c52 -44 50 -154 -4 -181 -43 -23 -202 -40 -213 -24 -21 33 -4 43 90 54 51 7 99 17 107 24 18 15 19 43 4 72 -10 19 -17 20 -114 13 -92 -6 -103 -5 -109 11 -10 26 6 36 71 44 110 14 140 12 168 -13z m3533 -62 c82 -8 114 -27 89 -53 -13 -12 -28 -12 -102 -3 -47 7 -95 9 -106 6 -29 -10 -23 -42 12 -60 19 -10 29 -22 27 -33 -8 -39 -80 -15 -98 33 -15 40 6 94 43 110 18 8 39 12 47 10 8 -2 48 -7 88 -10z m-3471 -217 c21 -17 34 -73 24 -101 -14 -36 -43 -52 -144 -79 -77 -20 -89 -21 -97 -8 -20 32 -6 41 107 71 45 11 84 27 87 35 9 25 -5 44 -34 44 -38 0 -56 23 -34 44 17 18 66 14 91 -6z m3434 -34 c118 -50 72 -245 -58 -244 -45 1 -110 35 -127 69 -37 70 -5 164 64 188 38 12 66 9 121 -13z m-3347 -201 c9 -24 1 -29 -121 -77 -111 -43 -138 -45 -131 -10 2 13 33 32 103 61 111 46 140 51 149 26z m3229 -120 c46 -29 70 -78 58 -120 -11 -37 -48 -110 -60 -118 -14 -8 -211 92 -218 111 -7 19 33 107 61 133 40 37 96 35 159 -6z m-3173 -19 c0 -7 -31 -30 -70 -51 -38 -21 -70 -40 -70 -43 0 -3 33 -6 73 -7 126 -5 157 -17 141 -55 -8 -21 -209 -122 -227 -115 -24 9 -21 32 6 45 12 6 46 24 74 40 l53 29 -53 7 c-28 3 -73 6 -99 6 -42 0 -78 17 -78 37 0 9 32 43 40 43 4 0 47 22 96 49 65 37 92 47 101 39 7 -6 13 -16 13 -24z m150 -249 c10 -12 7 -20 -19 -44 -19 -18 -31 -39 -31 -55 l0 -27 77 3 c69 3 78 1 81 -16 5 -25 -14 -36 -64 -36 -23 0 -55 -3 -72 -6 -28 -6 -30 -10 -37 -60 -5 -45 -10 -54 -26 -54 -28 0 -32 18 -20 101 5 40 9 75 7 76 -1 1 -19 -11 -39 -28 -40 -33 -72 -35 -72 -5 0 18 170 165 191 166 6 0 17 -7 24 -15z m2681 -178 c19 -12 44 -42 56 -67 29 -57 18 -104 -33 -149 -61 -54 -148 -38 -199 36 -79 117 59 258 176 180z m-2496 -28 c4 -5 1 -24 -5 -40 -12 -27 -10 -32 11 -55 38 -41 57 -48 84 -30 29 19 57 11 53 -16 -2 -13 -36 -37 -108 -74 -113 -59 -153 -66 -158 -27 -3 18 29 118 75 241 6 15 39 16 48 1z m2248 -197 c39 -37 57 -74 57 -118 0 -32 -7 -44 -47 -81 -52 -49 -88 -63 -108 -42 -20 21 -125 179 -125 188 0 10 80 68 112 81 34 14 78 3 111 -28z m-2013 3 c10 -12 8 -22 -11 -52 -12 -21 -31 -53 -42 -71 l-20 -34 39 20 c194 98 217 85 127 -71 -43 -74 -64 -102 -78 -102 -32 0 -28 26 14 95 21 36 38 66 37 67 -1 1 -43 -18 -93 -42 -51 -25 -96 -45 -102 -45 -6 0 -15 9 -21 20 -8 16 0 35 46 112 78 130 80 132 104 103z m1733 -92 c3 -5 8 -65 12 -134 6 -110 5 -127 -10 -142 -9 -9 -21 -17 -27 -17 -6 0 -54 42 -106 94 -68 66 -93 98 -89 110 9 22 44 20 59 -4 16 -24 22 -25 75 -2 39 15 43 20 43 53 0 20 3 39 7 42 9 9 31 9 36 0z m-258 -127 c0 -16 -12 -23 -55 -34 -30 -7 -56 -15 -58 -17 -2 -1 8 -47 22 -101 22 -87 23 -101 11 -114 -24 -23 -40 3 -69 110 -36 131 -35 137 17 150 23 6 53 15 67 20 38 14 65 8 65 -14z m-891 -20 c18 -8 41 -24 50 -37 18 -26 21 -74 6 -84 -14 -9 -40 13 -40 33 0 25 -31 52 -59 52 -38 -1 -59 -21 -72 -72 -11 -40 -10 -49 4 -72 25 -37 62 -44 97 -17 45 33 72 22 50 -20 -30 -56 -132 -56 -182 1 -53 59 -29 181 42 217 33 17 63 16 104 -1z m652 -27 c11 -19 -15 -33 -69 -39 -59 -6 -55 8 -42 -137 6 -72 5 -84 -10 -89 -9 -4 -21 -2 -26 3 -16 16 -41 234 -28 249 16 20 163 31 175 13z m-310 -25 c56 -37 72 -137 33 -200 -39 -63 -146 -71 -199 -14 -33 35 -41 70 -30 130 12 65 54 100 121 100 29 0 60 -7 75 -16z"></path>
            <path id="pDoGbQhDV" d="M2312 4124 c3 -5 12 -29 18 -54 l13 -45 18 44 c11 24 18 45 16 47 -9 9 -70 16 -65 8z"></path>
            <path id="pJvGepSHu" d="M1620 4088 c-17 -18 -21 -32 -17 -61 10 -77 62 -116 113 -83 32 22 38 38 29 82 -13 74 -82 107 -125 62z"></path>
            <path id="pbDvdCkv8" d="M2966 4003 c-67 -66 -34 -170 48 -149 31 8 66 59 66 99 0 32 -40 77 -68 77 -11 0 -31 -12 -46 -27z"></path>
            <path id="pFE5vSNro" d="M1179 3811 c-13 -11 -22 -21 -19 -23 3 -3 21 -17 41 -31 l35 -27 -10 50 c-5 28 -13 50 -17 50 -4 0 -17 -9 -30 -19z"></path>
            <path id="p1Al1XpEzf" d="M2140 3709 c-221 -16 -421 -78 -625 -193 -412 -231 -685 -667 -724 -1156 -8 -100 -1 -276 14 -354 67 -341 239 -652 475 -854 209 -179 478 -306 737 -348 128 -20 351 -20 472 1 255 44 511 163 715 333 243 203 435 545 490 871 29 170 19 434 -21 581 -122 453 -377 773 -770 969 -235 117 -504 170 -763 150z m155 -117 c6 -37 9 -39 53 -48 l47 -9 -37 -23 -37 -23 15 -41 c19 -54 19 -54 -20 -24 -42 31 -46 32 -80 5 -35 -27 -41 -20 -22 24 l15 36 -37 30 -37 30 47 1 c46 0 47 1 59 40 15 50 25 51 34 2z m-529 -177 c56 -103 62 -130 30 -130 -13 0 -30 22 -55 69 l-36 70 -13 -99 c-13 -98 -23 -125 -47 -125 -15 0 -128 216 -120 230 17 28 43 7 75 -60 39 -81 43 -78 54 43 8 96 13 109 38 105 14 -2 37 -34 74 -103z m1114 58 c0 -8 -19 -49 -42 -92 -45 -83 -45 -99 -3 -127 35 -23 57 -6 105 81 37 68 61 88 82 67 12 -12 -49 -130 -90 -174 -32 -34 -76 -37 -127 -7 -67 40 -71 82 -19 178 20 36 43 74 51 83 17 19 43 13 43 -9z m-1371 -214 c70 -88 83 -120 49 -127 -19 -4 -158 171 -158 199 0 42 38 17 109 -72z m1645 17 c68 -28 97 -105 56 -146 -26 -26 -44 -25 -107 6 -57 30 -83 27 -83 -9 0 -39 30 -59 79 -51 37 6 41 5 41 -14 0 -26 -12 -34 -54 -35 -52 -1 -116 60 -116 111 0 30 38 72 66 72 14 0 50 -12 80 -27 43 -21 57 -24 67 -14 9 9 8 18 -4 39 -13 23 -21 27 -57 24 -36 -2 -42 0 -42 17 0 11 8 25 18 30 22 13 17 13 56 -3z m-1753 -103 c49 -42 89 -83 89 -90 0 -33 -33 -23 -92 28 -69 60 -68 62 -28 -73 20 -64 21 -79 11 -92 -8 -9 -17 -16 -21 -16 -18 0 -185 152 -185 168 0 32 31 22 87 -28 31 -27 58 -50 61 -50 3 0 -8 45 -25 101 -23 79 -27 104 -17 115 6 8 16 14 21 14 6 0 50 -35 99 -77z m1010 -154 c6 -79 13 -150 15 -157 3 -9 18 -13 41 -12 66 3 72 1 100 -42 32 -51 73 -159 73 -193 0 -41 -101 -105 -170 -108 l-38 -1 2 -97 c1 -85 -2 -101 -20 -126 -26 -34 -53 -40 -83 -16 -21 17 -21 20 -7 48 11 20 16 57 16 115 l0 85 -40 19 c-43 21 -77 52 -67 62 4 4 12 2 19 -3 7 -6 28 -13 46 -16 30 -6 32 -5 32 22 0 27 -5 31 -52 45 -28 8 -55 13 -59 10 -4 -2 -13 -28 -19 -56 -27 -116 -49 -112 -57 11 -7 97 15 196 53 236 20 22 31 26 72 23 l47 -3 12 125 c6 69 19 143 28 164 14 34 18 37 31 24 10 -10 18 -57 25 -159z m967 10 c29 -44 52 -87 52 -95 0 -23 -36 -16 -50 11 -7 14 -18 25 -23 25 -6 0 -46 -23 -90 -51 -79 -50 -107 -56 -107 -22 0 12 30 37 85 72 l85 53 -21 34 c-20 34 -19 54 5 54 6 0 35 -36 64 -81z m-1302 -6 c-19 -193 -18 -215 8 -290 33 -91 32 -103 0 -72 l-26 24 8 -30 c3 -16 13 -48 20 -70 15 -44 9 -57 -37 -81 -26 -13 -32 -12 -94 22 -49 27 -69 34 -78 25 -15 -15 -60 -14 -75 1 -16 16 -15 50 1 72 18 24 81 25 126 2 18 -10 35 -16 37 -13 6 6 -51 105 -120 209 -61 90 -66 117 -26 138 25 13 55 1 109 -44 23 -20 45 -36 48 -36 2 0 1 35 -2 79 -7 73 -6 79 16 100 14 13 36 21 57 21 l34 0 -6 -57z m1414 -188 c18 -21 9 -28 -90 -67 -74 -30 -85 -37 -88 -61 -2 -14 2 -36 8 -47 15 -27 47 -24 142 13 62 24 69 25 84 10 21 -22 7 -34 -81 -67 -116 -43 -165 -31 -194 47 -28 74 0 113 109 156 89 35 94 35 110 16z m-2316 -180 c33 -30 35 -81 5 -119 -26 -33 -65 -34 -163 -5 -75 22 -103 40 -92 58 10 16 39 14 121 -10 41 -12 81 -19 90 -16 30 12 28 36 -5 64 -30 25 -31 27 -14 40 24 17 27 17 58 -12z m2412 -136 c13 -21 -22 -38 -106 -49 -92 -12 -122 -29 -104 -58 6 -9 20 -18 30 -20 41 -7 45 -11 34 -32 -15 -28 -56 -25 -86 5 -34 34 -31 99 6 126 40 30 211 51 226 28z m-1553 -114 c12 -2 37 -6 55 -9 64 -9 79 -41 37 -80 -19 -17 -47 -27 -106 -36 -44 -7 -82 -10 -85 -8 -9 10 15 57 36 68 31 17 24 44 -30 109 -27 33 -50 63 -50 67 0 3 27 -19 60 -50 34 -31 71 -58 83 -61z m-916 14 c52 -32 56 -135 8 -177 -25 -21 -35 -22 -128 -20 -90 3 -102 5 -105 22 -6 28 12 34 88 28 38 -2 80 -2 95 2 35 9 51 51 31 81 -13 20 -27 24 -111 30 -52 4 -97 11 -100 15 -3 5 -2 16 2 25 5 15 18 17 102 13 57 -3 105 -10 118 -19z m1564 -156 c30 -74 6 -187 -50 -237 l-21 -19 6 45 c7 47 -7 88 -29 88 -15 0 -99 -80 -150 -142 -43 -52 -117 -190 -117 -217 0 -15 12 -20 70 -25 38 -4 73 -12 76 -18 9 -14 -39 -56 -73 -64 -18 -5 -37 -1 -57 10 -16 9 -32 13 -36 9 -12 -14 -40 -161 -40 -209 0 -37 -6 -51 -29 -74 -40 -41 -70 -46 -114 -20 -20 12 -37 25 -37 29 0 14 25 31 46 31 17 0 24 9 32 42 6 23 9 45 6 50 -9 14 -108 38 -161 38 -29 0 -53 4 -53 9 0 4 23 22 50 39 28 17 50 35 50 40 0 28 -191 162 -232 162 -32 0 -36 15 -11 42 21 23 36 23 118 -3 92 -28 99 -21 85 82 -6 41 -8 90 -5 111 5 30 3 37 -12 40 -14 3 -22 -7 -33 -41 -12 -35 -24 -51 -55 -68 -22 -13 -49 -23 -59 -23 -17 0 -15 5 12 33 38 39 40 57 8 111 -29 50 -25 92 11 109 18 8 32 8 51 0 15 -6 92 -36 172 -67 138 -53 179 -79 180 -113 0 -18 -47 -28 -65 -13 -7 6 -39 17 -70 24 -55 13 -55 13 -61 -11 -4 -13 -2 -39 3 -56 l9 -32 71 4 c66 3 72 1 83 -20 11 -20 10 -25 -14 -46 -29 -25 -61 -24 -101 3 -30 21 -42 17 -42 -17 0 -17 -6 -35 -14 -39 -7 -5 -11 -11 -9 -13 5 -4 134 -37 144 -37 2 0 10 16 16 36 35 106 124 236 237 346 114 111 193 145 214 91z m-1730 -161 c4 -18 8 -35 10 -37 2 -2 46 5 97 15 100 20 122 18 122 -10 0 -21 -9 -25 -100 -40 -119 -19 -112 -16 -105 -59 7 -44 -10 -65 -30 -37 -15 19 -47 185 -39 198 12 19 38 2 45 -30z m2450 -96 c24 -8 70 -22 102 -31 43 -12 57 -20 57 -34 0 -10 -6 -21 -14 -24 -13 -5 -230 54 -243 66 -3 4 -3 13 0 22 8 19 40 19 98 1z m3 -171 c47 -53 86 -99 86 -103 -1 -30 -20 -35 -132 -33 -141 3 -160 7 -156 35 2 17 10 21 38 21 32 0 37 5 60 47 l25 47 -24 25 c-24 26 -23 56 3 56 7 0 53 -43 100 -95z m-2212 74 c59 -27 88 -125 48 -166 -35 -38 -77 -31 -131 23 -31 31 -53 45 -63 41 -34 -13 -7 -77 33 -77 26 0 43 -21 30 -37 -26 -31 -77 -5 -108 54 -25 48 -3 103 46 118 18 5 34 -4 79 -46 46 -44 58 -51 72 -42 22 14 19 63 -5 80 -9 7 -27 13 -40 13 -27 0 -42 28 -22 41 19 12 33 11 61 -2z m167 -264 c35 -40 46 -73 37 -110 -8 -31 -147 -138 -173 -133 -34 6 -24 34 24 68 103 72 122 103 86 142 -26 28 -50 22 -125 -34 -56 -41 -74 -49 -87 -41 -27 17 -19 31 59 88 95 69 132 73 179 20z m1886 -54 l80 -59 19 29 c18 29 45 36 53 13 2 -5 -24 -47 -58 -93 -54 -75 -62 -82 -76 -68 -14 13 -13 18 8 46 12 17 21 32 18 34 -2 2 -38 28 -79 57 -41 29 -79 57 -84 61 -11 9 11 39 28 39 6 -1 47 -27 91 -59z m-674 -21 c26 0 29 -3 29 -35 0 -29 -6 -39 -40 -61 -35 -23 -47 -26 -90 -21 -68 8 -76 15 -52 41 11 11 22 30 24 41 3 21 62 48 86 39 8 -2 27 -4 43 -4z m-783 -284 c80 -40 105 -66 105 -106 0 -36 -40 -83 -65 -77 -15 4 -17 -1 -11 -38 7 -53 -19 -85 -69 -84 -48 0 -162 59 -166 84 -4 31 104 255 123 255 8 0 46 -15 83 -34z m1063 1 c82 -54 102 -177 40 -241 -39 -40 -97 -61 -143 -52 -59 11 -128 103 -128 171 0 107 142 182 231 122z m-699 -105 c45 -26 53 -60 39 -170 -16 -127 -18 -134 -44 -130 -20 3 -22 9 -22 58 0 30 3 80 7 111 10 70 -10 102 -61 102 -48 0 -60 -19 -72 -118 -11 -93 -22 -135 -37 -135 -4 0 -16 6 -25 13 -16 11 -16 20 -3 113 17 122 34 160 79 173 40 11 103 3 139 -17z m339 1 c85 -50 92 -229 10 -272 -28 -16 -163 -33 -173 -23 -8 8 -16 54 -42 238 -6 44 6 57 61 65 83 11 114 10 144 -8z"></path>
            <path id="pOfgcCYkL" d="M2240 2761 c0 -11 -3 -26 -6 -35 -5 -13 2 -16 35 -16 23 0 41 4 41 8 0 10 -53 62 -63 62 -4 0 -7 -9 -7 -19z"></path>
            <path id="pCe3UR7YV" d="M2430 2742 c0 -21 8 -35 25 -46 32 -21 32 -43 0 -58 -21 -9 -25 -18 -23 -42 2 -26 8 -32 31 -34 16 -2 39 3 52 12 23 15 23 17 9 62 -31 105 -94 176 -94 106z"></path>
            <path id="puxtv4UtR" d="M2040 1743 c40 -31 130 -86 135 -82 2 2 6 16 10 30 6 25 4 27 -57 42 -35 9 -74 20 -88 23 l-25 7 25 -20z"></path>
            <path id="pzsfB02KB" d="M3333 1781 c-10 -28 -9 -29 26 -35 74 -12 78 -9 41 29 -41 43 -52 44 -67 6z"></path>
            <path id="phpM8Po6k" d="M1709 1221 l-17 -39 48 -21 c62 -27 68 -26 82 3 14 32 6 52 -29 69 -60 31 -67 29 -84 -12z"></path>
            <path id="pcYPVCMqG" d="M1657 1105 l-17 -36 45 -19 c47 -20 70 -18 79 6 9 24 -5 44 -45 64 -21 11 -40 20 -42 20 -2 0 -11 -16 -20 -35z"></path>
            <path id="pTQJd6fBd" d="M2730 1247 c-39 -20 -53 -59 -39 -107 18 -58 53 -90 100 -90 29 0 42 6 58 26 61 78 -34 215 -119 171z"></path>
            <path id="ph5kdjIAj" d="M2371 1143 c-21 -4 -23 -8 -17 -44 4 -22 9 -67 13 -101 l6 -60 46 5 c73 8 97 55 70 138 -20 59 -49 75 -118 62z"></path>
            <path id="pf2ibLzRB" d="M352 2379 c2 -26 9 -46 20 -53 23 -14 34 -1 43 52 l7 42 -37 0 -36 0 3 -41z"></path>
            <path id="phA4PGQHx" d="M460 2369 c0 -57 17 -75 48 -53 16 11 22 25 22 53 0 37 -2 39 -35 43 l-35 4 0 -47z"></path>
            <path id="pXTBuie31" d="M4002 2375 c-55 -24 -62 -78 -14 -115 45 -36 121 -20 142 30 27 65 -53 118 -128 85z"></path>
            <path id="p4eBLaVmS" d="M3922 1804 c-7 -3 -19 -19 -27 -35 -14 -25 -14 -32 -1 -57 26 -50 104 -68 146 -34 50 41 9 120 -66 127 -21 3 -45 2 -52 -1z"></path>
            <path id="paJ1Dz84M" d="M3781 1474 c-12 -15 -21 -33 -21 -40 0 -20 140 -88 153 -75 6 6 11 29 11 52 1 38 -3 45 -33 66 -46 31 -84 30 -110 -3z"></path>
            <path id="pVkOWhRH5" d="M3455 1025 c-14 -13 -25 -31 -25 -41 0 -43 63 -104 107 -104 26 0 63 41 63 68 0 31 -27 70 -61 88 -39 20 -56 18 -84 -11z"></path>
            <path id="pU8Qn260D" d="M1035 894 c-15 -37 -19 -54 -11 -54 10 0 76 42 76 48 0 4 -12 15 -25 25 -24 18 -25 18 -40 -19z"></path>
            <path id="p1B9bRjhib" d="M3213 820 c-18 -11 -33 -22 -33 -26 0 -3 19 -34 42 -67 23 -34 44 -64 45 -66 7 -10 56 26 66 47 9 19 7 32 -12 67 -12 23 -34 48 -47 54 -30 14 -23 15 -61 -9z"></path>
            <path id="pEfT4hrWx" d="M2978 628 c-16 -5 -28 -13 -28 -17 0 -4 16 -22 35 -41 34 -33 35 -33 34 -9 -1 13 -4 36 -8 50 -5 23 -9 25 -33 17z"></path>
            <path id="pW453HCkc" d="M2142 533 c-7 -3 -19 -18 -27 -33 -34 -66 -2 -140 60 -140 44 0 65 29 65 91 0 39 -5 51 -26 68 -26 21 -46 25 -72 14z"></path>
        </g>
    </g>
</svg>