<svg xmlns="http://www.w3.org/2000/svg" viewBox="0 0 10220 10240">
    <g fill="rgb(255,255,255)">
        <g>
            <path id="pKuAENI6S" d="M3904 6247 c-8 -35 13 -238 36 -347 11 -51 20 -97 20 -102 0 -4 27 -8 59 -8 122 0 289 -75 378 -169 31 -33 45 -41 74 -41 45 0 47 5 65 132 7 53 21 113 32 135 11 21 27 63 37 93 10 30 26 67 36 82 11 14 19 41 19 60 l0 34 -110 33 c-208 62 -382 101 -494 111 -148 13 -145 13 -152 -13z"></path>
            <path id="p1DKOfp8Pt" d="M3430 6229 c-149 -24 -371 -73 -470 -105 l-110 -35 -39 -58 c-52 -77 -72 -92 -242 -190 -79 -46 -152 -91 -163 -100 -10 -9 -45 -54 -76 -101 -32 -47 -84 -110 -115 -140 -77 -75 -130 -152 -230 -331 -178 -319 -251 -552 -264 -839 -6 -136 -8 -148 -35 -194 -25 -43 -31 -71 -49 -215 -29 -244 -28 -469 6 -756 62 -520 63 -522 346 -945 245 -367 242 -362 336 -427 46 -32 148 -117 227 -189 262 -238 322 -285 398 -304 25 -6 127 -38 227 -71 99 -33 205 -65 235 -71 30 -6 272 -13 573 -18 l520 -7 150 40 c83 22 211 66 285 97 165 70 275 110 301 110 11 0 86 -23 166 -50 148 -51 230 -63 273 -40 35 19 40 65 40 344 0 295 5 336 60 506 75 227 39 539 -71 623 -71 54 -133 77 -204 77 -60 0 -76 -5 -157 -47 -107 -55 -89 -22 -205 -374 l-84 -257 -73 -98 c-75 -102 -193 -222 -246 -249 -16 -8 -78 -20 -136 -26 -62 -5 -115 -16 -127 -24 -14 -10 -46 -15 -89 -15 -64 0 -68 -1 -92 -33 -19 -25 -26 -46 -26 -80 0 -63 -25 -71 -82 -25 -80 64 -85 65 -229 73 -164 8 -265 10 -345 6 -102 -5 -146 21 -310 179 -77 75 -166 153 -196 173 -77 51 -140 122 -240 267 -118 172 -150 233 -203 395 -25 77 -65 180 -87 230 l-42 90 -7 180 c-5 132 -11 193 -24 230 -22 63 -33 445 -15 540 6 33 16 87 21 120 6 33 21 76 34 95 39 56 55 114 81 295 23 155 30 180 79 295 167 392 262 542 426 672 116 91 166 115 299 140 113 21 115 22 168 72 62 58 60 37 23 246 -12 63 -21 156 -21 207 0 50 -3 98 -6 107 -7 18 -70 20 -164 5z"></path>
            <path id="pm3qFkX2T" d="M5230 5728 c-37 -60 -61 -140 -67 -222 -6 -85 -17 -109 -84 -181 -19 -20 -37 -60 -54 -118 -31 -109 -31 -132 0 -174 66 -85 123 -248 191 -544 37 -165 48 -191 101 -250 61 -67 101 -82 229 -83 105 -1 113 0 152 27 89 59 130 149 139 307 4 80 1 105 -16 154 -19 54 -21 81 -21 300 0 224 2 243 20 271 31 47 25 100 -26 242 -26 70 -53 141 -61 156 -19 38 -115 82 -219 103 -43 8 -110 22 -149 30 -100 21 -112 19 -135 -18z"></path>
        </g>
    </g>
    <g fill="rgb(211,42,40)">
        <g>
            <path id="pr8QHeLiW" d="M995 9364 c-39 -20 -83 -62 -101 -96 -12 -23 -14 -619 -14 -4142 0 -2883 3 -4123 11 -4143 15 -40 57 -82 104 -104 39 -18 170 -19 4116 -19 l4075 0 52 26 c37 19 59 38 77 68 l25 43 -2 4129 -3 4129 -25 36 c-13 20 -43 48 -66 63 l-41 26 -4089 0 c-3682 0 -4092 -2 -4119 -16z m6303 -620 c106 -45 145 -47 837 -53 642 -6 661 -7 695 -27 40 -23 66 -63 57 -88 -4 -9 -33 -29 -64 -43 -77 -34 -356 -103 -416 -103 -61 0 -82 -11 -106 -58 -11 -20 -40 -62 -66 -92 -97 -116 -123 -219 -89 -352 14 -59 18 -109 17 -265 -1 -136 -5 -198 -14 -215 -24 -41 -17 -229 11 -328 32 -112 32 -256 1 -428 -16 -84 -21 -141 -17 -180 4 -31 10 -183 15 -337 5 -154 14 -435 21 -625 15 -437 8 -705 -23 -810 -31 -108 -30 -368 2 -484 12 -43 30 -91 41 -106 24 -34 109 -75 186 -89 66 -13 231 -13 319 -1 76 10 124 -10 189 -80 66 -71 64 -97 -14 -171 -92 -88 -117 -94 -395 -93 -253 1 -355 14 -486 61 -68 24 -91 27 -284 32 -202 6 -212 8 -260 33 -65 34 -114 87 -163 173 -37 66 -39 74 -34 137 5 81 2 91 -115 354 -51 116 -100 242 -109 280 -37 168 -92 299 -210 504 -57 99 -122 266 -140 357 -16 86 -28 110 -85 178 -23 28 -54 77 -69 110 -16 33 -49 105 -75 160 -25 55 -64 126 -87 159 -76 112 -150 276 -162 361 -11 71 -44 121 -130 199 -55 49 -82 82 -102 124 -40 86 -48 92 -116 92 -57 0 -61 -2 -106 -47 -105 -105 -168 -320 -131 -444 19 -61 -1 -93 -93 -152 -100 -63 -113 -88 -133 -244 -20 -161 -19 -155 -86 -275 -38 -70 -59 -118 -59 -140 0 -29 1 -31 16 -17 13 14 23 14 77 3 34 -7 98 -20 141 -28 44 -9 108 -29 143 -46 72 -33 76 -39 148 -244 l39 -109 -22 -38 c-21 -36 -22 -49 -22 -307 0 -247 2 -274 21 -328 48 -137 -10 -327 -122 -401 -36 -24 -49 -27 -124 -25 -98 1 -142 19 -198 81 -53 59 -64 85 -101 250 -69 297 -125 459 -191 546 -15 19 -24 39 -20 45 4 6 -4 10 -18 10 -20 0 -30 -13 -61 -79 -32 -68 -39 -98 -52 -208 -18 -159 -23 -174 -94 -298 -32 -55 -68 -130 -80 -167 -16 -50 -44 -98 -109 -185 -102 -136 -181 -215 -266 -264 l-60 -34 -310 -8 c-170 -4 -404 -10 -519 -13 -199 -5 -213 -4 -315 20 -59 14 -124 26 -145 26 -31 0 -67 11 -85 26 -2 2 6 23 18 47 37 76 101 109 283 148 57 12 130 32 164 44 34 13 97 26 140 30 108 9 179 30 202 60 15 19 22 54 32 167 12 136 12 149 -9 243 -27 126 -27 111 0 173 l23 52 -22 163 c-13 89 -27 214 -32 277 -25 292 -55 430 -93 430 -12 0 -17 -5 -14 -14 4 -9 -15 -34 -46 -64 -52 -48 -54 -49 -167 -70 -133 -25 -183 -49 -299 -140 -164 -130 -259 -280 -426 -672 -49 -115 -56 -140 -79 -295 -26 -181 -42 -239 -81 -295 -13 -19 -28 -62 -34 -95 -5 -33 -15 -87 -21 -120 -7 -38 -10 -149 -7 -305 3 -201 7 -254 22 -295 13 -37 19 -97 24 -230 l7 -180 42 -90 c22 -50 62 -153 87 -230 53 -162 85 -223 203 -395 100 -145 163 -216 240 -267 30 -20 119 -98 196 -173 175 -169 206 -186 341 -181 110 4 143 4 315 -5 132 -6 136 -7 186 -40 29 -19 58 -41 64 -49 13 -15 67 -20 108 -8 22 5 23 9 17 50 -5 38 -3 49 20 79 25 33 28 34 93 34 43 0 75 5 89 15 12 8 65 19 127 24 58 6 120 18 136 26 53 27 171 147 246 249 l73 98 84 257 c116 352 98 319 205 374 60 31 103 47 127 47 39 0 118 -35 174 -77 49 -38 89 -131 102 -239 15 -118 6 -209 -31 -324 -55 -172 -60 -211 -60 -506 0 -279 -5 -325 -40 -344 -32 -17 -63 -11 -213 40 -99 34 -162 50 -196 50 -56 0 -129 -24 -331 -110 -75 -32 -201 -74 -285 -96 l-150 -40 -490 7 c-288 4 -512 11 -543 17 -30 6 -136 38 -235 71 -100 33 -202 65 -227 71 -76 19 -136 66 -398 304 -79 72 -181 157 -227 189 -94 65 -91 60 -336 427 -283 423 -284 425 -345 945 -33 277 -35 466 -6 701 17 139 23 167 48 210 27 46 29 58 35 194 13 287 86 520 264 839 100 179 153 256 230 331 31 30 83 93 115 140 31 47 66 92 76 101 11 9 84 54 163 100 170 98 190 113 242 190 l39 59 113 35 c122 38 237 64 420 95 146 25 144 25 152 0 3 -11 13 -20 21 -20 13 0 14 12 8 83 -14 147 -9 346 9 406 19 63 22 160 6 264 -15 105 -56 307 -86 422 -20 76 -28 140 -33 265 -5 91 -13 180 -19 198 -5 19 -15 97 -21 175 -16 205 -17 209 -97 290 -37 38 -82 75 -99 83 -23 9 -82 13 -210 13 -99 0 -188 3 -199 7 -49 18 -96 57 -116 95 l-21 42 27 64 c15 35 36 68 46 73 10 6 159 10 362 10 337 0 345 0 415 24 60 21 77 23 109 14 26 -7 125 -8 313 -2 470 14 549 12 590 -11 44 -26 73 -80 59 -107 -6 -11 -40 -33 -75 -48 -36 -16 -80 -41 -100 -56 -49 -38 -129 -62 -284 -85 -102 -16 -140 -25 -157 -41 -13 -12 -38 -70 -62 -144 l-41 -124 0 -270 c0 -222 -3 -277 -16 -309 -21 -52 -14 -181 14 -280 19 -64 22 -100 22 -258 0 -100 5 -214 12 -253 11 -61 9 -87 -9 -207 -32 -202 -38 -303 -19 -303 8 0 17 9 21 20 5 14 13 18 33 15 15 -2 59 -6 98 -9 130 -10 568 -130 560 -153 -6 -15 39 -19 48 -4 3 4 11 41 17 82 16 102 67 243 164 454 94 203 194 461 225 580 23 88 96 248 164 360 79 130 122 244 156 411 47 231 119 398 214 499 63 67 81 69 162 17 57 -37 62 -44 121 -163 90 -184 111 -244 123 -350 9 -85 16 -107 74 -229 126 -264 177 -396 207 -542 31 -147 49 -203 86 -258 22 -33 50 -109 73 -199 9 -33 31 -64 94 -131 77 -80 84 -92 100 -155 9 -38 32 -94 51 -124 18 -31 40 -85 49 -121 87 -367 86 -366 196 -544 40 -65 83 -145 95 -177 16 -40 40 -75 82 -116 33 -32 79 -87 103 -123 24 -36 51 -70 59 -77 9 -7 41 -13 72 -13 67 0 77 9 109 100 19 55 24 98 31 285 28 679 26 1627 -5 1890 -9 77 -23 221 -31 320 -9 99 -24 248 -35 330 -10 83 -22 184 -26 225 -11 131 -52 232 -104 260 -28 15 -289 80 -321 80 -33 0 -59 9 -59 20 0 17 55 73 85 86 45 20 245 18 293 -2z"></path>
            <path id="p8sLg3rV8" d="M3942 5773 c-15 -95 -15 -167 -2 -213 6 -19 15 -105 20 -190 12 -191 28 -311 43 -329 15 -17 123 -9 166 13 46 24 88 83 126 178 41 104 72 154 130 217 55 60 75 100 75 153 -1 40 -2 42 -15 24 -15 -19 -17 -18 -57 23 -93 97 -256 171 -379 171 -46 0 -59 3 -59 15 0 8 -8 15 -18 15 -15 0 -21 -13 -30 -77z"></path>
        </g>
    </g>
    <g fill="rgb(0,0,0)">
        <g>
            <path id="pNCVcyPZF" d="M6975 8776 c-16 -7 -40 -24 -52 -37 -29 -32 -54 -92 -44 -108 4 -6 38 -16 74 -21 73 -11 289 -65 318 -80 51 -28 92 -130 103 -260 4 -41 16 -142 26 -225 11 -82 26 -231 35 -330 8 -99 22 -243 31 -320 31 -262 34 -1158 6 -1825 -8 -191 -13 -235 -32 -290 -27 -78 -45 -100 -79 -100 -35 1 -50 14 -101 90 -24 36 -70 91 -103 123 -42 41 -66 76 -82 116 -12 32 -55 112 -95 177 -110 178 -109 177 -196 544 -9 36 -31 90 -49 121 -19 30 -42 86 -51 124 -16 63 -23 75 -100 155 -63 67 -85 98 -94 131 -23 90 -51 166 -73 199 -37 55 -55 111 -86 258 -30 146 -81 278 -207 542 -58 122 -65 144 -74 229 -12 106 -33 166 -123 350 -59 119 -64 126 -120 162 -105 68 -156 63 -233 -25 -90 -103 -159 -268 -204 -490 -34 -167 -77 -281 -156 -411 -68 -112 -141 -272 -164 -360 -31 -119 -131 -377 -225 -580 -97 -210 -148 -352 -164 -454 -8 -50 -20 -86 -40 -115 -15 -22 -36 -66 -46 -96 -10 -30 -26 -72 -37 -93 -11 -22 -25 -82 -32 -135 -16 -117 -50 -197 -110 -262 -59 -63 -89 -113 -131 -218 -38 -94 -80 -154 -123 -176 -43 -21 -98 -28 -110 -14 -14 17 -30 140 -42 323 -5 83 -15 175 -21 205 -10 45 -9 72 4 148 15 89 15 98 -4 185 -40 190 -42 316 -8 529 14 89 19 151 15 205 -3 43 -9 186 -14 318 -8 205 -12 249 -30 300 -25 71 -28 139 -7 188 12 29 15 89 15 307 l0 270 41 124 c24 74 49 132 62 144 17 15 55 25 157 41 160 24 221 42 275 79 21 15 71 43 110 62 50 25 73 42 79 61 13 39 -2 98 -33 130 -45 45 -94 52 -296 45 -541 -18 -577 -19 -647 -6 -67 13 -73 12 -152 -13 l-82 -27 -343 0 c-197 0 -350 -4 -360 -10 -10 -5 -33 -43 -51 -85 l-33 -75 17 -44 c24 -62 46 -88 100 -115 44 -21 59 -23 224 -23 97 0 191 -4 207 -9 17 -5 63 -42 104 -83 84 -85 85 -86 101 -293 6 -78 16 -156 21 -175 6 -18 14 -107 19 -198 5 -118 14 -189 30 -250 35 -134 78 -349 91 -459 12 -92 11 -108 -6 -178 -45 -180 -10 -808 55 -990 23 -63 44 -207 61 -403 5 -69 18 -183 29 -255 l19 -130 -26 -57 c-17 -38 -23 -67 -20 -85 4 -15 15 -68 27 -118 18 -83 19 -100 8 -213 -9 -94 -16 -130 -30 -148 -23 -29 -95 -50 -202 -59 -43 -4 -106 -17 -140 -30 -34 -12 -107 -32 -164 -44 -126 -27 -176 -44 -224 -78 -44 -30 -93 -122 -84 -157 7 -27 45 -46 93 -46 20 0 85 -11 143 -26 119 -28 58 -27 895 -7 l310 8 60 34 c85 49 164 128 266 264 65 87 93 135 109 185 12 37 48 112 80 167 71 124 76 139 94 298 14 119 19 137 65 235 27 59 57 134 65 166 9 36 26 71 44 90 68 72 79 97 85 181 8 104 22 142 117 310 44 77 84 154 89 170 6 17 17 85 25 153 21 161 34 187 131 247 110 69 115 82 89 263 -7 47 16 129 65 232 34 74 110 150 149 150 35 0 52 -18 86 -92 20 -42 47 -75 102 -124 86 -78 119 -128 130 -199 12 -85 86 -249 162 -361 23 -33 62 -104 87 -159 26 -55 59 -127 75 -160 15 -33 46 -82 69 -110 57 -68 69 -92 85 -178 18 -91 83 -258 140 -357 118 -205 173 -336 210 -504 9 -38 58 -164 110 -281 119 -266 123 -282 107 -345 -12 -48 -12 -49 30 -127 54 -97 108 -157 174 -191 48 -25 59 -27 260 -33 193 -5 216 -8 284 -32 136 -49 231 -60 516 -61 306 -1 328 3 420 87 44 41 58 61 66 96 14 62 -2 101 -67 160 -74 67 -103 76 -219 62 -118 -14 -195 -14 -269 0 -77 14 -162 55 -186 89 -62 88 -86 381 -43 528 30 99 39 430 24 852 -6 173 -14 441 -17 595 -2 154 -10 303 -16 331 -9 42 -7 71 13 175 33 179 33 372 0 489 -28 96 -33 229 -12 269 10 17 13 85 14 245 1 184 -2 233 -17 293 -16 61 -17 79 -6 122 13 54 50 118 110 190 21 25 45 60 54 78 21 41 43 53 103 53 60 0 339 69 415 103 80 36 98 79 58 144 -43 70 -12 67 -745 74 -692 6 -731 8 -837 53 -49 21 -307 22 -353 2z"></path>
        </g>
    </g>
</svg>