<svg xmlns="http://www.w3.org/2000/svg" viewBox="0 0 4500 4500">
    <title>Logo de la Federación Española de Kickboxing y Muay Thai</title>
    <g id="lB4qIaqRlv4hqGGOAOq6zo" fill="rgb(37,35,37)" style="transform: none;">
        <g>
            <path id="pxW1zF1Br" d="M2094 3789 c-242 -21 -465 -97 -681 -232 -64 -40 -83 -57 -83 -74 l0 -23 900 0 900 0 0 25 c0 20 -14 34 -67 69 -114 73 -325 168 -402 181 -15 2 -44 8 -66 14 -183 42 -335 54 -501 40z"></path>
            <path id="p19KQPNdbj" d="M190 2285 l0 -735 1019 0 1019 0 6 48 c3 26 5 147 4 270 0 122 2 225 5 228 3 3 46 -74 96 -172 49 -99 112 -222 140 -274 l50 -95 190 -3 c190 -2 191 -2 191 19 0 12 -77 154 -170 316 -94 162 -170 298 -170 304 0 5 86 180 190 389 120 240 190 391 190 410 l0 30 -202 0 -203 0 -46 -108 c-127 -296 -174 -402 -179 -402 -3 0 -23 28 -44 63 l-40 62 3 166 c1 91 -1 178 -5 193 l-6 26 -609 0 -609 0 0 -580 0 -580 -219 0 -218 0 -7 38 c-3 20 -6 60 -6 87 0 28 3 67 6 88 l7 37 132 0 132 0 7 38 c9 58 7 208 -4 236 l-10 26 -129 0 -129 0 -6 31 c-3 17 -6 155 -6 305 l0 274 -185 0 -185 0 0 -735z m1670 0 l0 -425 -235 0 -235 0 0 125 0 124 141 3 141 3 -2 120 c-2 66 -3 127 -3 135 0 8 2 21 4 28 3 10 -26 13 -136 15 l-140 2 -3 148 -3 147 236 0 235 0 0 -425z"></path>
            <path id="p195pVUESS" d="M3070 2285 l0 -735 193 0 193 0 17 58 c22 74 174 542 197 606 15 43 19 47 27 30 5 -10 59 -171 118 -356 l109 -338 188 0 188 0 0 735 0 735 -185 0 -185 0 0 -242 c0 -142 -4 -237 -9 -228 -5 8 -38 101 -74 205 -35 105 -72 207 -80 228 l-16 37 -63 0 -63 0 -52 -152 c-80 -235 -107 -308 -113 -308 -3 0 -4 103 -4 230 l2 230 -194 0 -194 0 0 -735z"></path>
            <path id="p3W1DkzD5" d="M1326 1034 c-4 -9 -5 -18 -4 -19 175 -129 439 -242 654 -279 331 -58 664 -8 964 145 146 74 194 109 198 142 l3 27 -904 0 c-830 0 -905 -1 -911 -16z"></path>
        </g>
    </g>
    <g id="l3NO0YffMlhIdEUBozjtk41" fill="rgb(189,43,22)" style="transform: none;">
        <g>
            <path id="pGw6VYRjt" d="M2000 4428 c-36 -6 -67 -12 -69 -14 -2 -2 1 -16 7 -31 6 -15 13 -41 17 -57 3 -16 20 -42 37 -58 16 -15 26 -28 22 -29 -5 0 -21 -2 -36 -4 -25 -3 -28 0 -34 33 -11 60 -29 86 -79 111 -46 23 -48 23 -113 7 -37 -9 -75 -16 -84 -16 -22 0 -22 -8 -4 -46 8 -16 20 -42 25 -57 6 -15 24 -36 41 -45 37 -21 37 -28 5 -36 -34 -9 -42 -2 -56 44 -14 46 -31 63 -78 79 -51 17 -79 14 -151 -16 -36 -15 -67 -28 -69 -29 -1 -2 8 -18 21 -36 12 -18 28 -42 34 -53 6 -11 25 -27 42 -35 38 -18 40 -28 10 -39 -24 -9 -58 11 -58 33 0 6 -10 23 -23 39 -18 23 -32 28 -84 33 -57 6 -67 4 -100 -19 -21 -14 -50 -31 -65 -38 -26 -11 -38 -29 -20 -29 4 0 24 -22 44 -49 28 -38 45 -50 74 -55 39 -8 36 -20 -7 -31 -22 -5 -31 1 -63 39 -37 45 -38 46 -98 46 -56 0 -64 -3 -122 -46 -33 -26 -61 -49 -61 -53 0 -4 24 -28 53 -54 38 -34 61 -47 83 -47 23 0 30 -4 26 -14 -3 -8 -2 -16 3 -18 12 -4 1 -48 -11 -48 -5 0 -9 11 -9 25 0 22 -3 25 -24 19 -17 -4 -29 2 -48 24 -37 44 -59 52 -119 45 -49 -6 -59 -12 -114 -66 -37 -37 -55 -62 -47 -64 7 -3 25 -15 40 -27 41 -35 67 -46 108 -46 31 0 35 -2 24 -15 -10 -12 -10 -15 4 -15 9 0 16 -8 16 -20 0 -13 -7 -20 -20 -20 -12 0 -20 7 -20 16 0 10 -6 14 -15 10 -8 -3 -27 5 -42 18 -57 48 -87 53 -165 30 -14 -4 -118 -125 -118 -138 0 -2 28 -18 61 -36 48 -25 69 -30 95 -25 39 7 43 -4 14 -30 -20 -18 -22 -18 -76 9 -55 26 -57 27 -104 11 -54 -18 -60 -24 -111 -109 l-37 -60 37 -14 c90 -33 98 -35 131 -23 30 10 32 9 27 -10 -5 -18 -2 -20 19 -15 17 5 24 2 24 -9 0 -8 6 -14 12 -13 7 2 14 -7 16 -19 2 -13 28 -41 63 -68 59 -45 60 -45 68 -23 5 13 21 39 36 58 23 31 25 41 20 85 -6 40 -15 58 -47 91 -36 38 -39 44 -28 64 l12 23 13 -29 c13 -31 93 -117 105 -112 4 2 26 25 50 52 40 47 42 52 38 102 -4 41 -11 60 -36 89 -38 42 -38 46 -12 70 20 18 20 17 20 -12 0 -21 13 -46 40 -79 22 -27 40 -53 40 -58 0 -5 25 15 55 45 53 52 55 56 56 110 1 45 -3 64 -24 94 -27 40 -27 49 2 65 15 8 17 6 14 -13 -2 -12 7 -42 21 -67 15 -25 29 -53 32 -62 6 -18 34 -26 34 -10 0 4 23 22 50 40 28 18 50 40 50 49 0 9 5 31 11 48 10 27 8 38 -14 82 -25 48 -25 51 -8 67 26 23 34 20 28 -12 -4 -19 2 -45 18 -78 14 -27 25 -57 25 -67 0 -18 1 -18 28 0 15 10 43 26 63 37 24 11 43 31 53 55 21 46 23 67 7 114 -15 43 -9 67 15 67 12 0 15 -6 10 -24 -5 -19 7 -76 29 -143 3 -10 11 -10 37 1 18 8 47 20 65 26 19 7 41 27 54 49 18 30 20 46 16 98 -6 56 -4 64 14 74 28 14 35 5 20 -28 -9 -20 -9 -41 1 -94 10 -59 14 -66 29 -58 10 5 40 14 68 20 42 9 56 18 81 52 27 37 31 49 28 97 -3 51 -1 55 21 58 20 3 22 1 15 -15 -4 -10 -10 -52 -12 -94 l-3 -75 38 3 c79 8 101 14 130 41 40 36 53 63 53 111 0 40 11 51 43 43 13 -3 17 -15 17 -46 1 -82 56 -133 155 -145 l66 -8 -3 76 c-2 42 -8 84 -12 94 -7 16 -5 18 15 15 22 -3 24 -7 21 -58 -3 -48 1 -60 28 -97 27 -36 38 -43 88 -54 31 -6 62 -13 68 -16 7 -3 16 20 24 61 11 58 10 69 -4 90 -18 29 -6 42 23 26 18 -9 20 -17 14 -73 -4 -52 -2 -68 16 -98 13 -22 35 -42 54 -49 18 -6 47 -18 65 -26 26 -11 34 -11 37 -1 34 105 36 111 25 140 -5 17 -10 32 -10 33 0 9 28 3 44 -9 17 -13 17 -16 2 -44 -20 -40 -22 -79 -4 -127 12 -32 25 -45 77 -73 35 -19 64 -33 65 -31 1 2 14 31 29 65 21 48 25 66 18 86 -12 31 -5 39 20 24 24 -15 24 -37 -1 -85 -18 -35 -19 -44 -8 -91 11 -47 17 -55 70 -91 64 -44 68 -46 68 -27 0 6 14 32 31 57 24 36 29 52 24 77 -7 37 4 42 28 15 22 -24 22 -27 -10 -68 -22 -30 -26 -45 -25 -92 1 -55 3 -59 52 -105 28 -26 55 -45 59 -42 5 2 26 27 47 55 29 38 38 58 36 80 -3 24 0 29 12 24 11 -4 16 -1 16 10 0 10 9 16 25 16 18 0 25 -5 25 -20 0 -13 -7 -20 -20 -20 -13 0 -20 -7 -20 -20 0 -10 -14 -35 -31 -55 -22 -24 -33 -49 -36 -79 -6 -48 4 -71 54 -132 l34 -41 55 55 c37 38 54 62 52 76 -2 15 2 21 15 20 9 -1 17 5 17 13 0 10 6 13 16 9 9 -3 20 -6 25 -6 5 0 9 -7 9 -15 0 -9 -9 -15 -25 -15 -15 0 -23 -5 -20 -13 3 -6 -14 -31 -39 -54 -34 -34 -45 -52 -49 -88 -7 -50 -3 -67 28 -110 12 -16 25 -38 28 -48 6 -15 15 -11 67 29 50 38 60 50 60 76 0 25 3 29 20 25 10 -3 21 0 23 7 3 8 9 7 20 -3 15 -12 17 -11 17 6 0 15 8 19 43 19 23 0 65 9 94 20 l51 20 -19 25 c-10 13 -19 29 -19 35 0 21 -59 92 -82 99 -13 3 -33 11 -45 17 -17 8 -33 5 -79 -16 -54 -25 -58 -25 -76 -10 -26 24 -22 34 10 28 21 -4 45 3 87 25 33 18 61 33 63 35 6 6 -76 108 -101 127 -12 9 -45 20 -72 23 -46 7 -54 5 -89 -23 -43 -35 -47 -36 -64 -19 -18 18 -14 28 10 28 18 0 75 32 137 77 6 5 -90 102 -112 114 -49 27 -167 12 -167 -21 0 -5 -11 -17 -25 -26 -20 -13 -28 -14 -40 -4 -22 18 -19 27 13 34 15 3 49 27 76 53 44 42 47 48 31 58 -9 5 -38 27 -63 48 -43 34 -52 37 -108 37 -61 0 -62 0 -101 -46 -37 -44 -41 -46 -64 -34 l-24 13 32 13 c17 8 40 25 50 39 10 15 28 39 40 54 l21 27 -78 41 c-75 39 -79 40 -130 30 -48 -9 -55 -14 -83 -59 -25 -39 -35 -48 -51 -44 -12 3 -24 6 -28 6 -19 0 -5 18 17 24 17 4 39 27 65 69 l39 62 -72 28 c-50 20 -83 27 -107 24 -69 -10 -89 -24 -114 -82 -25 -55 -31 -59 -75 -46 -25 7 -24 7 12 29 21 12 42 34 47 49 5 16 16 41 25 56 18 34 12 47 -21 47 -14 0 -35 5 -46 11 -34 18 -109 14 -148 -8 -28 -16 -39 -30 -54 -79 -11 -32 -20 -61 -22 -62 -1 -2 -17 -1 -34 3 l-32 7 30 26 c21 18 36 46 47 86 9 32 15 59 13 61 -2 1 -36 7 -77 14 -70 11 -76 11 -120 -12 -52 -28 -68 -52 -76 -119 -6 -45 -8 -48 -35 -48 -27 0 -29 3 -35 48 -10 72 -13 78 -50 106 -42 32 -72 37 -155 24z m4 -217 c3 -5 -1 -12 -10 -15 -27 -10 -35 -7 -22 9 15 17 25 19 32 6z m344 2 c-21 -2 -55 -2 -75 0 -21 2 -4 4 37 4 41 0 58 -2 38 -4z m152 -3 c0 -5 10 -10 23 -11 12 0 16 -3 9 -6 -19 -7 -64 6 -57 17 8 13 25 13 25 0z m-734 -55 c-35 -18 -36 -18 -36 0 0 10 10 15 33 15 l32 0 -29 -15z m988 0 c3 -9 0 -15 -9 -15 -8 0 -15 4 -15 9 0 5 -8 12 -17 14 -12 3 -9 5 8 6 16 1 29 -5 33 -14z m246 -76 c0 -14 -5 -19 -17 -17 -23 4 -28 25 -6 31 10 3 19 5 21 6 1 0 2 -8 2 -20z m-1485 -9 c-10 -11 -21 -20 -26 -20 -4 0 -5 9 -2 20 3 12 14 20 26 20 19 0 20 -1 2 -20z m-227 -110 c-7 -11 -16 -20 -20 -20 -5 0 -8 9 -8 20 0 13 7 20 20 20 18 0 19 -2 8 -20z m1942 0 c0 -11 -7 -20 -15 -20 -8 0 -15 2 -15 4 0 2 -3 11 -6 20 -4 12 0 16 15 16 14 0 21 -6 21 -20z m210 -141 c0 -14 -5 -19 -17 -17 -26 5 -29 38 -4 38 15 0 21 -6 21 -21z m-2720 -364 c0 -16 -6 -25 -15 -25 -15 0 -21 31 -8 43 13 14 23 6 23 -18z"></path>
            <path id="p7K4TnQBq" d="M2907 2719 c-48 -100 -87 -185 -87 -190 0 -5 41 -9 90 -9 l90 0 0 190 c0 105 -1 190 -3 190 -2 0 -42 -82 -90 -181z"></path>
            <path id="pBty9Lt4q" d="M2820 1911 c0 -3 18 -37 40 -76 22 -38 60 -107 86 -152 25 -46 48 -83 50 -83 2 0 4 71 4 158 l0 157 -90 1 c-50 0 -90 -2 -90 -5z"></path>
            <path id="p6NFjWr0D" d="M686 1360 c-56 -43 -66 -56 -66 -87 0 -13 -4 -23 -10 -23 -5 0 -10 5 -10 10 0 6 -4 10 -10 10 -5 0 -10 -7 -10 -15 0 -18 -12 -19 -28 -3 -9 9 -12 6 -12 -17 0 -23 -3 -26 -12 -17 -18 18 -59 15 -106 -8 -22 -11 -48 -20 -57 -20 -19 0 -19 -14 1 -31 9 -7 23 -30 31 -51 19 -46 56 -79 110 -97 39 -13 45 -12 93 13 53 28 63 27 80 -4 10 -18 8 -19 -19 -14 -22 5 -44 -2 -88 -27 -32 -18 -60 -34 -62 -35 -4 -4 39 -59 84 -109 38 -41 121 -57 158 -31 12 9 32 23 45 33 22 16 24 15 50 -11 l27 -26 -32 6 c-27 5 -43 0 -90 -32 -32 -21 -60 -40 -62 -41 -6 -3 104 -110 126 -122 12 -6 42 -11 66 -11 38 0 51 6 91 41 l47 42 22 -22 21 -21 -27 0 c-18 0 -45 -16 -81 -48 -30 -26 -55 -49 -55 -52 0 -3 30 -27 66 -55 62 -46 69 -49 122 -47 53 2 58 4 98 48 23 26 46 43 52 40 7 -5 11 2 11 18 0 33 23 34 38 1 10 -23 9 -25 -11 -26 -12 0 -16 -3 -9 -6 22 -9 12 -23 -17 -23 -24 0 -36 -10 -65 -49 -20 -27 -42 -52 -49 -54 -15 -5 -16 -4 62 -51 101 -61 180 -51 229 29 15 25 33 45 39 45 7 0 13 9 13 20 0 24 13 26 30 5 10 -12 10 -15 -4 -15 -9 0 -16 -4 -16 -10 0 -5 7 -10 15 -10 27 0 16 -17 -15 -24 -21 -4 -36 -16 -48 -37 -9 -17 -28 -45 -41 -61 -13 -16 -22 -30 -20 -31 43 -27 124 -51 171 -52 69 0 103 22 127 82 21 53 20 53 61 44 l35 -7 -30 -15 c-21 -10 -40 -34 -62 -79 -18 -36 -33 -68 -33 -71 0 -4 15 -9 33 -11 17 -3 53 -11 79 -18 42 -12 51 -12 90 5 61 27 76 42 83 87 4 22 16 49 26 59 10 10 19 24 19 29 0 6 10 10 23 10 20 -1 20 -2 5 -11 -22 -12 -23 -29 -3 -29 8 0 15 -4 15 -10 0 -5 -6 -10 -13 -10 -23 0 -45 -33 -57 -85 -6 -27 -15 -54 -21 -61 -7 -8 12 -15 70 -24 89 -14 103 -11 160 30 32 23 41 37 41 59 0 16 3 43 6 60 6 27 11 32 33 29 22 -2 27 -10 34 -43 17 -80 22 -89 70 -119 l47 -29 85 13 c58 9 82 17 76 24 -4 6 -14 34 -20 61 -13 53 -35 85 -58 85 -24 0 -13 18 15 23 33 7 48 -10 57 -63 7 -43 22 -58 83 -85 40 -17 45 -17 102 -2 33 10 69 17 80 17 26 0 26 1 -10 76 -21 46 -39 68 -62 80 l-33 17 28 10 c39 13 53 4 67 -40 7 -21 19 -45 27 -54 18 -22 95 -43 130 -36 21 3 102 34 141 53 1 0 -16 29 -39 63 -31 46 -49 63 -70 68 -37 7 -37 16 2 30 29 11 32 10 47 -19 34 -60 52 -76 98 -86 61 -13 77 -8 212 74 4 2 -36 51 -75 91 -12 13 -33 23 -46 23 -36 0 -39 10 -11 33 l26 20 47 -52 c44 -49 48 -51 102 -53 54 -2 60 0 123 47 l66 50 -54 52 c-43 42 -61 53 -87 53 -31 0 -32 0 -14 20 25 27 31 26 81 -20 36 -33 51 -40 84 -40 22 0 55 6 73 14 39 17 137 117 120 123 -6 2 -33 20 -58 40 -40 30 -52 35 -86 30 -36 -5 -38 -4 -28 14 7 15 6 19 -6 19 -8 0 -15 9 -15 20 0 13 7 20 20 20 12 0 20 -7 20 -16 0 -9 6 -14 13 -11 6 2 33 -11 60 -30 44 -33 50 -34 99 -28 55 8 73 22 143 110 l31 38 -65 34 c-51 27 -71 33 -98 28 -38 -7 -42 4 -13 30 20 18 22 18 78 -9 56 -26 58 -27 102 -11 56 20 76 38 106 97 13 26 28 49 34 53 19 12 10 23 -22 30 -18 4 -42 14 -53 21 -24 17 -69 18 -97 3 -19 -10 -20 -9 -14 15 6 25 5 26 -14 16 -17 -9 -20 -8 -20 12 0 17 -3 19 -12 10 -19 -19 -28 -14 -28 13 0 15 -10 31 -26 42 -14 10 -39 29 -56 42 -35 28 -34 28 -84 -55 -20 -34 -23 -49 -18 -88 6 -39 15 -56 48 -87 33 -33 39 -43 30 -57 -16 -24 -25 -21 -38 14 -6 17 -30 48 -53 68 l-42 38 -33 -38 c-47 -53 -57 -74 -58 -120 0 -32 8 -51 37 -88 l36 -47 -21 -22 -22 -21 0 31 c0 22 -12 46 -42 81 l-42 50 -48 -41 c-27 -22 -51 -51 -55 -65 -13 -55 -7 -97 21 -140 28 -41 28 -43 10 -57 -27 -21 -30 -19 -30 18 -1 18 -14 54 -33 84 l-33 51 -48 -34 c-58 -42 -63 -48 -79 -100 -12 -38 -12 -46 10 -89 17 -34 21 -50 13 -63 -20 -32 -34 -25 -34 17 0 22 -10 62 -22 88 -13 27 -23 49 -23 50 -2 5 -91 -41 -108 -55 -43 -38 -58 -106 -35 -169 13 -36 13 -38 -20 -48 -22 -6 -23 -5 -12 15 9 17 8 33 -5 78 -10 31 -19 62 -21 69 -2 9 -10 9 -31 -2 -15 -8 -32 -15 -36 -15 -5 0 -24 -7 -42 -16 -46 -21 -70 -77 -62 -148 4 -43 2 -56 -10 -60 -27 -11 -31 -6 -20 23 15 41 -9 155 -32 146 -9 -4 -38 -11 -65 -16 -80 -15 -117 -71 -113 -169 2 -29 -2 -36 -20 -38 -23 -3 -31 12 -13 23 6 3 10 42 10 85 l0 80 -26 -10 c-14 -6 -44 -10 -68 -10 -36 0 -48 -6 -80 -39 -32 -33 -40 -48 -44 -90 -4 -41 -8 -51 -23 -51 -11 0 -22 -1 -26 -2 -5 -2 -11 21 -15 51 -5 43 -13 60 -43 91 -32 33 -45 39 -89 42 -28 3 -59 8 -69 13 -17 7 -18 2 -15 -71 2 -44 8 -87 12 -97 7 -16 5 -18 -15 -15 -22 3 -24 8 -24 58 0 85 -46 144 -118 153 -23 2 -49 8 -58 11 -13 6 -19 -5 -29 -54 -11 -54 -11 -66 3 -96 14 -28 14 -34 3 -34 -41 0 -47 10 -40 74 4 49 2 69 -14 101 -17 33 -30 43 -87 66 -45 18 -67 23 -70 16 -1 -7 -10 -37 -19 -68 -10 -32 -14 -68 -10 -83 7 -28 -6 -35 -25 -12 -9 10 -9 25 0 58 23 86 -7 151 -89 190 -26 12 -49 23 -52 25 -3 2 -12 -11 -19 -29 -35 -86 -39 -103 -30 -126 8 -20 7 -23 -7 -18 -8 3 -20 6 -25 6 -15 0 -10 28 12 72 19 37 20 45 8 87 -15 56 -19 62 -79 105 l-48 34 -33 -51 c-22 -36 -32 -64 -32 -89 0 -42 -4 -45 -33 -23 -19 14 -19 15 0 47 44 77 46 84 37 132 -7 37 -18 55 -57 91 -26 25 -48 44 -50 42 -1 -1 -20 -24 -43 -50 -31 -36 -41 -57 -41 -83 0 -40 -16 -45 -31 -10 -10 21 -7 30 25 71 28 38 36 57 36 89 -1 45 -10 64 -57 121 l-31 37 -46 -38 c-46 -38 -70 -82 -60 -109 7 -18 -7 -20 -25 -2 -11 10 -13 8 -8 -10 4 -20 3 -21 -19 -11 -29 14 -32 38 -3 38 12 0 17 4 13 11 -3 6 15 32 40 58 43 44 47 52 49 102 2 45 -2 60 -25 90 -16 20 -28 41 -28 47 0 23 -16 18 -64 -18z m3102 -307 c-5 -25 -28 -28 -28 -4 0 12 6 21 16 21 9 0 14 -7 12 -17z m-2898 -202 c0 -14 -5 -18 -20 -14 -11 3 -20 12 -20 19 0 8 9 14 20 14 13 0 20 -7 20 -19z m188 -164 c2 -12 -3 -17 -17 -17 -15 0 -21 6 -21 21 0 25 33 22 38 -4z m2352 3 c0 -11 -7 -20 -15 -20 -15 0 -21 21 -8 33 12 13 23 7 23 -13z m-210 -140 c0 -11 -6 -20 -14 -20 -9 0 -12 7 -9 20 3 11 9 20 14 20 5 0 9 -9 9 -20z m-227 -110 c-3 -11 -12 -20 -20 -20 -11 0 -11 4 -3 20 6 11 15 20 19 20 5 0 7 -9 4 -20z m-1239 -85 c19 -15 19 -15 -1 -15 -11 0 -23 7 -27 15 -7 19 3 19 28 0z m996 0 c0 -10 -10 -15 -27 -15 l-28 0 25 14 c14 8 26 14 28 15 1 1 2 -6 2 -14z m-227 -42 c-13 -2 -23 -11 -23 -20 0 -13 -3 -13 -15 -3 -20 16 -2 30 35 28 23 -1 24 -1 3 -5z m-175 -20 c-21 -2 -55 -2 -75 0 -21 2 -4 4 37 4 41 0 58 -2 38 -4z"></path>
        </g>
    </g>
    <g id="l7jhZanNj915TWL2dcOlDEJ" fill="rgb(23,21,22)" style="transform: none;">
        <g>
            <path id="pzGHnmNkD" d="M2100 3789 c-130 -10 -269 -41 -386 -85 -110 -41 -294 -132 -294 -145 0 -5 -5 -9 -11 -9 -6 0 -38 -19 -71 -42 l-61 -43 482 -3 c266 -1 697 -1 959 0 l476 3 -99 67 c-204 136 -425 219 -670 253 -72 10 -228 12 -325 4z m375 -49 c22 -6 58 -14 80 -19 175 -39 353 -111 465 -187 25 -16 54 -34 65 -40 22 -10 -586 -16 -1292 -12 l-438 3 45 30 c163 108 386 194 605 231 91 15 404 11 470 -6z"></path>
            <path id="p1ERrVZgFH" d="M190 2285 l0 -735 1025 0 1025 0 0 261 c0 243 -1 260 -17 257 -17 -3 -18 -23 -18 -245 0 -133 -4 -245 -8 -250 -9 -8 -1800 -13 -1919 -5 l-68 5 0 708 0 709 160 0 160 0 2 -287 c3 -265 4 -288 21 -291 16 -3 17 16 17 302 l0 306 -190 0 -190 0 0 -735z"></path>
            <path id="p8rZIMAI9" d="M1019 3013 c-6 -39 -2 -1163 3 -1163 4 0 9 255 10 568 l3 567 583 3 c549 2 582 1 583 -15 1 -10 2 -97 3 -193 l1 -175 38 -53 c21 -28 45 -52 53 -52 21 0 17 13 -21 70 l-35 52 0 199 0 199 -610 0 c-335 0 -610 -3 -611 -7z"></path>
            <path id="p11Y3QX3Do" d="M2512 2937 c-19 -45 -42 -98 -52 -117 -10 -19 -37 -80 -60 -135 -23 -55 -48 -113 -56 -129 -16 -33 -18 -46 -6 -46 5 0 23 35 42 78 18 42 48 109 66 147 18 39 50 111 71 160 l39 90 182 3 c122 2 182 -1 182 -8 0 -9 -86 -190 -109 -230 -5 -8 -15 -28 -22 -45 -8 -16 -16 -32 -19 -35 -3 -3 -21 -39 -40 -80 -19 -41 -42 -87 -52 -102 -10 -14 -18 -33 -18 -41 0 -9 -3 -17 -7 -19 -7 -3 -123 -233 -123 -244 0 -2 6 -4 14 -4 9 0 74 119 168 307 84 169 179 357 211 418 31 60 57 111 57 112 0 2 -98 3 -217 3 l-218 0 -33 -83z"></path>
            <path id="prqByx3cl" d="M3079 3013 c0 -5 -1 -335 -2 -735 l-2 -728 192 0 192 0 7 38 c4 20 10 42 14 47 7 10 23 69 21 80 -1 3 6 19 14 35 8 16 15 32 14 35 -1 3 3 18 9 33 5 15 17 52 26 82 10 30 22 64 26 75 7 17 32 91 35 105 1 3 9 30 18 60 9 30 16 58 14 61 -1 3 4 13 12 22 12 15 11 17 -7 17 -17 0 -26 -19 -62 -132 -23 -73 -46 -141 -51 -150 -5 -10 -9 -25 -9 -33 0 -8 -4 -23 -9 -33 -5 -9 -30 -85 -57 -169 l-48 -151 -90 -7 c-50 -3 -102 -4 -116 -1 -14 2 -49 5 -78 5 l-52 1 2 708 3 707 158 3 c86 1 157 -1 158 -5 2 -18 7 -206 8 -315 l1 -118 34 0 c27 0 36 5 41 23 23 72 127 376 137 395 9 17 20 22 49 22 46 0 44 4 102 -170 56 -164 94 -271 101 -277 3 -3 12 -3 20 0 13 5 12 16 -9 79 -14 40 -29 82 -34 93 -5 11 -15 38 -22 60 -6 22 -15 45 -19 50 -7 10 -20 51 -27 89 -2 11 -7 24 -12 30 -5 6 -12 26 -16 44 l-7 32 -67 0 -68 0 -26 -82 c-25 -80 -82 -247 -113 -335 -9 -24 -19 -43 -22 -43 -4 0 -7 104 -7 230 l0 230 -187 0 c-104 0 -188 -3 -189 -7z"></path>
            <path id="pCr1WLTMr" d="M3931 2798 c0 -134 4 -215 9 -203 5 11 9 104 9 208 l1 187 160 0 160 0 0 -709 0 -709 -42 -3 c-24 -2 -100 -3 -169 -1 l-125 3 -88 272 c-101 314 -108 335 -114 318 -3 -9 80 -274 116 -371 3 -8 6 -18 7 -22 2 -5 3 -9 5 -10 1 -2 3 -10 5 -19 1 -9 15 -55 31 -103 l28 -86 193 0 193 0 0 735 0 735 -190 0 -190 0 1 -222z"></path>
            <path id="pBBqbmYZa" d="M1400 2719 c0 -11 410 -12 427 -1 6 4 -87 8 -208 9 -124 0 -219 -3 -219 -8z"></path>
            <path id="p19nfMCmrC" d="M1860 2282 c0 -286 3 -431 10 -427 13 8 13 824 0 845 -6 10 -10 -135 -10 -418z"></path>
            <path id="p1Bo0eLkdy" d="M1360 2555 c0 -122 2 -145 15 -145 8 0 14 -6 13 -12 -2 -10 28 -14 119 -16 l121 -3 6 -47 c3 -26 4 -78 2 -117 l-3 -70 -119 -3 c-120 -3 -166 -15 -102 -27 19 -4 85 -5 147 -3 l112 3 2 147 2 147 -140 3 -140 3 -3 143 c-2 117 -5 142 -17 142 -13 0 -15 -24 -15 -145z"></path>
            <path id="paZuV8tEW" d="M565 2400 c-10 -16 12 -20 130 -22 l110 -3 3 -117 3 -118 -120 0 c-117 0 -120 -1 -140 -26 -18 -23 -21 -41 -21 -125 0 -105 5 -129 26 -129 10 0 14 28 16 126 l3 126 135 1 135 2 1 148 1 147 -138 0 c-82 0 -140 -4 -144 -10z"></path>
            <path id="powWYf9p8" d="M2561 2161 c-11 -7 -5 -25 31 -92 25 -46 54 -98 64 -116 11 -17 56 -96 102 -175 46 -79 92 -158 103 -175 l21 -33 -39 -1 c-125 -5 -271 -5 -291 -1 -18 3 -46 52 -143 246 -66 132 -129 252 -140 266 -11 14 42 -99 119 -250 l139 -275 201 -3 c111 -1 202 -1 202 1 0 6 -213 376 -277 480 -29 49 -53 92 -53 96 0 19 -26 40 -39 32z"></path>
            <path id="pAS1wucpO" d="M1359 2088 c-1 -13 -1 -54 -1 -93 1 -38 1 -87 2 -107 0 -27 4 -38 15 -38 13 0 15 21 15 130 0 109 -2 130 -15 130 -9 0 -16 -10 -16 -22z"></path>
            <path id="p18ofQd9im" d="M1281 1046 c63 -54 300 -190 369 -211 14 -4 30 -11 35 -15 12 -9 123 -45 185 -60 70 -18 210 -37 210 -29 0 4 -37 12 -82 19 -125 18 -244 52 -378 109 -97 42 -260 138 -260 154 0 4 394 7 875 7 522 0 875 -4 875 -9 0 -10 -94 -71 -110 -71 -6 0 -10 -4 -10 -9 0 -12 -170 -88 -271 -121 -47 -15 -131 -38 -185 -50 -97 -22 -150 -43 -83 -34 154 22 335 77 463 141 78 39 230 132 267 162 l24 20 -964 1 c-530 0 -962 -2 -960 -4z"></path>
            <path id="p7nQ20Pbe" d="M2092 724 c9 -9 240 -12 268 -4 14 5 -39 8 -124 9 -82 1 -147 -2 -144 -5z"></path>
        </g>
    </g>
    <g id="l4eAEfmsDZXSqx67zbNmMNM" fill="rgb(244,204,65)" style="transform: none;">
        <g>
            <path id="pA42Q4zzZ" d="M2016 4243 c-2 -3 -15 -6 -28 -7 -193 -25 -411 -92 -608 -188 -80 -39 -147 -74 -150 -78 -3 -3 -33 -24 -68 -45 -35 -21 -73 -49 -85 -62 -12 -12 -26 -23 -31 -23 -9 0 -58 -43 -166 -145 -106 -100 -202 -215 -270 -320 -24 -39 -48 -72 -51 -75 -4 -3 -10 -17 -14 -32 -8 -33 25 -57 45 -33 7 8 16 12 21 9 5 -3 9 2 9 12 0 20 72 129 123 185 9 10 17 23 17 28 0 20 211 229 309 305 111 86 219 160 236 161 6 1 29 13 52 28 24 15 45 27 48 27 3 0 29 11 57 25 29 14 58 23 65 21 6 -3 17 1 23 8 11 14 109 54 145 59 11 2 31 9 45 16 18 11 25 11 28 2 3 -8 8 -9 17 -1 15 12 203 53 219 47 6 -2 19 0 29 5 25 13 392 11 416 -1 10 -6 21 -8 23 -5 6 5 184 -22 197 -31 5 -3 22 -7 38 -9 47 -6 223 -66 223 -76 0 -5 6 -7 14 -4 14 5 124 -43 186 -81 19 -12 38 -22 42 -21 4 1 17 -7 28 -16 11 -10 24 -18 28 -18 24 -1 254 -172 299 -223 17 -19 40 -40 52 -46 11 -7 21 -16 21 -21 0 -5 25 -32 55 -61 31 -29 58 -63 61 -76 4 -12 12 -23 19 -23 7 0 22 -15 33 -32 11 -18 39 -59 61 -91 23 -31 41 -61 41 -65 0 -13 47 -35 58 -28 15 9 21 54 7 60 -6 2 -30 35 -53 73 -41 68 -69 103 -164 208 -27 28 -48 55 -48 59 0 9 -74 75 -216 193 -72 61 -208 146 -334 209 -69 35 -131 64 -137 64 -7 0 -13 5 -13 11 0 5 -4 8 -8 5 -4 -3 -39 6 -76 19 -77 27 -247 69 -351 86 -66 12 -509 21 -519 12z"></path>
            <path id="p5c0CzeaA" d="M2752 2388 c-5 -7 -30 -54 -54 -105 -43 -89 -43 -92 -26 -115 9 -14 29 -48 43 -76 l26 -52 130 0 129 0 -2 178 -3 177 -116 3 c-85 2 -119 -1 -127 -10z"></path>
            <path id="pCBBAjryW" d="M3875 1258 c-9 -13 -43 -62 -76 -111 -36 -51 -65 -85 -71 -81 -6 4 -8 2 -5 -4 24 -37 -341 -374 -508 -469 -52 -29 -192 -96 -228 -109 -22 -8 -45 -18 -51 -23 -34 -26 -336 -108 -428 -115 -32 -3 -62 -7 -67 -11 -13 -8 -377 -8 -390 -1 -6 4 -38 9 -73 11 -119 8 -392 79 -429 111 -9 8 -19 11 -22 8 -4 -4 -14 -1 -23 7 -9 8 -22 14 -28 14 -17 1 -194 92 -206 106 -3 4 -14 9 -25 13 -21 6 -135 84 -190 129 -125 103 -175 151 -175 169 0 6 -3 9 -6 5 -8 -7 -78 66 -102 106 -9 15 -20 27 -24 27 -4 0 -19 17 -32 38 -14 20 -43 63 -65 95 -22 31 -43 66 -46 77 -4 14 -15 20 -36 20 -56 0 -34 -55 88 -220 138 -187 310 -346 518 -481 50 -33 95 -63 102 -69 7 -5 15 -10 19 -10 4 0 44 -17 88 -39 221 -105 443 -165 686 -186 62 -5 306 -5 360 0 190 18 483 101 647 184 46 22 87 41 93 41 6 0 23 11 38 25 15 14 31 25 36 25 10 0 106 64 201 135 180 135 483 491 488 575 3 34 -35 40 -58 8z"></path>
        </g>
    </g>
    <g id="l71TtkQzrd01N4YBI5kXdh7" fill="rgb(0,0,0)" style="transform: none;">
        <g>
            <path id="puO6OdB1n" d="M2530 3753 c0 -11 7 -14 25 -11 14 3 25 2 25 -3 0 -12 67 -22 82 -13 9 6 2 11 -22 15 -19 4 -52 12 -72 17 -32 8 -38 7 -38 -5z"></path>
            <path id="pbu0xnUHC" d="M1805 3730 c3 -5 13 -10 21 -10 8 0 14 5 14 10 0 6 -9 10 -21 10 -11 0 -17 -4 -14 -10z"></path>
            <path id="p13coZhxSe" d="M2680 3710 c0 -5 9 -10 20 -10 11 0 20 5 20 10 0 6 -9 10 -20 10 -11 0 -20 -4 -20 -10z"></path>
            <path id="p9lDtlr8W" d="M1488 3604 c-16 -8 -28 -20 -27 -27 0 -9 2 -9 6 1 2 6 9 10 14 6 5 -3 9 -1 9 4 0 6 7 9 16 8 9 0 19 5 21 12 6 16 -5 15 -39 -4z"></path>
            <path id="pw3Wtiuo6" d="M2990 3588 c0 -18 18 -34 28 -24 3 4 -2 14 -11 23 -16 16 -17 16 -17 1z"></path>
            <path id="pqP6iPgHJ" d="M1302 3482 l-23 -18 26 -2 c19 -1 25 3 25 18 0 24 1 24 -28 2z"></path>
            <path id="pvPXoYV9d" d="M3123 3474 c-16 -12 -13 -13 25 -14 24 0 41 4 38 9 -10 16 -45 19 -63 5z"></path>
            <path id="p14gn1EaMX" d="M532 3008 c7 -19 38 -22 38 -4 0 10 -9 16 -21 16 -12 0 -19 -5 -17 -12z"></path>
            <path id="pGagquV6y" d="M2202 3008 c7 -19 38 -22 38 -4 0 10 -9 16 -21 16 -12 0 -19 -5 -17 -12z"></path>
            <path id="p3w1CsyHD" d="M3077 3014 c-4 -4 -7 -17 -7 -28 1 -19 1 -20 11 -3 11 19 8 43 -4 31z"></path>
            <path id="pgLnK6iR2" d="M3730 3010 c0 -5 7 -10 15 -10 8 0 15 5 15 10 0 6 -7 10 -15 10 -8 0 -15 -4 -15 -10z"></path>
            <path id="p1BSO9znRl" d="M4270 3010 c0 -5 9 -10 20 -10 11 0 20 5 20 10 0 6 -9 10 -20 10 -11 0 -20 -4 -20 -10z"></path>
            <path id="pzVs7F8VJ" d="M802 2398 c5 -15 37 -18 41 -3 1 6 -9 12 -22 13 -16 3 -22 -1 -19 -10z"></path>
            <path id="p1jSuxjeZ" d="M2903 1573 c-18 -7 -16 -23 2 -23 8 0 15 7 15 15 0 8 -1 15 -2 14 -2 0 -9 -3 -15 -6z"></path>
            <path id="ptqxHZahV" d="M1295 1038 c11 -6 23 -16 27 -22 5 -6 8 -1 8 12 0 17 -6 22 -27 22 -26 -1 -27 -1 -8 -12z"></path>
        </g>
    </g>
</svg>