<svg xmlns="http://www.w3.org/2000/svg" viewBox="0 0 6300 6300">
    <g fill="#bf0202" style="transform: none;">
        <g>
            <path d="M3294 6110 c-70 -16 -129 -86 -138 -161 -9 -83 46 -164 131 -193 55 -19 66 -19 133 -5 42 9 50 14 50 33 0 12 -13 37 -29 56 -26 32 -30 34 -55 22 -43 -19 -92 -15 -123 12 -24 21 -28 32 -28 74 0 63 19 99 62 113 45 14 85 4 139 -37 62 -48 86 -32 42 27 -37 49 -118 75 -184 59z"></path>
            <path d="M3616 6099 c-20 -16 -26 -29 -26 -60 0 -22 -5 -49 -10 -59 -8 -16 -6 -22 13 -35 13 -8 34 -40 47 -72 l23 -56 -27 -22 c-28 -22 -28 -23 -11 -49 10 -14 28 -28 41 -31 13 -3 34 -7 47 -10 20 -4 34 11 98 98 125 170 149 204 149 215 0 12 -97 36 -125 30 -14 -2 -19 -10 -17 -27 2 -13 1 -34 -2 -47 -7 -28 -34 -31 -111 -11 -55 15 -58 22 -42 115 8 49 -4 55 -47 21z m147 -185 c9 -3 17 -9 17 -14 0 -15 -53 -60 -71 -60 -21 0 -55 70 -41 85 6 6 55 0 95 -11z"></path>
            <path d="M2635 6055 c-18 -14 -18 -19 -6 -63 26 -91 27 -85 -39 -140 -34 -29 -65 -52 -70 -52 -10 0 -62 192 -58 216 2 14 -2 18 -17 16 -38 -6 -50 -28 -38 -64 10 -28 27 -94 74 -280 6 -21 14 -38 19 -38 5 0 25 25 45 55 36 54 97 115 115 115 10 0 25 -65 22 -91 -3 -21 37 -32 84 -23 37 7 42 20 20 62 -20 40 -76 240 -76 273 0 25 -4 29 -27 29 -16 0 -37 -7 -48 -15z"></path>
            <path d="M4067 6008 c-9 -7 -28 -44 -42 -83 -14 -38 -42 -112 -61 -164 -19 -51 -32 -96 -29 -99 2 -3 33 7 67 21 72 29 137 41 156 28 12 -7 11 -14 -3 -42 -10 -19 -22 -37 -27 -40 -16 -10 2 -35 41 -57 51 -29 61 -28 61 8 0 33 70 226 101 279 20 33 20 36 3 48 -23 17 -68 17 -82 1 -5 -7 -16 -32 -23 -56 -7 -23 -17 -47 -24 -52 -14 -12 -163 -35 -172 -26 -9 8 14 77 53 161 25 51 30 71 21 77 -16 10 -21 10 -40 -4z"></path>
            <path d="M2243 5935 c-31 -14 -53 -31 -53 -40 0 -8 4 -15 9 -15 12 0 34 -57 27 -69 -11 -17 -119 -62 -136 -56 -10 3 -28 30 -41 60 -25 58 -30 62 -47 42 -24 -29 -24 -63 1 -93 14 -16 26 -38 28 -49 3 -12 15 -22 31 -25 15 -3 48 -20 73 -38 44 -31 47 -35 41 -66 -7 -38 3 -46 56 -46 49 0 86 28 85 64 0 17 1 103 2 191 2 128 0 161 -11 163 -7 1 -37 -9 -65 -23z m-7 -189 c10 -26 -11 -81 -32 -84 -21 -3 -74 32 -74 49 0 9 73 46 93 48 4 1 10 -5 13 -13z"></path>
            <path d="M4510 5770 c0 -26 -99 -210 -116 -217 -8 -3 -34 7 -58 21 -44 26 -45 26 -56 7 -27 -52 9 -89 130 -131 36 -12 80 -34 98 -47 38 -29 50 -23 58 28 4 31 1 37 -36 62 -22 16 -40 33 -40 38 0 6 27 51 60 101 33 51 60 97 60 104 0 19 -50 54 -76 54 -17 0 -24 -6 -24 -20z"></path>
            <path d="M1835 5746 c-24 -31 -26 -44 -27 -123 0 -96 -7 -113 -47 -113 -21 0 -34 12 -64 60 -40 63 -46 67 -78 50 -28 -15 -23 -38 21 -105 22 -33 40 -64 40 -70 0 -5 13 -24 28 -42 16 -17 37 -50 47 -72 12 -27 24 -41 37 -41 27 0 78 28 78 44 0 7 -18 32 -40 55 -63 67 -51 91 47 91 56 0 93 -18 108 -54 l13 -29 26 26 c28 28 32 53 13 78 -20 26 -53 39 -97 39 -38 0 -42 3 -57 37 -11 28 -14 60 -11 120 2 46 1 83 -3 83 -5 0 -20 -15 -34 -34z"></path>
            <path d="M4807 5639 c-39 -11 -54 -25 -61 -59 -3 -18 -12 -30 -21 -30 -17 0 -21 -25 -5 -35 11 -7 12 -86 1 -125 -4 -14 -17 -27 -31 -30 -39 -10 -32 -66 11 -102 18 -16 36 -28 39 -28 18 0 340 184 340 194 0 6 -8 18 -17 26 -26 22 -80 60 -86 60 -3 0 -14 -16 -26 -35 -11 -20 -27 -38 -35 -41 -20 -8 -126 65 -126 86 0 9 16 38 35 63 19 25 35 48 35 50 0 11 -27 13 -53 6z m44 -220 c27 -20 22 -29 -28 -49 -45 -17 -63 -8 -63 34 0 19 3 41 6 50 6 14 9 14 33 0 15 -9 38 -24 52 -35z"></path>
            <path d="M1472 5497 c-29 -30 -28 -48 4 -78 14 -13 35 -36 45 -51 l19 -27 -37 -75 c-30 -60 -40 -73 -53 -66 -8 5 -45 45 -80 89 -36 44 -71 81 -77 81 -12 0 -30 -46 -22 -55 49 -49 174 -184 203 -220 21 -25 42 -43 46 -38 3 4 12 45 18 90 18 134 38 151 93 83 37 -45 47 -48 79 -20 13 11 27 20 32 20 20 0 3 23 -81 109 -49 50 -104 111 -122 136 -18 25 -35 45 -39 45 -4 0 -16 -10 -28 -23z"></path>
            <path d="M5117 5313 c-4 -3 -7 -17 -7 -30 0 -35 -115 -143 -153 -143 -35 0 -42 -18 -23 -64 17 -42 99 -132 138 -152 34 -18 82 -18 96 -1 6 7 14 32 18 54 l6 42 49 -6 c44 -5 51 -3 78 25 42 41 41 84 0 143 -69 96 -172 163 -202 132z m84 -144 c42 -45 35 -99 -12 -99 -17 0 -99 73 -99 89 0 18 32 41 57 41 15 0 36 -12 54 -31z m-92 -85 c23 -26 41 -50 41 -54 0 -14 -42 -50 -59 -50 -10 0 -35 18 -55 40 -35 39 -36 41 -21 69 13 26 27 38 47 40 3 1 25 -20 47 -45z"></path>
            <path d="M2590 5285 c-30 -8 -71 -21 -91 -29 -20 -8 -86 -26 -146 -40 -60 -13 -138 -34 -174 -46 -163 -55 -356 -171 -507 -305 -100 -89 -132 -131 -188 -246 -26 -52 -74 -141 -108 -199 -73 -126 -73 -126 -158 -282 -143 -263 -166 -362 -209 -893 -6 -82 -16 -142 -27 -165 -12 -25 -17 -61 -17 -130 0 -91 2 -100 49 -215 27 -66 66 -181 87 -255 71 -257 118 -386 224 -605 36 -74 65 -140 65 -146 0 -23 76 -145 114 -183 23 -23 72 -63 109 -89 37 -27 106 -85 152 -129 103 -98 159 -141 233 -179 31 -17 80 -52 107 -79 66 -65 281 -169 453 -219 168 -49 472 -74 628 -52 33 5 123 34 200 64 126 49 148 55 239 60 96 5 107 8 243 68 77 34 144 69 147 76 16 42 -46 75 -99 54 -41 -17 -54 -18 -58 -6 -3 10 32 30 129 73 36 16 53 30 55 44 3 22 8 24 153 67 54 15 86 33 138 76 64 53 136 94 165 95 8 0 12 -16 12 -46 0 -55 1 -55 102 17 163 117 201 163 259 309 34 87 100 199 130 220 3 3 28 38 54 79 26 40 75 103 110 140 79 84 118 154 145 259 11 46 28 102 37 124 23 58 3 73 -30 21 -58 -92 -84 -91 -68 3 5 33 13 91 16 129 3 39 8 85 11 104 l5 33 28 -26 c33 -31 45 -32 78 -6 14 11 31 20 38 20 28 0 37 36 52 207 13 148 14 202 4 318 -16 190 -31 255 -95 405 -53 123 -55 132 -54 212 1 61 -4 92 -16 118 -10 19 -82 98 -160 175 -250 246 -273 276 -305 394 -12 45 -27 95 -32 109 l-10 25 -39 -38 -39 -38 -30 24 c-16 13 -75 62 -131 109 -257 213 -307 251 -405 299 -98 48 -144 65 -276 101 -76 20 -131 15 -194 -17 -22 -11 -62 -24 -89 -27 -27 -4 -58 -11 -70 -16 -25 -10 -27 -9 112 -41 56 -13 102 -27 102 -30 0 -9 -42 -36 -128 -80 -88 -47 -128 -49 -196 -13 -48 25 -50 26 -63 8 -25 -34 -11 -47 95 -83 99 -34 124 -53 81 -64 -44 -12 -8 -34 136 -82 83 -28 155 -54 162 -58 20 -13 3 -35 -35 -48 -38 -12 -59 -25 -51 -33 2 -2 51 -7 109 -11 130 -8 128 -7 225 -63 163 -93 197 -128 249 -257 78 -191 219 -378 313 -414 42 -17 59 -37 73 -91 20 -74 50 -96 50 -36 0 18 7 39 15 46 13 11 21 8 48 -18 60 -58 94 -132 152 -327 32 -104 70 -213 86 -241 l28 -51 -19 -119 c-10 -66 -24 -159 -30 -209 -9 -63 -20 -101 -36 -126 -29 -43 -30 -58 -3 -112 43 -87 12 -215 -72 -299 -33 -33 -46 -53 -42 -67 3 -10 -1 -29 -7 -42 -12 -21 -167 -242 -211 -299 -31 -41 -57 -94 -64 -132 -6 -29 -3 -40 14 -57 11 -11 18 -26 15 -33 -8 -22 -169 -141 -236 -176 -134 -69 -153 -83 -188 -138 -41 -64 -71 -79 -165 -88 -78 -8 -271 -59 -326 -86 -19 -10 -41 -31 -48 -47 -7 -15 -19 -38 -27 -51 l-15 -22 -36 27 -36 28 -336 1 c-190 1 -351 6 -371 11 -56 17 -161 58 -218 87 -62 31 -91 33 -120 6 l-22 -21 -48 39 c-26 21 -76 55 -112 75 -58 32 -150 122 -150 148 0 5 -30 28 -67 52 -118 78 -229 203 -328 372 -54 92 -264 506 -331 650 -103 225 -111 256 -94 371 6 44 17 142 25 220 44 435 193 810 446 1119 108 132 234 243 334 292 135 67 228 93 395 114 102 12 218 47 369 111 115 49 125 54 145 89 15 25 15 31 -4 91 -11 34 -36 89 -57 120 -100 151 -251 207 -433 163z m-1401 -1579 c18 -19 21 -30 15 -65 -4 -24 -22 -66 -42 -93 -49 -73 -56 -102 -32 -154 23 -52 10 -66 -28 -33 -42 37 -43 41 -37 97 6 50 57 240 70 262 10 16 30 12 54 -14z m94 -304 c34 -36 34 -47 -3 -105 -22 -35 -36 -47 -54 -47 -50 0 -59 56 -23 143 19 45 43 48 80 9z m3850 -594 c-31 -103 -42 -123 -55 -110 -10 10 10 128 31 185 9 23 14 26 30 17 19 -10 19 -12 -6 -92z m-424 -992 c15 -18 5 -41 -25 -55 -23 -10 -24 -9 -18 17 12 58 21 65 43 38z m-1345 -865 c23 -24 15 -38 -32 -51 -96 -26 -128 -4 -74 53 22 23 33 27 57 22 16 -3 38 -14 49 -24z"></path>
            <path d="M1190 5218 c-11 -12 -20 -29 -20 -38 0 -21 28 -60 44 -60 6 0 53 -38 103 -85 50 -47 97 -85 105 -85 16 0 68 44 68 58 0 5 -11 13 -25 16 -13 3 -74 53 -134 111 -61 58 -112 105 -115 105 -3 0 -14 -10 -26 -22z"></path>
            <path d="M1087 5040 c-76 -14 -150 -98 -151 -172 -1 -38 2 -43 23 -46 13 -2 39 -1 58 3 34 6 34 6 27 50 -5 38 -3 47 19 69 41 41 66 34 159 -44 45 -38 88 -70 93 -70 6 1 25 14 43 31 33 30 35 49 4 49 -9 0 -48 25 -87 56 -75 60 -116 85 -137 83 -7 -1 -30 -5 -51 -9z"></path>
            <path d="M5430 4945 c-25 -19 -55 -35 -67 -35 -13 0 -23 -4 -23 -10 0 -5 -10 -18 -22 -30 -17 -15 -35 -20 -80 -20 -55 0 -58 -1 -58 -25 0 -60 88 -187 152 -221 64 -33 118 -5 132 69 3 19 18 45 32 58 23 21 35 24 105 24 93 -1 102 12 33 45 -40 20 -56 22 -123 16 -76 -6 -78 -6 -92 20 -12 24 -12 28 8 43 11 9 35 24 53 33 23 13 31 24 28 40 -5 34 -28 32 -78 -7z m-45 -131 c8 -9 22 -29 31 -45 14 -28 13 -30 -12 -54 -33 -31 -61 -32 -91 -3 -32 30 -29 61 8 92 36 30 42 31 64 10z"></path>
            <path d="M852 4705 c-53 -16 -69 -29 -92 -75 -15 -30 -17 -44 -9 -79 19 -84 45 -120 107 -148 31 -13 71 -36 89 -49 40 -30 44 -30 78 2 l27 25 -102 52 c-120 60 -132 77 -105 137 22 50 67 84 98 76 12 -3 57 -28 100 -56 63 -41 81 -49 93 -39 26 22 17 59 -18 74 -18 8 -57 32 -87 54 -59 46 -99 51 -179 26z"></path>
            <path d="M5600 4614 c-24 -19 -82 -54 -127 -76 -46 -23 -83 -48 -83 -55 0 -15 28 -73 35 -73 3 0 33 17 67 38 35 21 102 58 150 83 48 24 90 50 93 58 8 21 -34 61 -64 61 -15 0 -46 -16 -71 -36z"></path>
            <path d="M5728 4467 c-19 -13 -46 -27 -61 -31 -21 -5 -27 -12 -27 -35 0 -16 -15 -51 -33 -77 -31 -47 -34 -49 -80 -49 -31 0 -51 -5 -57 -15 -16 -25 -11 -83 9 -114 16 -24 27 -30 63 -32 114 -5 365 -25 380 -30 9 -3 19 0 23 6 8 14 -44 160 -57 160 -6 0 -23 -9 -39 -21 -16 -11 -41 -21 -56 -22 -23 -2 -29 4 -44 43 -9 25 -23 59 -30 77 -17 42 -4 56 72 84 63 23 72 39 37 63 -31 22 -59 20 -100 -7z m-19 -215 c14 -48 1 -62 -45 -52 -40 9 -64 26 -64 46 0 7 14 30 32 50 l32 36 18 -22 c10 -12 22 -38 27 -58z"></path>
            <path d="M695 4379 c-70 -19 -127 -118 -133 -231 l-4 -68 53 2 c68 3 176 -42 190 -79 7 -19 14 -23 32 -17 35 10 45 22 77 88 32 68 46 132 36 169 -8 34 -50 51 -92 37 -38 -13 -54 -7 -54 19 0 21 -34 67 -58 80 -9 4 -31 4 -47 0z m65 -129 c20 -20 20 -20 0 -72 -11 -29 -20 -54 -20 -55 0 -2 -11 -3 -23 -3 -56 0 -71 64 -31 125 20 30 47 32 74 5z m125 -50 c22 -24 11 -63 -27 -95 -30 -26 -64 -26 -80 -2 -7 11 13 66 37 104 16 24 44 22 70 -7z"></path>
            <path d="M662 2219 c-19 -6 -54 -30 -79 -55 l-46 -46 5 -73 c4 -55 11 -84 31 -117 46 -79 71 -84 100 -22 22 44 21 60 -1 76 -40 28 -55 95 -29 129 19 26 89 59 123 59 20 0 39 -9 55 -26 22 -23 24 -34 24 -114 0 -49 3 -92 7 -95 11 -12 58 69 58 101 0 136 -115 221 -248 183z"></path>
            <path d="M5572 2137 c-125 -46 -157 -173 -64 -263 56 -55 86 -67 156 -62 76 5 121 33 148 95 35 79 -7 170 -102 218 -54 27 -87 30 -138 12z m156 -107 c37 -26 42 -35 42 -69 0 -55 -31 -91 -78 -91 -76 0 -151 63 -138 115 19 77 101 98 174 45z"></path>
            <path d="M787 1816 c-32 -24 -71 -49 -87 -56 -17 -7 -30 -16 -30 -20 0 -12 22 -70 26 -70 2 0 32 20 67 44 72 50 120 76 141 76 25 0 73 -57 80 -95 10 -51 -5 -68 -104 -123 -47 -26 -85 -53 -85 -60 0 -7 12 -20 26 -29 25 -15 28 -15 60 8 18 13 56 35 84 49 70 35 110 101 110 181 0 51 -3 60 -32 87 -36 35 -87 52 -153 52 -37 0 -55 -8 -103 -44z"></path>
            <path d="M5385 1770 c-78 -24 -164 -166 -135 -220 12 -23 29 -24 84 -9 35 10 37 13 31 37 -16 65 1 113 47 128 20 6 90 -33 164 -93 23 -18 46 -33 51 -33 10 0 73 65 73 74 0 2 -26 16 -57 31 -32 16 -78 42 -102 58 -47 32 -106 42 -156 27z"></path>
            <path d="M1094 1525 c-31 -30 -87 -78 -125 -106 -38 -29 -69 -58 -69 -65 0 -7 30 -49 68 -92 37 -44 79 -95 94 -113 27 -33 28 -33 43 -15 8 11 15 26 15 35 0 8 -34 46 -76 84 -82 76 -88 96 -44 128 14 11 37 20 51 21 19 2 25 7 22 19 -5 19 31 49 59 49 22 0 105 -104 113 -141 10 -46 30 -55 71 -33 50 27 52 51 11 115 -36 56 -147 169 -167 169 -6 0 -36 -25 -66 -55z"></path>
            <path d="M5144 1441 c-108 -49 -124 -170 -33 -262 91 -93 202 -92 272 3 26 36 34 116 14 154 -25 49 -60 82 -107 103 -56 25 -93 26 -146 2z m152 -93 c44 -34 63 -61 64 -86 0 -37 -27 -78 -60 -92 -26 -11 -36 -10 -70 5 -59 27 -85 59 -85 107 0 77 87 115 151 66z"></path>
            <path d="M1419 1214 c-18 -19 -46 -43 -61 -52 -15 -8 -29 -23 -31 -33 -6 -24 -51 -51 -90 -54 -17 -2 -35 -3 -39 -4 -17 -2 -6 -41 23 -82 41 -58 85 -98 134 -120 86 -40 130 -17 145 75 13 83 38 106 126 120 75 12 71 41 -9 52 -36 5 -62 1 -108 -16 -61 -22 -62 -22 -81 -2 -17 17 -18 23 -8 43 7 13 26 36 43 50 20 17 28 32 24 43 -10 25 -30 19 -68 -20z m5 -163 c36 -38 30 -70 -19 -96 -34 -19 -35 -19 -62 1 -38 29 -40 55 -4 92 36 40 50 40 85 3z"></path>
            <path d="M4897 1146 c-89 -25 -160 -105 -105 -119 13 -4 63 -47 112 -96 l89 -90 -17 -26 c-41 -63 34 -37 106 37 85 86 96 143 41 216 -56 74 -138 103 -226 78z m138 -96 c50 -39 64 -60 65 -89 0 -28 -36 -71 -60 -71 -20 0 -160 127 -160 145 0 22 41 45 81 45 25 0 48 -9 74 -30z"></path>
            <path d="M1779 902 c-146 -75 -239 -138 -239 -162 0 -20 44 -70 62 -70 4 0 14 12 21 28 15 34 19 38 88 90 66 49 102 58 107 25 2 -13 -4 -57 -13 -98 -13 -58 -24 -83 -47 -106 -34 -33 -30 -45 19 -55 43 -9 58 18 77 141 17 114 31 255 24 255 -2 0 -47 -22 -99 -48z"></path>
            <path d="M4415 814 c-100 -41 -156 -110 -112 -138 51 -32 69 -31 102 8 21 26 41 38 67 43 33 5 39 3 49 -20 14 -31 -5 -63 -62 -103 -38 -26 -69 -69 -69 -94 0 -21 49 -60 76 -60 54 0 109 25 156 70 44 43 62 80 38 80 -5 0 -32 -20 -59 -45 -70 -61 -151 -75 -151 -25 0 21 5 26 100 102 67 54 80 84 57 132 -33 70 -101 87 -192 50z"></path>
            <path d="M2065 820 c-28 -11 -39 -27 -58 -85 -13 -41 -14 -52 -3 -65 17 -20 38 -107 31 -129 -3 -10 -17 -23 -30 -29 -33 -15 -32 -34 5 -70 53 -54 67 -50 170 41 153 136 190 172 190 182 0 15 -86 57 -108 53 -8 -2 -20 -17 -26 -35 -19 -57 -28 -59 -100 -25 -74 35 -77 42 -46 111 26 56 19 70 -25 51z m100 -221 c14 -15 -42 -61 -68 -57 -26 4 -44 62 -27 84 10 11 17 11 48 -2 21 -8 42 -20 47 -25z"></path>
            <path d="M4150 702 c-22 -18 -23 -21 -10 -66 7 -25 17 -49 21 -52 20 -12 5 -43 -50 -102 -45 -48 -60 -60 -68 -50 -13 15 -73 192 -73 214 0 17 -5 17 -31 4 -25 -14 -24 -37 2 -102 12 -29 38 -102 59 -162 20 -61 41 -111 46 -113 6 -2 23 25 40 59 32 68 86 132 106 126 7 -3 18 -27 24 -54 l10 -49 43 1 c23 0 49 8 57 16 14 14 12 21 -17 73 -18 32 -49 106 -69 164 -39 113 -51 125 -90 93z"></path>
            <path d="M2453 619 c-44 -13 -47 -22 -23 -70 22 -41 22 -41 68 -36 81 9 128 -35 85 -78 -14 -15 -29 -16 -92 -11 -72 6 -77 5 -103 -19 -47 -44 -34 -89 37 -131 58 -34 153 -44 178 -19 9 9 17 23 17 31 0 17 3 16 -38 5 -60 -18 -179 28 -166 64 9 23 47 32 104 24 89 -12 125 -10 147 9 72 62 52 152 -44 205 -57 31 -123 41 -170 26z"></path>
            <path d="M3718 570 c-47 -14 -86 -43 -108 -82 -18 -33 -21 -51 -18 -107 3 -58 8 -73 36 -108 69 -88 169 -97 239 -21 26 28 53 89 53 120 0 112 -112 222 -202 198z m69 -106 c27 -7 63 -77 63 -123 0 -38 -46 -91 -80 -91 -56 0 -110 53 -110 107 0 81 54 126 127 107z"></path>
            <path d="M3406 541 c-3 -5 -1 -32 4 -61 11 -56 4 -120 -14 -146 -11 -14 -16 -14 -50 6 l-37 23 -28 -27 c-46 -44 -51 -36 -51 73 0 55 -3 102 -7 104 -16 9 -72 -14 -75 -31 -2 -9 -1 -33 4 -52 4 -19 8 -92 8 -162 0 -96 3 -128 13 -128 20 0 62 32 104 80 39 43 41 44 64 28 14 -8 33 -32 44 -52 11 -20 25 -36 31 -36 26 0 74 115 99 236 8 42 -14 93 -54 127 -34 29 -46 33 -55 18z"></path>
            <path d="M2760 362 c0 -44 21 -55 113 -59 45 -2 108 -5 140 -6 53 -3 57 -2 57 18 0 45 -32 58 -120 52 -72 -5 -102 -1 -167 18 -20 7 -23 4 -23 -23z"></path>
        </g>
    </g>
    <g fill="#2d2d2d" style="transform: none;">
        <path d="M3430 4718 c-18 -13 -42 -40 -52 -60 -28 -54 -39 -202 -33 -431 3 -109 3 -207 0 -217 -10 -30 -31 -24 -93 26 -80 66 -113 78 -156 60 -43 -18 -62 -48 -71 -108 -8 -56 -26 -74 -82 -83 -22 -3 -49 -15 -59 -26 -9 -10 -20 -19 -24 -19 -4 0 -10 105 -13 233 -9 308 -17 364 -59 427 -33 48 -70 72 -119 77 -97 10 -174 -70 -204 -213 -14 -68 -14 -72 25 -267 22 -108 41 -203 43 -210 4 -24 -21 -11 -78 38 -131 113 -233 176 -347 213 -111 37 -111 37 205 -353 119 -146 205 -261 200 -266 -5 -5 -41 -13 -82 -19 -84 -12 -102 -20 -129 -57 -25 -35 -65 -164 -55 -174 5 -4 125 -43 267 -86 143 -43 261 -84 263 -90 6 -18 -43 -61 -78 -68 -19 -4 -53 1 -95 15 -189 63 -366 -55 -382 -256 -6 -74 -15 -70 114 -48 161 29 177 12 146 -153 -21 -107 -40 -164 -83 -235 -25 -41 -21 -59 15 -83 44 -29 94 -29 174 -2 78 28 90 36 121 88 16 25 21 51 21 99 0 141 32 240 77 240 17 0 16 -21 -3 -116 -12 -59 -15 -106 -11 -185 6 -94 4 -108 -12 -123 -9 -9 -23 -16 -29 -16 -21 0 -136 -42 -193 -71 -31 -15 -68 -42 -82 -58 -27 -33 -65 -124 -74 -180 -5 -30 -4 -33 13 -28 200 65 175 61 384 60 122 0 242 -6 320 -17 68 -9 128 -16 132 -16 4 0 8 -7 8 -16 0 -14 -26 -15 -252 -8 l-253 7 -45 -35 c-67 -51 -139 -182 -123 -224 4 -12 58 -14 329 -14 253 0 324 -3 324 -12 0 -7 -20 -55 -45 -106 -25 -52 -43 -97 -40 -101 9 -15 203 -22 267 -11 83 15 91 20 209 130 164 152 238 289 225 416 -16 161 -101 262 -221 264 l-40 1 30 22 c47 35 64 54 71 83 10 39 -13 71 -73 100 -29 15 -53 33 -53 41 0 21 89 188 139 262 45 66 109 123 163 145 30 13 38 13 54 2 21 -15 29 13 -78 -281 -54 -149 -53 -145 -34 -145 30 0 259 238 320 333 65 99 128 229 145 298 21 88 -39 209 -104 209 -14 0 -42 -7 -63 -16 -101 -43 -119 -37 -68 25 56 67 81 128 80 196 -2 111 -95 386 -167 495 -58 87 -71 100 -108 100 -31 0 -43 -13 -84 -89 -33 -62 -58 -73 -94 -44 -22 18 -22 21 -22 285 1 289 -5 330 -54 394 -52 68 -112 87 -165 52z m-75 -973 c0 -6 -35 -11 -77 -13 -72 -3 -78 -1 -78 17 0 11 5 21 12 23 19 7 143 -17 143 -27z m432 -1 c9 -24 -15 -34 -89 -34 -67 0 -85 8 -74 35 8 23 154 21 163 -1z m-802 -249 c0 -41 -5 -79 -10 -84 -13 -13 -105 45 -105 66 0 7 21 36 47 64 57 62 68 54 68 -46z m280 30 c54 -9 76 -22 68 -41 -4 -12 -21 -14 -82 -12 -64 3 -76 6 -79 21 -5 24 17 49 37 43 9 -2 34 -7 56 -11z m493 -27 c-3 -21 -9 -23 -77 -26 -52 -2 -77 1 -82 10 -16 26 12 38 88 38 71 0 74 -1 71 -22z m-403 -308 c-1 -25 -9 -94 -19 -155 -10 -60 -20 -132 -23 -159 -6 -48 -5 -49 18 -41 26 8 148 42 164 45 22 5 35 -1 35 -14 0 -21 -109 -96 -139 -96 -49 0 -327 127 -337 154 -3 8 6 36 20 63 14 26 26 54 26 60 0 7 -32 44 -71 82 -44 44 -69 76 -67 87 5 29 25 27 45 -6 10 -17 28 -33 41 -37 23 -5 102 23 102 37 0 20 109 39 170 30 34 -5 35 -7 35 -50z m370 -22 c36 -23 65 -45 65 -49 0 -13 -152 -119 -161 -113 -5 3 -9 50 -9 105 0 93 1 99 20 99 11 0 50 -19 85 -42z m-592 -537 c23 -10 71 -31 107 -46 83 -34 96 -46 81 -74 -9 -17 -18 -20 -39 -15 -57 14 -195 64 -218 79 -26 17 -31 44 -12 63 16 16 32 15 81 -7z m-34 -292 c139 -44 161 -57 161 -96 0 -12 -3 -23 -7 -24 -45 -6 -181 -4 -190 3 -13 11 -28 102 -18 118 8 13 10 13 54 -1z"></path>
        <path d="M5780 3209 c-44 -26 -58 -44 -71 -92 -14 -51 2 -97 46 -136 47 -41 91 -48 148 -23 84 37 111 137 56 212 -46 62 -115 77 -179 39z"></path>
        <path d="M520 3233 c-23 -9 -60 -45 -76 -75 -46 -89 28 -198 133 -198 69 0 143 73 143 140 0 35 -30 89 -65 116 -31 23 -95 32 -135 17z"></path>
    </g>
</svg>