<svg xmlns="http://www.w3.org/2000/svg" viewBox="0 0 2880 2880">
    <title>Logo de la Bujinkan oscuro</title>
    <g fill="#2d2d2d" style="transform: none;">
        <g>
            <path d="M1007 2849 c-27 -10 -76 -23 -110 -28 -66 -9 -234 -84 -334 -148 -83 -53 -193 -152 -208 -187 -7 -17 -28 -67 -46 -111 -18 -44 -59 -118 -91 -165 -59 -89 -102 -174 -117 -238 -5 -20 -17 -64 -26 -97 -9 -33 -18 -112 -21 -175 -3 -63 -13 -146 -21 -185 -23 -106 -23 -171 3 -235 25 -63 50 -150 58 -199 6 -32 43 -128 72 -183 8 -14 14 -39 14 -54 0 -35 160 -363 177 -364 14 0 129 -93 217 -175 32 -30 63 -55 68 -55 5 0 16 -6 24 -14 7 -8 25 -13 39 -11 21 2 24 -1 19 -17 -8 -27 27 -55 95 -74 115 -32 126 -37 141 -54 23 -27 172 -62 230 -54 30 4 50 2 54 -5 10 -15 82 -14 139 4 36 11 54 12 69 4 22 -12 65 -4 88 16 8 7 29 15 45 17 22 2 29 8 27 20 -2 13 7 19 35 24 25 5 38 3 41 -5 6 -18 39 -13 95 13 29 14 66 28 82 32 17 4 55 25 86 46 36 24 68 38 88 38 17 0 31 3 31 8 0 15 -89 6 -108 -11 -21 -19 -39 -22 -44 -7 -2 7 -17 5 -41 -5 -39 -16 -49 -8 -19 16 31 26 61 39 87 39 14 0 25 5 25 11 0 6 -7 8 -16 5 -12 -5 -14 -1 -8 17 8 28 16 35 21 20 5 -15 72 -6 94 13 8 8 25 14 35 14 11 0 33 14 50 31 16 17 45 39 66 50 32 16 37 17 49 3 10 -12 9 -19 -8 -36 -21 -21 -49 -17 -36 5 4 7 0 6 -10 -2 -19 -15 -23 -56 -7 -66 5 -3 27 11 49 32 51 50 140 127 169 144 12 8 22 22 22 31 0 10 8 22 19 27 21 12 37 61 23 70 -14 9 147 221 167 221 9 0 25 17 36 38 10 20 32 50 49 65 21 19 27 30 19 34 -18 7 -16 28 6 71 24 48 39 118 22 108 -6 -4 -18 -23 -26 -42 -24 -59 -39 -43 -30 34 4 37 8 86 9 109 1 52 20 76 30 39 9 -35 41 -34 60 2 15 26 15 26 16 4 0 -13 4 -21 9 -18 8 5 20 131 23 256 2 46 -10 184 -19 230 -3 14 -6 31 -6 38 0 6 -6 12 -14 12 -7 0 -18 10 -23 23 -17 38 -39 150 -33 161 15 23 -1 116 -19 116 -15 0 -35 24 -30 38 3 11 -9 16 -34 13 -6 -1 -15 13 -20 31 -8 26 -16 34 -37 36 -16 2 -31 11 -34 20 -3 9 -32 45 -65 79 -54 57 -63 77 -59 125 1 9 -8 28 -20 42 -17 20 -25 23 -36 15 -7 -6 -13 -18 -13 -25 0 -26 -19 -14 -66 41 -27 30 -76 73 -109 95 -34 22 -72 51 -85 65 -13 14 -29 25 -37 25 -7 0 -13 5 -13 10 0 6 -21 20 -47 31 -27 12 -63 28 -80 37 -18 8 -59 16 -90 17 -32 1 -79 6 -105 10 -43 7 -48 6 -48 -12 0 -17 -6 -18 -65 -15 -36 2 -65 2 -65 -1 0 -3 33 -11 73 -17 39 -7 77 -16 82 -20 6 -4 19 -10 30 -12 13 -3 5 -7 -22 -12 -27 -5 -40 -12 -37 -20 3 -8 -16 -19 -56 -31 -48 -14 -65 -16 -85 -7 -14 6 -25 16 -25 22 0 19 -17 10 -28 -15 -11 -24 -10 -25 18 -25 32 0 80 -19 80 -32 0 -4 11 -8 25 -8 14 0 25 -5 25 -11 0 -5 -10 -9 -22 -7 -15 2 -24 -3 -26 -14 -2 -13 3 -18 17 -18 11 0 23 -5 26 -11 4 -6 14 -8 22 -5 22 9 94 -14 121 -37 22 -20 29 -38 15 -36 -24 4 -63 -2 -63 -10 0 -11 55 -21 137 -25 51 -3 68 -9 100 -34 21 -17 55 -38 76 -48 27 -13 37 -24 37 -41 0 -13 9 -32 21 -44 12 -12 18 -27 15 -36 -4 -9 4 -26 19 -41 16 -16 23 -32 20 -43 -4 -12 1 -22 14 -29 11 -5 27 -25 36 -44 26 -54 75 -95 118 -98 41 -3 41 -3 27 -28 -7 -13 -5 -27 6 -49 20 -39 35 -40 28 -1 -15 71 73 7 106 -78 12 -31 29 -72 37 -90 8 -18 12 -39 9 -47 -8 -23 37 -148 57 -153 21 -5 22 -25 2 -42 -8 -7 -15 -20 -15 -29 0 -9 -5 -22 -12 -29 -7 -7 -11 -44 -11 -98 1 -71 -2 -89 -17 -104 -16 -16 -17 -24 -8 -54 6 -20 18 -36 25 -36 16 0 12 -20 -17 -85 -9 -22 -23 -55 -30 -73 -10 -25 -17 -31 -31 -27 -13 4 -19 1 -19 -8 0 -9 6 -17 13 -20 9 -3 9 -7 -1 -20 -8 -9 -20 -13 -28 -10 -8 3 -14 -1 -14 -8 0 -7 -10 -23 -22 -36 -12 -13 -16 -23 -10 -23 20 0 13 -25 -13 -50 -14 -13 -25 -27 -25 -31 0 -5 -18 -27 -39 -51 -28 -29 -39 -51 -39 -70 1 -40 14 -44 42 -11 13 15 28 25 32 21 4 -5 -11 -26 -34 -48 -23 -21 -42 -42 -42 -45 0 -14 -67 -64 -87 -65 -12 0 -30 -11 -41 -25 -11 -14 -23 -25 -28 -25 -4 0 -27 -10 -52 -21 -33 -16 -42 -26 -39 -40 7 -28 -50 -58 -103 -54 -30 3 -55 -4 -87 -21 -35 -18 -49 -21 -60 -13 -10 9 -18 8 -32 -5 -11 -10 -27 -16 -38 -14 -11 2 -18 -3 -18 -12 0 -8 -4 -21 -8 -27 -5 -7 -6 -17 -3 -22 7 -10 -17 -21 -42 -21 -15 1 -14 3 2 15 11 8 18 15 15 16 -21 5 -360 4 -381 -2 -19 -5 -28 -3 -32 7 -4 10 -14 12 -31 8 -26 -7 -63 4 -170 51 -49 22 -86 27 -83 13 2 -7 -4 -13 -12 -13 -8 0 -21 -4 -29 -9 -10 -6 -12 -4 -7 12 5 16 -3 26 -42 51 -27 17 -53 31 -58 32 -5 0 -20 14 -34 30 -38 46 -86 90 -111 103 -13 6 -38 31 -57 56 -19 25 -47 60 -63 77 -16 18 -29 36 -29 41 0 5 -9 17 -20 27 -11 10 -20 22 -20 27 0 5 -20 41 -45 79 -25 38 -45 76 -45 84 0 7 -6 20 -13 27 -7 7 -19 33 -26 58 -7 24 -22 55 -32 69 -10 13 -19 30 -19 37 0 8 -9 31 -20 51 -11 21 -20 43 -20 50 0 7 -9 30 -21 52 -11 22 -18 48 -15 58 3 10 8 63 11 118 3 55 10 129 16 165 6 36 12 81 14 100 6 55 29 126 79 245 55 132 69 158 113 210 48 57 53 63 53 72 1 13 111 126 155 160 67 51 140 82 217 93 138 20 255 52 360 100 96 43 99 61 23 176 -52 78 -58 84 -107 99 -69 20 -132 18 -191 -6z m-871 -996 l-5 -38 14 33 c8 17 17 32 20 32 3 0 4 -21 2 -47 -1 -36 -9 -54 -29 -76 -33 -33 -40 -100 -11 -111 13 -5 14 -9 3 -19 -10 -9 -13 -9 -17 1 -3 6 -11 12 -18 12 -27 0 -35 34 -19 81 9 24 20 69 26 99 11 62 15 70 30 70 6 0 8 -14 4 -37z m50 -159 c-5 -12 -1 -14 15 -9 20 7 21 5 14 -36 -15 -86 -35 -110 -65 -74 -10 12 -9 20 5 41 10 16 14 35 11 50 -7 27 -1 44 16 44 5 0 7 -7 4 -16z m74 -31 c-1 -13 -29 -47 -35 -42 -9 10 8 49 21 49 8 0 14 -3 14 -7z m0 -62 c0 -12 -29 -35 -36 -28 -11 10 5 37 21 37 8 0 15 -4 15 -9z m2404 -278 c-11 -51 -37 -113 -46 -113 -5 0 -7 21 -3 48 11 83 14 92 35 92 17 0 19 -5 14 -27z m26 -311 c0 -12 -28 -48 -33 -42 -8 8 11 50 23 50 5 0 10 -4 10 -8z m-2400 -227 c0 -9 9 -26 20 -37 12 -13 17 -25 11 -31 -12 -12 -31 0 -31 18 0 8 -7 18 -15 23 -10 5 -13 15 -9 25 8 21 24 22 24 2z m108 -87 c24 -44 22 -59 -3 -38 -13 11 -45 72 -45 86 0 15 29 -14 48 -48z m92 -39 c0 -5 -7 -9 -15 -9 -15 0 -20 12 -9 23 8 8 24 -1 24 -14z m1960 -64 c-7 -8 -17 -12 -23 -8 -6 4 -3 11 8 19 23 17 32 10 15 -11z m-37 -31 c10 -10 -12 -44 -28 -44 -18 0 -18 5 -5 31 11 19 22 24 33 13z m-533 -283 c0 -11 -27 -24 -62 -28 -41 -4 -34 12 10 24 50 14 52 14 52 4z m-1057 -18 c-4 -10 -2 -14 4 -10 12 7 27 -22 18 -32 -8 -8 -45 41 -39 51 10 15 23 8 17 -9z m-41 -45 c-9 -9 -15 -9 -24 0 -9 9 -7 12 12 12 19 0 21 -3 12 -12z m928 -27 c0 -11 -31 -24 -39 -16 -3 3 1 10 9 15 19 12 30 12 30 1z m181 -5 c-14 -16 -51 -28 -51 -16 0 11 30 29 49 30 10 0 11 -3 2 -14z m-151 -31 c0 -8 -6 -15 -14 -15 -20 0 -29 17 -14 23 22 9 28 7 28 -8z m-214 -40 c4 -8 12 -15 20 -15 8 0 14 -4 14 -8 0 -17 -13 -21 -31 -9 -16 10 -25 9 -48 -4 -35 -20 -61 -10 -37 14 9 8 16 20 16 26 0 17 60 13 66 -4z m-411 -15 c-27 -12 -35 -12 -35 0 0 6 12 10 28 9 24 0 25 -1 7 -9z"></path>
            <path d="M1447 2724 c-14 -15 -6 -34 14 -34 14 0 19 5 17 17 -3 18 -20 27 -31 17z"></path>
            <path d="M1840 2435 c14 -16 40 -20 40 -6 0 9 -24 21 -42 21 -6 0 -6 -6 2 -15z"></path>
            <path d="M1917 556 c-10 -8 -14 -17 -9 -20 5 -3 17 3 27 14 21 23 9 26 -18 6z"></path>
            <path d="M2180 561 c0 -5 11 -8 25 -8 14 0 25 3 25 8 0 5 -11 9 -25 9 -14 0 -25 -4 -25 -9z"></path>
            <path d="M1757 499 c-17 -10 -23 -29 -9 -29 5 0 16 6 27 13 22 17 7 29 -18 16z"></path>
            <path d="M1825 495 c-24 -11 -26 -14 -9 -14 11 -1 29 6 40 14 24 18 8 18 -31 0z"></path>
            <path d="M1551 2484 c-12 -15 -21 -36 -22 -48 0 -11 -2 -104 -2 -206 -2 -169 -3 -185 -19 -184 -62 3 -68 5 -68 22 0 43 -63 67 -94 37 -16 -16 -36 -76 -36 -108 0 -14 -5 -16 -25 -11 -16 4 -34 0 -50 -10 -13 -9 -26 -16 -27 -16 -2 0 -3 69 -3 152 0 120 -4 164 -18 203 -24 69 -54 103 -99 111 -34 5 -41 3 -72 -28 -49 -49 -61 -102 -47 -208 6 -47 17 -110 25 -140 20 -77 7 -84 -52 -28 -76 74 -252 157 -252 120 0 -5 24 -34 54 -65 48 -49 91 -102 160 -196 11 -14 37 -49 59 -78 45 -61 42 -78 -9 -57 -35 15 -38 14 -62 -8 -26 -24 -72 -112 -72 -138 0 -11 23 -20 83 -33 69 -14 265 -72 274 -81 2 -1 -13 -14 -32 -28 l-35 -24 -78 20 c-68 17 -83 18 -111 7 -51 -22 -111 -126 -111 -195 0 -23 2 -25 19 -16 11 5 49 10 85 10 l66 0 0 -32 c-1 -66 -27 -168 -53 -207 l-27 -40 22 -16 c40 -27 139 -14 181 25 20 19 37 106 37 188 0 51 0 52 30 52 32 0 37 -9 18 -28 -9 -9 -13 -53 -14 -140 l-1 -127 -54 2 c-71 3 -116 -20 -155 -78 -28 -42 -50 -116 -39 -127 3 -3 37 6 77 19 82 27 183 31 366 15 86 -7 102 -12 100 -25 -2 -9 -12 -15 -23 -14 -83 10 -233 23 -259 23 -58 0 -176 -139 -152 -179 4 -6 20 -5 43 1 27 7 334 6 380 -2 8 -1 -25 -72 -48 -102 l-29 -36 33 -8 c43 -9 131 -6 183 7 31 8 51 22 71 47 37 49 35 78 -13 245 -5 14 2 17 43 17 27 0 58 7 70 15 30 21 38 78 17 115 -22 36 -12 49 24 30 57 -32 52 -107 -15 -218 -18 -30 -33 -56 -33 -58 0 -10 60 -2 107 15 121 41 168 102 168 218 0 68 -2 75 -31 104 -27 27 -39 31 -78 31 -44 -1 -113 -29 -148 -60 -23 -19 -148 -24 -148 -5 0 7 3 13 8 14 82 7 102 19 102 58 0 40 -26 71 -61 71 -37 0 -36 11 2 80 18 30 38 67 46 82 8 15 32 44 54 65 63 60 109 79 109 46 0 -29 -50 -181 -71 -217 -48 -83 34 -32 128 79 107 126 180 277 162 338 -18 65 -57 81 -126 52 -56 -24 -60 -18 -18 25 39 40 40 42 39 113 -2 136 -99 374 -158 385 -23 5 -46 -16 -63 -56 -12 -29 -18 -33 -46 -30 l-32 3 0 202 0 202 -34 35 c-44 46 -89 49 -120 10z m-27 -594 c20 -19 -7 -31 -52 -25 -54 7 -57 9 -48 30 4 12 15 14 48 9 24 -4 47 -10 52 -14z m276 0 c22 -13 6 -22 -48 -28 -49 -4 -70 6 -57 28 8 13 85 13 105 0z m-505 -166 c9 -75 -4 -88 -45 -44 -29 31 -34 60 -11 60 5 0 13 9 16 20 13 40 33 21 40 -36z m223 -1 c-4 -20 -74 -31 -90 -15 -18 18 3 32 48 32 38 0 45 -3 42 -17z m262 -3 c0 -17 -7 -20 -45 -20 -31 0 -45 4 -45 13 0 21 11 27 52 27 31 0 38 -3 38 -20z m-254 -153 c11 -11 -15 -199 -31 -223 -8 -13 -15 -26 -15 -29 0 -11 52 -4 99 15 28 11 52 16 55 12 2 -4 -13 -26 -35 -49 l-39 -41 -97 44 c-54 24 -106 44 -115 44 -28 0 -31 20 -8 45 26 28 22 66 -12 102 -25 27 -20 34 24 39 20 2 41 13 53 29 17 22 26 25 68 22 26 -2 50 -7 53 -10z m-223 -16 c6 -24 0 -31 -24 -31 -16 0 -17 3 -7 25 13 30 24 32 31 6z m457 -29 l49 -28 -57 -48 -57 -49 -5 69 c-7 99 -6 99 70 56z m-320 -365 c51 -18 66 -28 68 -45 4 -26 8 -26 -65 -7 -103 27 -123 36 -123 54 0 36 8 36 120 -2z m-67 -172 c20 -8 50 -15 67 -15 28 0 30 -3 30 -36 0 -35 -1 -35 -31 -29 -17 4 -48 8 -70 9 -43 2 -43 3 -34 29 4 9 2 23 -4 31 -6 7 -8 16 -4 19 8 9 5 9 46 -8z"></path>
            <path d="M135 1850 c-4 -12 -5 -24 -2 -27 3 -2 8 5 12 17 4 12 5 24 2 27 -3 2 -8 -5 -12 -17z"></path>
            <path d="M216 1654 c-9 -22 -7 -54 2 -54 4 0 8 16 9 35 1 38 -2 43 -11 19z"></path>
            <path d="M1490 380 c-20 -13 -10 -19 22 -13 15 3 25 9 22 14 -7 12 -25 11 -44 -1z"></path>
        </g>
    </g>
</svg>