<svg xmlns="http://www.w3.org/2000/svg" viewBox="0 0 2880 2880">
    <title>Logo de la Bujinkan</title>
    <g fill="rgb(250,243,243)" style="transform: none;">
        <g>
            <path d="M1038 2871 c-20 -4 -43 -13 -50 -18 -7 -6 -46 -16 -85 -21 -105 -15 -308 -116 -436 -216 -100 -80 -99 -79 -167 -239 -18 -43 -56 -110 -83 -150 -54 -77 -101 -172 -116 -234 -5 -21 -18 -69 -29 -108 -13 -43 -25 -130 -31 -229 -7 -102 -16 -170 -26 -189 -18 -37 -11 -145 13 -192 16 -32 36 -97 56 -185 7 -30 27 -88 45 -128 18 -41 35 -90 38 -110 6 -45 170 -382 185 -382 9 0 51 -31 118 -86 8 -7 44 -40 80 -74 36 -33 75 -63 88 -66 12 -3 22 -10 22 -15 0 -5 10 -9 23 -9 16 0 26 -9 34 -30 12 -31 77 -69 119 -70 37 0 113 -31 116 -47 4 -21 132 -55 218 -59 36 -1 85 -5 110 -9 28 -4 65 -1 99 8 41 10 62 11 83 3 23 -9 36 -6 81 17 30 15 59 27 65 27 7 0 12 7 12 15 0 19 53 42 58 26 6 -18 75 -12 117 9 21 11 55 23 74 26 20 4 52 19 71 34 48 38 74 50 104 50 31 0 35 25 7 33 -14 3 -18 11 -14 26 4 16 1 21 -16 21 -14 0 -21 -6 -21 -20 0 -11 -4 -20 -10 -20 -5 0 -10 6 -10 14 0 8 -6 16 -12 19 -7 2 7 7 32 11 25 5 54 13 65 20 11 7 30 15 43 18 17 5 22 2 22 -13 0 -12 7 -19 20 -19 13 0 20 7 20 20 0 11 -7 20 -15 20 -13 0 -14 4 -5 20 16 29 28 24 32 -12 4 -48 30 -47 80 4 46 46 129 118 166 143 12 9 22 20 22 25 0 5 11 26 25 47 14 20 25 46 23 58 -1 11 9 36 23 55 94 129 113 152 135 160 13 5 24 14 24 20 0 12 2 14 51 73 24 29 30 43 25 63 -4 14 -3 31 2 37 13 16 42 107 42 129 0 33 -31 19 -51 -25 l-19 -42 6 75 c4 41 6 90 6 108 -1 36 13 43 21 11 5 -17 10 -20 29 -14 13 4 33 6 45 6 12 0 24 3 27 7 12 20 17 315 7 406 -14 123 -20 146 -36 146 -21 0 -47 98 -46 174 1 87 -6 113 -29 119 -10 3 -20 15 -22 28 -2 14 -14 29 -29 36 -15 7 -30 25 -33 39 -4 16 -13 25 -24 23 -31 -3 -42 1 -42 15 0 7 -27 41 -60 75 -56 58 -65 77 -60 125 2 22 -37 66 -61 66 -9 0 -19 -10 -23 -22 -7 -25 -6 -26 -93 73 -11 13 -38 35 -58 49 -20 14 -54 39 -74 56 -53 44 -132 94 -161 101 -14 3 -31 11 -39 17 -8 6 -50 14 -95 18 -45 4 -98 10 -119 14 -33 5 -39 4 -44 -14 -4 -18 -11 -19 -64 -15 -48 5 -59 3 -59 -9 0 -11 20 -19 75 -27 41 -7 75 -17 75 -22 0 -5 -7 -9 -15 -9 -8 0 -15 -9 -15 -20 0 -14 -7 -20 -22 -20 -12 0 -37 -5 -55 -12 -29 -10 -39 -10 -67 6 -39 21 -56 15 -56 -20 0 -21 5 -24 33 -24 46 0 76 -23 70 -54 -4 -20 0 -25 18 -28 20 -2 23 -8 21 -30 -3 -20 1 -28 12 -28 9 0 16 6 16 14 0 8 6 16 12 18 24 8 86 -9 109 -30 l23 -22 -37 0 c-26 0 -37 -4 -37 -15 0 -8 9 -15 19 -15 32 0 50 -11 44 -26 -7 -19 15 -44 38 -44 14 0 19 7 19 25 0 23 4 25 40 25 31 0 47 -7 73 -31 17 -17 51 -40 75 -50 32 -14 42 -24 42 -42 0 -13 9 -32 20 -42 12 -11 18 -25 15 -36 -4 -11 2 -26 14 -38 12 -12 21 -30 21 -41 0 -11 11 -30 25 -42 14 -12 25 -25 25 -30 0 -4 8 -16 18 -26 9 -10 29 -33 45 -50 19 -23 36 -32 57 -32 25 0 30 -4 30 -24 0 -44 21 -86 42 -86 17 0 20 5 15 30 -4 17 -2 30 3 30 15 0 80 -72 80 -88 0 -9 9 -35 20 -58 12 -23 23 -60 26 -81 8 -64 46 -173 61 -173 17 0 17 -15 -2 -30 -8 -7 -15 -21 -15 -31 0 -10 -4 -20 -9 -23 -5 -3 -9 -44 -9 -91 0 -64 -4 -88 -16 -100 -9 -9 -16 -25 -16 -34 0 -39 13 -80 26 -83 10 -2 5 -23 -19 -83 -26 -64 -38 -81 -56 -83 -19 -3 -22 -8 -18 -29 3 -19 0 -27 -14 -30 -11 -3 -19 -11 -19 -17 0 -6 -9 -18 -20 -26 -21 -15 -27 -40 -9 -40 12 0 -40 -72 -99 -137 -17 -19 -22 -33 -17 -50 4 -18 0 -30 -12 -40 -13 -10 -15 -16 -5 -19 6 -3 12 -11 12 -16 0 -19 -62 -68 -86 -68 -12 0 -31 -10 -41 -23 -23 -28 -94 -67 -122 -67 -11 0 -21 -6 -21 -13 0 -7 -9 -18 -20 -25 -17 -10 -20 -10 -20 3 0 9 -9 15 -21 15 -17 0 -20 -5 -17 -24 4 -21 0 -25 -31 -31 -20 -4 -43 -13 -51 -20 -19 -17 -40 -20 -63 -10 -10 4 -24 2 -34 -6 -9 -8 -24 -13 -35 -11 -13 2 -18 -3 -18 -20 -1 -29 -25 -64 -33 -46 -3 10 -51 13 -206 13 -110 0 -201 4 -201 8 0 5 -13 6 -29 2 -29 -6 -175 38 -187 56 -3 5 -14 9 -25 9 -10 0 -19 5 -19 10 0 19 -32 10 -37 -10 -6 -22 -33 -28 -33 -6 0 13 -71 66 -90 66 -5 0 -15 9 -22 20 -7 11 -18 20 -25 20 -7 0 -15 11 -19 24 -6 24 -69 76 -91 76 -6 0 -22 14 -35 30 -13 17 -44 56 -69 88 -25 31 -65 91 -90 132 -24 41 -46 77 -50 80 -9 7 -77 155 -85 184 -3 14 -12 30 -20 37 -8 6 -14 17 -14 23 0 6 -6 23 -14 38 -8 14 -19 43 -26 65 -7 21 -19 47 -25 58 -31 49 26 500 74 592 11 21 27 58 37 83 41 106 76 174 105 203 17 18 52 61 78 97 88 121 223 210 347 230 163 26 239 46 331 86 17 8 36 14 41 14 20 0 72 52 72 71 0 24 -39 99 -83 158 -49 67 -139 93 -249 72z m92 -29 c0 -4 20 -13 45 -20 40 -10 49 -20 95 -88 57 -87 56 -94 -18 -125 -114 -49 -224 -79 -360 -99 -77 -11 -150 -42 -217 -93 -44 -34 -154 -147 -155 -160 0 -9 -5 -15 -53 -72 -18 -22 -41 -53 -50 -70 -35 -62 -110 -253 -130 -330 -12 -44 -22 -82 -24 -84 -8 -12 -33 32 -33 58 0 21 -5 31 -15 31 -12 0 -15 13 -15 60 l0 59 -35 7 c-23 4 -35 12 -35 23 1 33 60 155 117 239 32 48 74 123 92 167 18 44 39 94 46 111 15 35 125 134 208 187 97 62 268 139 330 147 66 10 157 40 157 52 0 4 11 8 25 8 14 0 25 -4 25 -8z m817 -56 c15 -8 49 -23 76 -35 26 -11 47 -25 47 -31 0 -5 6 -10 13 -10 8 0 24 -11 37 -25 13 -14 51 -43 85 -65 33 -22 82 -65 109 -95 42 -49 51 -55 86 -55 37 0 38 -1 45 -42 6 -33 21 -56 65 -103 31 -33 60 -68 63 -77 3 -9 18 -18 34 -20 21 -2 29 -10 37 -35 6 -22 15 -33 27 -33 11 0 19 -5 19 -11 0 -13 25 -39 38 -39 14 0 21 -36 15 -74 -7 -47 26 -195 50 -219 21 -21 36 -73 37 -124 0 -18 5 -33 10 -33 6 0 10 -43 10 -110 0 -67 -4 -110 -10 -110 -5 0 -10 -16 -10 -35 0 -37 -3 -39 -68 -35 -18 1 -40 -4 -48 -10 -11 -10 -14 -9 -14 4 0 12 -9 16 -35 16 -30 0 -35 3 -35 24 0 14 5 28 10 31 6 3 10 14 10 24 0 10 7 24 15 31 22 19 20 96 -3 102 -19 5 -52 95 -52 142 0 16 -6 42 -14 59 -7 18 -24 58 -36 89 -24 62 -70 108 -107 108 -18 0 -23 6 -23 25 0 22 -4 25 -39 25 -34 0 -45 6 -80 46 -23 26 -41 53 -41 60 0 8 -9 19 -20 26 -11 7 -20 22 -20 34 0 11 -9 30 -20 42 -11 12 -20 30 -20 42 0 11 -9 29 -20 40 -11 11 -20 30 -20 43 0 17 -10 28 -37 41 -21 10 -55 31 -76 48 -31 25 -50 31 -102 36 -59 4 -65 7 -65 27 0 33 -39 62 -102 76 -53 12 -57 15 -60 46 -3 29 -1 33 24 38 15 4 28 13 28 20 0 8 15 17 35 21 32 6 35 9 35 40 0 34 1 34 44 34 24 0 57 -6 73 -14z m-1812 -976 c7 0 16 6 18 13 3 6 6 2 6 -10 1 -12 -12 -35 -29 -51 -24 -24 -30 -39 -30 -71 0 -24 -5 -41 -11 -41 -13 0 -4 92 12 121 5 10 10 33 10 51 1 23 3 26 6 11 2 -13 10 -23 18 -23z m60 -140 c10 0 11 -9 3 -42 -11 -51 -23 -67 -40 -50 -9 9 -7 16 7 31 12 15 16 30 12 53 -3 18 -3 27 0 21 2 -7 11 -13 18 -13z m-85 -99 c0 -33 26 -44 86 -38 l55 6 -5 -42 c-3 -23 -8 -85 -11 -137 -5 -84 -3 -100 15 -132 11 -21 20 -44 20 -51 0 -7 9 -29 20 -50 11 -20 20 -43 20 -51 0 -7 9 -24 19 -37 10 -14 25 -45 32 -69 7 -25 19 -51 26 -58 7 -7 13 -20 13 -27 0 -8 20 -46 45 -84 50 -78 54 -91 25 -91 -13 0 -20 7 -20 20 0 13 -7 20 -20 20 -11 0 -20 4 -20 9 0 10 -10 14 -62 25 -16 4 -28 13 -28 22 0 25 -26 44 -59 44 -25 0 -31 -4 -31 -22 0 -19 -2 -20 -10 -8 -5 8 -10 30 -10 48 0 19 -6 46 -14 60 -33 62 -69 157 -74 195 -3 22 -18 76 -34 121 -17 45 -32 96 -35 114 -7 46 28 232 44 232 7 0 13 -8 13 -19z m2525 -311 l-15 -35 6 50 c8 59 18 80 22 45 2 -14 -4 -41 -13 -60z m58 -75 c-4 -84 -3 -115 5 -115 7 0 12 -4 12 -9 0 -6 -17 -11 -37 -13 -36 -3 -39 -6 -47 -45 -6 -24 -16 -43 -23 -43 -7 0 -13 -7 -13 -15 0 -8 -5 -15 -11 -15 -6 0 -9 -16 -8 -39 3 -34 -5 -49 -62 -127 -37 -49 -69 -96 -72 -104 -3 -9 -6 -4 -6 13 -1 17 -6 27 -16 27 -8 0 -15 5 -15 10 0 6 7 13 15 16 8 4 15 12 15 18 0 7 11 23 25 36 14 13 25 35 25 49 1 29 15 50 45 67 11 6 21 21 23 33 2 11 7 21 11 21 5 0 14 15 21 33 7 17 21 51 32 74 10 23 22 59 25 80 3 21 9 40 13 43 12 8 40 80 40 101 0 11 2 19 5 19 2 0 1 -52 -2 -115z m-2133 -559 c16 -17 43 -51 62 -76 19 -25 44 -50 57 -56 25 -13 73 -57 111 -103 14 -16 29 -30 34 -30 5 -1 28 -13 52 -28 31 -20 44 -35 44 -50 0 -18 6 -23 28 -23 15 0 42 4 60 9 22 7 42 6 60 -1 15 -6 36 -14 47 -18 11 -4 33 -13 48 -19 15 -6 43 -11 62 -11 20 0 35 -5 35 -11 0 -10 51 -9 105 1 6 2 63 2 128 1 l117 -1 0 -40 c0 -36 -3 -40 -24 -40 -13 0 -26 7 -30 15 -7 18 -126 22 -126 4 0 -14 -25 -39 -39 -39 -6 0 -11 -11 -11 -24 0 -19 -8 -26 -46 -36 -34 -10 -48 -10 -57 -1 -6 6 -43 12 -81 12 -39 1 -63 3 -53 6 12 3 17 15 17 39 0 30 -3 34 -25 34 -21 0 -25 5 -25 30 0 28 -3 30 -36 30 l-37 0 6 -59 c6 -58 6 -58 -19 -53 -13 2 -29 12 -34 21 -9 17 -35 27 -132 52 -51 12 -64 29 -23 29 14 0 25 -4 25 -10 0 -5 16 -10 35 -10 33 0 35 2 35 35 0 30 -3 35 -23 35 -17 0 -26 9 -35 34 -13 36 -33 46 -89 46 -30 0 -33 -3 -33 -30 0 -27 -3 -30 -30 -30 -16 0 -30 5 -30 10 0 6 -6 10 -14 10 -7 0 -40 25 -72 55 -90 83 -203 175 -217 175 -12 0 -57 79 -57 100 0 6 40 10 95 10 l95 0 1 33 c0 17 3 26 6 18 3 -8 18 -29 33 -45z m1686 -215 c-14 -16 -21 -17 -31 -8 -15 14 -1 27 29 27 18 0 18 -1 2 -19z m-276 -155 c0 -3 -7 -12 -16 -21 -13 -13 -19 -14 -25 -4 -6 10 -13 10 -35 1 -14 -7 -29 -11 -31 -8 -8 7 58 34 85 35 12 1 22 -1 22 -3z m-450 -146 c0 -5 -9 -10 -19 -10 -11 0 -23 -4 -26 -10 -3 -5 -12 -10 -18 -9 -9 0 -9 2 1 6 6 2 12 11 12 19 0 8 10 14 25 14 14 0 25 -4 25 -10z"></path>
            <path d="M1467 2783 c-14 -13 -6 -33 13 -33 13 0 20 7 20 20 0 19 -20 27 -33 13z"></path>
            <path d="M1437 2733 c-4 -3 -7 -17 -7 -30 0 -19 5 -23 30 -23 22 0 30 5 30 18 0 31 -35 54 -53 35z"></path>
            <path d="M1510 2550 c0 -13 7 -20 20 -20 13 0 20 7 20 20 0 13 -7 20 -20 20 -13 0 -20 -7 -20 -20z"></path>
            <path d="M1541 2496 c-26 -27 -31 -77 -31 -306 l0 -125 -30 0 c-21 0 -30 5 -30 17 0 20 -46 58 -70 58 -36 0 -68 -38 -75 -89 -5 -41 -10 -48 -25 -44 -10 3 -27 0 -38 -6 -19 -10 -20 -7 -20 103 -2 217 -41 319 -128 332 -72 11 -126 -41 -140 -136 -8 -48 10 -197 32 -268 l13 -44 -47 46 c-51 52 -212 139 -246 134 -38 -5 -31 -43 16 -90 24 -23 61 -65 83 -93 22 -27 42 -52 45 -55 7 -6 101 -138 113 -158 7 -10 2 -12 -25 -7 -28 5 -37 2 -60 -22 -31 -33 -64 -95 -73 -139 -6 -31 -6 -32 42 -39 57 -8 212 -50 262 -71 31 -13 33 -16 19 -30 -13 -14 -21 -14 -75 0 -100 26 -136 22 -179 -20 -43 -43 -68 -100 -78 -171 -7 -57 1 -66 38 -38 12 9 42 15 78 15 54 0 58 -2 58 -22 -1 -57 -29 -161 -53 -197 -15 -22 -27 -45 -27 -50 0 -20 46 -41 88 -41 l44 0 -32 -26 c-17 -15 -40 -44 -51 -66 -22 -42 -38 -138 -23 -138 5 0 52 14 104 30 74 24 110 30 170 28 l75 -2 -63 -3 c-59 -4 -66 -7 -108 -48 -47 -47 -74 -97 -74 -140 0 -28 4 -29 66 -14 30 8 95 9 199 4 153 -7 156 -8 149 -29 -3 -11 -19 -38 -35 -58 -16 -20 -29 -41 -29 -47 0 -5 28 -16 62 -22 35 -7 57 -14 50 -17 -6 -2 -12 -13 -12 -24 0 -18 4 -20 31 -14 17 3 35 6 40 6 19 0 8 31 -13 39 -17 6 -9 9 36 14 68 7 96 23 126 72 23 37 23 37 6 118 -10 45 -20 92 -23 105 -5 20 -2 22 41 22 36 0 52 6 71 25 27 26 34 80 15 116 -7 12 -7 19 -1 19 16 0 31 -35 31 -72 0 -36 -27 -102 -60 -148 -11 -15 -20 -35 -20 -44 0 -37 136 -8 216 46 38 26 94 125 94 167 0 63 -14 104 -46 138 -34 35 -35 36 -94 30 -62 -7 -126 -33 -149 -61 -8 -9 -28 -16 -45 -16 -31 0 -31 0 -7 13 55 28 46 107 -16 138 l-33 16 25 48 c52 97 97 151 157 189 26 17 26 17 21 -6 -16 -72 -45 -157 -63 -186 -29 -47 -27 -82 4 -82 18 0 44 22 96 79 84 92 123 149 173 250 45 90 50 161 15 206 -19 25 -26 27 -70 23 -48 -5 -48 -5 -31 15 14 15 18 35 17 96 -3 173 -103 401 -175 401 -29 0 -52 -22 -68 -63 -8 -20 -17 -27 -37 -27 l-27 0 7 158 c4 86 9 173 12 192 5 31 1 41 -36 83 -37 42 -46 47 -84 47 -32 0 -48 -6 -65 -24z m134 -289 l0 -202 62 -3 62 -3 15 36 c8 19 19 35 23 35 5 0 24 -24 43 -52 42 -65 90 -215 90 -283 0 -45 -4 -55 -35 -85 -26 -26 -35 -42 -35 -68 l0 -34 48 5 c26 3 59 8 74 12 21 6 29 2 43 -19 17 -25 17 -29 0 -74 -24 -62 -87 -167 -132 -217 -30 -34 -34 -36 -28 -15 4 14 9 53 12 88 l5 62 -43 0 c-24 -1 -54 -6 -66 -13 -34 -19 -100 -84 -116 -115 -8 -15 -28 -52 -46 -82 -21 -37 -31 -69 -31 -97 0 -41 2 -43 29 -43 16 0 34 -7 41 -15 19 -23 4 -45 -29 -45 -52 0 -61 -8 -61 -57 l0 -45 53 2 c28 2 59 2 67 1 15 -1 40 -44 40 -67 0 -23 -44 -44 -92 -44 -46 0 -48 -1 -48 -27 0 -16 9 -67 22 -114 l22 -86 -28 -35 c-28 -38 -81 -58 -150 -58 l-34 0 16 33 c9 17 16 52 17 77 l0 45 -200 3 c-109 2 -201 5 -203 7 -2 1 20 26 49 54 l53 52 56 -6 c30 -3 95 -11 143 -16 48 -6 94 -8 102 -5 10 4 15 20 15 49 l0 44 -77 7 c-209 17 -348 18 -398 2 -27 -8 -51 -13 -53 -11 -6 6 34 68 58 90 15 14 42 21 98 25 l77 5 0 127 c0 88 4 131 13 139 6 7 12 30 12 51 l0 38 -60 0 -60 0 0 -52 c0 -83 -17 -169 -38 -188 -22 -21 -88 -44 -102 -35 -6 4 -5 16 4 33 18 35 36 144 36 215 l0 57 -79 0 c-77 0 -79 1 -73 23 10 40 62 107 88 113 15 4 53 -1 85 -10 79 -22 97 -20 141 10 31 22 38 33 38 59 0 32 -1 33 -98 64 -54 17 -132 38 -174 48 l-77 16 19 38 c25 49 35 54 95 54 l50 0 3 38 c3 32 -4 48 -43 100 -77 104 -119 158 -150 195 l-30 36 30 -19 c17 -10 51 -38 76 -62 41 -39 51 -44 85 -41 34 3 39 6 42 31 2 15 -3 56 -12 90 -41 167 -39 228 10 287 32 38 57 38 84 1 46 -66 54 -107 53 -273 l-1 -158 39 0 c21 0 41 5 44 10 3 6 24 10 46 10 30 0 39 4 39 18 0 22 18 83 29 101 8 12 12 12 25 2 9 -8 16 -22 16 -32 0 -14 11 -19 54 -24 29 -4 62 -5 72 -3 22 4 22 7 23 254 1 149 3 163 22 189 l22 27 36 -36 36 -36 0 -203z m-513 -1124 c-2 -76 -6 -139 -7 -141 -1 -1 -16 1 -34 4 l-32 7 21 22 c28 29 39 81 40 173 0 39 4 72 9 72 5 0 6 -62 3 -137z m814 -154 c64 -67 21 -184 -89 -241 -22 -10 -41 -17 -43 -15 -3 2 5 25 16 51 24 56 26 139 6 178 -14 27 -13 29 12 43 41 22 65 18 98 -16z m-648 -176 c-10 -2 -28 -2 -40 0 -13 2 -5 4 17 4 22 1 32 -1 23 -4z m115 -10 c-13 -2 -33 -2 -45 0 -13 2 -3 4 22 4 25 0 35 -2 23 -4z"></path>
            <path d="M1398 1934 c-5 -4 -8 -27 -8 -50 0 -43 0 -43 43 -49 23 -4 60 -5 82 -3 39 3 40 4 43 42 2 21 0 42 -5 47 -11 11 -146 23 -155 13z m100 -51 c-10 -2 -28 -2 -40 0 -13 2 -5 4 17 4 22 1 32 -1 23 -4z"></path>
            <path d="M1664 1916 c-3 -8 -4 -29 -2 -48 3 -33 4 -33 58 -36 30 -2 70 -1 88 3 29 5 32 9 32 44 0 47 -8 51 -101 51 -51 0 -71 -4 -75 -14z m104 -33 c-10 -2 -28 -2 -40 0 -13 2 -5 4 17 4 22 1 32 -1 23 -4z"></path>
            <path d="M1225 1791 c-3 -11 -12 -22 -20 -25 -10 -3 -15 -19 -15 -45 0 -57 45 -103 97 -99 34 3 38 6 41 33 2 16 1 58 -3 92 l-7 63 -43 0 c-34 0 -45 -4 -50 -19z m53 -93 l-3 -23 -13 22 c-10 18 -10 27 0 43 l13 21 3 -21 c2 -11 2 -30 0 -42z"></path>
            <path d="M1394 1756 c-3 -8 -4 -29 -2 -48 l3 -33 75 0 75 0 3 48 3 47 -76 0 c-56 0 -77 -4 -81 -14z m104 -33 c-10 -2 -28 -2 -40 0 -13 2 -5 4 17 4 22 1 32 -1 23 -4z"></path>
            <path d="M1667 1763 c-4 -3 -7 -26 -7 -50 l0 -43 75 0 75 0 0 50 0 50 -68 0 c-38 0 -72 -3 -75 -7z m103 -43 c0 -5 -17 -9 -37 -9 l-38 2 35 7 c19 4 36 8 38 9 1 0 2 -3 2 -9z"></path>
            <path d="M1377 1585 c-22 -30 -37 -32 -44 -5 -4 15 -14 20 -43 20 -30 0 -39 -5 -48 -25 -7 -14 -12 -39 -12 -55 0 -24 4 -30 23 -31 12 0 32 -13 46 -30 22 -28 22 -31 6 -48 -11 -13 -15 -32 -13 -56 3 -35 7 -39 43 -50 22 -6 76 -28 119 -48 104 -48 124 -48 175 6 31 31 41 50 41 75 0 29 3 32 29 32 20 0 46 15 85 47 45 38 56 53 56 78 0 26 -7 34 -53 58 -38 21 -63 28 -92 25 l-40 -3 4 -96 3 -96 -43 -5 c-24 -3 -51 -9 -60 -12 -13 -6 -14 2 -8 61 5 37 8 91 8 119 1 60 -5 64 -104 64 -52 -1 -62 -4 -78 -25z m140 -28 c9 -9 -19 -183 -34 -209 -10 -18 -18 -34 -19 -36 0 -1 -21 6 -45 17 -24 10 -52 21 -63 25 -17 6 -18 8 -2 24 22 25 20 74 -5 106 l-20 26 24 0 c14 0 37 13 53 29 25 25 35 29 69 25 21 -3 40 -6 42 -7z m218 -38 c4 -6 16 -14 26 -17 18 -7 16 -11 -18 -44 l-38 -37 -1 55 c0 37 3 54 12 54 7 0 16 -5 19 -11z m-148 -214 c-9 -8 -17 -19 -19 -25 -2 -7 -15 -6 -38 4 l-35 15 30 1 c17 0 37 5 45 10 23 15 33 12 17 -5z"></path>
            <path d="M1297 1213 c-4 -3 -7 -28 -7 -54 0 -45 2 -48 33 -58 69 -23 150 -41 183 -41 l35 0 -3 52 -3 53 -80 27 c-77 26 -145 35 -158 21z m128 -66 c88 -30 98 -51 13 -28 -61 17 -108 37 -108 46 0 10 28 4 95 -18z"></path>
            <path d="M1297 1023 c-10 -9 -9 -131 1 -136 4 -3 51 -8 105 -12 l97 -7 0 66 0 66 -30 0 c-17 0 -47 7 -67 15 -37 16 -95 20 -106 8z m133 -63 c23 0 27 -3 23 -20 -4 -15 -14 -20 -42 -20 -44 0 -56 8 -57 37 0 18 3 20 23 12 14 -5 37 -9 53 -9z"></path>
            <path d="M2070 2271 c0 -16 6 -21 26 -21 33 0 30 33 -4 38 -17 3 -22 -2 -22 -17z"></path>
            <path d="M2462 1663 c5 -26 38 -29 38 -4 0 15 -6 21 -21 21 -14 0 -19 -5 -17 -17z"></path>
            <path d="M2480 1480 c0 -23 4 -30 20 -30 16 0 20 7 20 30 0 23 -4 30 -20 30 -16 0 -20 -7 -20 -30z"></path>
            <path d="M2172 758 c-20 -20 -14 -40 11 -36 14 2 23 11 25 26 4 24 -16 30 -36 10z"></path>
            <path d="M1997 623 c-12 -11 -7 -43 6 -43 17 0 37 20 37 37 0 13 -32 18 -43 6z"></path>
            <path d="M2220 596 c0 -7 -13 -16 -30 -19 -22 -5 -30 -12 -30 -27 0 -18 4 -20 43 -14 46 8 57 17 57 52 0 15 -6 22 -20 22 -11 0 -20 -6 -20 -14z"></path>
            <path d="M1913 568 c-18 -11 -33 -25 -33 -31 0 -7 -19 -18 -42 -25 -33 -10 -43 -11 -49 -1 -12 20 -59 -5 -59 -31 0 -20 33 -29 44 -11 3 4 16 6 28 4 31 -6 78 13 78 32 0 8 7 15 15 15 30 0 75 30 75 50 0 25 -16 24 -57 -2z"></path>
            <path d="M1860 439 c0 -14 5 -19 17 -17 26 5 29 38 4 38 -15 0 -21 -6 -21 -21z"></path>
            <path d="M1287 364 c-16 -16 -6 -34 19 -34 19 0 25 5 22 17 -3 19 -29 29 -41 17z"></path>
        </g>
    </g>
    <g fill="rgb(162,162,162)" style="transform: none;">
        <g>
            <path d="M1806 1104 c-8 -22 -8 -44 2 -43 4 0 17 13 30 30 l24 29 -25 0 c-14 0 -28 -7 -31 -16z"></path>
            <path d="M2239 606 c-1 -3 -2 -12 -3 -18 0 -7 -8 -14 -16 -14 -8 -1 -21 -2 -27 -3 -26 -2 -12 -18 16 -19 21 0 31 6 39 23 7 15 8 26 2 30 -6 4 -11 4 -11 1z"></path>
            <path d="M1922 558 c-17 -11 -32 -21 -32 -23 0 -8 29 2 51 17 36 24 18 30 -19 6z"></path>
            <path d="M1767 503 c-12 -12 -7 -25 7 -20 7 3 17 2 22 -3 5 -5 24 -2 43 6 19 8 31 17 28 20 -4 4 -20 1 -37 -6 -22 -9 -34 -10 -43 -1 -8 6 -17 8 -20 4z"></path>
            <path d="M2048 413 c7 -12 17 -23 24 -25 6 -2 -5 -14 -25 -26 -38 -22 -51 -20 -20 4 33 23 7 24 -28 0 -19 -13 -40 -21 -46 -19 -8 3 -13 -4 -13 -19 0 -18 2 -20 10 -8 7 11 12 12 18 3 10 -16 82 0 98 21 6 9 16 16 23 16 6 0 11 15 11 35 0 34 -12 46 -25 25 -5 -8 -12 -7 -23 2 -13 11 -14 10 -4 -9z"></path>
            <path d="M1003 320 c1 -14 8 -20 24 -20 13 0 23 5 23 10 0 6 -7 10 -15 10 -8 0 -15 5 -15 10 0 6 -4 10 -9 10 -6 0 -9 -9 -8 -20z"></path>
            <path d="M1790 285 c0 -8 7 -15 15 -15 8 0 15 -4 15 -10 0 -5 -7 -10 -15 -10 -8 0 -15 -4 -15 -10 0 -5 16 -10 35 -10 24 0 35 5 35 15 0 9 -6 12 -15 9 -9 -4 -15 0 -15 10 0 9 7 16 15 16 8 0 15 5 15 10 0 6 -16 10 -35 10 -24 0 -35 -5 -35 -15z"></path>
            <path d="M1060 50 c0 -5 7 -10 15 -10 8 0 15 -4 15 -8 0 -4 9 -8 20 -8 13 0 20 7 20 18 0 14 -8 18 -35 18 -19 0 -35 -4 -35 -10z"></path>
        </g>
    </g>
    <g fill="rgb(191,2,2)" style="transform: none;">
        <g>
            <path d="M1007 2849 c-27 -10 -76 -23 -110 -28 -66 -9 -234 -84 -334 -148 -83 -53 -193 -152 -208 -187 -7 -17 -28 -67 -46 -111 -18 -44 -59 -118 -91 -165 -59 -89 -102 -174 -117 -238 -5 -20 -17 -64 -26 -97 -9 -33 -18 -112 -21 -175 -3 -63 -13 -146 -21 -185 -23 -106 -23 -171 3 -235 25 -63 50 -150 58 -199 6 -32 43 -128 72 -183 8 -14 14 -39 14 -54 0 -35 160 -363 177 -364 14 0 129 -93 217 -175 32 -30 63 -55 68 -55 5 0 16 -6 24 -14 7 -8 25 -13 39 -11 21 2 24 -1 19 -17 -8 -27 27 -55 95 -74 115 -32 126 -37 141 -54 23 -27 172 -62 230 -54 30 4 50 2 54 -5 10 -15 82 -14 139 4 36 11 54 12 69 4 22 -12 65 -4 88 16 8 7 29 15 45 17 22 2 29 8 27 20 -2 13 7 19 35 24 25 5 38 3 41 -5 6 -18 39 -13 95 13 29 14 66 28 82 32 17 4 55 25 86 46 36 24 68 38 88 38 17 0 31 3 31 8 0 15 -89 6 -108 -11 -21 -19 -39 -22 -44 -7 -2 7 -17 5 -41 -5 -39 -16 -49 -8 -19 16 31 26 61 39 87 39 14 0 25 5 25 11 0 6 -7 8 -16 5 -12 -5 -14 -1 -8 17 8 28 16 35 21 20 5 -15 72 -6 94 13 8 8 25 14 35 14 11 0 33 14 50 31 16 17 45 39 66 50 32 16 37 17 49 3 10 -12 9 -19 -8 -36 -21 -21 -49 -17 -36 5 4 7 0 6 -10 -2 -19 -15 -23 -56 -7 -66 5 -3 27 11 49 32 51 50 140 127 169 144 12 8 22 22 22 31 0 10 8 22 19 27 21 12 37 61 23 70 -14 9 147 221 167 221 9 0 25 17 36 38 10 20 32 50 49 65 21 19 27 30 19 34 -18 7 -16 28 6 71 24 48 39 118 22 108 -6 -4 -18 -23 -26 -42 -24 -59 -39 -43 -30 34 4 37 8 86 9 109 1 52 20 76 30 39 9 -35 41 -34 60 2 15 26 15 26 16 4 0 -13 4 -21 9 -18 8 5 20 131 23 256 2 46 -10 184 -19 230 -3 14 -6 31 -6 38 0 6 -6 12 -14 12 -7 0 -18 10 -23 23 -17 38 -39 150 -33 161 15 23 -1 116 -19 116 -15 0 -35 24 -30 38 3 11 -9 16 -34 13 -6 -1 -15 13 -20 31 -8 26 -16 34 -37 36 -16 2 -31 11 -34 20 -3 9 -32 45 -65 79 -54 57 -63 77 -59 125 1 9 -8 28 -20 42 -17 20 -25 23 -36 15 -7 -6 -13 -18 -13 -25 0 -26 -19 -14 -66 41 -27 30 -76 73 -109 95 -34 22 -72 51 -85 65 -13 14 -29 25 -37 25 -7 0 -13 5 -13 10 0 6 -21 20 -47 31 -27 12 -63 28 -80 37 -18 8 -59 16 -90 17 -32 1 -79 6 -105 10 -43 7 -48 6 -48 -12 0 -17 -6 -18 -65 -15 -36 2 -65 2 -65 -1 0 -3 33 -11 73 -17 39 -7 77 -16 82 -20 6 -4 19 -10 30 -12 13 -3 5 -7 -22 -12 -27 -5 -40 -12 -37 -20 3 -8 -16 -19 -56 -31 -48 -14 -65 -16 -85 -7 -14 6 -25 16 -25 22 0 19 -17 10 -28 -15 -11 -24 -10 -25 18 -25 32 0 80 -19 80 -32 0 -4 11 -8 25 -8 14 0 25 -5 25 -11 0 -5 -10 -9 -22 -7 -15 2 -24 -3 -26 -14 -2 -13 3 -18 17 -18 11 0 23 -5 26 -11 4 -6 14 -8 22 -5 22 9 94 -14 121 -37 22 -20 29 -38 15 -36 -24 4 -63 -2 -63 -10 0 -11 55 -21 137 -25 51 -3 68 -9 100 -34 21 -17 55 -38 76 -48 27 -13 37 -24 37 -41 0 -13 9 -32 21 -44 12 -12 18 -27 15 -36 -4 -9 4 -26 19 -41 16 -16 23 -32 20 -43 -4 -12 1 -22 14 -29 11 -5 27 -25 36 -44 26 -54 75 -95 118 -98 41 -3 41 -3 27 -28 -7 -13 -5 -27 6 -49 20 -39 35 -40 28 -1 -15 71 73 7 106 -78 12 -31 29 -72 37 -90 8 -18 12 -39 9 -47 -8 -23 37 -148 57 -153 21 -5 22 -25 2 -42 -8 -7 -15 -20 -15 -29 0 -9 -5 -22 -12 -29 -7 -7 -11 -44 -11 -98 1 -71 -2 -89 -17 -104 -16 -16 -17 -24 -8 -54 6 -20 18 -36 25 -36 16 0 12 -20 -17 -85 -9 -22 -23 -55 -30 -73 -10 -25 -17 -31 -31 -27 -13 4 -19 1 -19 -8 0 -9 6 -17 13 -20 9 -3 9 -7 -1 -20 -8 -9 -20 -13 -28 -10 -8 3 -14 -1 -14 -8 0 -7 -10 -23 -22 -36 -12 -13 -16 -23 -10 -23 20 0 13 -25 -13 -50 -14 -13 -25 -27 -25 -31 0 -5 -18 -27 -39 -51 -28 -29 -39 -51 -39 -70 1 -40 14 -44 42 -11 13 15 28 25 32 21 4 -5 -11 -26 -34 -48 -23 -21 -42 -42 -42 -45 0 -14 -67 -64 -87 -65 -12 0 -30 -11 -41 -25 -11 -14 -23 -25 -28 -25 -4 0 -27 -10 -52 -21 -33 -16 -42 -26 -39 -40 7 -28 -50 -58 -103 -54 -30 3 -55 -4 -87 -21 -35 -18 -49 -21 -60 -13 -10 9 -18 8 -32 -5 -11 -10 -27 -16 -38 -14 -11 2 -18 -3 -18 -12 0 -8 -4 -21 -8 -27 -5 -7 -6 -17 -3 -22 7 -10 -17 -21 -42 -21 -15 1 -14 3 2 15 11 8 18 15 15 16 -21 5 -360 4 -381 -2 -19 -5 -28 -3 -32 7 -4 10 -14 12 -31 8 -26 -7 -63 4 -170 51 -49 22 -86 27 -83 13 2 -7 -4 -13 -12 -13 -8 0 -21 -4 -29 -9 -10 -6 -12 -4 -7 12 5 16 -3 26 -42 51 -27 17 -53 31 -58 32 -5 0 -20 14 -34 30 -38 46 -86 90 -111 103 -13 6 -38 31 -57 56 -19 25 -47 60 -63 77 -16 18 -29 36 -29 41 0 5 -9 17 -20 27 -11 10 -20 22 -20 27 0 5 -20 41 -45 79 -25 38 -45 76 -45 84 0 7 -6 20 -13 27 -7 7 -19 33 -26 58 -7 24 -22 55 -32 69 -10 13 -19 30 -19 37 0 8 -9 31 -20 51 -11 21 -20 43 -20 50 0 7 -9 30 -21 52 -11 22 -18 48 -15 58 3 10 8 63 11 118 3 55 10 129 16 165 6 36 12 81 14 100 6 55 29 126 79 245 55 132 69 158 113 210 48 57 53 63 53 72 1 13 111 126 155 160 67 51 140 82 217 93 138 20 255 52 360 100 96 43 99 61 23 176 -52 78 -58 84 -107 99 -69 20 -132 18 -191 -6z m-871 -996 l-5 -38 14 33 c8 17 17 32 20 32 3 0 4 -21 2 -47 -1 -36 -9 -54 -29 -76 -33 -33 -40 -100 -11 -111 13 -5 14 -9 3 -19 -10 -9 -13 -9 -17 1 -3 6 -11 12 -18 12 -27 0 -35 34 -19 81 9 24 20 69 26 99 11 62 15 70 30 70 6 0 8 -14 4 -37z m50 -159 c-5 -12 -1 -14 15 -9 20 7 21 5 14 -36 -15 -86 -35 -110 -65 -74 -10 12 -9 20 5 41 10 16 14 35 11 50 -7 27 -1 44 16 44 5 0 7 -7 4 -16z m74 -31 c-1 -13 -29 -47 -35 -42 -9 10 8 49 21 49 8 0 14 -3 14 -7z m0 -62 c0 -12 -29 -35 -36 -28 -11 10 5 37 21 37 8 0 15 -4 15 -9z m2404 -278 c-11 -51 -37 -113 -46 -113 -5 0 -7 21 -3 48 11 83 14 92 35 92 17 0 19 -5 14 -27z m26 -311 c0 -12 -28 -48 -33 -42 -8 8 11 50 23 50 5 0 10 -4 10 -8z m-2400 -227 c0 -9 9 -26 20 -37 12 -13 17 -25 11 -31 -12 -12 -31 0 -31 18 0 8 -7 18 -15 23 -10 5 -13 15 -9 25 8 21 24 22 24 2z m108 -87 c24 -44 22 -59 -3 -38 -13 11 -45 72 -45 86 0 15 29 -14 48 -48z m92 -39 c0 -5 -7 -9 -15 -9 -15 0 -20 12 -9 23 8 8 24 -1 24 -14z m1960 -64 c-7 -8 -17 -12 -23 -8 -6 4 -3 11 8 19 23 17 32 10 15 -11z m-37 -31 c10 -10 -12 -44 -28 -44 -18 0 -18 5 -5 31 11 19 22 24 33 13z m-533 -283 c0 -11 -27 -24 -62 -28 -41 -4 -34 12 10 24 50 14 52 14 52 4z m-1057 -18 c-4 -10 -2 -14 4 -10 12 7 27 -22 18 -32 -8 -8 -45 41 -39 51 10 15 23 8 17 -9z m-41 -45 c-9 -9 -15 -9 -24 0 -9 9 -7 12 12 12 19 0 21 -3 12 -12z m928 -27 c0 -11 -31 -24 -39 -16 -3 3 1 10 9 15 19 12 30 12 30 1z m181 -5 c-14 -16 -51 -28 -51 -16 0 11 30 29 49 30 10 0 11 -3 2 -14z m-151 -31 c0 -8 -6 -15 -14 -15 -20 0 -29 17 -14 23 22 9 28 7 28 -8z m-214 -40 c4 -8 12 -15 20 -15 8 0 14 -4 14 -8 0 -17 -13 -21 -31 -9 -16 10 -25 9 -48 -4 -35 -20 -61 -10 -37 14 9 8 16 20 16 26 0 17 60 13 66 -4z m-411 -15 c-27 -12 -35 -12 -35 0 0 6 12 10 28 9 24 0 25 -1 7 -9z"></path>
            <path d="M1447 2724 c-14 -15 -6 -34 14 -34 14 0 19 5 17 17 -3 18 -20 27 -31 17z"></path>
            <path d="M1840 2435 c14 -16 40 -20 40 -6 0 9 -24 21 -42 21 -6 0 -6 -6 2 -15z"></path>
            <path d="M1917 556 c-10 -8 -14 -17 -9 -20 5 -3 17 3 27 14 21 23 9 26 -18 6z"></path>
            <path d="M2180 561 c0 -5 11 -8 25 -8 14 0 25 3 25 8 0 5 -11 9 -25 9 -14 0 -25 -4 -25 -9z"></path>
            <path d="M1757 499 c-17 -10 -23 -29 -9 -29 5 0 16 6 27 13 22 17 7 29 -18 16z"></path>
            <path d="M1825 495 c-24 -11 -26 -14 -9 -14 11 -1 29 6 40 14 24 18 8 18 -31 0z"></path>
        </g>
    </g>
    <g fill="rgb(45,45,45)" style="transform: none;">
        <g>
            <path d="M1551 2484 c-12 -15 -21 -36 -22 -48 0 -11 -2 -104 -2 -206 -2 -169 -3 -185 -19 -184 -62 3 -68 5 -68 22 0 43 -63 67 -94 37 -16 -16 -36 -76 -36 -108 0 -14 -5 -16 -25 -11 -16 4 -34 0 -50 -10 -13 -9 -26 -16 -27 -16 -2 0 -3 69 -3 152 0 120 -4 164 -18 203 -24 69 -54 103 -99 111 -34 5 -41 3 -72 -28 -49 -49 -61 -102 -47 -208 6 -47 17 -110 25 -140 20 -77 7 -84 -52 -28 -76 74 -252 157 -252 120 0 -5 24 -34 54 -65 48 -49 91 -102 160 -196 11 -14 37 -49 59 -78 45 -61 42 -78 -9 -57 -35 15 -38 14 -62 -8 -26 -24 -72 -112 -72 -138 0 -11 23 -20 83 -33 69 -14 265 -72 274 -81 2 -1 -13 -14 -32 -28 l-35 -24 -78 20 c-68 17 -83 18 -111 7 -51 -22 -111 -126 -111 -195 0 -23 2 -25 19 -16 11 5 49 10 85 10 l66 0 0 -32 c-1 -66 -27 -168 -53 -207 l-27 -40 22 -16 c40 -27 139 -14 181 25 20 19 37 106 37 188 0 51 0 52 30 52 32 0 37 -9 18 -28 -9 -9 -13 -53 -14 -140 l-1 -127 -54 2 c-71 3 -116 -20 -155 -78 -28 -42 -50 -116 -39 -127 3 -3 37 6 77 19 82 27 183 31 366 15 86 -7 102 -12 100 -25 -2 -9 -12 -15 -23 -14 -83 10 -233 23 -259 23 -58 0 -176 -139 -152 -179 4 -6 20 -5 43 1 27 7 334 6 380 -2 8 -1 -25 -72 -48 -102 l-29 -36 33 -8 c43 -9 131 -6 183 7 31 8 51 22 71 47 37 49 35 78 -13 245 -5 14 2 17 43 17 27 0 58 7 70 15 30 21 38 78 17 115 -22 36 -12 49 24 30 57 -32 52 -107 -15 -218 -18 -30 -33 -56 -33 -58 0 -10 60 -2 107 15 121 41 168 102 168 218 0 68 -2 75 -31 104 -27 27 -39 31 -78 31 -44 -1 -113 -29 -148 -60 -23 -19 -148 -24 -148 -5 0 7 3 13 8 14 82 7 102 19 102 58 0 40 -26 71 -61 71 -37 0 -36 11 2 80 18 30 38 67 46 82 8 15 32 44 54 65 63 60 109 79 109 46 0 -29 -50 -181 -71 -217 -48 -83 34 -32 128 79 107 126 180 277 162 338 -18 65 -57 81 -126 52 -56 -24 -60 -18 -18 25 39 40 40 42 39 113 -2 136 -99 374 -158 385 -23 5 -46 -16 -63 -56 -12 -29 -18 -33 -46 -30 l-32 3 0 202 0 202 -34 35 c-44 46 -89 49 -120 10z m-27 -594 c20 -19 -7 -31 -52 -25 -54 7 -57 9 -48 30 4 12 15 14 48 9 24 -4 47 -10 52 -14z m276 0 c22 -13 6 -22 -48 -28 -49 -4 -70 6 -57 28 8 13 85 13 105 0z m-505 -166 c9 -75 -4 -88 -45 -44 -29 31 -34 60 -11 60 5 0 13 9 16 20 13 40 33 21 40 -36z m223 -1 c-4 -20 -74 -31 -90 -15 -18 18 3 32 48 32 38 0 45 -3 42 -17z m262 -3 c0 -17 -7 -20 -45 -20 -31 0 -45 4 -45 13 0 21 11 27 52 27 31 0 38 -3 38 -20z m-254 -153 c11 -11 -15 -199 -31 -223 -8 -13 -15 -26 -15 -29 0 -11 52 -4 99 15 28 11 52 16 55 12 2 -4 -13 -26 -35 -49 l-39 -41 -97 44 c-54 24 -106 44 -115 44 -28 0 -31 20 -8 45 26 28 22 66 -12 102 -25 27 -20 34 24 39 20 2 41 13 53 29 17 22 26 25 68 22 26 -2 50 -7 53 -10z m-223 -16 c6 -24 0 -31 -24 -31 -16 0 -17 3 -7 25 13 30 24 32 31 6z m457 -29 l49 -28 -57 -48 -57 -49 -5 69 c-7 99 -6 99 70 56z m-320 -365 c51 -18 66 -28 68 -45 4 -26 8 -26 -65 -7 -103 27 -123 36 -123 54 0 36 8 36 120 -2z m-67 -172 c20 -8 50 -15 67 -15 28 0 30 -3 30 -36 0 -35 -1 -35 -31 -29 -17 4 -48 8 -70 9 -43 2 -43 3 -34 29 4 9 2 23 -4 31 -6 7 -8 16 -4 19 8 9 5 9 46 -8z"></path>
            <path d="M135 1850 c-4 -12 -5 -24 -2 -27 3 -2 8 5 12 17 4 12 5 24 2 27 -3 2 -8 -5 -12 -17z"></path>
            <path d="M216 1654 c-9 -22 -7 -54 2 -54 4 0 8 16 9 35 1 38 -2 43 -11 19z"></path>
            <path d="M1490 380 c-20 -13 -10 -19 22 -13 15 3 25 9 22 14 -7 12 -25 11 -44 -1z"></path>
        </g>
    </g>
</svg>