<svg xmlns="http://www.w3.org/2000/svg" viewBox="0 0 8320 8320">
    <g fill="#ffffff" style="transform: none;">
        <g>
            <path d="M7014 7502 c-21 -13 -26 -49 -8 -56 15 -6 16 -18 10 -98 -7 -108 -23 -161 -47 -155 -8 2 -24 -2 -35 -10 -16 -12 -17 -15 -4 -23 8 -5 35 -12 60 -16 25 -4 62 -13 84 -20 56 -20 98 -18 94 3 -2 13 -17 20 -50 24 -73 11 -72 8 -64 136 7 126 -1 223 -18 223 -6 0 -16 -4 -22 -8z"></path>
            <path d="M6619 7456 c-10 -14 -13 -29 -8 -46 10 -35 10 -132 0 -148 -6 -11 -11 -10 -25 3 -28 29 -29 10 -2 -68 14 -42 26 -84 26 -95 0 -27 9 -32 36 -20 28 13 29 26 10 73 -11 24 -13 59 -9 127 2 51 1 116 -4 144 -8 50 -8 51 -24 30z"></path>
            <path d="M7928 7459 c-20 -11 -25 -59 -6 -59 8 0 9 -27 5 -98 -6 -106 -21 -152 -47 -152 -9 0 -25 -6 -36 -14 -23 -17 -18 -20 73 -41 32 -7 72 -18 89 -25 36 -15 86 -6 78 14 -3 8 -26 17 -51 21 -76 11 -71 -1 -70 180 2 169 -3 192 -35 174z"></path>
            <path d="M6822 7438 c-7 -14 -13 -85 -15 -183 -2 -156 -3 -160 -23 -157 -28 4 -77 -16 -69 -28 3 -6 26 -15 50 -21 l44 -11 -4 -64 c-3 -35 -1 -64 3 -64 20 0 32 28 32 71 0 46 1 48 27 46 40 -3 43 28 4 36 -27 6 -30 11 -37 54 -4 26 -4 114 -1 195 4 81 5 148 4 148 -2 0 -9 -10 -15 -22z"></path>
            <path d="M7533 7419 c-8 -8 -10 -40 -6 -104 4 -69 3 -94 -7 -100 -8 -5 -18 -2 -25 8 -27 37 -34 16 -13 -35 11 -29 26 -75 33 -103 6 -27 17 -50 23 -49 7 1 19 2 27 3 18 1 20 34 3 64 -8 14 -11 64 -10 142 2 135 -6 193 -25 174z"></path>
            <path d="M7733 7398 c-4 -7 -8 -33 -9 -58 0 -25 -1 -100 -2 -167 l-2 -123 -27 0 c-36 0 -73 -10 -73 -20 0 -4 21 -14 48 -22 l47 -15 1 -59 c2 -78 1 -78 21 -58 11 11 18 33 18 58 0 37 3 41 28 44 35 4 35 27 -2 40 -36 13 -39 34 -35 240 2 83 2 152 -1 152 -2 0 -7 -6 -12 -12z"></path>
            <path d="M6730 7250 c0 -33 2 -60 4 -60 35 0 47 45 24 95 -18 41 -28 29 -28 -35z"></path>
            <path d="M7640 7205 c0 -63 1 -65 20 -55 23 12 27 55 8 95 -19 42 -28 29 -28 -40z"></path>
            <path d="M6891 7227 c-30 -33 -24 -56 8 -30 13 11 22 27 20 37 -4 16 -7 15 -28 -7z"></path>
            <path d="M7794 7175 c-9 -14 -14 -28 -11 -31 10 -10 47 21 47 38 0 26 -17 22 -36 -7z"></path>
            <path d="M6584 7018 c14 -29 27 -61 30 -70 6 -19 41 -24 65 -9 23 15 3 47 -60 91 l-60 42 25 -54z"></path>
            <path d="M6972 7058 c-22 -11 -21 -12 15 -25 51 -17 93 -17 93 1 0 8 -14 19 -31 25 -38 13 -47 13 -77 -1z"></path>
            <path d="M7893 7018 c-32 -15 -29 -21 17 -36 54 -16 80 -15 80 4 0 12 -58 47 -72 43 -2 0 -13 -5 -25 -11z"></path>
            <path d="M7480 7018 c0 -10 49 -121 57 -129 13 -13 63 6 63 25 0 8 -19 31 -42 51 -39 33 -78 60 -78 53z"></path>
            <path d="M6909 6961 c-13 -11 -20 -23 -16 -27 10 -10 59 16 65 34 6 18 -23 14 -49 -7z"></path>
            <path d="M7823 6916 c-15 -13 -25 -27 -21 -31 8 -8 68 22 68 35 0 20 -20 19 -47 -4z"></path>
            <path d="M6625 6751 c-3 -10 -1 -38 4 -62 17 -71 13 -178 -7 -232 l-19 -48 -37 60 c-50 81 -63 87 -23 9 52 -98 68 -145 77 -231 5 -44 11 -82 13 -84 3 -2 16 2 31 8 36 17 34 56 -5 139 l-30 64 22 17 c22 16 22 20 16 160 -8 158 -15 219 -28 219 -4 0 -10 -8 -14 -19z"></path>
            <path d="M6887 6744 c-4 -4 -4 -32 -1 -63 l6 -56 -38 -14 c-22 -8 -34 -15 -29 -17 6 -1 22 -5 38 -8 26 -6 27 -8 27 -76 0 -38 -4 -71 -9 -74 -5 -3 -21 18 -35 47 -33 66 -54 90 -95 112 -37 19 -37 20 19 -65 47 -70 66 -107 75 -147 5 -26 3 -33 -9 -33 -9 0 -29 -8 -46 -19 l-31 -19 45 -15 c25 -8 55 -13 66 -10 22 6 22 4 15 -71 -7 -77 -5 -83 29 -70 12 5 16 20 16 59 l0 54 33 -5 c17 -3 45 -1 61 5 38 15 21 35 -45 52 -29 8 -49 18 -49 27 0 7 15 46 33 85 38 82 91 135 187 186 33 18 60 37 60 43 0 15 -56 2 -115 -27 -58 -28 -92 -60 -140 -129 -25 -35 -36 -45 -40 -34 -10 27 -1 103 13 104 6 1 23 2 37 3 48 2 24 41 -25 41 -26 0 -39 29 -38 84 1 47 -4 61 -15 50z"></path>
            <path d="M6129 6727 c-25 -19 -33 -53 -13 -61 15 -6 16 -18 10 -102 -7 -98 -27 -160 -50 -151 -6 3 -21 -2 -31 -10 -17 -12 -18 -15 -5 -23 8 -5 35 -12 60 -16 25 -4 62 -13 84 -20 57 -20 96 -18 96 5 0 14 -10 19 -50 24 -28 3 -55 9 -60 12 -6 4 -10 74 -10 168 0 171 -4 193 -31 174z"></path>
            <path d="M7986 6697 c-15 -11 -16 -17 -6 -33 11 -18 8 -117 -12 -484 -3 -42 -1 -45 24 -48 33 -4 35 8 26 143 -3 55 -2 156 3 225 15 218 13 232 -35 197z"></path>
            <path d="M5727 6680 c-11 -16 -13 -30 -6 -53 11 -40 11 -128 0 -145 -7 -11 -11 -11 -24 2 -29 29 -37 17 -18 -26 10 -24 24 -68 31 -98 16 -71 16 -71 45 -58 30 13 31 29 6 83 -13 30 -16 47 -9 65 9 22 3 239 -7 248 -1 2 -10 -6 -18 -18z"></path>
            <path d="M5931 6667 c-6 -8 -12 -79 -13 -183 -3 -165 -4 -169 -24 -166 -30 4 -79 -17 -68 -28 5 -5 27 -13 49 -18 l40 -8 -2 -67 c-1 -37 1 -67 6 -67 19 0 31 28 31 73 0 47 1 48 27 45 41 -5 44 27 4 35 -40 8 -45 40 -38 239 3 87 4 158 3 158 -2 0 -8 -6 -15 -13z"></path>
            <path d="M7604 6575 c21 -45 23 -69 6 -70 -22 0 -52 -25 -80 -64 l-24 -34 51 27 c28 16 56 25 62 22 16 -10 13 -46 -3 -52 -25 -10 -26 -32 -1 -58 l23 -25 -29 -6 -30 -7 35 -18 c40 -20 96 -31 96 -18 0 5 -13 16 -28 26 -30 19 -34 59 -4 47 35 -13 102 -18 102 -6 0 6 -4 11 -9 11 -5 0 -18 24 -29 53 -16 43 -25 53 -48 57 -23 4 -29 11 -29 30 0 19 7 26 33 34 17 5 32 13 32 17 0 14 -44 11 -58 -3 -10 -10 -20 -5 -48 27 -32 36 -34 37 -20 10z m86 -176 c0 -12 -5 -19 -12 -16 -13 4 -18 25 -10 40 6 13 22 -4 22 -24z"></path>
            <path d="M5840 6470 c0 -60 6 -70 28 -48 15 15 15 50 0 83 -18 41 -28 29 -28 -35z"></path>
            <path d="M6000 6448 c-30 -32 -27 -53 5 -32 14 9 25 25 25 35 0 24 -5 24 -30 -3z"></path>
            <path d="M7851 6411 c-8 -5 -17 -29 -22 -52 -4 -24 -11 -55 -15 -69 l-8 -25 35 26 c28 22 35 34 37 69 4 47 -6 64 -27 51z"></path>
            <path d="M7470 6384 c0 -6 20 -42 45 -79 25 -38 55 -95 67 -127 21 -54 25 -58 55 -58 43 0 42 13 -7 86 -46 68 -159 194 -160 178z"></path>
            <path d="M5694 6238 c13 -29 26 -61 29 -70 7 -19 42 -24 66 -9 22 14 3 48 -47 84 -72 52 -73 51 -48 -5z"></path>
            <path d="M6076 6278 c-17 -9 -15 -12 20 -24 51 -18 94 -18 94 -1 0 30 -77 47 -114 25z"></path>
            <path d="M7707 6202 c-10 -10 -17 -21 -17 -25 0 -10 58 13 71 29 18 22 -34 18 -54 -4z"></path>
            <path d="M6019 6181 c-13 -11 -21 -22 -17 -26 9 -9 60 17 66 33 6 18 -23 14 -49 -7z"></path>
            <path d="M6750 6010 c-13 -8 -13 -12 1 -37 9 -15 20 -49 23 -75 8 -56 3 -59 -68 -27 -47 20 -113 23 -109 4 2 -7 148 -63 171 -65 2 0 2 -10 0 -22 -2 -17 -8 -22 -23 -19 -45 10 -80 6 -80 -9 0 -8 9 -16 20 -18 69 -10 78 -18 51 -45 -17 -16 -10 -57 9 -57 28 0 75 13 75 21 0 4 -9 11 -20 14 -33 10 -23 22 28 33 l47 9 -32 14 c-23 9 -33 20 -33 36 0 27 16 38 34 24 9 -8 29 -8 66 -1 29 5 55 10 59 10 3 0 -1 5 -9 10 -8 5 -41 10 -72 10 -68 0 -73 6 -81 100 -9 98 -19 114 -57 90z"></path>
            <path d="M5825 5942 c-4 -9 -6 -56 -6 -104 1 -49 0 -88 -2 -88 -3 0 -20 7 -40 15 -29 12 -36 21 -42 52 -3 21 -11 45 -16 53 -8 12 -9 9 -5 -10 18 -75 28 -182 17 -193 -18 -18 -13 -37 10 -37 12 0 23 8 26 20 4 16 9 18 24 9 24 -12 25 -46 2 -52 -10 -3 -2 -5 18 -6 23 -1 39 -7 43 -16 9 -23 -21 -30 -71 -17 -24 7 -53 12 -66 12 -20 -1 -20 -2 -4 -11 17 -10 16 -12 -3 -36 -11 -14 -20 -32 -20 -39 0 -26 39 8 46 39 4 18 11 27 19 23 8 -3 30 -8 50 -12 47 -9 44 -37 -5 -44 l-35 -6 33 -7 c45 -9 37 -31 -14 -37 l-39 -5 56 -13 c56 -13 109 -8 109 9 0 5 -6 9 -14 9 -12 0 -36 47 -36 71 0 5 13 9 28 9 16 0 31 3 35 6 9 10 -33 72 -53 77 -26 7 -34 74 -26 218 6 110 -2 155 -19 111z m-17 -239 c4 -27 -5 -29 -30 -6 -24 22 -23 35 5 31 14 -2 23 -11 25 -25z"></path>
            <path d="M5952 5927 c-20 -23 4 -27 168 -27 157 0 180 3 180 27 0 12 -8 13 -42 6 -55 -10 -178 -10 -243 1 -40 6 -53 5 -63 -7z"></path>
            <path d="M7575 5870 c-3 -6 -3 -52 1 -104 3 -52 3 -99 -1 -105 -4 -8 -17 3 -36 29 -16 22 -36 40 -44 40 -19 0 -20 4 15 -73 32 -71 39 -107 18 -89 -19 15 -71 23 -86 14 -16 -11 -5 -42 14 -42 19 0 97 -40 106 -54 4 -6 5 -19 2 -29 -5 -15 -1 -17 23 -11 15 4 32 11 38 15 5 5 19 9 32 9 32 0 29 17 -7 35 -37 19 -42 68 -10 85 12 6 20 21 20 35 0 21 -5 25 -29 25 l-29 0 -2 78 c-2 42 -4 94 -4 115 -1 36 -9 47 -21 27z"></path>
            <path d="M6029 5834 c-5 -15 -8 -28 -6 -30 6 -7 25 12 31 34 10 32 -12 28 -25 -4z"></path>
            <path d="M6125 5820 c0 -41 10 -47 29 -17 8 12 8 22 0 34 -19 30 -30 24 -29 -17z"></path>
            <path d="M6600 5800 c0 -3 9 -29 20 -58 29 -76 27 -81 -20 -75 -22 3 -40 2 -40 -4 0 -11 47 -38 81 -46 21 -5 28 -14 32 -44 5 -26 2 -42 -8 -52 -12 -12 -10 -17 11 -33 20 -16 24 -28 24 -74 0 -48 2 -54 21 -54 19 0 21 5 17 58 l-3 57 53 -3 c28 -2 52 -1 52 2 0 4 -29 20 -64 35 -50 23 -65 35 -70 56 -4 15 -5 29 -3 31 2 2 20 -1 40 -7 38 -10 46 -26 25 -48 -11 -10 -7 -11 17 -5 17 4 39 13 50 20 11 8 39 14 63 14 26 0 41 4 37 10 -3 6 -17 10 -31 10 -34 0 -30 12 15 53 51 46 83 62 164 83 60 15 98 37 85 49 -9 9 -199 -44 -233 -65 -19 -12 -52 -42 -74 -67 -38 -44 -40 -45 -83 -39 -70 11 -96 33 -129 110 -24 59 -49 102 -49 86z"></path>
            <path d="M7885 5788 c-11 -6 -30 -20 -42 -31 -20 -18 -23 -18 -38 -3 -9 9 -23 16 -30 16 -11 0 -10 -8 5 -33 l20 -34 -23 -34 c-39 -59 -41 -65 -8 -35 20 20 35 26 41 20 15 -15 30 -109 30 -185 0 -71 7 -81 34 -53 22 21 19 69 -8 192 l-23 104 26 24 c33 30 81 33 88 4 3 -11 7 -20 9 -20 2 0 26 5 54 11 77 16 67 34 -34 55 -74 16 -76 16 -101 2z"></path>
            <path d="M6034 5763 c-6 -5 -17 -18 -23 -31 l-12 -23 39 22 c34 20 44 21 66 11 32 -14 35 -42 4 -42 -20 -1 -21 -2 -6 -10 27 -16 108 -25 108 -11 0 6 -4 11 -10 11 -5 0 -17 15 -26 33 -9 17 -18 33 -19 35 -7 8 -111 12 -121 5z"></path>
            <path d="M7666 5719 c-8 -13 -14 -24 -13 -26 9 -8 62 16 62 28 0 23 -32 22 -49 -2z"></path>
            <path d="M5973 5665 c-14 -11 -8 -14 48 -19 35 -4 95 -12 132 -18 47 -8 71 -8 78 -1 8 8 -16 14 -78 23 -48 6 -105 15 -125 20 -26 5 -43 4 -55 -5z"></path>
            <path d="M5636 5645 c-3 -9 -6 -25 -6 -36 0 -17 3 -18 20 -7 12 7 19 21 18 32 -4 25 -24 32 -32 11z"></path>
            <path d="M6013 5596 c-18 -22 -16 -28 7 -21 13 4 20 2 20 -7 0 -10 2 -10 9 1 12 19 41 6 41 -18 0 -15 -7 -19 -30 -19 -18 1 -30 6 -30 15 0 35 -33 4 -44 -41 l-7 -29 26 17 c15 10 33 15 41 12 17 -6 19 -78 4 -107 -8 -13 -7 -19 0 -19 6 0 16 11 22 25 16 35 33 25 33 -18 0 -52 26 -45 29 7 1 17 8 21 37 22 50 1 64 12 45 32 -8 10 -17 33 -21 52 -3 19 -8 44 -10 55 -2 11 -4 25 -4 31 -1 6 -13 11 -28 11 -16 0 -50 3 -78 7 -38 5 -53 3 -62 -8z m135 -56 c-1 -23 -5 -29 -15 -25 -8 3 -17 5 -19 5 -2 0 -4 11 -4 25 0 18 5 25 19 25 15 0 19 -7 19 -30z m-48 -76 c0 -8 -7 -14 -15 -14 -10 0 -15 10 -15 26 0 22 2 25 15 14 8 -7 15 -19 15 -26z m50 19 c0 -5 -5 -15 -10 -23 -8 -12 -10 -11 -10 8 0 12 5 22 10 22 6 0 10 -3 10 -7z"></path>
            <path d="M7990 5568 c-25 -27 -25 -38 -2 -38 24 0 62 28 62 46 0 21 -37 17 -60 -8z"></path>
            <path d="M7772 5520 c-16 -26 -16 -73 0 -68 14 5 30 70 20 80 -4 4 -13 -1 -20 -12z"></path>
            <path d="M6623 5445 c-3 -9 -3 -18 0 -21 10 -10 47 7 47 22 0 19 -39 18 -47 -1z"></path>
            <path d="M6806 5403 c9 -63 10 -64 44 -45 36 21 37 26 5 57 -37 38 -55 33 -49 -12z"></path>
            <path d="M7564 5384 c20 -44 22 -46 59 -41 44 6 52 11 42 27 -7 11 -98 60 -113 60 -5 0 1 -21 12 -46z"></path>
            <path d="M3448 5226 c-20 -15 -24 -51 -7 -62 15 -9 4 -196 -12 -223 -7 -9 -26 -22 -43 -27 -45 -13 -35 -27 31 -42 32 -8 74 -20 94 -29 44 -18 83 -14 87 10 3 12 -3 17 -20 17 -13 0 -39 5 -60 10 l-36 10 1 165 c2 170 -3 195 -35 171z"></path>
            <path d="M4328 5204 c-9 -20 -9 -27 1 -34 18 -10 10 -222 -7 -228 -7 -2 -12 -9 -12 -17 0 -7 -13 -15 -30 -18 -16 -4 -30 -11 -30 -16 0 -11 55 -31 85 -31 13 0 39 -7 58 -15 38 -16 89 -20 100 -8 12 11 -15 33 -42 33 -14 0 -36 3 -48 6 -23 6 -23 9 -23 164 0 87 -3 165 -6 174 -9 24 -33 19 -46 -10z"></path>
            <path d="M5224 5212 c-21 -13 -26 -49 -8 -56 15 -6 16 -18 11 -97 -8 -110 -27 -154 -68 -163 -41 -8 -36 -23 14 -36 23 -6 65 -18 93 -26 56 -15 114 -19 114 -6 0 16 -25 32 -49 32 -15 0 -36 3 -48 6 -22 6 -23 10 -25 177 -3 165 -7 187 -34 169z"></path>
            <path d="M5953 5213 c-15 -6 -17 -39 -3 -48 13 -8 13 -122 1 -130 -5 -3 -12 -1 -15 4 -3 5 -34 33 -68 62 l-62 54 47 -66 c70 -98 64 -105 -46 -54 -40 19 -53 21 -68 12 -11 -7 -19 -15 -19 -18 0 -11 75 -37 150 -51 l75 -13 7 -45 c15 -84 9 -88 -51 -31 -52 50 -84 63 -44 18 23 -25 63 -94 63 -107 0 -5 -30 2 -68 14 -55 19 -70 21 -80 10 -15 -16 -9 -19 70 -43 103 -32 251 -60 281 -54 36 7 30 25 -14 36 -19 5 -38 13 -43 18 -16 15 -29 10 -16 -6 18 -22 8 -27 -27 -15 -29 10 -31 15 -35 75 -10 116 -13 112 113 117 62 2 113 8 120 15 19 19 -25 26 -122 18 -49 -4 -89 -3 -89 1 1 15 121 104 148 110 117 25 171 54 104 54 -74 0 -194 -47 -244 -95 l-28 -26 0 79 c0 79 -13 114 -37 105z"></path>
            <path d="M3054 5190 c-7 -7 -9 -46 -6 -110 4 -89 3 -100 -12 -100 -9 0 -19 7 -22 15 -4 8 -12 15 -19 15 -10 0 -7 -16 11 -62 13 -35 27 -80 31 -101 7 -43 12 -48 41 -40 25 6 28 35 8 72 -10 17 -12 54 -9 135 5 121 -5 194 -23 176z"></path>
            <path d="M3950 5185 c-12 -14 -14 -39 -11 -112 2 -75 0 -93 -11 -93 -8 0 -19 5 -26 12 -22 22 -21 3 5 -77 43 -133 40 -127 63 -113 24 15 26 48 5 88 -11 22 -13 40 -7 72 5 24 6 88 3 142 -5 90 -7 98 -21 81z"></path>
            <path d="M4828 5168 c-10 -16 -12 -35 -7 -63 11 -54 10 -117 0 -133 -7 -11 -11 -11 -24 2 -31 32 -36 15 -12 -49 14 -36 25 -76 25 -88 0 -13 6 -31 13 -41 12 -17 14 -17 36 1 l24 19 -21 48 c-17 37 -19 52 -11 74 9 23 4 240 -6 250 -1 1 -9 -8 -17 -20z"></path>
            <path d="M3253 5168 c-4 -7 -8 -33 -9 -58 0 -25 -1 -100 -2 -167 l-2 -123 -27 0 c-36 0 -73 -10 -73 -20 0 -4 21 -14 48 -22 l47 -15 1 -64 c1 -35 2 -65 3 -67 1 -2 9 4 19 14 10 11 17 33 17 58 0 37 3 41 28 44 36 4 35 25 -3 39 -35 13 -33 0 -32 236 1 86 -1 157 -3 157 -2 0 -7 -6 -12 -12z"></path>
            <path d="M6975 5170 c-5 -8 -8 -76 -6 -152 2 -109 -12 -280 -24 -296 -1 -1 -18 5 -38 13 -62 26 -120 13 -68 -14 26 -14 207 -63 254 -69 34 -4 38 -2 35 14 -2 12 -13 20 -28 22 -56 5 -140 25 -140 33 0 4 10 9 23 11 l22 3 -4 199 c-4 206 -10 262 -26 236z"></path>
            <path d="M4143 5152 c-2 -10 -5 -90 -6 -177 l-2 -159 -35 -1 c-20 -1 -44 -6 -55 -12 -16 -10 -12 -13 33 -29 41 -15 52 -23 50 -39 0 -11 0 -42 0 -68 l2 -48 21 20 c18 16 21 28 16 61 -5 39 -4 40 23 40 50 0 48 31 -2 44 l-28 6 -1 98 c-1 147 2 235 8 260 3 13 1 22 -7 22 -6 0 -14 -8 -17 -18z"></path>
            <path d="M5032 5148 c-8 -8 -12 -63 -12 -181 l0 -169 -24 6 c-14 3 -37 1 -53 -5 -27 -10 -27 -11 -9 -25 11 -7 34 -16 51 -20 l31 -5 -3 -65 c-2 -35 0 -64 5 -64 19 0 32 27 32 66 0 39 2 43 27 46 40 4 41 32 1 43 l-33 10 1 188 c0 103 0 187 -1 187 -1 0 -6 -5 -13 -12z"></path>
            <path d="M6717 5144 c-4 -4 -4 -42 -1 -84 4 -45 3 -80 -3 -83 -5 -3 -35 23 -67 59 -31 35 -61 64 -67 64 -25 0 -2 -36 67 -103 l77 -75 -5 -51 c-3 -28 -7 -54 -10 -56 -3 -3 -22 2 -43 11 -23 9 -48 13 -64 9 l-26 -7 30 -23 c16 -13 45 -28 65 -32 l35 -9 -3 -62 c-2 -34 0 -62 5 -62 20 1 32 18 35 55 2 33 7 41 26 43 29 4 28 18 -3 38 -22 15 -24 22 -25 97 -1 124 -14 280 -23 271z"></path>
            <path d="M7500 5105 c-11 -13 -8 -21 17 -48 16 -18 51 -58 76 -90 26 -33 47 -57 47 -54 0 14 -58 128 -83 165 -34 47 -39 49 -57 27z"></path>
            <path d="M3160 4975 c0 -36 4 -65 8 -65 29 0 41 55 22 104 -17 46 -30 29 -30 -39z"></path>
            <path d="M4057 5033 c-4 -6 -4 -39 0 -73 6 -61 6 -61 25 -42 15 15 18 27 13 55 -8 43 -29 75 -38 60z"></path>
            <path d="M7728 5015 c-9 -20 -8 -28 4 -42 20 -23 41 -90 33 -103 -4 -6 -17 -5 -38 3 -18 7 -45 10 -62 7 l-30 -5 47 -23 c26 -12 54 -22 62 -22 8 0 22 -7 30 -16 18 -17 22 -54 6 -54 -6 0 -27 -7 -48 -16 l-37 -16 35 -13 c19 -7 45 -11 57 -8 17 4 24 -1 29 -21 3 -15 1 -39 -6 -55 -6 -16 -9 -39 -5 -50 5 -17 9 -19 31 -9 21 10 24 18 24 61 0 48 1 49 26 43 28 -7 64 0 64 14 0 5 -20 16 -46 26 -30 11 -50 27 -60 47 -9 16 -14 31 -11 33 2 3 49 -2 103 -10 86 -13 101 -13 113 -1 8 8 12 18 8 21 -4 4 -52 11 -107 15 -134 10 -143 14 -135 49 4 20 0 40 -17 69 -12 22 -20 43 -16 46 4 4 31 0 61 -9 30 -9 66 -16 78 -16 23 0 23 0 4 19 -21 20 -132 61 -165 61 -12 0 -25 -10 -32 -25z"></path>
            <path d="M4940 4953 c0 -65 0 -66 20 -48 23 20 26 52 8 90 -19 42 -28 29 -28 -42z"></path>
            <path d="M7978 4993 c-8 -10 -25 -33 -38 -52 l-23 -33 24 7 c39 12 89 54 89 76 0 24 -31 25 -52 2z"></path>
            <path d="M3316 4948 c-9 -12 -16 -28 -16 -35 0 -20 47 13 53 37 7 27 -18 26 -37 -2z"></path>
            <path d="M4224 4955 c-21 -14 -39 -55 -25 -55 4 0 18 11 30 24 29 31 25 53 -5 31z"></path>
            <path d="M5102 4937 c-28 -30 -30 -52 -3 -37 19 9 38 47 29 56 -3 2 -14 -6 -26 -19z"></path>
            <path d="M7560 4805 c-19 -20 -20 -25 -8 -25 30 0 48 12 48 31 0 26 -12 24 -40 -6z"></path>
            <path d="M3415 4785 l-30 -12 39 -17 c51 -21 88 -21 84 1 -5 27 -57 43 -93 28z"></path>
            <path d="M3000 4788 c0 -10 49 -121 56 -128 5 -5 21 -6 37 -3 40 8 34 35 -15 78 -39 33 -78 60 -78 53z"></path>
            <path d="M4296 4777 c-17 -12 -14 -15 40 -30 63 -18 91 -10 63 18 -22 22 -80 29 -103 12z"></path>
            <path d="M3920 4718 c22 -50 33 -64 52 -66 27 -3 54 21 43 38 -10 15 -105 90 -115 90 -5 0 4 -28 20 -62z"></path>
            <path d="M5186 4767 c-16 -12 -13 -15 34 -30 66 -21 70 -21 70 2 0 12 -11 23 -31 30 -41 14 -51 14 -73 -2z"></path>
            <path d="M4780 4767 c0 -16 50 -122 59 -125 21 -7 61 8 61 22 0 15 -65 77 -99 96 -12 6 -21 9 -21 7z"></path>
            <path d="M3344 4685 c-16 -13 -26 -26 -22 -30 8 -8 68 22 68 35 0 19 -17 18 -46 -5z"></path>
            <path d="M5928 4703 c-26 -7 -22 -23 5 -23 16 0 28 -9 36 -26 11 -25 10 -26 -11 -19 -43 13 -78 17 -95 11 -15 -6 -15 -8 3 -20 10 -7 35 -17 54 -21 19 -3 49 -11 65 -17 19 -6 39 -6 55 0 24 9 24 9 -23 43 -48 34 -55 43 -37 54 30 19 -4 31 -52 18z"></path>
            <path d="M4233 4675 c-30 -26 -20 -32 22 -13 14 6 25 17 25 25 0 20 -16 16 -47 -12z"></path>
            <path d="M7555 4660 l-39 -40 48 14 c57 17 71 29 63 50 -10 26 -30 19 -72 -24z"></path>
            <path d="M5120 4670 c-14 -10 -21 -22 -17 -26 11 -11 57 14 57 31 0 20 -10 19 -40 -5z"></path>
            <path d="M4047 4428 c-2 -7 -2 -52 1 -100 5 -101 0 -107 -54 -53 -41 41 -49 43 -65 13 -10 -19 -9 -24 12 -37 93 -62 104 -75 107 -130 3 -48 1 -53 -15 -46 -46 18 -78 24 -86 16 -17 -17 1 -39 35 -46 74 -15 71 -11 65 -79 -3 -34 -2 -68 3 -76 16 -26 42 12 48 69 3 40 9 52 25 57 20 6 19 7 -6 21 -15 7 -27 21 -27 31 0 9 -3 28 -7 41 -5 20 -3 23 10 18 24 -9 21 14 -8 69 -26 49 -26 56 -9 190 5 45 4 54 -9 54 -8 0 -17 -6 -20 -12z"></path>
            <path d="M6519 4417 c-9 -19 -5 -32 23 -77 l33 -54 3 34 c4 36 -24 120 -39 120 -5 0 -14 -10 -20 -23z"></path>
            <path d="M5644 4422 c-28 -18 -25 -51 10 -103 l36 -51 -1 43 c-1 53 -29 122 -45 111z"></path>
            <path d="M7065 4411 c-119 -34 -145 -66 -145 -176 0 -88 17 -76 29 20 6 52 13 72 30 86 29 24 110 36 121 19 7 -11 12 -10 25 3 9 10 24 17 33 17 9 0 24 5 32 10 13 9 12 12 -4 25 -25 19 -46 18 -121 -4z"></path>
            <path d="M3020 4399 c-10 -17 -7 -24 12 -42 13 -12 43 -47 67 -77 63 -78 63 -78 52 -48 -15 39 -62 132 -71 138 -4 3 -12 15 -19 28 -15 27 -27 28 -41 1z"></path>
            <path d="M6185 4400 c-129 -37 -155 -68 -155 -182 0 -80 16 -66 29 26 6 38 14 73 20 79 5 5 34 16 63 23 47 13 54 12 65 -2 9 -13 13 -13 20 -2 4 8 23 19 42 24 46 12 49 29 10 43 -18 6 -32 10 -33 10 -1 -1 -28 -9 -61 -19z"></path>
            <path d="M4245 4383 c-6 -24 -30 -95 -49 -143 -5 -11 0 -15 18 -15 13 0 23 2 21 5 -2 3 2 13 9 22 10 14 23 16 69 11 50 -5 57 -8 57 -27 0 -27 -18 -46 -36 -39 -8 3 -26 2 -42 -2 -27 -8 -27 -8 13 -21 50 -16 105 -17 141 -4 23 9 25 12 12 23 -11 9 -17 39 -21 104 -3 51 -8 97 -12 103 -3 5 -44 10 -90 10 -84 0 -85 0 -90 -27z m112 -1 c12 -7 17 -38 15 -80 -2 -21 -5 -22 -39 -16 -51 9 -55 14 -47 62 6 37 10 42 33 42 14 0 31 -4 38 -8z"></path>
            <path d="M290 4379 c-10 -18 -6 -27 32 -67 24 -26 58 -65 75 -87 l33 -40 -16 40 c-26 65 -53 114 -74 135 -11 11 -20 25 -20 30 0 17 -19 11 -30 -11z"></path>
            <path d="M2122 4388 c-18 -18 -15 -35 11 -60 12 -12 44 -50 71 -83 32 -40 46 -52 41 -35 -11 36 -55 123 -72 140 -8 8 -19 23 -26 33 -10 14 -15 15 -25 5z"></path>
            <path d="M4796 4385 c-4 -12 80 -129 141 -195 9 -10 -17 51 -46 107 -48 92 -81 123 -95 88z"></path>
            <path d="M1191 4371 c-8 -14 -4 -25 21 -52 16 -19 48 -58 70 -86 22 -29 42 -53 44 -53 13 0 -61 145 -86 170 -11 11 -20 25 -20 30 0 17 -19 11 -29 -9z"></path>
            <path d="M6735 4305 c0 -47 2 -85 5 -85 18 0 50 44 50 68 0 29 -30 94 -46 99 -5 2 -9 -35 -9 -82z"></path>
            <path d="M5846 4330 c3 -31 2 -72 -4 -93 -12 -42 -7 -45 28 -17 36 27 34 100 -4 138 l-27 27 7 -55z"></path>
            <path d="M6838 4353 c0 -10 -1 -50 -2 -90 -1 -67 0 -71 17 -56 18 17 21 43 11 117 -7 45 -23 63 -26 29z"></path>
            <path d="M5955 4350 c-5 -8 -10 -49 -10 -91 -1 -72 0 -76 17 -66 19 13 22 46 10 127 -6 34 -10 41 -17 30z"></path>
            <path d="M3256 4324 c-20 -19 -20 -38 -3 -53 8 -6 19 -29 26 -52 15 -48 4 -67 -27 -50 -11 6 -38 11 -59 11 -35 -1 -37 -2 -19 -15 10 -8 42 -22 70 -31 56 -19 66 -28 66 -61 0 -16 -6 -23 -19 -23 -11 0 -32 -5 -48 -11 -26 -10 -27 -11 -8 -21 10 -6 35 -12 54 -13 47 -3 59 -24 43 -70 -13 -34 -9 -75 7 -75 22 0 40 29 43 69 3 45 3 45 42 45 54 1 57 22 5 37 -41 13 -88 65 -71 81 4 4 42 0 86 -8 90 -17 131 -15 131 6 0 18 -35 28 -110 29 -33 1 -77 6 -98 12 -33 9 -37 12 -31 36 5 18 0 39 -17 69 -13 24 -21 46 -18 48 3 3 38 -4 78 -15 40 -11 76 -18 79 -14 12 12 -42 45 -107 65 -76 24 -76 24 -95 4z"></path>
            <path d="M538 4312 c-29 -6 -33 -46 -9 -79 12 -16 23 -42 24 -58 2 -32 6 -31 -75 -18 -73 11 -25 -33 57 -53 35 -8 45 -20 45 -51 0 -15 -6 -23 -17 -23 -9 0 -31 -5 -50 -12 l-33 -12 31 -13 c17 -7 44 -13 60 -13 23 0 30 -6 35 -27 4 -14 2 -34 -5 -44 -14 -23 -14 -56 -1 -64 5 -3 19 -1 30 5 15 8 20 21 20 55 l0 45 39 0 c59 0 60 18 3 42 -47 20 -80 57 -67 78 2 4 39 1 81 -7 84 -16 135 -14 141 4 6 16 -59 33 -132 34 -97 2 -109 8 -110 55 -1 26 -9 51 -23 69 -13 16 -19 32 -15 36 4 4 41 -2 80 -14 75 -21 101 -18 67 8 -35 28 -146 64 -176 57z"></path>
            <path d="M5024 4296 c-4 -19 -1 -33 11 -46 20 -22 33 -100 17 -100 -6 0 -23 5 -37 10 -15 6 -38 7 -51 4 -23 -6 -24 -7 -7 -19 10 -7 41 -20 70 -29 48 -16 63 -30 63 -60 0 -7 -23 -18 -51 -25 -60 -16 -54 -29 16 -39 41 -6 50 -11 56 -33 3 -15 3 -33 -2 -40 -11 -17 -12 -79 -1 -79 4 0 18 7 30 16 17 12 22 25 22 59 l0 44 36 -2 c54 -3 54 19 0 43 -31 13 -50 28 -56 46 -6 15 -9 29 -6 31 2 3 37 -1 78 -7 82 -13 140 -11 145 6 5 15 -30 23 -120 29 -40 3 -85 7 -101 11 -25 5 -27 9 -22 37 5 23 0 40 -20 69 -15 21 -24 41 -20 45 4 4 28 1 54 -6 74 -22 102 -25 102 -12 0 16 -102 60 -156 68 -40 5 -43 4 -50 -21z"></path>
            <path d="M1426 4294 c-20 -19 -20 -38 -3 -56 8 -7 20 -31 27 -52 15 -46 3 -64 -29 -46 -12 6 -39 10 -59 8 l-37 -3 40 -21 c22 -12 53 -24 70 -28 34 -9 45 -21 45 -53 0 -16 -6 -23 -19 -23 -11 0 -32 -5 -48 -11 l-28 -11 25 -13 c14 -8 40 -14 57 -15 26 0 34 -5 39 -24 3 -13 1 -33 -5 -44 -24 -46 -8 -82 28 -62 15 7 21 23 23 58 l3 47 36 -3 c58 -5 58 16 0 40 -37 16 -53 29 -60 50 -5 15 -7 29 -3 31 4 2 39 -2 77 -9 89 -16 132 -17 141 -3 13 22 -17 31 -119 39 -58 4 -110 10 -116 14 -6 4 -8 20 -4 37 4 22 0 38 -16 59 -30 42 -28 62 7 54 15 -4 34 -10 42 -14 27 -13 90 -21 90 -12 0 15 -40 37 -109 60 -77 26 -75 26 -95 6z"></path>
            <path d="M2340 4290 c-8 -16 -6 -26 10 -48 11 -15 23 -45 27 -66 6 -38 5 -39 -18 -32 -48 14 -99 19 -99 9 0 -10 66 -42 116 -57 22 -7 40 -45 26 -57 -4 -3 -26 -12 -50 -19 -51 -16 -43 -29 24 -38 l49 -8 -3 -72 -3 -73 30 16 c28 14 31 20 31 61 0 44 1 46 24 40 27 -7 56 1 56 16 0 5 -20 18 -46 29 -41 19 -75 62 -59 77 3 3 34 0 69 -6 87 -16 143 -15 149 2 7 18 -67 36 -146 36 -86 0 -97 6 -97 52 0 24 -8 50 -22 68 -12 16 -18 33 -14 37 3 4 28 1 54 -6 71 -20 102 -24 102 -13 0 14 -37 36 -94 55 -67 23 -103 22 -116 -3z"></path>
            <path d="M3513 4303 c-18 -7 -75 -93 -62 -93 33 0 99 55 99 82 0 18 -12 21 -37 11z"></path>
            <path d="M5285 4281 c-11 -9 -30 -31 -43 -49 -21 -29 -21 -32 -5 -32 32 0 92 50 93 76 0 20 -25 23 -45 5z"></path>
            <path d="M778 4276 c-10 -7 -29 -30 -43 -50 -23 -34 -23 -36 -5 -36 30 0 95 63 87 83 -8 20 -16 21 -39 3z"></path>
            <path d="M2589 4258 c-44 -46 -54 -68 -32 -68 23 0 93 57 93 75 0 28 -32 25 -61 -7z"></path>
            <path d="M1683 4273 c-17 -6 -75 -93 -62 -93 17 0 63 27 83 49 27 30 13 58 -21 44z"></path>
            <path d="M7914 4244 c-63 -22 -116 -74 -190 -185 -37 -56 -78 -105 -90 -109 -23 -9 -64 -48 -64 -62 0 -11 43 -10 74 2 16 6 50 47 92 110 87 131 112 155 211 201 46 21 83 43 83 49 0 14 -68 11 -116 -6z"></path>
            <path d="M7490 4201 c0 -5 7 -28 16 -52 8 -24 15 -65 15 -91 0 -55 8 -63 43 -47 21 10 26 19 26 48 0 40 -28 107 -54 134 -18 18 -46 23 -46 8z"></path>
            <path d="M6726 4144 c-4 -10 4 -28 19 -46 14 -16 28 -41 31 -54 7 -26 -10 -54 -31 -54 -7 0 -18 -7 -25 -15 -10 -12 -6 -15 29 -21 22 -4 49 -12 58 -19 17 -13 17 -15 -5 -45 -13 -17 -21 -34 -17 -38 9 -10 58 21 70 43 8 16 18 19 49 17 84 -7 83 30 -2 43 -26 4 -63 14 -82 22 -33 13 -34 15 -16 28 18 13 17 15 -4 45 -12 17 -20 34 -17 37 11 10 107 -28 107 -43 0 -23 39 -8 78 29 36 35 39 42 16 51 -11 4 -28 -6 -51 -31 -30 -31 -37 -34 -44 -21 -9 17 -98 70 -135 82 -15 5 -24 2 -28 -10z"></path>
            <path d="M5833 4124 c-3 -10 0 -20 9 -25 20 -11 52 -84 45 -103 -4 -9 -15 -16 -25 -16 -11 0 -25 -6 -31 -14 -10 -12 -2 -17 43 -30 31 -9 56 -20 56 -25 0 -4 -11 -25 -25 -45 -28 -41 -27 -41 20 -22 30 13 39 24 37 46 0 3 24 7 55 7 30 1 57 4 60 7 11 11 -10 26 -45 31 -20 4 -59 14 -86 22 -43 14 -47 17 -33 28 22 16 21 21 -3 52 -11 14 -20 29 -20 34 0 12 93 -22 107 -39 12 -14 16 -14 47 1 35 16 74 62 63 74 -14 13 -59 -10 -75 -37 -20 -34 -28 -37 -36 -12 -6 17 -120 82 -145 82 -6 0 -14 -7 -18 -16z"></path>
            <path d="M3090 4105 c-27 -29 -25 -36 8 -24 13 5 22 17 22 29 0 25 -2 25 -30 -5z"></path>
            <path d="M355 4080 c-30 -32 -30 -32 -5 -25 33 10 43 19 38 40 -2 13 -9 10 -33 -15z"></path>
            <path d="M4237 4093 c-10 -12 -17 -47 -21 -106 -4 -77 -3 -88 11 -85 18 4 29 21 38 62 5 22 9 26 18 17 12 -12 62 -14 90 -2 17 6 16 8 -6 18 -14 7 -44 17 -66 23 -34 9 -41 15 -41 35 0 29 27 40 64 25 35 -13 86 -13 86 0 0 32 -146 42 -173 13z"></path>
            <path d="M4860 4085 c-24 -26 -14 -33 21 -15 19 11 27 40 11 40 -5 0 -19 -11 -32 -25z"></path>
            <path d="M6575 4080 c-30 -32 -30 -32 -5 -25 33 10 43 19 38 40 -2 13 -9 10 -33 -15z"></path>
            <path d="M1262 4077 c-29 -31 -28 -39 3 -25 14 6 25 19 25 30 0 23 -2 23 -28 -5z"></path>
            <path d="M2175 4073 l-30 -26 30 7 c28 7 44 21 45 39 0 13 -15 7 -45 -20z"></path>
            <path d="M5681 4066 l-35 -36 34 10 c41 12 42 13 38 40 -3 20 -5 19 -37 -14z"></path>
            <path d="M3088 3969 c-21 -17 -38 -35 -38 -39 0 -12 72 9 89 25 13 13 9 45 -6 45 -4 -1 -25 -14 -45 -31z"></path>
            <path d="M349 3939 l-44 -40 35 7 c43 7 80 30 80 48 0 29 -29 23 -71 -15z"></path>
            <path d="M4855 3944 l-40 -36 40 7 c43 7 82 36 71 54 -12 18 -29 12 -71 -25z"></path>
            <path d="M1258 3939 c-48 -39 -48 -49 -2 -39 44 10 69 33 61 54 -9 22 -16 20 -59 -15z"></path>
            <path d="M2175 3940 c-35 -37 -30 -44 21 -28 28 9 40 19 42 36 5 32 -28 29 -63 -8z"></path>
            <path d="M6586 3963 c-3 -4 -6 -13 -6 -22 0 -8 -10 -25 -22 -39 l-23 -23 30 11 c42 15 75 32 75 39 -1 11 -47 40 -54 34z"></path>
            <path d="M5690 3933 c0 -9 -10 -28 -22 -41 l-23 -25 30 7 c17 4 41 14 54 23 l25 16 -23 18 c-29 23 -41 24 -41 2z"></path>
            <path d="M3329 3704 c-10 -12 -10 -20 -1 -35 10 -15 10 -40 2 -106 -6 -48 -13 -90 -16 -95 -3 -5 -8 -21 -10 -35 -7 -37 -9 -38 -44 -23 -22 9 -30 19 -30 37 0 16 5 23 13 20 42 -16 57 -17 57 -7 0 6 -18 19 -39 27 -35 14 -41 21 -51 63 -6 27 -18 57 -25 67 -12 15 -12 11 -3 -30 10 -48 6 -160 -7 -209 -6 -24 -3 -29 21 -40 16 -6 36 -17 44 -23 37 -28 79 -38 110 -25 33 14 39 34 14 44 -17 6 -16 62 2 309 5 64 4 77 -9 77 -8 0 -20 -7 -28 -16z m-39 -350 c0 -24 -31 -29 -46 -9 -24 33 -18 45 16 34 17 -6 30 -17 30 -25z"></path>
            <path d="M4224 3699 c-15 -16 -16 -22 -5 -29 11 -6 12 -25 7 -86 -6 -66 -30 -182 -38 -189 -2 -1 -18 4 -35 11 -25 11 -33 20 -33 39 0 22 2 24 26 15 32 -12 44 -13 44 -1 0 5 -17 16 -38 24 -35 14 -40 20 -51 71 -16 73 -32 82 -23 14 8 -61 7 -137 -3 -188 l-7 -35 74 -38 c66 -34 76 -36 100 -25 32 15 33 20 13 51 -12 19 -13 42 -5 137 12 144 13 250 2 250 -5 0 -17 -9 -28 -21z m-63 -329 c21 -12 25 -35 9 -45 -14 -9 -36 10 -43 35 -6 22 5 25 34 10z"></path>
            <path d="M5109 3690 c-16 -15 -20 -23 -11 -26 15 -7 16 -90 2 -164 -11 -59 -17 -70 -28 -53 -4 7 -24 19 -45 28 -30 12 -37 21 -37 43 -1 15 -7 41 -14 57 -13 27 -14 21 -13 -75 0 -58 -3 -119 -7 -135 -7 -30 -6 -31 67 -69 66 -34 77 -37 98 -26 33 18 40 32 22 45 -13 10 -14 35 -6 194 4 101 5 187 2 192 -3 6 -17 0 -30 -11z m-55 -250 c24 -9 35 -38 20 -53 -8 -8 -57 11 -66 26 -22 34 -2 46 46 27z m-13 -80 c21 -12 25 -35 9 -45 -15 -9 -40 14 -40 36 0 22 4 23 31 9z"></path>
            <path d="M6985 3678 c-2 -7 -5 -20 -8 -28 -2 -8 4 -29 14 -45 18 -30 59 -230 59 -287 0 -33 -5 -34 -44 -10 -23 14 -32 31 -47 89 -19 75 -79 216 -97 227 -13 8 9 -78 43 -168 27 -72 33 -120 13 -114 -7 3 -20 -2 -29 -11 -17 -14 -17 -15 -1 -27 9 -8 24 -14 33 -14 9 0 19 -14 25 -37 7 -28 14 -38 29 -38 16 0 19 6 17 29 -3 26 -1 28 20 22 56 -16 88 -18 117 -5 37 17 38 22 8 42 -25 16 -57 108 -77 222 -11 68 -48 165 -61 165 -6 0 -11 -6 -14 -12z"></path>
            <path d="M319 3663 c-19 -22 -20 -166 -2 -151 26 21 45 149 24 162 -5 3 -15 -2 -22 -11z"></path>
            <path d="M2147 3663 c-19 -21 -21 -35 -18 -113 l1 -55 19 25 c20 26 31 99 21 138 -5 23 -6 23 -23 5z"></path>
            <path d="M1215 3646 c-14 -21 -15 -36 -8 -88 8 -57 10 -61 21 -41 17 31 27 139 14 147 -6 4 -18 -5 -27 -18z"></path>
            <path d="M500 3639 c-27 -10 -97 -105 -86 -116 4 -4 24 11 46 34 31 32 49 42 86 47 53 7 64 3 64 -25 0 -10 5 -19 10 -19 6 0 10 4 10 10 0 5 15 12 34 15 21 4 36 14 39 25 4 15 -5 20 -51 29 -65 13 -117 13 -152 0z"></path>
            <path d="M2334 3640 c-21 -7 -44 -28 -69 -65 -21 -30 -36 -57 -33 -61 3 -3 27 15 52 40 43 43 49 46 101 46 53 0 55 -1 55 -27 1 -25 2 -26 14 -11 7 10 27 21 45 24 43 9 43 40 -1 48 -73 12 -135 15 -164 6z"></path>
            <path d="M1395 3629 c-25 -12 -91 -106 -82 -116 4 -3 24 12 45 35 34 36 45 42 95 48 57 7 57 7 57 -20 0 -30 5 -32 26 -11 9 8 26 15 39 15 31 0 41 36 11 44 -43 12 -171 16 -191 5z"></path>
            <path d="M6597 3633 c-16 -4 -15 -6 5 -22 13 -10 37 -24 53 -32 34 -16 41 -45 10 -42 -18 1 -34 -12 -35 -29 0 -4 15 -8 33 -10 27 -3 33 -7 35 -32 3 -26 1 -28 -21 -22 -17 4 -30 -1 -44 -17 -30 -32 -46 -67 -32 -67 6 0 20 -10 30 -22 l20 -23 -11 23 c-15 31 -10 34 28 21 22 -7 32 -17 32 -31 0 -13 -5 -18 -13 -15 -8 3 -20 1 -28 -4 -12 -8 -11 -12 5 -24 10 -8 24 -16 30 -18 8 -3 8 -8 0 -16 -8 -9 -22 -6 -57 13 -42 22 -87 25 -87 6 0 -4 17 -14 38 -22 106 -44 126 -53 137 -64 7 -7 29 -16 49 -19 29 -6 36 -4 36 9 0 9 -12 21 -27 27 -58 22 -69 57 -13 37 55 -19 103 8 65 36 -16 12 -45 104 -45 145 0 16 4 22 15 17 30 -11 14 20 -20 38 -37 20 -71 53 -63 61 3 3 16 -3 29 -14 28 -22 71 -31 75 -16 3 9 -168 120 -198 129 -7 2 -21 2 -31 -1z m163 -199 c-15 -17 -30 -9 -30 17 0 17 3 18 21 9 16 -9 18 -14 9 -26z m-60 -34 c0 -22 -7 -25 -29 -11 -16 10 -6 31 15 31 8 0 14 -9 14 -20z m54 -16 c3 -9 6 -23 6 -31 0 -13 -3 -13 -15 -3 -16 13 -21 50 -6 50 5 0 12 -7 15 -16z m6 -84 c0 -11 -4 -20 -10 -20 -5 0 -10 2 -10 4 0 2 -3 11 -6 20 -4 11 -1 16 10 16 9 0 16 -8 16 -20z"></path>
            <path d="M7571 3558 c-4 -13 -6 -62 -3 -110 2 -47 2 -94 -2 -104 -6 -15 -10 -14 -37 12 l-30 29 24 -56 c33 -72 67 -184 67 -218 0 -45 12 -53 48 -35 42 21 41 41 -8 138 -38 76 -39 81 -24 104 14 21 15 38 9 91 -5 36 -7 90 -6 119 1 41 -2 52 -14 52 -9 0 -19 -10 -24 -22z"></path>
            <path d="M5680 3555 c-13 -16 -13 -17 -2 -160 5 -71 10 -93 15 -77 5 12 17 30 27 40 22 20 32 153 12 160 -7 2 -12 15 -12 28 0 27 -21 32 -40 9z"></path>
            <path d="M539 3505 c-23 -13 -57 -66 -41 -65 23 2 76 38 83 58 10 26 -3 28 -42 7z"></path>
            <path d="M1449 3499 c-34 -17 -56 -45 -45 -57 12 -11 68 23 77 46 5 14 8 26 7 27 -2 2 -19 -5 -39 -16z"></path>
            <path d="M2368 3504 c-27 -14 -54 -51 -45 -60 3 -3 22 3 43 13 26 12 40 26 42 41 4 26 -3 27 -40 6z"></path>
            <path d="M5895 3498 c-27 -16 -49 -41 -68 -76 -16 -28 -23 -52 -18 -52 6 0 37 27 69 60 57 58 60 60 109 60 72 0 83 -6 83 -46 0 -37 14 -46 23 -15 3 11 17 22 35 26 35 7 60 31 46 45 -5 5 -61 12 -124 15 -108 6 -117 5 -155 -17z"></path>
            <path d="M7740 3500 c-9 -17 -7 -26 14 -51 27 -32 54 -105 42 -116 -3 -4 -21 -1 -39 5 -47 17 -65 15 -72 -9 -4 -11 -5 -22 -3 -23 1 -2 53 -13 113 -26 133 -28 220 -32 220 -10 0 11 -17 17 -65 22 -36 4 -81 10 -100 13 -32 6 -33 8 -16 20 24 18 14 67 -22 100 -36 33 -21 42 36 22 117 -42 115 -7 -3 42 -87 37 -91 37 -105 11z"></path>
            <path d="M8012 3504 c-13 -9 -27 -26 -33 -38 -5 -11 -17 -32 -26 -45 -17 -23 -17 -24 7 -16 56 16 110 68 110 105 0 15 -33 12 -58 -6z"></path>
            <path d="M774 3497 c-30 -18 -69 -50 -79 -66 -16 -28 74 -3 100 27 40 45 28 67 -21 39z"></path>
            <path d="M2589 3485 c-19 -14 -42 -28 -51 -31 -9 -3 -19 -13 -23 -21 -4 -13 2 -15 40 -11 49 6 85 36 85 70 0 24 -10 23 -51 -7z"></path>
            <path d="M1680 3492 c-27 -12 -90 -64 -90 -74 0 -19 74 3 103 30 41 39 33 64 -13 44z"></path>
            <path d="M496 3384 c-7 -19 3 -64 14 -64 9 0 40 -125 40 -159 0 -15 -6 -21 -22 -21 -17 0 -29 12 -46 42 l-22 41 20 22 c38 41 19 65 -30 38 -18 -10 -44 -28 -57 -40 l-24 -22 28 -3 c22 -2 29 -9 31 -30 2 -20 -1 -28 -12 -28 -8 0 -26 -5 -40 -12 l-26 -11 21 -18 c16 -13 36 -18 78 -16 31 0 71 -5 89 -12 28 -12 37 -11 77 8 48 23 56 36 26 44 -10 2 -21 17 -25 33 -4 16 -23 63 -42 105 -19 42 -34 86 -34 98 0 25 -35 29 -44 5z"></path>
            <path d="M2327 3393 c-11 -10 -8 -85 3 -78 12 7 40 -87 40 -137 0 -33 -3 -38 -22 -38 -17 0 -27 11 -41 42 -17 40 -17 42 3 63 22 23 25 40 11 49 -10 6 -69 -22 -86 -40 -5 -6 -19 -16 -30 -22 -18 -10 -17 -11 11 -12 30 0 44 -14 44 -44 0 -6 -20 -18 -44 -25 -42 -12 -44 -14 -28 -32 13 -15 30 -19 76 -19 32 0 76 -5 96 -11 31 -10 44 -8 79 7 46 20 51 33 21 52 -11 7 -20 19 -20 27 0 8 -18 55 -40 104 -22 49 -40 96 -40 105 0 16 -21 22 -33 9z"></path>
            <path d="M1396 3374 c-7 -18 3 -64 14 -64 9 0 27 -64 36 -128 7 -52 6 -54 -17 -50 -16 2 -32 17 -48 46 l-23 43 21 15 c41 29 19 66 -23 39 -14 -9 -30 -14 -36 -10 -5 3 -10 -1 -10 -9 0 -8 -10 -21 -22 -28 -23 -12 -23 -12 7 -18 24 -4 31 -11 33 -33 2 -19 -1 -27 -12 -27 -8 0 -27 -5 -42 -10 l-27 -10 24 -21 c18 -15 31 -18 63 -14 27 4 58 1 89 -10 47 -16 51 -16 93 4 48 23 55 36 25 46 -10 3 -22 18 -26 33 -3 15 -22 62 -41 105 -19 43 -34 87 -34 97 0 24 -35 27 -44 4z"></path>
            <path d="M3054 3378 c-12 -19 -14 -89 -2 -82 5 3 30 -3 56 -14 26 -11 64 -23 85 -27 34 -7 38 -10 33 -31 -8 -29 9 -32 24 -4 13 25 42 15 38 -14 -2 -17 -9 -20 -30 -18 -38 5 -36 -17 2 -25 45 -9 31 -28 -18 -24 -23 1 -42 0 -42 -3 0 -7 127 -46 149 -46 26 0 59 28 44 38 -21 13 -64 83 -57 93 3 5 33 9 67 8 67 -3 140 16 134 34 -2 6 -26 17 -53 24 -63 16 -63 16 -57 -6 3 -12 -2 -23 -14 -29 -23 -12 -134 1 -192 22 -24 9 -54 16 -68 16 -41 0 -60 17 -67 60 -6 40 -18 51 -32 28z"></path>
            <path d="M3946 3368 c-14 -67 -13 -79 3 -77 9 1 32 -5 52 -14 20 -9 56 -21 81 -27 41 -11 45 -14 41 -38 l-4 -27 20 24 c24 26 51 22 51 -9 0 -16 -7 -20 -37 -21 l-38 0 33 -16 c44 -22 40 -35 -8 -27 -66 11 -46 -11 31 -34 70 -20 90 -20 117 1 11 9 10 14 -6 26 -10 9 -29 33 -41 54 l-23 37 34 1 c110 1 178 16 178 39 0 11 -1 12 -68 27 -37 9 -42 8 -40 -6 8 -49 -64 -54 -193 -16 -46 14 -88 24 -94 21 -20 -7 -48 24 -54 60 -7 43 -28 56 -35 22z"></path>
            <path d="M4831 3362 c-5 -10 -9 -33 -9 -50 1 -26 5 -32 24 -32 13 0 25 -4 28 -9 3 -5 35 -17 71 -26 60 -17 64 -20 59 -42 -5 -18 -3 -22 10 -17 9 3 16 13 16 21 0 23 35 11 38 -14 3 -18 -3 -22 -30 -26 l-33 -4 33 -13 c44 -20 40 -33 -7 -25 -69 11 -53 -11 24 -34 60 -17 78 -19 99 -9 29 12 32 23 14 35 -17 11 -58 69 -58 83 0 6 28 10 68 11 68 1 131 16 133 34 2 12 -15 20 -69 33 -40 9 -42 8 -36 -11 4 -12 1 -23 -7 -28 -24 -15 -108 -10 -171 12 -33 11 -75 22 -92 23 -52 6 -64 16 -71 57 -8 46 -20 57 -34 31z"></path>
            <path d="M5939 3300 c-34 -18 -56 -46 -44 -58 7 -8 92 27 106 44 10 13 10 17 -2 25 -18 11 -18 11 -60 -11z"></path>
            <path d="M6197 3291 c-20 -8 -37 -20 -37 -24 0 -5 -9 -22 -20 -37 l-20 -29 28 8 c31 9 112 58 112 67 0 3 -6 11 -13 18 -11 11 -20 10 -50 -3z"></path>
            <path d="M3135 3210 c-4 -16 -11 -32 -16 -35 -15 -10 -10 -21 9 -21 9 -1 26 -4 37 -8 13 -5 16 -5 7 1 -9 7 -11 22 -6 51 5 34 4 42 -9 42 -9 0 -18 -12 -22 -30z"></path>
            <path d="M4027 3198 c-9 -23 -16 -42 -14 -43 1 -1 16 -5 32 -9 19 -4 25 -3 16 2 -10 8 -11 14 -1 31 11 22 6 61 -9 61 -4 0 -15 -19 -24 -42z"></path>
            <path d="M4907 3188 c-9 -23 -16 -42 -14 -43 1 -1 13 -5 27 -8 24 -6 25 -4 27 44 3 62 -17 66 -40 7z"></path>
            <path d="M7766 3175 c-24 -18 -12 -35 27 -35 18 0 43 -6 57 -13 26 -14 100 -11 100 4 0 12 -19 22 -80 41 -66 21 -79 22 -104 3z"></path>
            <path d="M6700 3155 c0 -2 10 -23 21 -45 19 -36 25 -41 52 -38 46 5 43 22 -11 57 -47 30 -62 36 -62 26z"></path>
            <path d="M2964 2922 c-26 -17 -23 -44 11 -94 25 -38 36 -48 40 -36 13 32 -31 143 -51 130z"></path>
            <path d="M3510 2904 c-129 -40 -151 -63 -158 -171 -5 -83 13 -103 23 -25 16 128 15 126 94 143 47 10 54 9 66 -8 13 -16 14 -16 15 -1 0 12 11 19 35 24 43 8 54 23 30 41 -23 16 -46 15 -105 -3z"></path>
            <path d="M3841 2898 c-7 -17 -3 -30 14 -53 12 -16 29 -43 38 -60 l16 -30 1 36 c0 48 -28 129 -46 129 -8 0 -19 -10 -23 -22z"></path>
            <path d="M234 2902 c-27 -18 -24 -50 9 -101 34 -51 35 -51 40 -24 4 21 -27 134 -36 133 -1 0 -7 -4 -13 -8z"></path>
            <path d="M4392 2894 c-115 -31 -136 -55 -145 -174 -5 -67 -4 -73 9 -56 7 11 14 34 14 50 0 41 17 101 33 114 6 6 36 15 65 20 50 9 54 8 62 -12 7 -16 9 -17 9 -4 1 11 15 21 41 28 41 11 53 33 24 44 -23 9 -53 6 -112 -10z"></path>
            <path d="M4729 2887 c-8 -19 -4 -33 25 -82 l36 -59 0 42 c0 45 -26 122 -41 122 -5 0 -14 -10 -20 -23z"></path>
            <path d="M772 2880 c-124 -36 -152 -70 -152 -183 0 -68 17 -69 26 -1 13 99 15 104 42 118 41 20 109 29 115 13 4 -9 8 -9 14 -1 4 6 23 15 40 19 41 8 50 22 27 40 -23 18 -34 17 -112 -5z"></path>
            <path d="M1134 2892 c-26 -18 -24 -45 10 -98 33 -53 34 -54 39 -27 4 21 -27 134 -36 133 -1 0 -7 -4 -13 -8z"></path>
            <path d="M2044 2875 c-4 -18 4 -40 30 -82 l36 -57 0 35 c0 48 -29 129 -46 129 -7 0 -16 -11 -20 -25z"></path>
            <path d="M5271 2884 c-63 -17 -116 -47 -126 -72 -11 -24 -22 -172 -13 -172 9 0 28 68 28 102 0 46 17 75 51 87 42 14 99 14 99 -1 0 -7 6 -6 18 4 9 8 30 18 45 22 20 5 27 12 25 24 -4 23 -57 25 -127 6z"></path>
            <path d="M6061 2878 c-5 -13 -13 -34 -18 -47 l-9 -24 -23 31 c-37 53 -42 36 -10 -33 32 -66 62 -165 54 -174 -7 -6 -9 -4 -54 87 -24 47 -47 82 -56 82 -11 0 -4 -22 27 -85 40 -80 45 -123 10 -79 -16 20 -62 50 -62 41 0 -3 7 -20 15 -40 16 -40 12 -49 -19 -37 -14 5 -28 3 -39 -5 -16 -11 -14 -14 20 -27 21 -9 59 -18 84 -22 49 -7 89 -29 76 -42 -4 -4 -27 -3 -52 3 -55 12 -60 6 -67 -79 -4 -53 -3 -56 14 -47 10 5 18 17 18 25 0 11 5 14 18 9 9 -4 25 -10 35 -12 24 -7 22 -43 -3 -43 -31 0 -24 -15 17 -34 30 -14 41 -15 65 -5 25 10 27 14 14 28 -15 18 -33 161 -20 161 5 0 34 -7 64 -15 63 -17 120 -19 120 -5 0 5 -10 11 -22 14 -13 2 -66 14 -118 25 -153 35 -163 55 -27 52 76 -2 137 11 137 28 0 3 -12 13 -28 22 -21 12 -33 34 -55 100 -29 91 -65 160 -84 167 -7 2 -17 -7 -22 -20z m53 -113 c9 -27 19 -71 22 -97 6 -40 4 -48 -10 -48 -9 0 -16 5 -16 11 0 6 -14 45 -31 87 -26 66 -28 80 -18 99 16 31 31 16 53 -52z m-85 -294 c16 -4 25 -15 26 -30 1 -19 -2 -21 -19 -16 -12 4 -31 9 -43 12 -14 3 -23 13 -23 24 0 20 15 22 59 10z"></path>
            <path d="M1675 2871 c-128 -37 -155 -69 -155 -183 0 -81 19 -65 30 26 4 37 13 73 20 81 6 8 37 19 67 25 45 10 57 9 64 -2 7 -9 11 -10 17 -2 4 6 22 15 39 19 41 8 51 24 28 42 -23 16 -36 16 -110 -6z"></path>
            <path d="M2594 2876 c-67 -16 -119 -50 -132 -84 -6 -15 -13 -58 -15 -95 -6 -88 17 -76 26 14 8 76 19 95 59 107 78 24 88 24 98 0 6 -17 9 -18 9 -6 1 11 15 21 42 28 29 8 39 16 37 28 -4 22 -55 25 -124 8z"></path>
            <path d="M5776 2872 c-4 -13 -6 -61 -5 -107 2 -46 0 -87 -3 -90 -3 -3 -15 9 -27 28 -11 18 -29 41 -40 51 -19 17 -20 17 -30 -2 -8 -16 -6 -23 11 -38 11 -11 34 -43 50 -71 17 -29 34 -56 39 -59 5 -3 9 -20 9 -39 l0 -34 -54 6 c-68 7 -84 -11 -24 -27 81 -22 86 -28 80 -115 l-5 -77 26 25 c24 22 26 28 20 76 -4 40 -3 55 8 62 12 8 11 12 -5 24 -16 12 -19 36 -27 187 -5 95 -10 184 -12 198 l-2 25 -9 -23z"></path>
            <path d="M3165 2791 l0 -89 28 20 c27 19 29 25 25 67 -4 40 -31 91 -48 91 -3 0 -5 -40 -5 -89z"></path>
            <path d="M4055 2790 c0 -50 2 -90 5 -90 3 0 16 9 29 19 21 16 23 24 19 68 -4 42 -30 93 -48 93 -3 0 -5 -41 -5 -90z"></path>
            <path d="M4944 2815 c3 -33 2 -75 -3 -92 -11 -37 -6 -40 25 -18 42 29 36 116 -11 155 -17 14 -18 12 -11 -45z"></path>
            <path d="M435 2771 l0 -88 22 14 c28 18 37 45 29 86 -6 27 -36 77 -48 77 -1 0 -3 -40 -3 -89z"></path>
            <path d="M2259 2813 c4 -27 4 -67 1 -90 -7 -48 -4 -50 28 -27 30 21 31 100 1 138 -29 37 -36 33 -30 -21z"></path>
            <path d="M3274 2848 c-8 -13 -12 -158 -4 -158 25 1 31 22 28 94 -3 73 -9 89 -24 64z"></path>
            <path d="M4166 2838 c-3 -13 -6 -54 -6 -93 l0 -69 20 20 c18 18 20 28 14 92 -7 73 -17 90 -28 50z"></path>
            <path d="M6818 2848 c-1 -7 -2 -56 -2 -109 -1 -91 -12 -129 -37 -129 -4 0 -23 21 -41 48 -43 63 -68 88 -96 97 -20 6 -14 -6 35 -72 86 -114 148 -240 118 -243 -5 -1 -40 7 -78 16 -68 16 -129 12 -110 -7 13 -13 186 -55 268 -64 33 -4 71 -12 83 -16 18 -7 34 -4 63 13 62 34 45 43 -73 39 -70 -2 -108 1 -112 8 -4 6 0 11 8 11 23 0 20 18 -14 79 l-30 54 25 29 c23 28 25 37 25 144 0 95 -3 114 -15 114 -8 0 -16 -6 -17 -12z"></path>
            <path d="M1335 2761 l0 -89 28 20 c26 19 29 25 24 63 -4 37 -32 94 -47 95 -3 0 -5 -40 -5 -89z"></path>
            <path d="M5052 2832 c-8 -14 -12 -49 -10 -93 3 -67 4 -69 22 -56 17 12 18 21 10 93 -8 71 -11 77 -22 56z"></path>
            <path d="M7860 2763 c0 -117 -5 -133 -40 -133 -30 0 -29 1 -67 -110 -8 -25 -19 -49 -24 -55 -15 -16 -10 -22 14 -18 15 3 38 -5 63 -22 l39 -27 -4 -79 c-1 -43 0 -79 4 -79 3 0 15 5 26 10 16 9 19 22 19 76 l0 66 50 -7 c27 -4 63 -4 80 0 31 7 40 28 18 42 -27 17 -37 41 -48 108 -13 81 -22 95 -47 72 -13 -11 -23 -13 -36 -6 -15 9 -17 26 -17 129 0 100 -3 120 -15 120 -12 0 -15 -16 -15 -87z m-10 -203 c0 -25 -4 -30 -25 -30 -28 0 -28 0 -15 34 14 37 40 34 40 -4z m88 -69 c3 -70 0 -77 -32 -65 -20 8 -21 44 -1 44 8 0 15 6 15 14 0 8 -7 16 -15 20 -9 3 -15 18 -15 40 0 32 2 35 23 27 20 -7 22 -16 25 -80z m-90 -6 c2 -2 1 -13 -3 -25 -10 -33 -49 -23 -53 14 -3 27 -2 28 25 21 15 -3 30 -8 31 -10z"></path>
            <path d="M545 2830 c-5 -8 -9 -49 -9 -91 -1 -70 0 -75 17 -65 18 12 22 58 9 131 -6 30 -10 36 -17 25z"></path>
            <path d="M2365 2808 c-3 -18 -5 -59 -3 -90 3 -52 4 -56 21 -43 16 11 17 22 11 89 -7 80 -19 98 -29 44z"></path>
            <path d="M1444 2818 c-4 -6 -8 -46 -8 -88 -1 -72 0 -76 17 -66 15 9 17 23 15 88 -3 75 -9 91 -24 66z"></path>
            <path d="M7622 2814 c-5 -9 -7 -58 -4 -109 5 -107 -4 -122 -45 -70 -15 20 -39 43 -52 51 l-24 16 25 -33 c28 -37 98 -170 98 -185 0 -5 -20 -9 -44 -9 -24 0 -48 -4 -52 -8 -13 -13 17 -27 57 -27 21 0 47 -8 62 -20 27 -21 72 -27 82 -10 4 6 -7 27 -23 48 -16 20 -35 48 -42 61 -11 22 -10 27 15 47 27 21 27 51 0 40 -19 -7 -25 25 -25 132 0 88 -8 111 -28 76z"></path>
            <path d="M6990 2613 c-89 -62 -90 -78 -1 -48 57 18 128 76 117 93 -12 20 -30 14 -116 -45z"></path>
            <path d="M3156 2634 c-4 -9 4 -28 19 -46 43 -50 46 -108 7 -108 -11 0 -25 -6 -32 -14 -9 -12 -5 -16 27 -22 44 -8 73 -21 73 -33 0 -4 -11 -24 -24 -44 l-24 -35 30 9 c36 10 58 27 58 45 0 9 17 14 50 16 83 5 69 27 -30 47 -73 15 -88 25 -71 45 11 13 9 21 -9 51 -12 19 -20 35 -17 35 19 0 94 -34 104 -46 15 -20 43 -12 82 26 37 34 39 50 8 50 -25 0 -57 -28 -57 -48 0 -17 -27 -15 -33 3 -5 11 -135 85 -151 85 -2 0 -7 -7 -10 -16z"></path>
            <path d="M4047 2621 c-3 -12 1 -22 10 -25 18 -7 53 -85 46 -103 -3 -7 -13 -13 -23 -13 -10 0 -23 -7 -30 -15 -14 -17 -14 -17 57 -35 46 -11 47 -22 11 -69 -24 -31 -18 -35 26 -17 24 10 36 22 36 34 0 17 6 19 49 16 34 -3 52 0 61 10 12 15 -5 22 -100 41 -58 12 -72 22 -58 44 9 15 8 24 -5 45 -27 40 -21 47 26 29 51 -20 69 -32 61 -44 -9 -15 9 -10 46 12 39 23 71 59 64 71 -11 17 -38 6 -70 -28 -27 -29 -35 -32 -40 -20 -7 18 -123 86 -146 86 -9 0 -18 -9 -21 -19z"></path>
            <path d="M426 2608 c-3 -12 1 -26 8 -32 47 -40 58 -109 19 -114 -12 -2 -27 -9 -33 -17 -10 -11 -6 -15 17 -20 89 -20 94 -26 58 -79 l-25 -37 22 6 c36 11 68 34 68 49 0 9 16 14 52 15 28 0 53 3 56 5 11 12 -13 26 -65 36 -31 7 -67 17 -80 23 -23 10 -31 27 -13 27 16 0 12 20 -11 52 -12 16 -19 31 -16 34 7 8 91 -27 104 -43 14 -18 43 -10 83 24 32 27 39 53 14 53 -26 0 -53 -19 -68 -48 -12 -23 -15 -25 -21 -10 -7 18 -85 67 -136 87 -23 8 -28 7 -33 -11z"></path>
            <path d="M4934 2615 c-3 -8 6 -29 20 -46 43 -51 46 -99 7 -99 -10 0 -24 -7 -31 -15 -10 -12 -8 -16 15 -25 14 -5 34 -10 43 -10 9 0 23 -4 31 -9 14 -9 4 -38 -27 -73 -17 -20 -6 -23 32 -8 15 5 31 20 37 32 8 20 17 23 52 20 41 -3 78 10 65 23 -3 4 -41 15 -83 26 -95 23 -100 27 -81 48 14 15 13 20 -4 46 -11 17 -20 33 -20 36 0 4 25 -2 55 -14 39 -14 54 -24 51 -34 -9 -21 32 -7 74 27 38 30 45 53 18 58 -18 3 -61 -33 -70 -58 -3 -9 -11 -6 -30 13 -25 25 -118 77 -138 77 -6 0 -13 -7 -16 -15z"></path>
            <path d="M1326 2603 c-4 -8 5 -28 19 -45 43 -50 46 -108 7 -108 -11 0 -25 -6 -31 -14 -10 -11 -3 -16 39 -26 27 -7 53 -16 56 -22 3 -5 -6 -27 -20 -48 l-25 -38 30 8 c39 12 59 28 59 49 0 13 8 16 40 13 22 -2 47 -1 56 2 24 9 -2 36 -35 36 -55 0 -141 35 -113 47 17 7 15 21 -9 55 -12 16 -19 31 -17 34 8 8 93 -26 105 -42 15 -20 43 -12 82 26 37 34 39 50 7 50 -16 0 -34 -12 -51 -32 -23 -30 -27 -31 -36 -15 -9 16 -79 56 -134 77 -18 7 -25 5 -29 -7z"></path>
            <path d="M2250 2601 c0 -10 6 -24 14 -30 22 -18 47 -77 40 -95 -3 -9 -14 -16 -24 -16 -10 0 -23 -7 -30 -15 -14 -17 -14 -17 57 -35 46 -12 47 -20 11 -72 -22 -32 -20 -33 27 -14 22 10 35 22 35 34 0 15 8 18 53 18 40 -1 52 3 52 14 0 9 -15 18 -40 24 -22 4 -59 15 -82 23 -37 13 -41 17 -31 33 9 14 8 24 -5 44 -28 41 -20 47 34 25 90 -35 73 3 -23 52 -67 34 -88 36 -88 10z"></path>
            <path d="M3004 2569 c-29 -31 -29 -31 -4 -24 34 10 51 27 42 43 -6 9 -16 3 -38 -19z"></path>
            <path d="M3897 2564 l-28 -32 27 7 c32 8 53 36 39 49 -6 6 -21 -4 -38 -24z"></path>
            <path d="M2469 2571 c-26 -21 -65 -81 -52 -81 15 0 78 42 95 63 30 38 -2 51 -43 18z"></path>
            <path d="M270 2545 l-33 -34 36 11 c38 12 50 27 38 46 -5 8 -18 0 -41 -23z"></path>
            <path d="M2097 2544 l-28 -32 27 7 c32 8 53 36 39 49 -6 6 -21 -4 -38 -24z"></path>
            <path d="M4775 2550 c-32 -33 -31 -35 14 -19 20 7 31 18 31 30 0 27 -12 24 -45 -11z"></path>
            <path d="M1174 2539 l-29 -32 25 6 c14 4 28 7 31 7 11 0 18 26 10 38 -5 8 -17 2 -37 -19z"></path>
            <path d="M3020 2446 c0 -8 -12 -29 -27 -47 l-27 -32 25 8 c39 12 72 29 75 40 2 6 -8 18 -21 28 -21 15 -25 15 -25 3z"></path>
            <path d="M3910 2443 c0 -11 -10 -33 -22 -48 l-22 -28 30 7 c27 7 80 35 72 39 -1 1 -15 13 -30 26 -27 24 -28 24 -28 4z"></path>
            <path d="M2110 2418 c0 -12 -10 -32 -22 -45 -25 -26 -12 -29 36 -9 47 19 50 30 16 55 l-30 22 0 -23z"></path>
            <path d="M4790 2423 c0 -9 -12 -30 -27 -45 l-27 -29 43 16 c68 23 77 35 49 57 -29 22 -38 22 -38 1z"></path>
            <path d="M283 2412 c-3 -9 -15 -27 -27 -40 l-21 -24 30 7 c35 8 75 32 75 44 0 4 -11 13 -25 19 -22 10 -27 9 -32 -6z"></path>
            <path d="M1190 2416 c0 -8 -12 -29 -27 -47 l-27 -32 25 8 c39 12 72 29 75 40 2 6 -8 18 -21 28 -21 15 -25 15 -25 3z"></path>
            <path d="M7661 2325 l-32 -44 43 19 c46 20 57 40 35 58 -11 9 -20 3 -46 -33z"></path>
            <path d="M300 2150 c-2 -8 -3 -76 -4 -150 -1 -74 -6 -156 -10 -183 -8 -42 -7 -47 8 -41 28 11 37 52 36 169 -1 94 -24 250 -30 205z"></path>
            <path d="M4074 2134 c3 -16 9 -66 13 -111 3 -46 8 -83 10 -83 23 0 43 25 43 53 -1 44 -42 160 -59 165 -11 4 -12 -2 -7 -24z"></path>
            <path d="M5323 2133 c-13 -20 -14 -28 -5 -31 10 -3 11 -66 6 -288 -7 -298 -6 -301 35 -275 10 7 12 21 7 59 -9 66 -9 425 0 502 6 51 4 60 -9 60 -9 0 -24 -12 -34 -27z"></path>
            <path d="M1200 2140 c-1 -8 -3 -76 -4 -150 -1 -74 -6 -154 -10 -177 -7 -37 -6 -43 8 -43 27 0 37 47 36 165 0 94 -23 250 -30 205z"></path>
            <path d="M3950 2099 c31 -73 50 -158 50 -231 l0 -67 31 6 c16 3 40 1 52 -4 102 -47 128 -56 138 -46 13 13 -4 27 -54 43 -27 8 -37 17 -35 28 4 20 46 28 61 13 14 -14 87 -14 87 -1 0 33 -124 40 -163 10 -47 -38 -62 -28 -82 53 -21 88 -59 183 -85 217 -20 25 -20 25 0 -21z"></path>
            <path d="M5856 2125 c-3 -9 -6 -84 -6 -167 0 -148 0 -151 -19 -134 -10 9 -33 44 -51 77 -27 52 -73 100 -84 88 -2 -2 20 -43 49 -91 48 -80 75 -152 61 -166 -3 -3 -23 0 -44 6 -36 11 -82 7 -82 -7 0 -12 94 -51 121 -51 46 0 52 -12 45 -79 -4 -34 -5 -61 -2 -61 3 0 16 4 30 10 21 7 26 16 26 42 0 54 12 64 58 50 22 -7 62 -12 91 -12 43 0 51 3 51 19 0 21 -26 31 -85 31 -47 0 -112 17 -120 30 -10 16 60 123 113 172 27 25 69 52 97 62 28 10 61 23 75 29 l25 11 -33 4 c-18 2 -58 -2 -90 -8 -52 -11 -63 -18 -122 -81 -36 -38 -69 -69 -74 -69 -5 0 -7 68 -5 152 3 106 1 152 -7 155 -6 2 -14 -3 -18 -12z"></path>
            <path d="M4233 2120 c-31 -12 -42 -39 -52 -121 -10 -79 -6 -101 18 -97 13 3 16 18 16 91 0 103 3 107 87 107 59 0 81 -12 93 -51 l7 -21 24 23 c29 27 31 55 5 69 -24 12 -167 12 -198 0z"></path>
            <path d="M4826 2107 c-3 -13 -2 -48 3 -78 9 -58 6 -183 -5 -201 -4 -7 -24 9 -50 38 l-43 49 29 -72 c16 -40 43 -116 60 -170 17 -54 33 -104 36 -112 3 -11 8 -10 24 4 27 24 26 30 -16 135 -33 82 -35 92 -21 108 27 31 37 91 27 162 -5 36 -11 85 -12 109 -3 49 -22 66 -32 28z"></path>
            <path d="M473 2098 c-6 -7 -13 -30 -16 -50 -5 -30 -3 -36 9 -31 17 6 34 44 34 74 0 22 -13 25 -27 7z"></path>
            <path d="M3183 2103 c-51 -20 47 -47 222 -62 130 -11 198 -4 203 21 5 24 -38 33 -85 17 -59 -19 -160 -15 -228 9 -58 22 -88 25 -112 15z"></path>
            <path d="M590 2069 c-17 -17 -29 -34 -26 -36 2 -3 25 7 49 22 45 26 83 27 114 3 14 -11 63 -2 63 11 0 15 -60 31 -116 31 -45 0 -57 -4 -84 -31z"></path>
            <path d="M1374 2092 c-6 -4 -14 -27 -17 -50 l-5 -44 24 23 c14 13 24 34 24 51 0 28 -6 33 -26 20z"></path>
            <path d="M1521 2083 c-29 -14 -70 -63 -53 -63 4 0 23 11 42 25 39 29 63 31 105 9 30 -15 75 -12 75 6 0 28 -125 44 -169 23z"></path>
            <path d="M6661 2083 c-5 -10 -7 -58 -4 -109 3 -51 3 -100 -1 -110 -6 -15 -11 -13 -41 16 l-35 34 24 -50 c36 -74 66 -172 73 -231 3 -29 9 -53 13 -53 21 0 70 34 70 49 0 21 -64 156 -79 166 -8 4 -4 16 10 37 19 26 21 37 14 91 -4 34 -8 88 -8 120 -1 59 -16 76 -36 40z"></path>
            <path d="M2975 2079 c-10 -15 -3 -19 52 -33 50 -13 52 -15 56 -86 2 -32 0 -35 -24 -32 -15 1 -32 -5 -39 -13 -11 -13 -8 -17 19 -26 35 -12 43 -51 14 -68 -15 -8 -12 -12 19 -27 35 -16 68 -14 68 4 0 5 -12 14 -27 21 l-27 12 32 16 c34 17 41 30 18 39 -18 7 -36 56 -36 95 0 26 4 29 30 29 17 0 30 3 30 8 0 11 -135 72 -159 72 -11 0 -23 -5 -26 -11z"></path>
            <path d="M7586 2055 c24 -56 44 -135 44 -172 0 -26 3 -30 20 -26 42 11 15 129 -46 198 l-35 39 17 -39z"></path>
            <path d="M7775 2061 c-46 -19 -60 -48 -58 -127 0 -41 4 -78 7 -81 13 -13 19 9 19 72 0 46 4 72 16 86 35 43 182 28 189 -19 2 -12 4 -22 5 -22 1 0 22 6 47 14 78 23 64 40 -53 64 -111 23 -140 26 -172 13z"></path>
            <path d="M2106 2044 c-21 -15 -21 -21 -9 -169 8 -96 9 -99 21 -68 8 17 20 34 28 37 21 8 20 139 -2 157 -8 7 -13 21 -11 31 7 24 -4 29 -27 12z"></path>
            <path d="M3242 2010 c-35 -64 -35 -64 -70 -46 -41 21 -42 21 -42 -15 l0 -32 50 5 c29 3 54 0 60 -6 9 -8 11 -7 9 4 -2 8 2 24 8 35 17 33 24 73 13 80 -6 3 -18 -8 -28 -25z"></path>
            <path d="M6832 2028 c-17 -17 -15 -25 14 -63 27 -36 49 -99 39 -115 -4 -6 -17 -4 -35 5 -39 20 -63 19 -78 -5 -10 -17 -10 -21 0 -25 37 -14 221 -49 276 -52 58 -4 63 -3 60 14 -3 15 -16 19 -76 25 -40 3 -85 9 -100 13 -26 6 -26 7 -8 20 23 18 16 51 -20 95 -15 17 -24 33 -21 37 4 3 24 -2 47 -11 22 -9 55 -16 73 -16 l32 0 -25 20 c-14 10 -52 29 -85 41 -33 12 -65 23 -70 26 -6 2 -16 -2 -23 -9z"></path>
            <path d="M7098 2019 c-16 -11 -28 -25 -28 -31 0 -5 -9 -21 -20 -35 -11 -14 -20 -30 -20 -35 0 -18 102 47 116 74 25 49 0 63 -48 27z"></path>
            <path d="M4980 2005 c0 -14 5 -25 10 -25 19 0 60 -48 60 -70 0 -16 -6 -20 -30 -20 -40 0 -38 -13 5 -33 23 -11 35 -24 35 -37 0 -24 -20 -26 -59 -5 -27 14 -29 13 -35 -8 -4 -15 5 -37 29 -72 40 -58 43 -75 14 -93 -16 -11 -18 -16 -9 -28 7 -8 22 -14 34 -14 11 0 30 -7 40 -15 22 -17 92 -20 101 -5 3 5 -23 24 -57 41 -78 39 -75 36 -52 53 18 14 17 16 -24 51 -24 21 -41 39 -38 42 2 2 27 -8 56 -22 41 -21 51 -30 47 -46 -3 -12 0 -19 10 -19 17 0 73 53 73 69 0 15 -26 14 -50 -1 -16 -10 -22 -10 -35 3 -21 21 1 69 33 69 31 0 28 17 -7 34 -26 14 -47 53 -35 65 3 3 18 0 34 -6 69 -26 11 28 -92 85 l-58 32 0 -25z"></path>
            <path d="M675 2011 c-25 -7 -71 -39 -64 -45 11 -10 67 8 78 26 15 24 13 27 -14 19z"></path>
            <path d="M3016 2004 c-18 -18 -18 -19 -2 -22 10 -2 20 -1 23 1 2 3 3 13 1 23 -3 16 -4 16 -22 -2z"></path>
            <path d="M3454 2008 c-5 -7 -8 -38 -9 -68 0 -41 -4 -55 -15 -55 -10 0 -15 12 -15 37 -2 35 -18 68 -35 68 -4 0 -4 -18 0 -40 8 -42 5 -50 -17 -50 -8 0 -13 12 -13 29 0 16 -3 36 -6 45 -10 27 -24 18 -24 -15 0 -17 -7 -37 -15 -45 -20 -21 -20 -45 1 -37 9 3 48 -2 88 -12 76 -19 143 -15 152 9 3 7 -9 34 -25 59 -17 25 -31 49 -31 55 0 5 -6 15 -14 21 -11 9 -16 9 -22 -1z"></path>
            <path d="M856 2002 c-22 -5 -95 -72 -78 -72 28 0 92 34 98 52 7 23 5 26 -20 20z"></path>
            <path d="M1570 2003 c-8 -3 -26 -14 -39 -24 l-24 -19 33 0 c20 0 38 7 46 18 23 29 17 37 -16 25z"></path>
            <path d="M1750 1993 c-8 -4 -28 -19 -43 -35 l-29 -28 25 0 c28 0 77 35 77 56 0 15 -6 16 -30 7z"></path>
            <path d="M2340 1993 c-37 -15 -72 -48 -96 -89 -15 -25 -24 -47 -21 -50 10 -10 47 17 62 45 30 58 129 91 186 61 21 -12 25 -50 8 -83 -11 -22 -11 -22 8 -2 10 11 22 27 25 37 4 9 21 19 38 23 32 7 49 30 34 45 -11 11 -223 22 -244 13z"></path>
            <path d="M7771 1938 c-11 -18 -11 -22 3 -30 9 -5 19 -27 22 -48 4 -26 12 -40 22 -40 11 0 13 8 8 40 -4 29 -3 40 6 40 24 0 39 -16 32 -33 -5 -14 -2 -16 12 -10 34 12 64 35 64 49 0 22 -20 27 -45 10 -21 -14 -24 -14 -36 0 -11 13 -61 44 -71 44 -2 0 -9 -10 -17 -22z"></path>
            <path d="M530 1942 c8 -5 40 -14 71 -21 50 -10 58 -15 62 -39 3 -15 4 -29 1 -31 -2 -2 -23 2 -47 9 -24 6 -55 10 -68 8 -18 -3 -9 -9 36 -22 33 -9 66 -19 73 -21 14 -5 16 -45 2 -45 -6 0 -27 7 -48 16 -23 9 -50 13 -71 9 -41 -8 -37 -13 16 -19 23 -3 62 -13 87 -21 37 -13 54 -14 87 -5 l40 11 -30 35 c-18 19 -31 47 -32 62 -1 51 -12 65 -55 67 -21 1 -61 5 -89 9 -31 5 -44 4 -35 -2z"></path>
            <path d="M1460 1926 c25 -8 58 -17 74 -21 15 -3 26 -9 23 -12 -4 -3 -2 -14 3 -24 14 -26 0 -30 -51 -15 -24 7 -53 10 -64 6 -16 -5 -7 -11 40 -24 33 -9 66 -19 73 -21 6 -2 12 -14 12 -25 0 -22 -9 -22 -70 3 -28 11 -60 10 -74 -4 -6 -5 0 -9 16 -9 14 0 55 -9 91 -20 53 -17 70 -18 98 -8 46 15 46 15 16 38 -19 15 -29 37 -37 78 -12 58 -12 58 -48 58 -21 0 -62 3 -92 7 l-55 7 45 -14z"></path>
            <path d="M380 1905 c-10 -19 -11 -27 -1 -39 15 -18 -1 -81 -22 -90 -7 -3 -6 -5 3 -5 49 -3 80 63 60 124 -14 41 -22 44 -40 10z"></path>
            <path d="M1280 1895 c-10 -19 -10 -27 -1 -39 14 -17 7 -52 -17 -78 -13 -15 -13 -18 -1 -18 49 0 79 64 59 125 -14 41 -22 44 -40 10z"></path>
            <path d="M2973 1807 c38 -51 67 -116 67 -154 0 -35 15 -42 49 -23 17 9 17 13 -11 71 -28 59 -70 108 -113 131 -16 9 -14 4 8 -25z"></path>
            <path d="M3234 1829 c-5 -8 -9 -50 -9 -94 -1 -44 -4 -93 -8 -110 -6 -25 -6 -26 2 -7 6 12 14 22 20 22 5 0 11 10 15 22 5 22 6 22 23 5 12 -12 15 -20 7 -25 -6 -4 -14 -16 -18 -27 -4 -15 -1 -21 12 -22 9 0 32 -4 50 -8 26 -6 32 -4 32 8 0 9 -8 21 -17 27 -17 9 -16 11 5 29 23 20 29 41 12 41 -6 0 -18 16 -27 36 -17 34 -17 37 0 49 9 7 17 15 17 17 0 5 -65 18 -85 17 -5 0 -12 7 -15 17 -6 15 -8 15 -16 3z m61 -119 c18 -8 17 -9 -7 -9 -16 -1 -28 4 -28 9 0 12 8 12 35 0z"></path>
            <path d="M7595 1804 c-9 -21 -27 -53 -41 -71 -18 -23 -21 -33 -11 -33 8 0 26 -9 40 -20 30 -24 37 -25 37 -5 0 18 1 18 34 5 30 -11 35 -44 9 -59 -21 -11 -20 -12 80 -36 54 -13 75 -14 103 -5 40 14 43 23 10 38 -20 9 -27 25 -41 86 -16 70 -19 75 -47 81 -17 4 -49 15 -72 25 -81 35 -84 35 -101 -6z m85 -59 c0 -22 -2 -23 -31 -15 -43 13 -45 17 -24 40 22 25 55 10 55 -25z m80 -14 c0 -14 3 -43 6 -63 6 -32 4 -38 -11 -38 -14 0 -17 6 -12 34 4 25 1 37 -14 49 -10 9 -19 25 -19 36 0 14 6 17 25 13 19 -3 25 -11 25 -31z"></path>
            <path d="M5222 1807 c-13 -16 -25 -107 -14 -107 23 0 43 30 48 73 6 38 4 47 -8 47 -9 0 -20 -6 -26 -13z"></path>
            <path d="M3431 1796 c-9 -11 -4 -15 29 -20 45 -7 60 -2 60 20 0 19 -73 19 -89 0z"></path>
            <path d="M2356 1780 c-31 -20 -52 -48 -42 -57 8 -9 92 26 107 43 10 13 10 17 -2 25 -19 12 -29 10 -63 -11z"></path>
            <path d="M2617 1771 c-20 -8 -37 -20 -37 -25 0 -5 -7 -17 -16 -27 -31 -34 -10 -41 41 -14 70 37 82 50 63 68 -12 12 -19 12 -51 -2z"></path>
            <path d="M515 1730 c-26 -27 -27 -30 -8 -30 21 0 53 29 53 48 0 20 -15 14 -45 -18z"></path>
            <path d="M4033 1753 c-23 -9 -14 -20 28 -32 l41 -12 -7 -87 -7 -87 25 24 c14 13 27 33 29 45 2 14 9 20 22 18 28 -5 68 7 61 18 -3 6 -26 15 -51 21 -42 11 -62 24 -51 36 3 2 39 -3 81 -12 78 -18 145 -12 153 12 4 12 -7 16 -67 29 -31 6 -33 5 -21 -10 26 -31 0 -30 -102 4 -125 41 -119 40 -134 33z"></path>
            <path d="M1422 1727 c-25 -27 -28 -36 -8 -33 20 3 46 26 46 42 0 20 -14 17 -38 -9z"></path>
            <path d="M301 1720 c-1 -8 -4 -24 -7 -35 -6 -26 34 -55 47 -34 6 10 12 9 28 -5 24 -22 91 -15 91 9 0 8 -4 15 -9 15 -4 0 -24 13 -42 30 -42 37 -48 37 -41 4 5 -26 5 -26 -26 -10 -16 8 -32 21 -35 28 -4 9 -6 9 -6 -2z"></path>
            <path d="M595 1695 c-31 -26 -24 -32 19 -15 14 5 26 16 26 25 0 21 -10 19 -45 -10z"></path>
            <path d="M1197 1692 c-6 -34 10 -55 37 -48 12 3 30 -2 40 -10 11 -8 27 -14 36 -14 22 0 58 30 43 36 -6 3 -25 18 -42 35 -36 34 -51 37 -44 9 7 -26 -16 -26 -44 -1 -21 20 -21 20 -26 -7z"></path>
            <path d="M3165 1708 c-21 -12 -46 -41 -40 -46 8 -9 75 29 75 42 0 19 -8 20 -35 4z"></path>
            <path d="M3390 1655 l0 -65 26 12 c23 11 24 16 18 51 -6 36 -4 39 12 35 33 -10 39 -10 62 -9 12 0 22 5 22 11 0 15 -62 28 -84 18 -12 -7 -22 -6 -29 1 -21 21 -27 10 -27 -54z"></path>
            <path d="M1493 1685 c-29 -26 -21 -32 21 -15 14 5 26 16 26 25 0 22 -15 19 -47 -10z"></path>
            <path d="M6858 1699 c-32 -18 -21 -39 20 -39 21 0 48 -7 60 -16 16 -11 34 -14 62 -9 22 4 40 10 40 14 0 11 -37 29 -95 46 -59 17 -64 18 -87 4z"></path>
            <path d="M695 1674 c0 -23 3 -25 29 -20 36 8 40 11 33 31 -4 8 -18 15 -34 15 -23 0 -28 -4 -28 -26z"></path>
            <path d="M1595 1665 c0 -28 20 -33 50 -12 23 18 11 37 -23 37 -22 0 -27 -5 -27 -25z"></path>
            <path d="M578 1635 c-3 -3 2 -21 11 -40 14 -30 20 -34 41 -29 14 3 31 11 39 19 12 12 9 17 -20 34 -33 20 -60 26 -71 16z"></path>
            <path d="M1481 1602 c10 -14 19 -31 19 -38 0 -18 14 -18 51 1 16 9 27 20 24 25 -11 18 -63 40 -88 38 -25 -2 -25 -2 -6 -26z"></path>
            <path d="M7580 1618 c0 -15 40 -103 46 -102 27 3 54 18 54 29 0 19 -61 75 -82 75 -10 0 -18 -1 -18 -2z"></path>
            <path d="M3449 1409 c-24 -17 -56 -45 -70 -62 -26 -30 -27 -30 -52 -14 l-26 17 17 -29 c16 -28 15 -31 -8 -80 -13 -28 -29 -51 -36 -51 -34 0 -73 79 -99 199 -7 32 -9 33 -21 17 -11 -15 -11 -21 2 -33 7 -8 14 -26 14 -40 0 -25 -1 -24 -47 17 -45 43 -46 43 -55 21 -9 -25 -3 -41 15 -41 21 0 87 -61 87 -80 0 -17 -1 -17 -37 1 -21 10 -55 19 -78 19 l-40 -1 30 -16 c17 -9 35 -22 40 -29 6 -7 25 -14 44 -16 39 -3 54 -27 22 -35 -38 -10 -14 -43 31 -43 27 0 39 15 17 22 -5 2 -7 11 -4 20 6 16 10 16 36 2 25 -12 28 -18 19 -35 -6 -11 -10 -27 -9 -37 3 -29 0 -30 -46 -16 -45 13 -80 10 -69 -7 3 -5 11 -9 19 -9 8 0 25 -4 39 -10 35 -13 24 -36 -22 -45 l-37 -7 40 -14 c22 -7 41 -14 43 -14 1 0 2 -6 2 -14 0 -8 -16 -15 -41 -19 -71 -9 -67 -24 10 -37 69 -11 72 -13 92 -52 12 -24 17 -47 13 -60 -6 -19 -3 -20 22 -14 16 4 33 11 37 16 14 13 -11 49 -38 56 -32 8 -22 24 16 24 40 0 36 12 -11 32 -50 21 -51 38 -4 38 31 0 35 2 24 14 -6 8 -27 20 -45 26 -18 6 -35 19 -38 30 -5 18 -1 19 42 13 41 -6 45 -5 33 9 -7 9 -24 19 -37 22 -23 6 -23 8 -9 34 7 15 14 33 14 41 0 9 6 11 18 6 9 -4 36 -10 60 -12 54 -7 57 13 2 22 -51 9 -55 16 -31 55 18 30 19 31 26 11 6 -21 50 -39 63 -27 3 4 1 15 -6 24 -7 9 -20 31 -29 49 -16 31 -16 33 11 68 15 19 38 43 52 52 23 14 26 14 43 -1 21 -19 37 -7 39 32 1 32 -35 29 -89 -9z"></path>
            <path d="M1340 1366 c0 -14 10 -30 25 -40 19 -13 25 -25 25 -52 0 -30 -3 -35 -17 -29 -53 21 -75 26 -88 21 -15 -5 -21 -35 -7 -37 30 -3 52 -7 87 -17 128 -33 302 -39 292 -9 -2 8 -41 14 -108 17 -83 4 -104 8 -105 20 0 8 -6 28 -12 44 -16 36 -12 40 32 28 20 -6 36 -7 36 -3 0 22 -67 59 -132 75 -25 6 -28 3 -28 -18z"></path>
            <path d="M4954 1366 c13 -51 27 -177 21 -186 -7 -11 6 -13 29 -4 11 4 16 19 16 43 0 41 -26 139 -42 159 -17 20 -31 14 -24 -12z"></path>
            <path d="M6950 1317 c0 -41 -3 -95 -6 -121 -6 -42 -9 -46 -35 -46 -24 0 -30 -6 -44 -47 -9 -27 -25 -67 -36 -91 -23 -52 -23 -51 2 -45 12 3 32 -2 47 -14 15 -11 35 -22 46 -26 14 -6 17 -13 11 -35 -7 -26 -7 -123 0 -130 2 -2 13 1 24 8 18 9 21 20 21 75 0 70 4 74 53 56 23 -9 91 0 104 13 3 3 -6 19 -20 35 -16 20 -29 52 -37 98 -14 83 -25 100 -51 77 -15 -14 -21 -14 -34 -4 -12 10 -15 37 -15 127 0 88 -3 118 -15 129 -13 14 -15 7 -15 -59z m-12 -239 c-2 -26 -8 -34 -27 -36 -21 -3 -23 -1 -18 20 4 12 7 29 7 36 0 6 9 12 21 12 17 0 20 -5 17 -32z m76 6 c13 -5 16 -22 16 -76 0 -66 -1 -69 -22 -66 -27 4 -39 48 -14 48 20 0 20 14 1 30 -16 13 -21 70 -6 70 5 0 16 -3 25 -6z m-100 -70 c17 -7 22 -49 7 -58 -19 -12 -41 7 -41 35 0 30 6 34 34 23z"></path>
            <path d="M1567 1318 c-25 -29 -44 -54 -42 -56 1 -1 18 5 37 14 40 18 76 70 61 85 -7 7 -26 -9 -56 -43z"></path>
            <path d="M5131 1351 c-43 -12 -60 -48 -67 -145 -7 -83 -6 -88 12 -84 17 3 19 13 20 92 1 108 10 120 91 113 57 -4 93 -27 93 -59 0 -16 5 -15 33 11 54 51 18 78 -103 79 -30 0 -66 -3 -79 -7z"></path>
            <path d="M4844 1293 c24 -58 45 -172 42 -228 -1 -28 2 -30 34 -31 39 -1 57 -6 115 -35 22 -10 51 -19 65 -19 21 0 23 2 10 15 -8 8 -33 21 -55 28 -42 15 -57 40 -30 51 9 3 25 1 35 -4 24 -13 100 -13 100 0 0 9 -12 13 -78 24 -37 6 -80 -7 -97 -31 -23 -31 -51 -7 -63 51 -14 69 -68 211 -87 226 -10 8 -6 -8 9 -47z"></path>
            <path d="M6711 1333 c-5 -10 -7 -58 -4 -109 7 -104 -4 -124 -40 -77 -34 43 -58 65 -64 59 -4 -3 1 -14 9 -23 19 -23 98 -171 98 -185 0 -6 -10 -8 -25 -4 -32 8 -77 -3 -72 -18 2 -6 26 -14 54 -17 28 -4 63 -16 79 -28 28 -20 74 -20 74 0 0 5 -18 33 -40 61 -44 55 -47 78 -12 93 27 12 25 40 -3 40 -19 0 -20 8 -23 113 -3 108 -10 131 -31 95z"></path>
            <path d="M3958 1306 c-4 -32 -2 -34 22 -30 18 3 34 -4 59 -26 18 -16 39 -30 46 -30 14 0 27 -70 16 -82 -4 -4 -19 -1 -35 7 -34 18 -32 19 -41 -22 -5 -25 -3 -33 8 -33 8 0 26 -9 41 -21 20 -16 26 -29 26 -60 0 -36 -2 -39 -27 -40 -16 0 -46 -9 -68 -18 l-40 -19 40 -6 c124 -21 162 -29 187 -42 32 -17 67 -18 105 -3 35 13 24 20 -77 48 -85 24 -91 28 -66 46 10 8 21 29 25 47 6 27 13 34 36 38 45 8 38 33 -12 44 -47 11 -49 14 -59 86 l-7 51 49 -6 c33 -4 76 0 132 13 89 21 98 25 87 41 -9 15 -53 14 -111 -4 -27 -8 -63 -15 -80 -15 -36 0 -204 47 -218 61 -19 18 -34 8 -38 -25z"></path>
            <path d="M364 1317 c49 -152 57 -201 41 -262 -5 -16 -18 -37 -29 -46 l-21 -17 28 -11 c16 -6 41 -11 56 -11 16 0 64 -9 107 -21 44 -11 88 -23 99 -25 26 -7 97 17 103 34 2 7 -4 16 -15 18 -10 3 -27 16 -38 30 -52 65 -71 85 -85 88 -8 1 -45 10 -81 20 l-66 18 -32 77 c-28 68 -82 156 -67 108z m199 -244 c47 -15 47 -16 47 -59 0 -49 6 -48 -93 -19 -40 12 -41 13 -44 59 -4 53 -13 51 90 19z"></path>
            <path d="M6094 1317 c-3 -9 -1 -24 5 -36 12 -21 15 -131 4 -169 -5 -21 -10 -23 -42 -18 -20 4 -61 15 -91 26 -30 11 -73 24 -95 30 -22 6 -48 17 -59 25 -17 13 -17 15 -2 30 17 17 22 55 8 55 -13 0 -36 -22 -65 -62 -18 -24 -22 -36 -12 -32 17 7 75 -14 75 -26 0 -4 51 -20 113 -36 135 -34 247 -38 274 -11 16 16 16 17 0 17 -12 0 -21 16 -32 58 -39 140 -65 189 -81 149z"></path>
            <path d="M2160 1286 c0 -29 3 -33 20 -29 14 4 34 -5 60 -26 21 -17 43 -31 48 -31 11 0 24 -69 16 -82 -3 -4 -18 -1 -34 7 -37 19 -37 20 -43 -12 -6 -33 1 -53 17 -47 6 2 24 -8 39 -24 22 -23 26 -33 20 -65 -5 -31 -9 -36 -27 -31 -12 3 -41 -4 -65 -14 l-43 -20 28 -5 c16 -3 54 -9 84 -13 30 -3 78 -15 105 -25 58 -22 73 -23 112 -8 26 10 27 11 9 21 -11 6 -50 19 -89 29 -80 20 -87 25 -63 42 10 7 21 28 25 47 6 29 12 36 36 40 27 5 31 10 27 40 -1 6 -20 10 -41 10 -44 0 -47 5 -57 81 l-7 51 45 -7 c27 -4 73 -1 120 9 94 19 110 25 105 40 -6 19 -46 19 -119 0 -60 -16 -76 -16 -131 -5 -34 7 -89 23 -123 37 -33 13 -64 24 -67 24 -4 0 -7 -15 -7 -34z"></path>
            <path d="M5898 1256 c-17 -13 -42 -56 -35 -62 6 -7 54 13 62 25 3 6 15 11 26 11 16 0 20 -6 17 -27 -2 -22 -8 -27 -25 -25 -32 4 -38 -17 -8 -28 33 -13 85 -13 105 0 13 8 13 11 -1 22 -9 7 -21 27 -28 44 -10 25 -20 33 -55 41 -30 7 -48 6 -58 -1z"></path>
            <path d="M7510 1226 c0 -3 13 -26 30 -53 30 -49 59 -138 48 -148 -4 -4 -16 -2 -27 5 -16 8 -30 8 -56 -1 l-34 -13 40 -24 c22 -13 49 -22 59 -19 31 8 39 -6 44 -78 2 -39 5 -71 5 -73 1 -1 14 4 30 13 27 13 29 18 24 55 -7 47 4 51 56 19 26 -15 43 -19 72 -14 40 7 51 21 24 31 -24 9 -104 138 -106 170 -5 70 28 94 128 94 71 0 120 -21 129 -55 6 -25 7 -25 20 -7 7 11 25 23 39 26 59 15 2 66 -83 73 -31 3 -91 0 -132 -5 -61 -9 -79 -16 -97 -37 -26 -30 -31 -96 -12 -171 6 -25 9 -47 7 -50 -10 -10 -58 20 -58 36 0 44 -33 121 -71 164 -37 41 -79 75 -79 62z"></path>
            <path d="M4416 1202 c-21 -4 -25 -7 -76 -51 l-35 -30 37 -1 c54 0 108 28 108 56 0 26 -8 32 -34 26z"></path>
            <path d="M2616 1182 c-21 -4 -25 -7 -76 -51 l-35 -30 37 -1 c54 0 108 28 108 56 0 26 -8 32 -34 26z"></path>
            <path d="M1371 1126 c-21 -25 -6 -48 26 -40 29 8 30 8 81 -2 25 -5 32 -3 32 10 0 20 -24 32 -81 41 -35 5 -48 3 -58 -9z"></path>
            <path d="M3484 1087 c-1 -39 2 -44 18 -39 15 4 18 12 16 41 -2 22 -9 37 -18 39 -11 2 -15 -8 -16 -41z"></path>
            <path d="M1318 1023 c4 -52 2 -64 -12 -69 -15 -6 -24 -45 -8 -43 17 3 48 -2 60 -9 15 -10 5 -42 -13 -42 -7 0 -18 -6 -24 -14 -9 -11 -5 -15 21 -20 17 -3 39 -13 48 -21 11 -10 27 -13 53 -8 45 7 49 28 7 37 -21 4 -30 11 -30 25 0 18 5 20 53 15 28 -2 73 -6 99 -9 47 -4 118 16 118 34 0 15 -24 29 -61 36 -33 6 -36 5 -35 -17 1 -20 -4 -23 -39 -26 -57 -4 -79 14 -68 58 7 27 20 41 53 59 38 21 41 26 24 32 -29 11 -30 11 -63 -17 -23 -19 -32 -37 -37 -73 -5 -40 -9 -48 -24 -44 -12 3 -20 18 -25 46 -3 23 -13 56 -20 72 l-14 30 5 -37 c8 -47 -2 -88 -20 -88 -9 0 -17 17 -21 48 -4 26 -12 61 -20 77 -12 28 -12 25 -7 -32z"></path>
            <path d="M5878 1042 c-38 -44 -25 -70 51 -97 50 -17 80 -19 101 -5 13 9 13 12 0 23 -9 6 -22 30 -31 51 -14 37 -17 40 -61 42 -33 2 -50 -2 -60 -14z m74 -48 c4 -32 2 -35 -16 -30 -12 3 -27 6 -33 6 -9 0 -8 10 5 34 21 41 39 37 44 -10z"></path>
            <path d="M1221 1028 c-16 -43 -21 -78 -13 -78 17 0 42 37 42 63 0 34 -18 44 -29 15z"></path>
            <path d="M4900 971 c-10 -7 -2 -13 34 -22 l49 -12 -7 -84 c-4 -47 -3 -83 2 -83 16 0 42 36 42 58 0 19 5 22 46 22 58 0 55 21 -4 35 -39 10 -71 30 -61 39 2 3 31 -2 64 -10 77 -18 146 -18 171 0 22 17 18 19 -54 35 -37 8 -41 7 -31 -5 27 -33 -9 -32 -105 1 -106 37 -122 40 -146 26z"></path>
            <path d="M5809 930 c-7 -5 -11 -11 -9 -13 7 -6 231 -47 258 -47 12 0 22 4 22 9 0 5 -28 11 -62 14 -35 3 -93 14 -129 25 -40 12 -72 17 -80 12z"></path>
            <path d="M405 901 c-62 -13 -19 -38 68 -40 47 -1 86 -14 98 -34 7 -11 86 0 94 13 3 5 -2 13 -12 18 -20 10 -195 53 -209 51 -5 -1 -22 -4 -39 -8z"></path>
            <path d="M6752 846 l-32 -44 41 16 c46 18 58 37 37 58 -12 13 -18 9 -46 -30z"></path>
            <path d="M3150 859 c-7 -11 -9 -23 -6 -26 10 -11 56 16 56 32 0 22 -38 18 -50 -6z"></path>
            <path d="M5926 839 c-15 -12 -25 -23 -23 -26 9 -8 56 9 61 23 9 23 -10 25 -38 3z"></path>
        </g>
    </g>
</svg>