<svg xmlns="http://www.w3.org/2000/svg" viewBox="0 0 1800 1800">
    <title>Bujin de Grado Dan</title>
    <g fill="rgb(4,1,3)" style="transform: none;">
        <g>
            <path d="M588 1785 c-116 -32 -250 -116 -360 -226 -83 -84 -124 -142 -184 -264 l-39 -80 -3 -290 c-3 -277 -2 -292 19 -349 22 -61 92 -199 109 -216 3 -3 17 -21 32 -40 69 -91 161 -169 273 -231 160 -88 179 -91 502 -87 l268 3 122 64 c98 51 139 80 212 148 49 46 104 107 122 136 19 29 39 61 46 72 23 37 65 130 79 175 10 33 14 114 14 311 0 286 -4 316 -60 414 -13 22 -34 59 -47 83 -14 24 -34 55 -46 70 -44 53 -112 127 -120 130 -4 2 -22 16 -39 30 -53 46 -184 117 -272 148 -53 19 -558 18 -628 -1z m489 -126 c421 -111 687 -531 584 -924 -38 -146 -141 -322 -232 -399 -154 -130 -287 -193 -453 -217 -177 -24 -402 47 -565 180 -119 97 -236 286 -276 446 -91 363 155 778 533 900 144 46 271 51 409 14z"></path>
            <path d="M963 1583 c-14 -21 -19 -53 -21 -150 -3 -114 -12 -151 -25 -103 -4 16 -14 20 -49 20 -38 0 -46 -4 -56 -25 -7 -14 -12 -32 -12 -40 0 -9 -10 -15 -22 -15 -23 0 -23 2 -20 104 5 151 -20 190 -116 184 -42 -3 -49 -6 -65 -38 -14 -27 -17 -54 -15 -123 2 -48 2 -87 0 -87 -2 0 -20 11 -40 25 -23 16 -51 25 -74 25 -37 0 -38 -1 -38 -39 0 -22 3 -41 8 -43 16 -6 135 -152 126 -154 -5 -1 -21 -5 -36 -8 -35 -8 -60 -55 -56 -104 l3 -37 59 -7 c65 -8 86 -18 39 -18 -61 0 -113 -70 -113 -151 l0 -39 61 0 61 0 -7 -32 c-4 -18 -13 -43 -21 -55 -19 -30 -18 -102 1 -109 13 -5 13 -9 0 -34 -8 -16 -15 -43 -15 -59 0 -24 5 -32 25 -37 14 -3 39 -4 56 0 l30 6 -20 -26 c-13 -17 -21 -41 -21 -66 l0 -40 83 3 c45 2 107 2 138 1 l57 -2 -6 -45 -5 -45 92 0 c122 0 134 11 129 116 -2 52 1 74 9 74 6 0 18 3 27 6 13 5 16 -1 16 -31 l0 -38 58 6 c104 9 153 55 160 149 4 53 2 59 -27 89 -30 30 -35 31 -94 27 -34 -3 -70 -8 -79 -13 -13 -5 -18 -3 -18 8 0 9 -12 25 -26 36 l-26 20 30 44 c50 72 58 74 54 11 l-4 -54 40 0 c30 0 43 5 55 23 8 12 27 35 41 51 60 63 78 103 84 177 5 78 -1 89 -51 89 -24 0 -26 2 -15 19 26 42 -21 231 -71 289 -25 28 -97 31 -118 5 -11 -16 -12 -3 -7 89 8 130 3 151 -40 177 -48 30 -91 28 -113 -6z m-37 -665 c-3 -29 -6 -61 -6 -70 0 -14 -4 -15 -30 -7 -27 10 -30 15 -30 54 0 34 5 47 22 59 42 30 51 21 44 -36z"></path>
        </g>
    </g>
    <g fill="rgb(253,0,1)" style="transform: none;">
        <g>
            <path d="M763 1705 c-325 -59 -574 -285 -654 -595 -29 -111 -31 -292 -5 -395 41 -161 158 -350 277 -446 161 -131 378 -200 576 -185 351 28 642 274 734 621 41 153 27 359 -33 505 -110 271 -370 467 -660 500 -104 12 -145 11 -235 -5z m315 -173 c9 -12 11 -46 6 -134 l-7 -118 37 0 c23 0 39 5 42 15 14 36 60 3 91 -65 9 -19 22 -64 29 -99 14 -76 9 -89 -63 -145 -51 -39 -66 -42 -103 -21 -36 21 -40 19 -40 -17 0 -58 -10 -76 -51 -92 -62 -25 -71 -22 -63 22 7 36 8 53 5 100 -1 19 -6 22 -44 22 -24 0 -52 -7 -63 -15 -10 -8 -23 -15 -28 -15 -14 0 -1 291 14 323 14 29 45 34 45 7 0 -11 12 -15 45 -15 l45 0 0 120 c0 100 3 126 18 149 18 27 19 27 45 11 15 -10 33 -25 40 -33z m-397 -12 c52 -28 63 -130 29 -276 -23 -99 -21 -129 5 -66 15 36 39 62 58 62 3 0 10 -13 15 -30 10 -26 7 -36 -22 -79 l-33 -49 29 -43 c25 -37 27 -45 14 -57 -18 -19 -113 -17 -171 3 -25 8 -61 15 -80 15 -43 0 -50 12 -30 50 18 36 54 47 96 30 16 -7 32 -10 35 -7 11 10 -141 211 -181 239 -5 4 -6 10 -2 14 4 4 45 -18 92 -49 47 -32 85 -52 85 -47 0 6 -7 43 -16 82 -19 81 -15 155 10 192 18 28 36 32 67 16z m658 -549 c30 -19 -4 -120 -62 -183 -12 -13 -35 -40 -49 -58 -15 -19 -30 -31 -34 -27 -5 4 2 38 14 74 16 52 19 69 9 75 -22 14 -30 9 -87 -49 -61 -64 -113 -153 -93 -160 24 -9 63 -45 58 -54 -4 -5 -21 -9 -40 -9 -19 0 -35 -6 -38 -14 -8 -21 2 -26 48 -26 29 0 47 -6 60 -20 16 -18 16 -21 2 -44 -17 -25 -68 -43 -88 -30 -9 5 -10 -1 -5 -22 31 -141 15 -174 -84 -174 l-60 0 16 40 c9 23 14 43 11 46 -3 3 -71 6 -151 7 -80 1 -146 5 -146 10 0 4 15 24 34 44 33 36 36 37 97 35 35 -1 89 -4 120 -8 45 -4 56 -3 56 9 0 32 -226 60 -313 39 -57 -13 -68 -4 -44 36 23 37 54 52 111 52 l39 0 0 105 c0 86 -3 107 -15 112 -24 9 -28 -1 -26 -75 1 -59 -2 -71 -21 -88 -29 -25 -96 -32 -104 -11 -3 9 2 27 11 41 9 14 19 52 22 86 l6 60 -62 0 c-33 0 -61 4 -61 9 0 23 32 81 56 100 32 26 36 25 224 -46 80 -30 167 -61 194 -70 l49 -15 46 45 c132 126 251 189 300 158z m-519 -56 c20 -25 8 -50 -27 -53 -33 -3 -93 21 -93 38 0 28 98 41 120 15z m472 -355 c25 -25 29 -36 24 -61 -11 -56 -59 -98 -130 -115 -27 -6 -29 -5 -22 17 27 89 29 149 5 149 -20 0 -7 19 19 28 47 18 72 13 104 -18z"></path>
            <path d="M900 1195 c0 -10 11 -15 35 -15 36 0 47 13 19 24 -28 11 -54 6 -54 -9z"></path>
            <path d="M1103 1203 c-36 -5 -36 -4 -27 -27 4 -10 18 -16 40 -16 30 0 34 3 34 25 0 14 -3 24 -7 23 -5 0 -23 -3 -40 -5z"></path>
            <path d="M900 1092 c0 -19 24 -32 63 -32 13 0 18 6 15 23 -2 18 -10 23 -40 25 -32 3 -38 0 -38 -16z"></path>
            <path d="M1080 1075 c0 -20 5 -25 24 -25 14 0 27 4 30 9 11 18 -6 41 -30 41 -19 0 -24 -5 -24 -25z"></path>
            <path d="M816 732 c-13 -21 8 -41 52 -51 26 -5 55 -13 65 -16 13 -5 17 -2 17 13 0 15 -12 24 -48 35 -26 9 -55 19 -64 22 -9 4 -19 2 -22 -3z"></path>
            <path d="M805 590 c1 -17 4 -32 6 -34 2 -2 30 -6 62 -9 55 -5 58 -5 55 15 -2 15 -17 26 -53 39 -69 24 -73 23 -70 -11z"></path>
        </g>
    </g>
</svg>