<svg xmlns="http://www.w3.org/2000/svg" viewBox="0 0 1800 1800">
    <title>Bujin de Grado Kyu</title>
    <g fill="rgb(254,0,0)" style="transform: none;">
        <g>
            <path d="M735 1735 c-324 -52 -583 -291 -662 -613 -24 -99 -24 -333 1 -432 81 -325 339 -569 662 -625 402 -70 770 115 934 469 57 124 74 207 74 371 1 156 -11 222 -56 335 -150 367 -528 563 -953 495z m310 -236 c4 -6 6 -66 6 -135 l-2 -124 71 0 71 0 23 -52 c44 -98 42 -111 -15 -162 -41 -37 -54 -44 -69 -36 -10 6 -34 10 -53 10 -37 0 -47 -15 -47 -71 0 -15 -6 -32 -14 -38 -11 -9 -14 1 -19 56 -3 38 -1 70 4 73 5 3 8 51 6 105 l-2 100 -35 4 -35 4 35 6 35 6 0 120 c0 66 4 126 8 133 10 15 24 16 32 1z m-355 -74 c10 -38 9 -58 -9 -147 -12 -57 -21 -119 -21 -138 l0 -34 -24 34 c-22 33 -23 35 -5 38 24 4 25 60 4 162 -13 62 -13 75 -1 105 19 45 40 37 56 -20z m198 -398 c10 -3 6 -5 -10 -6 -27 -1 -28 1 -28 52 0 28 4 77 8 107 6 50 7 46 10 -47 2 -86 5 -102 20 -106z m-188 40 c0 -12 7 -33 16 -45 8 -12 13 -26 10 -31 -5 -8 -158 27 -170 40 -3 2 18 5 47 4 49 0 52 1 55 28 4 35 42 39 42 4z m38 -114 c-10 -2 -28 -2 -40 0 -13 2 -5 4 17 4 22 1 32 -1 23 -4z m572 -33 c0 -6 -10 -30 -22 -53 -21 -40 -22 -41 -28 -17 -4 17 -14 26 -30 28 -23 4 -22 5 15 28 43 26 65 30 65 14z m-580 -110 c14 -4 45 -17 70 -28 l45 -21 -32 0 c-33 -1 -33 -1 -33 -51 0 -36 5 -52 18 -59 15 -9 15 -10 -5 -11 -21 0 -23 -4 -23 -64 l0 -64 89 -7 c49 -4 94 -4 100 0 23 14 8 104 -18 106 -9 1 -2 4 14 8 26 5 30 11 33 46 3 29 -1 43 -14 52 -16 12 -14 13 15 13 28 0 32 -3 25 -17 -4 -10 -9 -38 -12 -63 -2 -25 -8 -49 -13 -55 -5 -5 -9 -28 -9 -52 l0 -43 39 0 c22 0 46 -3 55 -6 27 -10 7 -24 -35 -24 l-39 0 0 -43 c0 -23 4 -58 10 -77 12 -40 -8 -80 -40 -80 -17 0 -20 7 -20 44 l0 43 -77 7 c-42 3 -98 6 -125 6 -34 0 -47 3 -42 11 5 8 31 9 88 4 45 -4 99 -8 121 -9 l40 -1 3 46 3 46 -43 13 c-24 7 -99 16 -168 20 -69 4 -103 8 -77 8 85 3 87 7 86 130 -1 149 -4 156 -61 160 -47 3 -47 3 -54 -33 -3 -20 -4 -53 0 -74 4 -29 2 -42 -12 -54 -17 -16 -18 -12 -14 78 l4 95 -33 0 c-53 0 -66 13 -40 39 l21 21 67 -26 c38 -14 79 -30 93 -34z m537 -297 c13 -19 12 -24 -16 -55 l-30 -33 -1 58 c0 49 3 58 16 55 9 -2 23 -13 31 -25z"></path>
            <path d="M1075 1221 l-30 -6 -3 -103 -3 -102 67 0 66 0 -4 54 c-2 34 2 58 10 65 13 12 16 59 6 85 -6 17 -51 20 -109 7z"></path>
        </g>
    </g>
    <g fill="rgb(254,252,251)" style="transform: none;">
        <g>
            <path d="M705 1781 c-175 -41 -312 -117 -435 -240 -176 -176 -256 -355 -267 -597 -12 -255 69 -470 248 -658 121 -128 271 -219 429 -261 89 -23 262 -31 358 -15 192 31 343 110 492 260 115 115 175 210 223 350 166 484 -121 1019 -618 1151 -115 31 -321 35 -430 10z m302 -71 c294 -40 540 -229 651 -500 43 -106 56 -179 56 -305 -1 -346 -202 -639 -529 -769 -74 -30 -208 -56 -286 -56 -189 0 -414 91 -554 225 -118 114 -202 257 -241 415 -24 96 -24 277 -1 372 45 186 159 356 317 474 88 65 222 119 345 139 102 17 146 17 242 5z"></path>
            <path d="M993 1543 c-15 -22 -18 -49 -18 -148 l0 -120 -42 -3 c-34 -3 -44 1 -53 17 -30 57 -51 -9 -57 -186 -3 -81 -2 -143 3 -143 5 0 18 7 28 15 11 8 39 15 62 15 41 0 42 -1 49 -39 3 -22 2 -56 -4 -76 -12 -45 0 -52 51 -30 44 18 48 24 53 76 2 23 6 43 8 46 3 2 20 -4 40 -13 34 -16 36 -16 69 4 18 11 48 36 67 56 33 34 34 37 27 92 -8 68 -39 144 -72 175 -22 21 -25 21 -42 6 -10 -10 -34 -17 -52 -17 l-33 0 6 118 c7 128 5 134 -45 165 -27 17 -28 17 -45 -10z m-18 -363 c0 -11 -11 -15 -37 -15 -32 -1 -38 3 -38 21 0 19 4 20 38 15 23 -4 37 -12 37 -21z m177 8 c10 -26 -4 -38 -44 -38 -32 0 -39 3 -36 17 3 15 19 23 69 32 4 0 9 -5 11 -11z m-174 -115 c3 -17 -2 -23 -15 -23 -39 0 -63 13 -63 32 0 16 6 19 38 16 30 -2 38 -7 40 -25z m160 -10 c3 -20 -1 -23 -32 -23 -32 0 -36 3 -36 26 0 23 3 25 33 22 24 -2 33 -8 35 -25z"></path>
            <path d="M606 1480 c-20 -50 -20 -78 0 -174 8 -42 14 -81 12 -86 -2 -6 -29 8 -61 30 -52 36 -87 50 -87 34 0 -4 22 -32 48 -63 76 -88 113 -144 103 -154 -5 -5 -17 -5 -29 2 -34 18 -59 13 -86 -20 -14 -17 -26 -34 -26 -37 0 -12 192 -53 243 -52 35 0 49 4 54 16 6 16 1 26 -34 80 -12 19 -10 25 17 59 30 37 38 77 21 104 -14 22 -48 -4 -61 -46 -14 -43 -30 -65 -30 -42 0 9 9 58 20 110 32 150 22 241 -28 268 -39 21 -59 13 -76 -29z"></path>
            <path d="M1212 933 c-34 -21 -99 -69 -143 -106 -92 -78 -80 -77 -219 -22 -280 109 -295 112 -335 69 -32 -35 -33 -79 -2 -88 12 -3 35 -6 51 -6 l29 0 -5 -65 c-3 -36 -13 -77 -23 -91 -23 -35 -8 -48 43 -39 59 10 76 33 70 96 -3 29 -3 61 0 71 6 26 35 18 43 -12 11 -39 10 -178 -1 -185 -6 -4 -33 -7 -60 -9 -56 -2 -84 -23 -95 -68 l-7 -26 44 10 c53 12 228 5 286 -13 30 -9 42 -17 39 -28 -2 -9 -10 -14 -18 -12 -8 1 -60 6 -117 8 l-103 6 -35 -33 c-50 -49 -46 -63 17 -55 28 4 95 4 151 0 96 -7 99 -8 93 -29 -21 -68 -23 -66 44 -66 54 0 62 3 77 25 16 25 16 67 -2 145 -5 24 -3 26 30 27 40 1 52 7 66 33 17 31 -20 60 -76 60 -38 0 -45 3 -42 18 2 12 14 18 41 20 30 3 37 7 35 20 -2 9 -16 23 -31 30 -15 7 -27 18 -27 25 0 26 60 115 108 160 80 74 104 63 72 -34 -34 -99 -24 -99 57 -2 63 77 91 143 75 178 -17 36 -57 32 -130 -12z m-329 -221 c15 -7 39 -17 53 -22 29 -12 27 -36 -2 -33 -33 3 -100 19 -112 27 -7 4 -12 16 -12 27 0 22 22 22 73 1z m-12 -118 c39 -11 59 -22 62 -35 7 -26 0 -28 -70 -22 l-61 6 1 33 c1 19 3 34 6 34 2 0 30 -7 62 -16z"></path>
            <path d="M714 906 c-22 -17 -15 -27 33 -46 42 -16 83 -6 83 20 0 37 -77 54 -116 26z"></path>
            <path d="M1192 569 c-32 -9 -32 -10 -16 -35 18 -26 14 -108 -6 -128 -17 -17 -11 -26 19 -26 36 0 90 36 114 78 17 28 17 37 7 63 -14 33 -46 60 -70 58 -8 0 -30 -5 -48 -10z"></path>
        </g>
    </g>
</svg>