<svg xmlns="http://www.w3.org/2000/svg" viewBox="0 0 1800 1800">
    <title>Bujin de Grado Dan - Shidoshi</title>
    <g fill="rgb(1,1,1)" style="transform: none;">
        <g>
            <path d="M964 1579 c-16 -18 -19 -38 -20 -147 -1 -79 -5 -127 -12 -130 -6 -2 -13 6 -17 17 -5 17 -15 21 -49 21 -36 0 -45 -4 -54 -25 -7 -14 -12 -32 -12 -40 0 -9 -9 -15 -22 -15 -23 0 -23 2 -20 107 3 100 2 111 -20 143 -22 33 -27 35 -86 38 l-63 3 -16 -38 c-12 -29 -14 -59 -10 -125 2 -49 3 -88 1 -88 -3 0 -22 11 -44 25 -23 14 -54 25 -75 25 -33 0 -35 -2 -35 -35 0 -23 8 -45 24 -63 78 -89 116 -137 109 -138 -4 -1 -20 -5 -35 -8 -35 -8 -60 -55 -56 -104 3 -37 3 -37 56 -43 66 -9 73 -15 28 -23 -53 -10 -90 -63 -91 -130 l0 -51 58 -3 58 -3 -6 -32 c-4 -18 -16 -47 -26 -65 -26 -44 -25 -89 1 -97 16 -5 18 -10 10 -25 -6 -10 -10 -40 -10 -65 l0 -47 45 4 c48 3 55 -2 30 -22 -9 -8 -15 -30 -15 -57 l0 -45 83 3 c45 1 107 2 137 1 l55 -2 -3 -45 -4 -45 94 0 c123 0 131 7 126 114 -3 68 -1 76 17 80 33 9 35 7 35 -29 0 -35 0 -35 46 -35 55 0 101 20 139 60 23 24 30 41 33 90 4 56 3 61 -27 91 -30 30 -35 31 -94 27 -34 -3 -70 -8 -79 -13 -13 -5 -18 -3 -18 8 0 9 -12 25 -26 36 l-26 20 30 44 c50 72 58 74 54 11 l-4 -54 39 0 c34 0 43 6 93 65 68 80 92 139 88 214 -3 52 -5 57 -33 66 -29 10 -30 12 -32 78 -3 81 -24 158 -58 209 -23 34 -30 38 -67 38 -25 0 -49 -7 -60 -17 -18 -16 -19 -14 -12 89 8 129 3 151 -40 177 -43 27 -88 27 -112 0z m-34 -636 c0 -10 -3 -41 -6 -69 l-6 -51 -29 11 c-25 9 -29 16 -29 46 0 38 14 64 40 73 26 9 30 8 30 -10z"></path>
        </g>
    </g>
    <g fill="rgb(254,0,0)" style="transform: none;">
        <g>
            <path d="M780 1744 c-95 -12 -185 -40 -280 -86 -93 -45 -115 -61 -201 -147 -108 -108 -163 -194 -203 -316 -158 -486 99 -988 573 -1117 109 -30 353 -30 462 0 228 62 422 220 525 427 69 139 87 222 88 400 1 160 -8 212 -52 325 -40 100 -85 170 -163 254 -161 173 -344 253 -594 261 -66 2 -136 1 -155 -1z m298 -222 c9 -12 10 -46 6 -134 l-7 -118 35 0 c20 0 41 7 48 15 20 24 38 18 65 -23 28 -43 42 -82 54 -157 7 -42 6 -54 -10 -77 -31 -43 -25 -59 19 -57 66 4 76 -17 47 -102 -13 -39 -113 -168 -136 -177 -13 -5 -11 20 6 68 21 60 20 80 -7 80 -46 0 -197 -195 -160 -208 6 -2 23 -13 37 -24 19 -15 23 -24 16 -31 -19 -19 -12 -43 14 -55 40 -18 55 -15 55 13 0 20 7 26 40 36 69 21 129 -27 115 -90 -8 -37 -75 -97 -117 -106 -37 -9 -43 -2 -30 32 6 15 13 40 16 56 6 23 3 27 -16 27 -12 0 -31 -11 -43 -26 -14 -18 -31 -26 -58 -27 -35 -2 -38 -4 -33 -27 32 -140 17 -170 -82 -170 -57 0 -63 2 -57 18 4 9 10 29 12 43 l5 26 -97 7 c-53 3 -119 4 -146 0 -61 -8 -65 8 -14 57 20 20 35 44 35 58 0 22 -2 23 -47 17 -27 -4 -56 -9 -65 -12 -27 -8 -23 29 7 64 30 36 32 62 6 62 -45 0 -51 9 -29 46 11 18 22 61 25 93 l6 60 -59 3 c-55 3 -59 4 -56 27 3 31 39 81 65 90 12 5 45 1 78 -8 55 -14 59 -14 79 4 11 10 20 29 20 42 0 19 -5 23 -33 23 -19 0 -56 7 -83 15 -27 8 -63 15 -81 15 -40 0 -48 12 -29 48 17 33 34 42 77 42 36 0 39 23 7 66 -33 44 -121 148 -133 156 -5 4 -7 10 -3 13 3 4 35 -12 71 -34 35 -23 72 -41 82 -41 15 0 17 6 11 48 -18 128 -18 157 -2 195 14 35 19 38 48 35 24 -2 39 -12 56 -38 22 -32 24 -42 18 -120 -3 -47 -8 -97 -12 -111 -6 -27 -6 -27 55 -27 53 0 61 3 61 19 0 27 22 69 36 69 7 0 16 -9 19 -21 6 -17 14 -20 48 -17 l42 3 0 126 c0 111 2 129 19 148 18 20 21 20 45 5 14 -9 32 -23 39 -32z"></path>
            <path d="M752 1102 c-19 -26 -19 -29 -4 -55 12 -19 25 -27 44 -27 27 0 28 2 28 55 0 52 -2 55 -24 55 -16 0 -32 -10 -44 -28z"></path>
            <path d="M863 980 c-13 -5 -23 -14 -23 -19 0 -6 -7 -8 -15 -5 -11 5 -15 -1 -15 -19 0 -14 5 -29 10 -32 6 -4 9 -25 8 -47 l-3 -41 83 -30 83 -30 24 23 c14 13 25 32 25 43 0 17 -5 19 -45 13 -49 -8 -51 -4 -34 41 6 15 8 47 4 71 -6 41 -7 42 -43 41 -20 0 -47 -4 -59 -9z"></path>
            <path d="M1070 927 c0 -19 -3 -42 -6 -51 -9 -24 30 -20 71 7 41 26 48 61 13 64 -13 1 -35 4 -50 8 -27 7 -28 6 -28 -28z"></path>
            <path d="M663 604 c-35 -38 -30 -54 17 -54 l40 0 0 40 c0 48 -21 53 -57 14z"></path>
        </g>
    </g>
    <g fill="rgb(253,251,249)" style="transform: none;">
        <g>
            <path d="M704 1780 c-360 -81 -636 -374 -695 -734 -16 -103 -7 -280 21 -376 64 -227 224 -433 429 -551 280 -161 612 -159 894 7 226 132 397 384 438 645 16 101 6 275 -21 369 -91 324 -358 574 -684 641 -117 24 -273 24 -382 -1z m402 -90 c156 -40 279 -114 393 -236 102 -109 166 -228 202 -374 21 -85 16 -278 -10 -375 -76 -291 -303 -520 -590 -597 -106 -29 -296 -29 -402 0 -393 106 -659 492 -611 887 25 199 94 338 241 486 86 86 108 102 201 147 95 47 185 74 280 86 66 8 218 -4 296 -24z"></path>
            <path d="M976 1559 c-25 -29 -26 -37 -26 -144 0 -94 -3 -114 -16 -119 -10 -4 -23 3 -36 19 -33 42 -70 23 -92 -47 -4 -12 -16 -18 -37 -18 -28 0 -31 3 -25 23 18 62 18 148 2 191 -20 52 -40 71 -84 79 -27 6 -38 2 -60 -18 -26 -25 -27 -28 -27 -140 1 -113 0 -114 -20 -100 -56 40 -108 66 -121 61 -29 -11 -14 -52 42 -117 31 -35 65 -76 76 -91 19 -28 19 -28 -1 -28 -43 0 -112 -87 -97 -125 3 -9 18 -15 40 -15 19 0 63 -9 98 -20 34 -11 72 -20 83 -20 15 0 16 -3 7 -12 -9 -9 -22 -9 -57 0 -71 19 -84 15 -130 -33 -42 -43 -63 -93 -50 -115 3 -5 33 -10 65 -10 l59 0 -6 -37 c-3 -21 -14 -58 -26 -82 -22 -48 -16 -74 21 -79 20 -3 20 -4 -4 -40 -14 -21 -24 -47 -22 -62 3 -24 5 -25 66 -23 l63 3 -35 -42 c-40 -47 -43 -59 -19 -83 13 -13 25 -15 57 -9 46 8 66 9 152 6 l61 -2 -1 -42 -1 -43 79 -3 c62 -2 82 1 97 14 25 22 33 72 21 128 -9 45 -9 46 15 46 13 0 35 11 48 25 28 27 33 17 9 -20 -21 -32 -15 -69 13 -73 34 -5 120 37 153 75 52 59 38 143 -31 179 -45 23 -149 -6 -149 -42 0 -8 -4 -13 -9 -10 -4 3 -6 18 -3 33 4 21 -1 32 -26 53 l-32 26 28 45 c30 46 92 112 100 104 2 -2 -4 -26 -13 -53 -19 -53 -16 -78 11 -89 13 -5 34 12 81 63 76 83 103 135 103 196 0 52 -21 78 -65 78 -27 0 -28 1 -10 20 36 39 0 198 -61 269 -40 47 -58 50 -91 19 -38 -36 -45 -15 -34 103 l11 104 -40 38 c-48 45 -70 46 -104 6z m102 -37 c9 -12 10 -46 6 -134 l-7 -118 35 0 c20 0 41 7 48 15 20 24 38 18 65 -23 28 -43 42 -82 55 -157 7 -45 6 -53 -16 -82 -14 -18 -45 -44 -69 -59 -44 -25 -46 -26 -85 -10 l-40 16 0 -44 c0 -28 -6 -48 -17 -58 -22 -19 -90 -44 -99 -36 -3 4 -1 23 6 43 7 21 9 52 5 76 l-7 41 -51 -5 c-33 -3 -55 -11 -63 -22 -13 -17 -14 -17 -20 -1 -11 29 2 289 16 319 16 32 36 35 45 6 6 -17 14 -20 48 -17 l42 3 0 126 c0 111 2 129 19 148 18 20 21 20 45 5 14 -9 32 -23 39 -32z m-371 -41 c29 -44 30 -114 3 -246 -25 -123 -25 -133 5 -67 13 28 26 52 29 52 2 0 11 3 20 6 11 4 19 -2 26 -20 11 -30 2 -56 -34 -101 l-25 -31 29 -44 c22 -33 26 -47 18 -57 -14 -18 -113 -17 -174 2 -27 8 -63 15 -81 15 -41 0 -48 12 -28 50 18 36 54 47 96 30 16 -7 32 -10 35 -8 10 10 -143 213 -181 240 -5 4 -6 10 -3 13 4 4 46 -18 94 -50 85 -55 86 -56 81 -28 -4 15 -12 69 -18 118 -10 78 -10 95 4 128 15 35 20 38 49 35 24 -2 38 -12 55 -37z m83 -407 c0 -22 -2 -25 -15 -14 -12 10 -13 16 -4 26 16 20 19 18 19 -12z m560 -138 c0 -48 -32 -114 -87 -176 -30 -36 -60 -66 -64 -68 -14 -6 -11 20 11 83 16 46 17 60 8 67 -22 13 -28 10 -87 -49 -59 -60 -114 -154 -93 -161 23 -7 62 -44 57 -53 -4 -5 -21 -9 -39 -9 -38 0 -47 -6 -39 -26 3 -9 20 -14 43 -14 22 0 47 -8 61 -19 22 -18 22 -20 7 -43 -17 -25 -70 -44 -90 -31 -7 4 -9 -4 -4 -23 32 -144 18 -174 -81 -174 -34 0 -63 2 -63 5 0 2 8 20 17 40 9 19 14 37 11 41 -4 3 -72 6 -152 7 -91 1 -146 6 -146 12 0 16 49 65 75 75 13 5 63 5 116 0 122 -12 119 -12 119 4 0 31 -243 55 -337 34 -28 -6 -33 -5 -33 12 0 10 10 31 23 46 19 22 34 28 80 32 l57 4 0 105 c0 84 -3 105 -15 110 -25 9 -28 -1 -26 -81 1 -67 -1 -76 -21 -90 -23 -16 -73 -21 -101 -10 -13 5 -13 10 5 40 11 19 22 61 25 94 l6 60 -56 0 c-31 0 -59 4 -62 10 -8 13 21 73 46 96 34 30 50 27 326 -76 l142 -53 61 56 c79 71 194 148 234 157 40 9 66 -5 66 -34z m-415 -48 c-3 -40 -8 -75 -10 -76 -2 -2 -20 1 -39 8 -35 11 -36 13 -30 50 4 23 2 40 -5 44 -7 5 -7 13 2 26 8 14 23 20 51 20 l39 0 -8 -72z m198 32 c12 0 -23 -29 -35 -30 -5 0 -8 9 -8 21 0 15 4 19 16 15 9 -3 21 -6 27 -6z m-313 -15 c36 -44 -24 -70 -92 -39 -36 16 -37 18 -22 36 21 22 96 25 114 3z m-120 -320 c0 -8 -7 -15 -16 -15 -14 0 -14 3 -4 15 7 8 14 15 16 15 2 0 4 -7 4 -15z m592 -35 c25 -26 29 -36 24 -63 -7 -39 -74 -103 -117 -112 -39 -9 -45 -2 -29 36 17 41 19 121 3 126 -21 7 -15 21 15 31 47 18 72 13 104 -18z"></path>
            <path d="M900 1185 c0 -11 11 -15 41 -15 36 0 40 2 29 15 -7 8 -25 15 -41 15 -19 0 -29 -5 -29 -15z"></path>
            <path d="M1105 1191 c-16 -3 -29 -10 -27 -14 1 -4 2 -12 2 -18 0 -6 14 -9 33 -7 24 2 33 8 35 26 2 12 0 21 -5 21 -4 -1 -21 -4 -38 -8z"></path>
            <path d="M900 1082 c0 -14 9 -21 31 -26 47 -9 51 -8 47 17 -2 18 -10 23 -40 25 -32 3 -38 0 -38 -16z"></path>
            <path d="M1078 1065 c-5 -22 -2 -25 23 -25 31 0 42 11 33 34 -10 27 -51 20 -56 -9z"></path>
            <path d="M813 714 c-8 -22 6 -32 57 -43 25 -5 52 -12 61 -15 10 -5 19 -1 23 9 3 10 -1 18 -12 22 -9 3 -39 14 -65 25 -58 22 -56 22 -64 2z"></path>
            <path d="M806 580 c0 -17 3 -32 5 -34 2 -2 30 -6 62 -9 55 -5 58 -4 55 15 -3 20 -30 34 -98 51 -23 6 -25 3 -24 -23z"></path>
        </g>
    </g>
</svg>