<svg xmlns="http://www.w3.org/2000/svg" viewBox="0 0 1800 1800">
    <title>Bujin de Grado Dan - Shihan</title>
    <g fill="rgb(37,111,64)" style="transform: none;">
        <g>
            <path d="M708 1783 c-33 -8 -20 -33 17 -33 28 0 35 4 35 20 0 20 -14 23 -52 13z"></path>
            <path d="M1040 1770 c0 -16 7 -20 35 -20 40 0 49 24 13 34 -38 10 -48 7 -48 -14z"></path>
            <path d="M628 1763 c-31 -8 -21 -33 12 -33 17 0 30 -4 30 -10 0 -5 -16 -10 -35 -10 -19 0 -35 -4 -35 -10 0 -5 -11 -10 -25 -10 -18 0 -25 5 -25 20 0 25 -1 25 -60 -5 -52 -26 -64 -45 -30 -45 28 0 25 -17 -5 -24 -14 -4 -25 -11 -25 -16 0 -6 -4 -10 -10 -10 -5 0 -10 9 -10 20 0 29 -12 25 -72 -22 l-53 -43 38 -3 c32 -3 37 -7 37 -28 0 -21 5 -24 35 -24 24 0 35 5 35 15 0 8 9 15 20 15 11 0 20 5 20 10 0 6 6 10 14 10 8 0 21 6 28 14 8 7 24 17 36 20 12 4 22 12 22 17 0 5 11 9 25 9 14 0 25 5 25 10 0 6 11 10 25 10 14 0 25 4 25 9 0 4 27 11 60 15 l60 7 0 36 0 36 -55 -7 c-51 -6 -55 -5 -55 14 0 20 -14 23 -52 13z m-228 -173 c0 -5 -7 -10 -15 -10 -8 0 -15 5 -15 10 0 6 7 10 15 10 8 0 15 -4 15 -10z"></path>
            <path d="M1120 1750 c0 -16 7 -20 30 -20 17 0 30 -4 30 -10 0 -5 -11 -10 -25 -10 -22 0 -25 -4 -25 -35 0 -33 2 -35 35 -35 33 0 35 2 35 35 0 37 12 44 36 20 9 -8 29 -15 45 -15 19 0 29 -5 29 -15 0 -9 9 -15 25 -15 15 0 25 -6 25 -14 0 -8 8 -17 18 -19 9 -3 2 -5 -15 -6 -31 -1 -33 -3 -33 -36 0 -33 2 -35 35 -35 32 0 35 2 35 30 0 23 4 30 20 30 13 0 20 -7 20 -20 0 -17 7 -20 38 -20 l37 1 -40 35 c-56 49 -162 111 -247 145 -88 34 -108 36 -108 9z"></path>
            <path d="M920 1715 c0 -33 2 -35 35 -35 33 0 35 2 35 35 0 33 -2 35 -35 35 -33 0 -35 -2 -35 -35z"></path>
            <path d="M1010 1705 c0 -33 2 -35 35 -35 33 0 35 2 35 35 0 33 -2 35 -35 35 -33 0 -35 -2 -35 -35z"></path>
            <path d="M965 1579 c-17 -18 -20 -36 -23 -142 -3 -118 -13 -161 -27 -118 -5 17 -14 21 -49 21 -36 0 -45 -4 -54 -25 -7 -14 -12 -32 -12 -40 0 -9 -10 -15 -25 -15 -23 0 -25 3 -18 28 12 47 8 175 -6 202 -28 52 -41 60 -102 60 -55 0 -59 -2 -74 -31 -12 -23 -16 -53 -13 -125 2 -52 1 -94 -2 -94 -3 0 -16 9 -30 20 -14 11 -41 20 -62 20 l-38 0 0 -42 c1 -38 8 -52 60 -113 l59 -70 -32 -7 c-46 -9 -67 -41 -67 -99 l0 -49 43 -1 c23 0 51 -4 62 -8 16 -7 14 -9 -17 -15 -58 -11 -88 -54 -88 -127 l0 -59 55 0 c55 0 55 0 49 -27 -3 -16 -15 -46 -25 -69 -25 -54 -25 -91 2 -99 19 -6 19 -8 4 -31 -10 -15 -15 -40 -13 -62 3 -37 3 -37 50 -37 47 0 49 -4 21 -37 -8 -9 -13 -31 -11 -50 l3 -33 85 -1 c47 0 109 -1 138 -2 l52 -2 0 -45 0 -45 93 0 c120 0 127 6 127 112 0 73 1 76 25 80 23 5 25 2 25 -30 l0 -34 59 4 c103 7 161 64 161 158 0 44 -4 56 -30 82 -28 28 -34 29 -93 26 -34 -2 -70 -8 -79 -12 -13 -6 -18 -4 -18 8 0 8 -10 25 -22 36 -22 20 -22 21 -4 55 10 19 30 44 44 57 15 13 21 15 14 6 -8 -9 -12 -34 -10 -55 3 -37 4 -38 43 -41 39 -3 43 0 95 63 73 88 82 108 88 188 4 58 2 70 -14 82 -11 8 -26 15 -34 15 -12 0 -15 17 -17 79 -3 86 -27 163 -69 219 -30 39 -75 44 -110 11 l-23 -21 2 128 2 128 -34 23 c-41 28 -89 29 -116 2z m-237 -626 c-10 -2 -26 -2 -35 0 -10 3 -2 5 17 5 19 0 27 -2 18 -5z m202 -10 c0 -10 -3 -41 -6 -70 l-7 -51 -28 10 c-25 9 -29 15 -29 47 0 39 14 65 40 74 26 9 30 8 30 -10z"></path>
            <path d="M1560 1478 c0 -34 -3 -38 -25 -38 -22 0 -25 -4 -25 -33 0 -21 9 -42 25 -59 14 -15 25 -32 25 -38 0 -5 16 -10 35 -10 33 0 35 2 35 34 0 19 -3 36 -7 38 -5 2 -16 17 -25 35 -16 31 -16 32 3 35 18 3 17 6 -10 38 l-30 35 -1 -37z"></path>
            <path d="M267 1493 c-4 -3 -7 -22 -7 -40 0 -33 1 -34 38 -31 35 3 37 5 40 41 3 36 2 37 -31 37 -18 0 -37 -3 -40 -7z"></path>
            <path d="M179 1444 c-22 -25 -79 -116 -79 -126 0 -4 11 -8 24 -8 25 0 36 16 36 56 0 15 6 24 15 24 10 0 15 -10 15 -30 0 -28 3 -30 35 -30 33 0 35 2 35 35 0 32 -2 35 -29 35 -26 0 -30 4 -33 31 -3 30 -4 31 -19 13z"></path>
            <path d="M101 1218 c-12 -34 -21 -75 -21 -90 0 -15 -4 -28 -10 -28 -5 0 -7 21 -3 51 5 42 3 51 -8 47 -15 -5 -33 -51 -44 -112 -6 -32 -5 -36 13 -36 13 0 22 8 25 23 3 13 5 8 6 -15 1 -36 2 -38 36 -38 34 0 35 1 35 39 0 22 4 41 8 43 12 5 52 121 52 152 0 23 -4 26 -34 26 -33 0 -35 -2 -55 -62z"></path>
            <path d="M1613 1233 c3 -26 10 -49 16 -51 6 -2 11 -15 11 -28 0 -13 5 -24 10 -24 6 0 10 -16 10 -35 0 -33 2 -35 35 -35 33 0 35 2 35 35 0 19 -4 35 -10 35 -5 0 -10 16 -10 35 0 28 4 35 20 35 24 0 24 1 6 45 -20 47 -36 44 -37 -7 l-1 -43 -10 43 c-9 40 -11 42 -45 42 l-36 0 6 -47z"></path>
            <path d="M50 970 c0 -39 1 -40 35 -40 34 0 35 1 35 40 0 39 -1 40 -35 40 -34 0 -35 -1 -35 -40z"></path>
            <path d="M1680 960 c0 -39 1 -40 35 -40 34 0 35 1 35 40 0 39 -1 40 -35 40 -34 0 -35 -1 -35 -40z"></path>
            <path d="M50 840 c0 -39 1 -40 35 -40 34 0 35 1 35 40 0 39 -1 40 -35 40 -34 0 -35 -1 -35 -40z"></path>
            <path d="M1770 795 c0 -28 15 -34 24 -9 10 25 7 34 -9 34 -9 0 -15 -9 -15 -25z"></path>
            <path d="M1670 760 c0 -39 1 -40 35 -40 34 0 35 1 35 40 0 39 -1 40 -35 40 -34 0 -35 -1 -35 -40z"></path>
            <path d="M63 743 c3 -27 9 -56 12 -65 6 -14 2 -18 -18 -18 -24 0 -25 -1 -14 -35 12 -40 37 -47 37 -10 0 14 5 25 10 25 6 0 10 -13 10 -30 0 -28 3 -30 35 -30 33 0 35 2 35 35 0 19 -4 35 -10 35 -5 0 -10 9 -10 19 0 11 -5 42 -12 70 -11 49 -13 51 -46 51 l-35 0 6 -47z"></path>
            <path d="M1650 675 c0 -33 2 -35 35 -35 33 0 35 2 35 35 0 33 -2 35 -35 35 -33 0 -35 -2 -35 -35z"></path>
            <path d="M80 535 c0 -14 32 -65 40 -65 6 0 10 16 10 35 0 31 -3 35 -25 35 -14 0 -25 -2 -25 -5z"></path>
            <path d="M1670 520 c0 -11 -4 -20 -10 -20 -5 0 -10 -11 -10 -25 0 -14 -3 -25 -8 -25 -4 0 -6 18 -4 40 4 40 4 40 -32 40 -30 0 -37 -4 -42 -25 -3 -14 -10 -25 -15 -25 -5 0 -9 -9 -9 -20 0 -11 -7 -20 -15 -20 -9 0 -15 -9 -15 -25 0 -18 -5 -25 -20 -25 -13 0 -20 -7 -20 -20 0 -11 -7 -20 -15 -20 -18 0 -65 -43 -65 -60 0 -5 -9 -10 -20 -10 -16 0 -20 -7 -20 -35 0 -33 2 -35 35 -35 24 0 35 5 35 15 0 8 7 15 15 15 20 0 65 45 65 65 0 8 9 15 20 15 15 0 20 7 20 25 0 18 5 25 20 25 13 0 20 7 20 20 0 11 6 20 14 20 8 0 17 8 19 18 3 9 5 2 6 -17 1 -29 3 -32 16 -21 15 13 85 131 85 143 0 4 -11 7 -25 7 -18 0 -25 -5 -25 -20z"></path>
            <path d="M172 466 c5 -39 3 -45 -14 -48 -17 -3 -16 -6 11 -38 l30 -35 2 40 c1 24 3 31 6 18 3 -18 11 -23 34 -23 27 0 29 -3 29 -35 0 -32 2 -35 30 -35 27 0 30 -3 30 -30 0 -25 4 -30 25 -30 16 0 25 -6 25 -15 0 -10 -10 -15 -30 -15 -27 0 -30 3 -30 30 0 33 -15 44 -52 38 -21 -3 -19 -7 27 -51 48 -46 137 -111 169 -123 12 -5 16 0 16 20 0 21 -5 26 -25 26 -14 0 -25 5 -25 10 0 6 14 10 30 10 22 0 30 -5 30 -18 0 -22 39 -42 80 -42 27 0 30 3 30 33 0 38 -27 57 -80 57 -23 0 -30 5 -30 20 0 11 -6 20 -14 20 -8 0 -16 7 -20 15 -3 8 -17 15 -31 15 -18 0 -25 5 -25 20 0 16 -7 20 -30 20 -27 0 -30 3 -30 30 0 27 -3 30 -30 30 -28 0 -30 3 -30 35 0 23 -5 35 -14 35 -7 0 -16 14 -19 30 -6 27 -10 30 -43 30 l-37 0 5 -44z"></path>
            <path d="M1510 280 c0 -27 2 -29 19 -19 10 7 23 20 30 30 10 17 8 19 -19 19 -27 0 -30 -3 -30 -30z"></path>
            <path d="M1208 187 c-7 -8 -30 -17 -51 -21 -34 -6 -37 -9 -37 -41 0 -34 1 -35 40 -35 33 0 40 -3 40 -20 0 -19 2 -19 32 -7 40 17 48 37 14 37 -36 0 -33 17 4 22 24 4 30 1 30 -14 0 -10 4 -18 8 -18 13 0 125 69 147 91 19 19 19 19 -18 19 -30 0 -37 -4 -37 -20 0 -16 -7 -20 -30 -20 -16 0 -30 -4 -30 -10 0 -5 -7 -10 -15 -10 -10 0 -15 10 -15 30 0 28 -3 30 -34 30 -19 0 -41 -6 -48 -13z"></path>
            <path d="M630 115 c0 -33 2 -35 35 -35 33 0 35 2 35 35 0 33 -2 35 -35 35 -33 0 -35 -2 -35 -35z"></path>
            <path d="M720 98 c0 -35 0 -35 53 -42 102 -12 107 -10 107 29 0 31 -3 35 -27 35 -16 0 -52 3 -80 6 l-53 7 0 -35z"></path>
            <path d="M1010 95 c0 -33 2 -35 35 -35 28 0 35 -4 35 -20 0 -23 6 -24 66 -9 28 7 44 17 44 27 0 12 -10 14 -55 8 l-55 -6 0 35 c0 33 -2 35 -35 35 -33 0 -35 -2 -35 -35z"></path>
            <path d="M930 85 c0 -33 2 -35 35 -35 33 0 35 2 35 35 0 33 -2 35 -35 35 -33 0 -35 -2 -35 -35z"></path>
            <path d="M610 56 c0 -13 28 -26 58 -26 6 0 12 9 12 20 0 16 -7 20 -35 20 -23 0 -35 -5 -35 -14z"></path>
            <path d="M690 36 c0 -13 28 -26 58 -26 6 0 12 9 12 20 0 16 -7 20 -35 20 -23 0 -35 -5 -35 -14z"></path>
        </g>
    </g>
    <g fill="rgb(231,102,24)" style="transform: none;">
        <g>
            <path d="M757 1739 c-177 -24 -330 -102 -462 -234 -93 -93 -139 -161 -181 -263 -49 -121 -58 -177 -57 -342 0 -138 3 -165 27 -245 71 -236 217 -410 435 -519 140 -71 332 -100 505 -77 339 45 607 282 698 617 31 115 31 346 0 457 -85 301 -298 513 -591 588 -90 23 -276 32 -374 18z m300 -195 l35 -26 -7 -124 -7 -124 32 0 c21 0 38 8 51 23 l19 22 34 -39 c32 -37 57 -104 70 -185 7 -41 -17 -79 -79 -121 -50 -34 -64 -36 -105 -15 l-30 16 0 -43 c0 -51 -5 -60 -47 -82 -64 -32 -70 -26 -65 64 l5 80 -48 -4 c-26 -3 -55 -12 -64 -20 -10 -9 -21 -13 -24 -9 -14 13 -8 282 7 318 16 39 45 47 53 15 3 -13 14 -20 28 -20 53 0 55 4 55 130 0 104 2 120 21 144 11 14 23 26 26 26 3 0 22 -12 40 -26z m-358 -50 c28 -36 43 -96 36 -142 -8 -49 -35 -182 -42 -206 -3 -11 -1 -16 5 -12 6 3 13 19 17 35 7 35 39 66 58 58 8 -3 18 -18 21 -33 6 -22 1 -37 -25 -73 l-32 -45 27 -47 c21 -38 23 -49 12 -58 -27 -22 -74 -23 -154 -2 -45 12 -95 21 -112 21 -39 0 -41 30 -4 67 26 26 56 28 108 7 17 -7 17 -5 2 24 -8 16 -47 68 -86 115 -100 122 -96 137 18 57 40 -28 72 -47 72 -43 -1 5 -7 37 -15 73 -30 138 -12 230 45 230 19 0 35 -9 49 -26z m641 -529 c18 -22 4 -96 -26 -141 -50 -73 -118 -144 -128 -134 -6 6 -6 17 2 32 7 13 18 44 26 71 l14 47 -26 0 c-33 0 -111 -80 -146 -149 l-26 -50 35 -21 c19 -12 35 -26 35 -30 0 -15 -36 -29 -58 -23 -18 4 -22 1 -22 -16 0 -18 6 -21 42 -21 42 0 78 -21 78 -46 0 -19 -50 -54 -78 -54 -24 0 -24 -1 -17 -52 18 -116 3 -138 -92 -138 -68 0 -72 4 -48 50 14 27 14 29 -5 35 -11 4 -78 7 -149 8 -71 1 -132 5 -135 8 -3 3 12 25 34 49 l39 42 78 -6 c43 -4 95 -9 116 -12 28 -4 37 -2 37 9 0 8 -10 18 -22 21 -53 15 -188 24 -258 16 -42 -5 -79 -5 -84 0 -10 10 17 57 43 77 9 7 40 13 69 13 l52 0 0 105 c0 58 -2 105 -4 105 -2 0 -12 3 -21 7 -16 6 -17 -1 -13 -66 7 -95 -11 -121 -81 -121 -26 0 -50 3 -54 6 -3 3 3 22 13 42 11 21 22 63 26 95 l7 57 -57 0 c-41 0 -58 4 -62 15 -8 19 24 73 58 98 27 20 29 20 85 3 32 -10 64 -21 72 -24 8 -3 12 -1 8 5 -9 14 21 40 56 48 37 10 79 -18 75 -48 -2 -17 -11 -23 -35 -25 -18 -2 -42 2 -53 8 -12 6 -24 9 -27 7 -5 -5 63 -33 196 -78 l83 -29 58 54 c93 86 215 161 266 165 6 1 17 -6 24 -14z m-46 -416 c31 -36 33 -64 6 -103 -38 -59 -140 -100 -140 -57 0 11 5 23 10 26 6 3 10 30 10 60 0 30 -4 57 -10 60 -29 18 9 43 67 44 23 1 38 -7 57 -30z"></path>
            <path d="M900 1185 c0 -10 11 -15 35 -15 36 0 47 13 19 24 -28 11 -54 6 -54 -9z"></path>
            <path d="M1080 1176 c0 -15 35 -27 56 -19 29 11 15 33 -21 33 -23 0 -35 -5 -35 -14z"></path>
            <path d="M900 1080 c0 -13 7 -20 19 -20 11 0 26 -3 35 -6 12 -5 16 0 16 20 0 23 -4 26 -35 26 -28 0 -35 -4 -35 -20z"></path>
            <path d="M1080 1071 c0 -20 32 -37 49 -27 5 3 7 15 4 26 -7 27 -53 28 -53 1z"></path>
            <path d="M816 712 c-10 -16 11 -32 55 -41 24 -5 52 -12 62 -16 12 -5 17 -3 17 8 0 28 -120 71 -134 49z"></path>
            <path d="M808 579 c5 -34 7 -35 75 -43 45 -5 48 -4 45 15 -2 16 -17 26 -63 40 -33 10 -60 19 -61 19 0 0 1 -14 4 -31z"></path>
        </g>
    </g>
    <g fill="rgb(30,195,225)" style="transform: none;">
        <g>
            <path d="M770 1794 c-305 -58 -528 -217 -668 -474 -84 -155 -123 -384 -93 -555 63 -359 334 -654 681 -741 105 -26 316 -26 420 0 310 78 571 333 660 647 33 114 38 298 11 417 -11 51 -27 107 -34 125 -8 17 -21 47 -28 66 -24 63 -111 185 -183 257 -114 114 -247 191 -411 237 -69 19 -295 32 -355 21z m330 -101 c36 -8 112 -38 168 -65 88 -43 118 -64 198 -141 69 -66 106 -110 139 -168 191 -341 134 -736 -145 -1010 -93 -91 -241 -173 -370 -205 -91 -22 -279 -25 -360 -6 -294 71 -520 281 -611 566 -152 474 175 984 671 1046 84 11 228 3 310 -17z"></path>
        </g>
    </g>
</svg>